<?xml version="1.0" encoding="utf-8"?>
<!-- Generator: Adobe Illustrator 25.2.0, SVG Export Plug-In . SVG Version: 6.00 Build 0)  -->
<svg version="1.1" id="Layer_1" xmlns="http://www.w3.org/2000/svg" xmlns:xlink="http://www.w3.org/1999/xlink" x="0px" y="0px"
	 viewBox="0 0 46.7 47.6" style="enable-background:new 0 0 46.7 47.6;" xml:space="preserve">
<style type="text/css">
	.st0{fill:#27AE60;}
	.st1{fill:#FFFFFF;}
</style>
<circle class="st0" cx="23.4" cy="23.8" r="23.3"/>
<g>
	<g>
		<path class="st1" d="M26,10.8c0-1.5-1.2-2.7-2.7-2.7s-2.7,1.2-2.7,2.7H18v2.7h10.7v-2.7H26z"/>
	</g>
</g>
<g>
	<g>
		<path class="st1" d="M25.4,26.5h-1v2h1c0.6,0,1-0.5,1-1C26.4,27,25.9,26.5,25.4,26.5z"/>
	</g>
</g>
<g>
	<g>
		<path class="st1" d="M21.3,22.5c-0.6,0-1,0.5-1,1c0,0.6,0.5,1,1,1h1v-2L21.3,22.5L21.3,22.5z"/>
	</g>
</g>
<g>
	<g>
		<path class="st1" d="M30.7,13.5v2H16v-2h-2.7v22.1h20.1V13.5H30.7z M25.4,30.6h-1v1.7h-2v-1.7h-1c-0.8,0-1.6-0.1-2.3-0.4l0.7-1.9
			c0.5,0.2,1.1,0.3,1.7,0.3h1v-2h-1c-1.7,0-3-1.4-3-3c0-1.7,1.4-3,3-3h1v-1.7h2v1.7h1c0.8,0,1.6,0.1,2.3,0.4L27,22.8
			c-0.5-0.2-1.1-0.3-1.7-0.3h-1v2h1c1.7,0,3,1.4,3,3C28.4,29.2,27,30.6,25.4,30.6z"/>
	</g>
</g>
</svg>
