<?xml version="1.0" encoding="utf-8"?>
<!-- Generator: Adobe Illustrator 25.2.0, SVG Export Plug-In . SVG Version: 6.00 Build 0)  -->
<svg version="1.1" id="Layer_1" xmlns="http://www.w3.org/2000/svg" xmlns:xlink="http://www.w3.org/1999/xlink" x="0px" y="0px"
	 viewBox="0 0 46.7 47.6" style="enable-background:new 0 0 46.7 47.6;" xml:space="preserve">
<style type="text/css">
	.st0{fill:#27AE60;}
	.st1{fill:#FFFFFF;}
</style>
<circle class="st0" cx="23.4" cy="23.8" r="23.3"/>
<g>
	<g>
		<g>
			<path class="st1" d="M15.3,36.3h16.1c0.3,0,0.5-0.2,0.5-0.5c0-0.3-0.2-0.5-0.5-0.5H15.3c-0.3,0-0.5,0.2-0.5,0.5
				C14.9,36.1,15.1,36.3,15.3,36.3z"/>
			<path class="st1" d="M29.6,21.1H17.2v6.6h12.3V21.1z M21,23h4.7c0.3,0,0.5,0.2,0.5,0.5c0,0.3-0.2,0.5-0.5,0.5H21
				c-0.3,0-0.5-0.2-0.5-0.5C20.6,23.2,20.8,23,21,23z M27.2,25.8h-7.6c-0.3,0-0.5-0.2-0.5-0.5s0.2-0.5,0.5-0.5h7.6
				c0.3,0,0.5,0.2,0.5,0.5S27.5,25.8,27.2,25.8z"/>
			<path class="st1" d="M19.1,14.5c0.1,0,0.2,0,0.3,0.1l1.1,0.9V9.7h-2.8v5.7l1.1-0.9C18.9,14.5,19,14.5,19.1,14.5z"/>
			<path class="st1" d="M33.8,9.7H21.5v6.6c0,0.2-0.1,0.3-0.3,0.4c-0.1,0-0.1,0-0.2,0c-0.1,0-0.2,0-0.3-0.1l-1.6-1.2l-1.6,1.2
				c-0.1,0.1-0.3,0.1-0.5,0c-0.2-0.1-0.3-0.2-0.3-0.4V9.7h-1.9c-1.3,0-2.4,1.1-2.4,2.4v23.7c0,1.3,1.1,2.4,2.4,2.4h19
				c0.3,0,0.5-0.2,0.5-0.5v-3.8V10.2C34.3,9.9,34.1,9.7,33.8,9.7z M16.3,20.6c0-0.3,0.2-0.5,0.5-0.5H30c0.3,0,0.5,0.2,0.5,0.5v7.6
				c0,0.3-0.2,0.5-0.5,0.5H16.8c-0.3,0-0.5-0.2-0.5-0.5V20.6z M33.4,37.2H14.9c-0.8,0-1.4-0.6-1.4-1.4s0.6-1.4,1.4-1.4h18.5
				L33.4,37.2L33.4,37.2z"/>
		</g>
	</g>
</g>
</svg>
