<?xml version="1.0" encoding="utf-8"?>
<!-- Generator: Adobe Illustrator 25.2.0, SVG Export Plug-In . SVG Version: 6.00 Build 0)  -->
<svg version="1.1" id="Layer_1" xmlns="http://www.w3.org/2000/svg" xmlns:xlink="http://www.w3.org/1999/xlink" x="0px" y="0px"
	 viewBox="0 0 46.7 47.6" style="enable-background:new 0 0 46.7 47.6;" xml:space="preserve">
<style type="text/css">
	.st0{fill:#27AE60;}
	.st1{fill:#FFFFFF;}
	.st2{fill:#FFFFFF;fill-opacity:0;}
</style>
<circle class="st0" cx="23.4" cy="23.8" r="23.3"/>
<path class="st1" d="M24.4,35.1h-15c-1.1,0-2-0.9-2-2v-20c0-1.1,0.9-2,2-2h28c1.1,0,2,0.9,2,2v10.4c-2.8-3.6-8.1-4.3-11.7-1.4
	c-3.4,2.7-4.2,7.6-1.8,11.2l-0.9,1.1L24.4,35.1z M12.4,17.1v1.6h17v-1.6H12.4z M12.4,22.7h11v-1.6h-11V22.7z M12.4,29.7h10v-1.6h-10
	V29.7z"/>
<path class="st1" d="M39.2,28.7c0-3.5-2.8-6.4-6.4-6.4c-3.5,0-6.4,2.8-6.4,6.4c0,1.7,0.7,3.4,2,4.6l-1.9,2.4l0.9,3.6l3.7-4.5
	c1.2,0.3,2.4,0.3,3.6,0l3.7,4.5l0.9-3.6l-1.9-2.4C38.5,32.1,39.2,30.4,39.2,28.7z M28.4,28.7c0-2.4,1.9-4.4,4.3-4.4
	c2.4,0,4.4,1.9,4.4,4.3c0,2.4-1.9,4.4-4.3,4.4c0,0,0,0-0.1,0C30.4,33,28.5,31.1,28.4,28.7L28.4,28.7z"/>
<rect x="5.4" y="5.1" class="st2" width="36" height="36"/>
</svg>
