<?xml version="1.0" encoding="utf-8"?>
<!-- Generator: Adobe Illustrator 25.2.0, SVG Export Plug-In . SVG Version: 6.00 Build 0)  -->
<svg version="1.1" id="Layer_1" xmlns="http://www.w3.org/2000/svg" xmlns:xlink="http://www.w3.org/1999/xlink" x="0px" y="0px"
	 viewBox="0 0 46.7 47.6" style="enable-background:new 0 0 46.7 47.6;" xml:space="preserve">
<style type="text/css">
	.st0{fill:#27AE60;}
	.st1{fill:#FFFFFF;}
</style>
<circle class="st0" cx="23.4" cy="23.8" r="23.3"/>
<g id="XMLID_308_">
	<path id="XMLID_309_" class="st1" d="M17.5,18.2l3.3-3.3l-2.2-2.2l-11,11l15.1,15.1c0,0,0,0,0,0c0.6,0.6,1.6,0.6,2.2,0
		c0.3-0.3,0.5-0.7,0.5-1.1c0-0.4-0.2-0.8-0.5-1.1c0,0,0,0,0,0c0,0,0,0,0,0l-2.2-2.2c-0.6-0.6-0.6-1.6,0-2.2c0.6-0.6,1.6-0.6,2.2,0
		l2.2,2.2c0,0,0,0,0,0c0.6,0.6,1.6,0.6,2.2,0c0.6-0.6,0.6-1.6,0-2.2c0,0,0,0,0,0L27,30c-0.6-0.6-0.6-1.6,0-2.2
		c0.6-0.6,1.6-0.6,2.2,0l2.2,2.2c0,0,0,0,0,0c0.6,0.6,1.6,0.6,2.2,0c0,0,0,0,0,0l0,0c0.3-0.3,0.5-0.7,0.5-1.1c0-0.4-0.2-0.8-0.5-1.1
		l-0.7-0.7c0,0,0,0,0,0l-5.5-5.5l-3.3,3.3c0,0,0,0,0,0c-0.9,0.9-2.1,1.4-3.3,1.4c-1.2,0-2.4-0.5-3.3-1.4
		C15.6,23,15.6,20.1,17.5,18.2C17.5,18.2,17.5,18.2,17.5,18.2z"/>
	<polygon id="XMLID_311_" class="st1" points="15.9,11 16.4,10.5 14.2,8.3 2.4,20.1 4.6,22.3 	"/>
	<path id="XMLID_312_" class="st1" d="M24.1,16C24.1,16,24.1,16,24.1,16C24.1,16,24.1,16,24.1,16l-4.4,4.4c0,0,0,0,0,0
		c-0.6,0.6-0.6,1.6,0,2.2c0.6,0.6,1.6,0.6,2.2,0l4.4-4.4c0.3-0.3,0.7-0.5,1.1-0.5c0.4,0,0.8,0.2,1.1,0.5l6.6,6.6c0,0,0,0,0,0
		l0.7,0.7c0,0,0,0,0,0c0,0,0,0,0,0l1.1,1.1l2.2-2.2L27.4,12.7L24.1,16z"/>
	
		<rect id="XMLID_333_" x="35.4" y="6.8" transform="matrix(0.7071 -0.7071 0.7071 0.7071 -0.2577 30.7171)" class="st1" width="3.1" height="17.7"/>
</g>
</svg>
