<?xml version="1.0" encoding="utf-8"?>
<!-- Generator: Adobe Illustrator 25.2.0, SVG Export Plug-In . SVG Version: 6.00 Build 0)  -->
<svg version="1.1" id="Layer_1" xmlns="http://www.w3.org/2000/svg" xmlns:xlink="http://www.w3.org/1999/xlink" x="0px" y="0px"
	 viewBox="0 0 46.7 47.6" style="enable-background:new 0 0 46.7 47.6;" xml:space="preserve">
<style type="text/css">
	.st0{fill:#27AE60;}
	.st1{fill:#FFFFFF;}
</style>
<circle class="st0" cx="23.4" cy="23.8" r="23.3"/>
<path class="st1" d="M23.3,10.5c0-1.6,1.3-2.8,2.8-2.8c1.6,0,2.8,1.3,2.8,2.8s-1.3,2.8-2.8,2.8C24.6,13.4,23.3,12.1,23.3,10.5z
	 M33.2,17.7v8.8c0,0.7-0.6,1.3-1.3,1.3c-0.7,0-1.3-0.6-1.3-1.3v-8c0-0.2-0.1-0.4-0.4-0.4c-0.2,0-0.4,0.1-0.4,0.4v21.8
	c0,1-0.8,1.8-1.8,1.8s-1.8-0.8-1.8-1.8V27.7c0-0.2-0.1-0.4-0.4-0.4c-0.2,0-0.4,0.1-0.4,0.4v12.5c0,1-0.8,1.8-1.8,1.8
	s-1.8-0.8-1.8-1.8V17.4l-7-7v7l4.7,1.7l-0.2,0.6l1.8,5.8h0h0.3c0,1.4-1.1,2.6-2.6,2.6c-1.4,0-2.6-1.1-2.6-2.6h0.3h0l1.8-5.9
	l-7.4-2.7l1.7,5.6h0h0.3c0,1.4-1.1,2.6-2.6,2.6S8,23.9,8,22.4h0.2h0l1.8-6l-0.1,0l0.3-0.9l4.2,1.5V9.4c-0.1-0.3-0.2-0.6,0-1
	c0.1-0.1,0.1-0.3,0.3-0.4c0.5-0.5,1.3-0.5,1.8,0l5.4,5.4c0.4,0.4,1,0.6,1.5,0.6h6.4C31.7,14.1,33.3,15.7,33.2,17.7z M10.4,16.7
	l-1.7,5.7h3.4L10.4,16.7z M19.1,19.7l-1.8,5.7h3.4L19.1,19.7z"/>
</svg>
