<?xml version="1.0" encoding="utf-8"?>
<!-- Generator: Adobe Illustrator 25.2.0, SVG Export Plug-In . SVG Version: 6.00 Build 0)  -->
<svg version="1.1" id="Layer_1" xmlns="http://www.w3.org/2000/svg" xmlns:xlink="http://www.w3.org/1999/xlink" x="0px" y="0px"
	 viewBox="0 0 46.7 47.6" style="enable-background:new 0 0 46.7 47.6;" xml:space="preserve">
<style type="text/css">
	.st0{fill:#27AE60;}
	.st1{fill:#FFFFFF;}
</style>
<circle class="st0" cx="23.4" cy="23.8" r="23.3"/>
<g>
	<path class="st1" d="M23.4,16c2.1,0,3.8-1.7,3.8-3.8s-1.7-3.8-3.8-3.8s-3.8,1.7-3.8,3.8S21.3,16,23.4,16z"/>
	<path class="st1" d="M24.2,17.3c-0.1-0.1-0.2-0.1-0.3-0.1h-0.9c-0.1,0-0.2,0-0.3,0.1c-0.1,0.1-0.2,0.4-0.1,0.5l0.5,0.8l-0.2,2
		l0.5,1.2c0,0.1,0.2,0.1,0.3,0l0.5-1.2l-0.2-2l0.5-0.8C24.4,17.6,24.3,17.4,24.2,17.3L24.2,17.3z"/>
	<path class="st1" d="M17.5,26.1h11.8c0.3,0,0.5-0.2,0.5-0.5v-4.9c0-1.4-0.9-2.7-2.3-3.2l-1.1-0.3c-0.2-0.1-0.4,0-0.5,0.2l-2.6,7.1
		l-2.6-7.1c-0.1-0.2-0.2-0.3-0.4-0.3c0,0-0.1,0-0.1,0l-1.1,0.3c-1.4,0.5-2.3,1.7-2.3,3.2v4.9C17,25.9,17.2,26.1,17.5,26.1L17.5,26.1
		z"/>
	<path class="st1" d="M11.2,18c2.1,0,3.8-1.7,3.8-3.8c0-2.1-1.7-3.8-3.8-3.8s-3.8,1.7-3.8,3.8C7.3,16.3,9.1,18,11.2,18z"/>
	<path class="st1" d="M17.7,28.5h-3v-6c0-1.9-1.6-3.5-3.5-3.5s-3.5,1.6-3.5,3.5v8.2c0,1.8,1.5,3.3,3.3,3.3h4v5.4
		c0,0.5,0.4,0.9,0.9,0.9h3.6c0.5,0,0.9-0.4,0.9-0.9v-8.1C20.5,29.8,19.2,28.5,17.7,28.5z"/>
	<path class="st1" d="M35.6,18c2.1,0,3.8-1.7,3.8-3.8c0-2.1-1.7-3.8-3.8-3.8s-3.8,1.7-3.8,3.8C31.8,16.3,33.5,18,35.6,18z"/>
	<path class="st1" d="M35.6,19c-1.9,0-3.5,1.6-3.5,3.5v6h-3c-1.6,0-2.8,1.3-2.8,2.8v8.1c0,0.5,0.4,0.9,0.9,0.9h3.6
		c0.5,0,0.9-0.4,0.9-0.9V34h4c1.8,0,3.3-1.5,3.3-3.3v-8.2C39.1,20.6,37.6,19,35.6,19L35.6,19z"/>
</g>
</svg>
