<?xml version="1.0" encoding="utf-8"?>
<!-- Generator: Adobe Illustrator 25.2.0, SVG Export Plug-In . SVG Version: 6.00 Build 0)  -->
<svg version="1.1" id="Layer_1" xmlns="http://www.w3.org/2000/svg" xmlns:xlink="http://www.w3.org/1999/xlink" x="0px" y="0px"
	 viewBox="0 0 500 150" style="enable-background:new 0 0 500 150;" xml:space="preserve">
<style type="text/css">
	.st0{fill:#FBEF04;}
	.st1{opacity:0.72;fill:#FFCF06;enable-background:new    ;}
	.st2{fill:#202120;}
	.st3{fill:#FE0200;}
	.st4{fill:#FFFFFF;}
</style>
<image style="overflow:visible;enable-background:new    ;" width="570" height="150" xlink:href="1.png"  transform="matrix(0.8772 0 0 1 0 0)">
</image>
<g id="_x23_fbef04ff">
	<path class="st0" d="M225.8,40.5C225.8,40.5,225.9,40.5,225.8,40.5c0.1,0.3,0.1,0.6,0.1,0.8C225.7,41.1,225.9,40.7,225.8,40.5z"/>
	<path class="st0" d="M274.9,40.4c0.3,0.2,0,0.6,0.1,0.8h-0.1C274.9,41,274.9,40.7,274.9,40.4z"/>
</g>
<ellipse class="st1" cx="250.6" cy="40.9" rx="22.2" ry="22.1"/>
<g id="_x23_080a08fe">
	<path class="st2" d="M243.2,19.1c2.2-0.8,4.6-1.1,6.8-1.1c0.3,0,0.6,0,0.7,0c2.2,0,4.5,0.4,6.7,1.1c1.8,0.6,3.4,1.4,5,2.3
		c3.2,2.1,5.9,4.9,7.7,8.2c1.4,2.4,2.2,5.1,2.7,7.9c0.2,1,0.3,2.1,0.3,3c0,0.3,0,0.6,0,0.8c0,4.4-1.4,8.7-3.8,12.4
		c-0.5,0.8-1,1.4-1.6,2.1c-2.4,3-5.7,5.3-9.2,6.7c-1.9,0.8-3.8,1.2-5.8,1.4c-2.9,0.3-5.9,0.1-8.7-0.8c-3-0.8-5.8-2.3-8.1-4.3
		c-2.2-1.9-4.2-4.2-5.6-6.8c-1.8-3.2-2.7-7-2.8-10.6c0-0.3,0-0.6,0-0.8c0-3.6,0.9-7.2,2.6-10.4c0.8-1.7,1.9-3.2,3.2-4.6
		C236.1,22.6,239.4,20.4,243.2,19.1 M248.8,18.8L248.8,18.8c-0.6,0.1-1.1,0.2-1.7,0.2c-4,0.5-7.6,2.2-10.7,4.7
		c-1.5,1.2-2.9,2.7-4,4.3c-1.2,1.6-2.1,3.4-2.8,5.3c-0.6,1.8-1.1,3.6-1.2,5.5c0.2,0.1,0.3-0.2,0.4-0.4c0.6-0.5,1.2-1.1,1.8-1.7
		c0.3-0.3,0.6-0.5,0.7-0.9c0.4-1.3,0.9-2.6,1.3-3.9c0.1,0,0.1,0.1,0.1,0.2c0.5,1.3,1,2.5,1.5,3.8c0,0.1,0,0.1,0.1,0.2
		c0.1,0,0.2,0,0.3,0c1.7,0,3.4,0,5,0c0.2-0.2,0.3-0.5,0.4-0.8c0.7-1.2,1.3-2.4,2-3.6c0.4,1.5,0.6,3,1,4.4c0.1,0.3,0.5,0.5,0.7,0.8
		c0.1,0.1,0.2,0.2,0.3,0.4c0.5,0.5,0.9,1.1,1.4,1.6c-0.1,0.1-0.2,0.3-0.3,0.3c-5.4,0-10.8,0-16.2,0c-0.2-0.1-0.3,0-0.4,0.2
		c0,1,0,2.1,0,3.1h0.1c0.1,1.2,0.3,2.5,0.5,3.7c0.4,1.9,1.2,3.7,2.1,5.4c0.1,0,0.1,0,0.1-0.1c0.4-1,0.7-2.1,1.1-3.2
		c0.1-0.1,0-0.3-0.1-0.4c-0.8-1.9-1.7-3.7-2.4-5.6c2,0,4.1,0,6,0c0.3,0.5,0.6,1,0.7,1.6h0.1c0.4-0.5,0.7-1,0.9-1.6
		c2.2,0,4.3,0,6.4,0c-1,2.1-2,4.2-3,6.3c0.2,1.4,0.7,2.8,1,4.2c0.8,3.1,1.6,6.3,2.5,9.4c0.1,0.1,0.2,0.1,0.4,0.1
		c1.3,0.3,2.7,0.7,4,0.6V63c0.9,0,1.9,0,2.8,0c0-0.1,0.2-0.1,0.3-0.1c1.3-0.1,2.6-0.3,3.9-0.6s2.6-0.8,3.8-1.4
		c0.7-0.3,1.5-0.8,2.2-1.2c0.8-0.5,1.5-1,2.2-1.5c0.2-0.2,0.4-0.3,0.6-0.5c0.1-0.1,0.3-0.1,0.3-0.2c0.3-0.4,0.7-0.8,1.1-1.1
		c0.3-0.3,0.6-0.6,0.9-0.9c2.4-2.7,4.1-6,4.8-9.6c0.3-1.2,0.6-2.4,0.5-3.6c0.1,0,0.1-0.1,0.1-0.1c0-0.9,0-1.8,0-2.8h-0.1
		c-0.1-0.6-0.1-1.1-0.2-1.7c-0.6-4.4-2.6-8.6-5.5-11.8c-0.7-0.8-1.5-1.5-2.3-2.1c-0.2-0.2-0.4-0.3-0.6-0.5c-0.1-0.1-0.3-0.2-0.5-0.3
		c0-0.1-0.1-0.2-0.2-0.2c-0.1-0.1-0.2-0.2-0.3-0.2c-0.8-0.5-1.6-1.1-2.6-1.5l0,0c-0.6-0.2-1.1-0.5-1.7-0.7c-1.1-0.5-2.2-0.8-3.4-1
		c-1.1-0.3-2.2-0.5-3.3-0.4v-0.1C250.6,18.7,249.7,18.7,248.8,18.8 M236.4,52.3c-0.2,0.6-0.5,1.1-0.8,1.7c-0.4,0.8-0.8,1.5-1.1,2.3
		c1.4,1.4,3,2.7,4.8,3.7c0-0.1,0-0.2-0.1-0.4c-0.6-1.6-1.2-3.2-1.8-4.9C237.1,54,236.9,53.1,236.4,52.3
		C236.5,52.3,236.5,52.3,236.4,52.3z"/>
</g>
<g id="_x23_fe0200ff">
	<path class="st3" d="M260.2,21.1c0.9,0.4,1.7,0.9,2.6,1.5c0.1,0.1,0.2,0.2,0.3,0.2c0.1,0,0.2,0.1,0.2,0.2c0.1,1.1,0.2,2.3,0.3,3.4
		c0.3,2.5,0.6,5,0.9,7.5c0.5,4.6,1.1,9.1,1.6,13.7c0.2,1.5,0.3,2.9,0.5,4.4c0.1,1.2,0.2,2.3,0.4,3.5c-0.3,0.3-0.5,0.7-0.9,0.9
		c-0.4,0.3-0.8,0.7-1.1,1.1c-0.1,0.1-0.2,0.1-0.3,0.2c-0.4-3.2-0.9-6.4-1.3-9.6c-0.5-3.7-1-7.5-1.5-11.2c-0.1,0-0.2,0.2-0.2,0.3
		c-0.8,3.3-1.6,6.6-2.5,9.9c-0.1,0.1,0,0.3-0.1,0.4c-0.9,0-1.9,0-2.8,0c-0.2,0.1-0.3,0-0.3-0.2c-0.7-2-1.3-4.1-2-6.1
		c0-0.1,0-0.2-0.2-0.2c-0.4,1.3-0.8,2.7-1.3,4c-1.1,0-2.1,0-3.2,0c-0.5-1.4-1-2.9-1.5-4.3c-0.5,0.5-1,1.1-1.4,1.6
		c-0.8,0-1.6,0-2.3,0c-2.2,0-4.3,0-6.5,0c-0.6,0-1.2,0-1.7,0c-2,0-4.1,0-6.1,0c-0.4,0-0.9,0-1.3,0v0.1h-0.1c0-1,0-2.1,0-3.1
		c0.1-0.2,0.2-0.2,0.4-0.2c5.5,0,10.9,0,16.4,0c0.2,0,0.3-0.1,0.3-0.3c0.3-0.5,0.6-1,0.9-1.4c0.9-0.2,1.8-0.1,2.8-0.1
		c0.1,0,0.2-0.1,0.2,0c0.1,0,0.2,0.1,0.2,0.2c0.3,0.6,0.7,1.2,1,1.8c0,0.1,0.1,0.1,0.2,0.1c0.1-0.2,0.2-0.4,0.2-0.6
		c0.4-1.1,0.8-2.1,1.2-3.2c1,0,1.9,0,2.9,0c0.5,1.2,1,2.4,1.5,3.6c0,0.1,0.1,0.2,0.2,0.4c0.2-0.3,0.1-0.6,0.2-0.9
		c0.9-4.5,1.7-9,2.5-13.5C259.7,23.8,260,22.4,260.2,21.1z"/>
</g>
<g>
	<path d="M178.1,90.1c-0.2,3.5-1.2,6.5-3,8.9s-3.9,3.6-6.3,3.7c-1.3-0.1-2.3-0.5-3-1.3s-1.1-1.9-1.2-3.3c0-2.3,0.7-4.7,2.2-7.3
		c0.3-0.5,0.5-0.7,0.5-0.5s0,0.4,0,0.6c-1,1.9-1.5,3.6-1.5,5c0,1.1,0.4,1.9,1.1,2.4c0.7,0.6,1.6,0.9,2.8,0.9c1.4,0,2.8-0.4,4.1-1.1
		c1.3-0.9,2.2-2,2.7-3.5c0.2-0.5,0.3-1.2,0.3-2c0-0.3,0-0.7,0-1.2s0-0.8,0-1.1c0-0.6,0.2-1.3,0.4-2s0.4-1.3,0.6-1.6s0.3-0.5,0.4-0.5
		c0.1,0,0.1,0.1,0.1,0.3s0,0.5,0,1C178.1,87.9,178.1,88.8,178.1,90.1z M173.1,91.7c0,0.2,0,0.5,0,0.7c-0.1,0.3-0.2,0.6-0.4,0.9
		s-0.4,0.6-0.7,0.9c-0.2,0.2-0.3,0.3-0.4,0.3c-0.1,0-0.2-0.1-0.4-0.3s-0.4-0.4-0.6-0.5s-0.4-0.3-0.5-0.4s-0.2-0.2-0.2-0.3
		c0.1-0.3,0.2-0.5,0.3-0.7c0.2-0.5,0.4-0.9,0.6-1.2c0.2-0.3,0.4-0.7,0.7-1.3c0.2,0.2,0.4,0.4,0.7,0.6s0.5,0.4,0.7,0.6
		C173,91.2,173.1,91.4,173.1,91.7z"/>
	<path d="M182,87.6c0,0.8,0,1.5,0,2.2c0,0.6,0,1.2-0.1,1.6c-0.1,1-0.3,1.8-0.5,2.5c-0.3,0.7-0.5,1.2-0.6,1.5s-0.3,0.4-0.4,0.5
		c-0.1,0.1-0.2,0.1-0.3,0.1s-0.1-0.1-0.1-0.2c0,0,0.1-0.4,0.2-1c0.1-0.6,0.2-1.3,0.2-1.9s0-1.5,0-2.6s0-2,0.1-2.5
		c0-0.3,0.1-0.7,0.2-1.1c0.1-0.4,0.2-0.7,0.4-1.1c0.1-0.4,0.3-0.7,0.4-1s0.3-0.6,0.4-0.8c0.1-0.2,0.2-0.2,0.3-0.2s0.1,0.1,0.1,0.2
		s0,0.3-0.1,0.6c0,0.3-0.1,0.7-0.1,1.1s0,0.8-0.1,1.2C182.1,87.1,182,87.4,182,87.6z"/>
	<path d="M190.6,90.9c0.1-0.1,0.3-0.1,0.4-0.1c0.1,0.4,0.2,0.7,0.2,1.1s-0.1,0.7-0.2,1c-0.1,0-0.4,0.1-1,0.4
		c-0.6,0.2-0.9,0.4-1.1,0.4c-0.6,0.2-1.2,0.8-2,1.7c-0.7,0.9-1.4,1.7-1.9,2.4c-1.1,1.4-2.3,2.6-3.7,3.5c-0.3,0.2-0.7,0.4-1.1,0.6
		c-0.6,0.3-1,0.5-1.3,0.6c-0.2,0.1-0.4,0.1-0.5,0.1c-0.1-0.1,0-0.2,0.1-0.3c0.1,0,0.1-0.1,0.2-0.2c0.1-0.1,0.2-0.1,0.3-0.2l1.4-1
		c0.9-0.7,1.4-1.2,1.6-1.4c0.5-0.5,0.9-0.8,1.1-1.1c0.2-0.2,0.5-0.5,0.9-1c0.3-0.3,0.8-1.1,1.7-2.4c0.5-0.7,0.9-1.2,1.2-1.6
		c0.4-0.5,0.8-0.9,1.2-1.2c0.4-0.3,0.8-0.5,1.2-0.7C189.5,91.3,189.9,91.2,190.6,90.9z"/>
	<path d="M193.7,92.9l-0.8,1.8c-0.2,0.5-0.4,0.7-0.6,0.6c-0.1,0-0.1-0.2,0-0.5l0.1-0.6c0-0.2-0.1-0.4-0.4-0.6
		c-0.3-0.2-0.8-0.3-1.3-0.3s-1,0.1-1.3,0.2l-2.3-0.2c1.6-2,3.3-3.1,5-3.1c0.5,0,0.9,0.1,1.2,0.2s0.5,0.3,0.7,0.5l0.1,0.1
		c0,0,0,0,0.1,0.1s0.2,0.2,0.2,0.3c0,0.1,0,0.3,0,0.4c0,0.2-0.1,0.3-0.1,0.4L193.7,92.9z"/>
	<path d="M191.6,78.4c0-0.1,0.2-0.6,0.7-1.5c0.4-0.9,0.7-1.3,0.8-1.3c0.2-0.1,0.5,0.1,0.8,0.4s0.6,0.7,0.8,0.9
		c0.2-0.4,0.5-0.8,0.7-1.2c0.3-0.5,0.4-0.7,0.5-0.7c0.3,0,0.6,0.2,1,0.6s0.6,0.8,0.6,1.1c0,0.4-0.2,0.9-0.6,1.5
		c-0.4,0.6-0.7,0.8-0.9,0.8c-0.1,0-0.3-0.2-0.7-0.5c-0.3-0.3-0.6-0.6-0.8-0.7c-0.6,1.2-1.1,1.8-1.4,1.8c-0.1,0-0.2-0.1-0.4-0.2
		s-0.4-0.3-0.7-0.6C191.7,78.6,191.6,78.5,191.6,78.4z M194.1,92.1c-0.2,0.1-0.3,0.1-0.5,0.1s-0.3,0-0.4-0.1
		c0.4-0.9,0.9-1.7,1.4-2.4c0.6-0.8,1.1-1.4,1.5-1.8s0.7-0.7,1-0.8c0.2-0.1,0.3-0.1,0.4,0c0,0.1-0.1,0.4-0.3,0.9s-0.4,0.9-0.5,1.2
		c-0.1,0.2-0.3,0.4-0.6,0.5c-0.3,0.2-0.7,0.5-1.1,1C194.6,91.3,194.3,91.7,194.1,92.1z"/>
	<path d="M212.5,90.1c-0.2,3.5-1.2,6.5-3,8.9s-3.9,3.6-6.3,3.7c-1.3-0.1-2.3-0.5-3-1.3s-1.1-1.9-1.2-3.3c0-2.3,0.7-4.7,2.2-7.3
		c0.3-0.5,0.5-0.7,0.5-0.5s0,0.4,0,0.6c-1,1.9-1.5,3.6-1.5,5c0,1.1,0.4,1.9,1.1,2.4c0.7,0.6,1.6,0.9,2.8,0.9c1.4,0,2.8-0.4,4.1-1.1
		c1.3-0.9,2.2-2,2.7-3.5c0.2-0.5,0.3-1.2,0.3-2c0-0.3,0-0.7,0-1.2s0-0.8,0-1.1c0-0.6,0.2-1.3,0.4-2s0.4-1.3,0.6-1.6s0.3-0.5,0.4-0.5
		c0.1,0,0.1,0.1,0.1,0.3s0,0.5,0,1C212.6,87.9,212.6,88.8,212.5,90.1z M207.6,91.7c0,0.2,0,0.5,0,0.7c-0.1,0.3-0.2,0.6-0.4,0.9
		s-0.4,0.6-0.7,0.9c-0.2,0.2-0.3,0.3-0.4,0.3c-0.1,0-0.2-0.1-0.4-0.3s-0.4-0.4-0.6-0.5s-0.4-0.3-0.5-0.4s-0.2-0.2-0.2-0.3
		c0.1-0.3,0.2-0.5,0.3-0.7c0.2-0.5,0.4-0.9,0.6-1.2c0.2-0.3,0.4-0.7,0.7-1.3c0.2,0.2,0.4,0.4,0.7,0.6s0.5,0.4,0.7,0.6
		C207.5,91.2,207.6,91.4,207.6,91.7z"/>
	<path d="M215.6,90.7c0,0.4-0.1,0.8-0.1,1.1c-0.1,0.3-0.2,0.6-0.3,0.9c-0.1,0.2-0.2,0.4-0.4,0.5s-0.4,0.2-0.6,0.1
		c0-0.9,0.1-2.1,0.3-3.6s0.4-3.2,0.8-5.1c0.2-0.5,0.5-1.5,1.1-2.9c0.1-0.1,0.1-0.2,0.2-0.2s0.1,0.1,0.1,0.2c0,0.7-0.2,2-0.4,3.9
		s-0.4,3.2-0.4,3.9C215.6,90.2,215.6,90.6,215.6,90.7z"/>
	<path d="M221.2,93.5c-0.3-0.1-0.6-0.1-0.7,0c-0.6,0.2-1.1,0.8-1.7,1.9c-0.6,1.1-1.4,1.6-2.1,1.6c-0.8-0.1-1.4-0.4-1.8-1.1
		s-0.6-1.5-0.6-2.5c0.2-0.6,0.4-1.2,0.6-1.7s0.5-0.8,0.8-1c0,1.1,0.3,1.9,0.8,2.4c0.4,0.4,0.9,0.5,1.4,0.5c0.7,0,1.3-0.3,1.8-1
		c0.4-0.5,0.7-0.8,0.9-1c0.3-0.2,0.5-0.3,0.7-0.3c0,0,0.1,0.2,0.1,0.5c0.1,0.3,0.1,0.5,0.1,0.7s0,0.4-0.1,0.5
		C221.3,93.2,221.3,93.3,221.2,93.5z M215.5,78.8c0-0.1,0.2-0.6,0.7-1.5c0.4-0.9,0.7-1.3,0.8-1.3c0.2-0.1,0.5,0.1,0.8,0.4
		c0.4,0.3,0.6,0.7,0.8,0.9c0.2-0.4,0.5-0.8,0.7-1.2s0.4-0.7,0.5-0.7c0.3,0,0.6,0.2,1,0.6s0.6,0.8,0.6,1.1c0,0.4-0.2,0.9-0.6,1.5
		c-0.4,0.6-0.7,0.8-0.9,0.8c-0.1,0-0.3-0.2-0.7-0.5s-0.6-0.6-0.8-0.7c-0.6,1.2-1.1,1.8-1.4,1.8c-0.1,0-0.2-0.1-0.4-0.2
		s-0.4-0.3-0.7-0.6S215.5,78.9,215.5,78.8z"/>
	<path d="M221.8,91.4c0.2,0.1,0.4,0,0.6-0.1s0.5-0.5,0.8-1.1c0.2,0.1,0.3,0.2,0.4,0.2c0.3,0.1,0.6-0.3,0.9-1.2c0,0,0.1,0,0.3,0.1
		s0.3,0,0.4-0.2c0.1-0.2,0.2-0.4,0.4-0.7c0.1-0.3,0.2-0.5,0.2-0.5c0.1,0,0.1,0,0.1,0.1s0,0.2,0,0.3c-0.1,0.5-0.2,1-0.5,1.5
		c-0.2,0.5-0.4,0.8-0.7,1s-0.5,0.5-0.7,0.7s-0.5,0.4-0.7,0.5s-0.4,0.2-0.6,0.2c-0.8,0.9-1.3,1.3-1.6,1.2c0-0.1-0.1-0.2-0.1-0.4
		s-0.1-0.4-0.1-0.6s0-0.4,0-0.6s0.1-0.4,0.2-0.6L221.8,91.4z"/>
	<path d="M229.6,87.6c0,0.8,0,1.5,0,2.2c0,0.6,0,1.2-0.1,1.6c-0.1,1-0.3,1.8-0.5,2.5c-0.3,0.7-0.5,1.2-0.6,1.5s-0.3,0.4-0.4,0.5
		c-0.1,0.1-0.2,0.1-0.3,0.1s-0.1-0.1-0.1-0.2c0,0,0.1-0.4,0.2-1c0.1-0.6,0.2-1.3,0.2-1.9s0-1.5,0-2.6s0-2,0.1-2.5
		c0-0.3,0.1-0.7,0.2-1.1c0.1-0.4,0.2-0.7,0.4-1.1c0.1-0.4,0.3-0.7,0.4-1s0.3-0.6,0.4-0.8c0.1-0.2,0.2-0.2,0.3-0.2s0.1,0.1,0.1,0.2
		s0,0.3-0.1,0.6c0,0.3-0.1,0.7-0.1,1.1s0,0.8-0.1,1.2C229.6,87.1,229.6,87.4,229.6,87.6z"/>
	<path d="M246.1,89.9c0,0.7-0.1,1.6-0.3,2.6s-0.4,1.8-0.7,2.5c-0.4,1.1-0.8,2-1.3,2.8c-0.3,0.5-0.7,1.1-1.2,1.8
		c-0.9,1.2-1.8,2.1-2.7,2.6c-1.1,0.7-2.3,1-3.6,1c-1.4,0-2.4-0.5-3.2-1.5c-0.6-0.9-1-2-1-3.3c0-0.6,0.1-1.3,0.2-2.1
		c0.1-0.8,0.4-1.6,0.7-2.4s1-2,1.9-3.6c0.1-0.2,0.2-0.3,0.3-0.4s0.2-0.2,0.2-0.1c0.2,0.1,0,0.6-0.4,1.4c-0.3,0.5-0.5,0.9-0.6,1.2
		c-0.3,0.7-0.6,1.4-0.8,2.1s-0.3,1.3-0.3,1.8c0,1.3,0.4,2.2,1.2,2.8c0.6,0.4,1.5,0.6,2.7,0.6c1,0,1.9-0.2,2.7-0.5
		c1.2-0.5,2.3-1.4,3.2-2.6c0.4-0.6,0.8-1.3,1.1-2c0.3-0.8,0.4-1.5,0.4-2.2c0-0.4-0.1-0.7-0.2-0.9c-0.1-0.2-0.3-0.3-0.5-0.3
		c-0.2,0.1-0.4,0.1-0.6,0.1c-0.3,0-0.6-0.1-0.8-0.3c-0.2-0.2-0.3-0.4-0.3-0.8c0.1-0.3,0.2-0.7,0.4-1.2c0.1-0.3,0.3-0.6,0.4-0.9
		c0.2-0.3,0.3-0.5,0.4-0.7c0.2-0.3,0.5-0.4,0.7-0.4c0.5,0,0.9,0.3,1.2,0.9C245.9,88.3,246.1,89,246.1,89.9z M237.2,80.3
		c0-0.1,0.2-0.7,0.7-1.5c0.5-0.9,0.7-1.3,0.9-1.3c0.2-0.1,0.5,0,0.8,0.4c0.4,0.4,0.7,0.7,0.8,1c0.2-0.4,0.5-0.8,0.7-1.3
		c0.3-0.5,0.5-0.7,0.6-0.7c0.3,0,0.6,0.2,1,0.6s0.6,0.8,0.6,1.2c0,0.4-0.2,1-0.6,1.6c-0.4,0.6-0.7,0.9-0.9,0.9
		c-0.1,0-0.3-0.2-0.7-0.5c-0.3-0.3-0.6-0.6-0.9-0.8c-0.6,1.3-1.1,1.9-1.5,1.9c-0.1,0-0.2-0.1-0.4-0.2s-0.4-0.3-0.7-0.6
		C237.3,80.6,237.2,80.4,237.2,80.3z"/>
	<path d="M255.9,86.6c-0.5,2-1.2,3.1-1.8,3.5c-0.9,0.5-1.5,0.8-1.7,0.9c-0.2,0.2-0.3,0.3-0.4,0.4c-0.2,0.3-0.4,0.7-0.6,1.2
		c-0.4,0.9-0.6,1.6-0.9,2.1c-0.4,0.8-0.9,1.3-1.6,1.6c-0.3,0.1-0.8,0.2-1.3,0.3c-0.6,0.1-1,0.2-1.4,0.2c-0.3,0-0.5,0-0.5-0.2
		c0-0.1,0.1-0.2,0.3-0.4c0.1-0.1,0.4-0.3,0.9-0.7c0.1-0.1,0.4-0.3,1.2-0.8c0.6-0.4,0.8-0.6,0.8-0.5c0.6-0.5,1.1-0.9,1.3-1.2
		c0.1-0.1,0.3-0.7,0.8-1.7c0.4-1,0.8-1.7,1-2s0.6-0.6,1.1-0.9c0.2-0.1,0.5-0.3,1-0.5c0.4-0.2,0.7-0.4,0.8-0.5
		c0.2-0.1,0.3-0.4,0.6-0.9c0.2-0.4,0.4-0.6,0.5-0.6C255.9,86.1,256,86.3,255.9,86.6z M251.3,107.6c0,0.1,0.1,0.2,0.2,0.3
		c0.2,0.1,0.5,0.3,0.9,0.6c0.4,0.3,0.6,0.4,0.7,0.4c0.2,0,0.5-0.3,0.8-1s0.6-1.2,0.6-1.5s-0.3-0.6-0.7-1.1c-0.5-0.5-0.8-0.7-1-0.6
		c-0.1,0-0.4,0.4-0.8,1.2C251.5,106.8,251.3,107.4,251.3,107.6z"/>
	<path d="M266.1,88.8c-0.3,0.3-0.6,0.5-0.9,0.6c-0.2,0.1-0.3,0.1-0.4,0.1c-0.2,0-0.5-0.1-0.9-0.2s-0.6-0.2-0.7-0.3
		c-0.2,0-0.5,0.1-0.8,0.3c-1,0.6-1.9,1.7-2.7,3.1c-0.1,0.2-0.3,0.6-0.5,1.1c-0.5,1.2-0.7,2.2-0.7,3.1c0,1.4,0.5,2.5,1.4,3.3
		s2.2,1.3,3.9,1.3c1.3,0,2.6-0.4,4-1.1c1.3-0.7,2.4-1.7,3.4-2.8c0.4-0.6,0.7-1,1-1.3c0.3-0.4,0.5-0.6,0.7-0.5c0.1,0.1,0,0.4-0.4,1.1
		s-0.8,1.4-1.4,2.2c-0.3,0.4-0.7,0.9-1.3,1.5c-0.6,0.7-1.1,1.2-1.5,1.6c-1.2,1-2.1,1.8-2.9,2.2c-1,0.5-2.1,0.8-3.3,0.8
		c-0.6,0-1.2-0.1-1.6-0.2c-1.1-0.3-2-0.9-2.6-1.9c-0.3-0.5-0.6-1.1-0.7-1.7c-0.2-0.6-0.2-1.2-0.2-1.9c0-0.7,0.1-1.7,0.4-2.7
		s0.7-2.1,1.1-3c0.3-0.6,0.6-1.1,0.9-1.6c0.4-0.6,0.7-1.1,0.9-1.4c0.2-0.3,0.5-0.6,0.7-0.8c0.4-0.4,0.9-1,1.6-1.6
		c0.1-0.1,0.2-0.2,0.2-0.3c0-0.2-0.1-0.4-0.3-0.6c-0.2-0.2-0.4-0.2-0.6-0.2c-0.1,0-0.3,0-0.4,0.1c-0.1,0-0.3,0.1-0.4,0.1
		s-0.1-0.2,0-0.3c0.1-0.2,0.2-0.4,0.3-0.5c0.3-0.3,0.7-0.6,1.1-0.9c0.5-0.2,0.9-0.4,1.4-0.4s0.9,0.1,1.4,0.4
		c0.4,0.2,0.6,0.5,0.5,0.9c-0.1,0.2-0.1,0.4-0.2,0.6s-0.3,0.4-0.5,0.6c-0.1,0.1-0.1,0.2,0.1,0.2c0.1,0,0.3,0,0.5,0s0.4-0.1,0.7-0.3
		c0.3-0.2,0.5-0.4,0.7-0.7c0.2-0.3,0.3-0.6,0.3-0.8v-1.1c0-0.3,0-0.6,0.1-0.9c0.2-0.4,0.3-0.8,0.5-1.2l0.7-1.6
		c0-0.1,0.1-0.2,0.2-0.3c0,0,0.1,0.1,0.1,0.3v1.2l-0.1,1.4c0,0.5-0.1,1.1-0.3,1.7c-0.2,0.6-0.4,1.2-0.7,1.7
		C267,87.8,266.5,88.3,266.1,88.8z M263.2,96c0,0.1,0.2,0.2,0.5,0.5s0.6,0.5,0.7,0.6c0.2,0.1,0.3,0.2,0.4,0.2c0.3,0,0.8-0.6,1.4-1.8
		c0.2,0.2,0.5,0.4,0.8,0.7c0.3,0.3,0.5,0.5,0.7,0.5s0.5-0.3,0.9-0.8c0.4-0.6,0.6-1.1,0.6-1.5s-0.2-0.7-0.6-1.1s-0.7-0.6-1-0.6
		c-0.1,0-0.3,0.2-0.5,0.7c-0.3,0.5-0.5,0.9-0.7,1.2c-0.2-0.3-0.5-0.6-0.8-0.9c-0.4-0.3-0.6-0.5-0.8-0.4c-0.1,0-0.4,0.4-0.8,1.3
		C263.5,95.3,263.2,95.8,263.2,96z"/>
	<path d="M277.7,88.3c0,0.3-0.1,0.8-0.3,1.6c-0.2,0.8-0.5,1.6-0.8,2.6c-0.3,0.9-0.6,1.6-0.9,2.1s-0.5,0.8-0.9,1.1
		c-0.3,0.2-0.8,0.5-1.5,0.7s-1.2,0.3-1.7,0.4c-0.4,0.1-0.7,0.1-0.8,0.1c-0.1,0-0.2-0.1-0.2-0.1c0-0.1,0-0.2,0.1-0.3
		c0.1-0.2,0.4-0.4,0.9-0.7c0.5-0.3,1-0.7,1.7-1.1c0.6-0.5,1.1-0.9,1.4-1.2c0.3-0.3,0.6-0.9,0.9-1.5s0.7-1.4,0.9-2.1
		c0.3-0.7,0.5-1.2,0.6-1.4c0.1-0.3,0.2-0.4,0.4-0.4C277.6,88,277.7,88.1,277.7,88.3z M276.3,81.3c0-0.2,0.2-0.8,0.6-1.6
		s0.7-1.2,0.8-1.2c0.2-0.1,0.6,0.1,1,0.6c0.5,0.5,0.7,0.8,0.7,1.1c0,0.4-0.2,0.9-0.6,1.5c-0.4,0.7-0.7,1-0.8,1
		c-0.1,0-0.3-0.2-0.7-0.4c-0.4-0.3-0.7-0.5-0.9-0.6C276.4,81.5,276.3,81.4,276.3,81.3z"/>
	<path d="M284.3,92.3c-0.4,1.1-0.7,1.9-1.1,2.4c-0.3,0.5-0.6,0.8-0.8,0.9c-0.2,0.1-0.5,0.3-0.8,0.4c-0.4,0.1-0.9,0.3-1.7,0.6
		c-0.8,0.2-1.2,0.4-1.3,0.4c-0.1,0-0.1,0-0.1-0.1c-0.1-0.1,0.4-0.5,1.4-1.2s1.6-1.1,1.9-1.3c0.3-0.2,0.6-0.5,0.9-0.9
		s0.5-0.9,0.7-1.4c-0.2,0-0.3,0-0.5,0.1s-0.3,0.1-0.5,0.1c-0.4,0-0.7-0.1-1-0.4S281,91.3,281,91c0-0.2,0.1-0.4,0.2-0.7
		c0.1-0.2,0.3-0.6,0.5-1.2c0.3-0.5,0.5-1,0.8-1.3s0.5-0.5,0.8-0.5c0.4,0,0.8,0.2,1.1,0.6c0.3,0.4,0.4,0.9,0.4,1.4c0,0.3,0,0.6,0,0.8
		c0,0.3-0.1,0.5-0.1,0.7s-0.1,0.4-0.2,0.7C284.5,91.8,284.4,92,284.3,92.3z"/>
	<path d="M283.3,76.7c0-0.1,0.2-0.6,0.7-1.5c0.4-0.9,0.7-1.3,0.8-1.3c0.2-0.1,0.5,0.1,0.8,0.4c0.4,0.3,0.6,0.7,0.8,0.9
		c0.2-0.4,0.5-0.8,0.7-1.2c0.3-0.5,0.4-0.7,0.5-0.7c0.3,0,0.6,0.2,1,0.6s0.6,0.8,0.6,1.1c0,0.4-0.2,0.9-0.6,1.5s-0.7,0.8-0.9,0.8
		c-0.1,0-0.3-0.2-0.7-0.5c-0.3-0.3-0.6-0.6-0.8-0.7c-0.6,1.2-1.1,1.8-1.4,1.8c-0.1,0-0.2-0.1-0.4-0.2c-0.2-0.1-0.4-0.3-0.7-0.6
		S283.3,76.8,283.3,76.7z M283.9,91c0-0.1-0.1-0.4-0.2-0.9c0-0.2,0-0.3,0-0.4c0-0.3,0.2-0.5,0.7-0.7c0.2-0.1,0.4-0.2,0.6-0.5
		c0.2-0.2,0.4-0.4,0.4-0.6s0-0.3,0-0.4s0-0.3,0-0.5c0-0.1,0-0.3,0-0.5c0-0.1,0-0.2,0-0.3c0-0.1,0.5-1.2,1.3-3.2
		c0.1-0.1,0.2-0.1,0.2,0s0,0.2,0,0.4V86c0,0.9-0.2,1.8-0.6,2.7c-0.4,0.8-0.7,1.4-1,1.7c-0.3,0.3-0.6,0.6-0.9,1
		C284.2,91.8,284,91.7,283.9,91z"/>
	<path d="M310.9,91c-0.4,0-0.7,0-1,0.1c-0.2,0.1-0.5,0.2-0.8,0.4c-0.3,0.2-0.5,0.5-0.8,0.9c-0.1,0.2-0.3,0.4-0.4,0.6
		s-0.3,0.4-0.4,0.6c-0.3,0.4-0.7,0.8-1.1,1.1c-1,0.8-2.5,1.4-4.5,1.8c-1.9,0.4-4.1,0.6-6.4,0.6c-0.9,0-1.7,0-2.5-0.1
		c-0.9-0.1-1.5-0.3-2-0.5c-0.7-0.4-1-1.2-1-2.4c0-0.7,0.1-1.5,0.2-2.3s0.2-1.2,0.4-1.2c0.1,0,0.2,0.3,0.2,0.8
		c0.1,0.5,0.2,0.9,0.5,1.2s0.8,0.5,1.4,0.7c0.7,0.2,1.6,0.3,2.9,0.3c1,0,2.2,0,3.5-0.1s2.3-0.1,3.2-0.3c0.8-0.1,1.8-0.3,3-0.7
		c0.8-0.2,1.4-0.5,1.9-0.8s0.9-0.6,1.2-0.9c0,0,0.2-0.2,0.4-0.6c0.3-0.4,0.5-0.6,0.6-0.8c0.3-0.4,0.8-0.6,1.3-0.7
		c0.4,0.2,0.5,0.6,0.5,1.1C311.3,90.4,311.1,90.8,310.9,91z M296,87.3c0-0.1,0.2-0.6,0.7-1.5c0.4-0.9,0.7-1.3,0.8-1.3
		c0.2-0.1,0.5,0.1,0.8,0.4s0.6,0.7,0.8,0.9c0.2-0.4,0.5-0.8,0.7-1.2s0.4-0.7,0.5-0.7c0.3,0,0.6,0.2,1,0.6s0.6,0.8,0.6,1.1
		c0,0.4-0.2,0.9-0.6,1.5s-0.7,0.8-0.9,0.8c-0.1,0-0.3-0.2-0.7-0.5s-0.6-0.6-0.8-0.7c-0.6,1.2-1.1,1.8-1.4,1.8
		c-0.1,0-0.2-0.1-0.4-0.2c-0.2-0.1-0.4-0.3-0.7-0.6C296.2,87.5,296,87.4,296,87.3z"/>
	<path d="M310.9,91c-0.1-0.4-0.2-0.7-0.2-1.1s0-0.7,0.2-1.1c0.3,0,0.6,0,0.8,0.1c0.3,0.1,0.5-0.1,0.7-0.5c0.1-0.2,0.2-0.6,0.2-1.1
		c0.1-0.5,0.1-1,0.1-1.3v-4.6l0.8-2.4l0.5-1.7c0.1-0.2,0.2-0.2,0.2-0.1c0,0,0,0.2,0,0.4c0,0.5,0,1-0.1,1.5c0,0.6-0.1,1.1-0.1,1.6
		c-0.1,2.9-0.2,4.6-0.2,5.3c-0.1,0.7-0.2,1.3-0.4,1.8c-0.2,0.5-0.4,1-0.6,1.4c-0.3,0.5-0.6,0.9-0.8,1.2c-0.3,0.4-0.6,0.5-0.8,0.5
		C311.1,91,311,91,310.9,91z M315.7,74.6c0.4-0.5,1.5-1.4,3.1-2.8c1.3-1,2.7-2.2,4.3-3.5c1-0.8,1.9-1.7,2.9-2.6
		c0.5-0.5,1.4-1.4,2.6-2.6c1.7-1.6,2.5-2.5,2.5-2.5c0,0.1,0,0.2-0.1,0.3c-0.1,0.4-0.3,0.8-0.6,1.4c-0.3,0.6-0.6,1.1-0.9,1.4
		c-0.3,0.4-0.7,0.9-1.1,1.4c-0.6,0.6-0.9,1-1,1.1c-0.3,0.3-0.8,0.8-1.7,1.6c-0.3,0.3-0.7,0.6-1.1,1c-0.5,0.4-1,0.9-1.6,1.4
		c-0.8,0.7-1.6,1.3-2.3,1.9c-0.9,0.7-1.8,1.4-2.7,2.1l-2.3,1.8c-0.2,0.1-0.3,0.3-0.5,0.4s-0.3,0.2-0.5,0.4c-0.3,0.3-0.5,0.3-0.5,0.3
		c0.2-0.4,0.4-0.9,0.6-1.4C315.2,75.3,315.5,74.9,315.7,74.6z"/>
	<path d="M322.6,87.5c0.1-0.1,0.2-0.1,0.4-0.1c0.1,0,0.2,0,0.3-0.1c0.2,0.3,0.3,0.6,0.4,0.9s0.1,0.6,0.1,0.9s-0.1,0.6-0.2,0.8
		c-0.1,0.3-0.2,0.5-0.3,0.7c-0.2,0-0.4,0-0.7,0c-0.3,0-0.6,0-1,0.1c-0.3,0.1-0.7,0.3-1.3,0.5c-0.8,0.5-1.5,1-2,1.7s-1.2,1.6-1.9,2.7
		c-0.8,1.1-1.5,2-2.3,2.8s-1.4,1.4-1.9,1.7c-0.5,0.4-1,0.7-1.4,1s-0.9,0.5-1.4,0.7c0,0-0.1,0-0.2,0.1c-0.1,0-0.2,0.1-0.3,0.1
		c-0.2,0.1-0.3,0.1-0.5,0c0-0.1,0-0.2,0.1-0.3c0.2-0.2,0.5-0.4,0.9-0.8c0.5-0.3,1.1-0.8,1.8-1.3c0.7-0.5,1.3-1.2,2-1.9
		c0.7-0.8,1.3-1.6,2-2.6c0.3-0.4,0.6-0.8,0.8-1.2c1-1.4,1.6-2.3,1.9-2.7c0.8-1,1.6-1.8,2.4-2.4C321.1,88.2,321.9,87.7,322.6,87.5z"
		/>
	<path d="M329.9,84.2c-0.5,1.2-0.9,1.8-1.3,1.8c-0.2,0-0.5,0-0.7,0.1s-0.4,0.2-0.6,0.3s-0.4,0.4-0.7,0.8c-0.9,1.6-1.6,2.6-1.9,2.9
		c-0.3,0.4-0.8,0.5-1.4,0.5c-0.3-1.1-0.3-2.2,0-3.3c0.4-0.1,0.8-0.1,1.3-0.1s0.7,0,0.6,0c0.2,0,0.5-0.2,0.7-0.5
		c0.1-0.1,0.3-0.4,0.5-0.7c0.1-0.2,0.4-0.5,0.7-0.9c0.3-0.4,0.7-0.7,1.1-0.8c0.4-0.1,0.7-0.1,1-0.1c0.2-0.2,0.3-0.5,0.4-0.7
		s0.2-0.3,0.3-0.4c0.1-0.1,0.2,0,0.2,0.2S330,83.8,329.9,84.2z M325,76.8c0-0.1,0.2-0.7,0.7-1.5s0.8-1.3,0.9-1.3
		c0.2,0,0.5,0.2,0.9,0.5s0.7,0.6,0.8,0.9c0.2-0.4,0.5-0.8,0.7-1.2c0.3-0.5,0.5-0.8,0.6-0.8c0.3,0,0.6,0.2,1.1,0.6
		c0.4,0.4,0.6,0.8,0.6,1.2s-0.2,0.9-0.6,1.5s-0.7,0.9-0.9,0.9c-0.2,0-0.4-0.1-0.7-0.4c-0.4-0.4-0.7-0.7-1-0.9
		c-0.6,1.3-1.1,1.9-1.5,1.9c-0.1,0-0.4-0.2-0.9-0.6C325.2,77.1,325,76.9,325,76.8z M326.6,72.6c0-0.1,0.2-0.6,0.7-1.5
		c0.4-0.9,0.7-1.3,0.9-1.3c0.3,0,0.7,0.2,1.1,0.6s0.6,0.8,0.6,1.2s-0.2,0.9-0.6,1.5c-0.4,0.7-0.6,1-0.8,1c-0.1,0-0.3-0.2-0.7-0.5
		c-0.4-0.3-0.6-0.5-0.8-0.7C326.7,72.9,326.6,72.7,326.6,72.6z"/>
</g>
<path d="M148.1,133.3h207.1c4.6,0.6,8.6-4,8.7-9.4c0.1-5.5-3.9-10.3-8.7-9.6c-69,0-138.1,0-207.1,0c-4,0.4-7,4.8-6.9,9.7
	C141.3,128.8,144.3,132.9,148.1,133.3z"/>
<g>
	<path class="st4" d="M145.5,118.3h6v1.2h-6V118.3z M147.9,119h1.2v7.9h-1.2V119z"/>
	<path class="st4" d="M153.4,126.7c-0.4-0.2-0.7-0.5-0.9-0.9s-0.3-0.9-0.3-1.5v-0.7c0-0.6,0.1-1.1,0.3-1.6c0.2-0.4,0.5-0.8,0.9-1
		s0.8-0.3,1.4-0.3c0.5,0,0.9,0.1,1.3,0.4s0.6,0.6,0.8,1.1s0.3,1.1,0.3,1.8v0.4H153v-1h3c0-0.5-0.2-0.9-0.4-1.2s-0.5-0.4-0.9-0.4
		c-0.5,0-0.8,0.2-1.1,0.5c-0.2,0.3-0.4,0.7-0.4,1.3v0.8c0,0.5,0.1,0.9,0.4,1.2c0.3,0.3,0.6,0.4,1.1,0.4c0.2,0,0.5,0,0.7-0.1
		s0.5-0.2,0.6-0.4l0.8,0.8c-0.3,0.3-0.6,0.5-1,0.7s-0.8,0.2-1.1,0.2C154.3,127,153.8,126.9,153.4,126.7z"/>
	<path class="st4" d="M158.8,118.3h1.2v8.6h-1.2V118.3z M162.5,123.2c0-0.4-0.1-0.8-0.3-1s-0.5-0.4-0.9-0.4s-0.7,0.1-0.9,0.3
		s-0.3,0.5-0.3,0.9l-0.1-1.2c0.2-0.4,0.4-0.6,0.7-0.8c0.3-0.2,0.6-0.3,1-0.3c0.7,0,1.2,0.2,1.5,0.7s0.5,1.1,0.5,1.9v3.7h-1.2V123.2z
		"/>
	<path class="st4" d="M165.5,120.8h1.2v6.2h-1.2V120.8z M168.4,121.9c-0.2-0.1-0.3-0.1-0.6-0.1c-0.4,0-0.7,0.1-0.9,0.3
		s-0.3,0.5-0.3,0.9l-0.1-1.2c0.2-0.4,0.4-0.7,0.7-0.9c0.3-0.2,0.6-0.3,1-0.3c0.3,0,0.5,0,0.8,0.1s0.4,0.2,0.6,0.4l-0.8,1.1
		C168.7,122.1,168.6,122,168.4,121.9z"/>
	<path class="st4" d="M170.9,126.5c-0.4-0.3-0.6-0.8-0.6-1.4s0.2-1.1,0.5-1.4s0.9-0.5,1.5-0.5h1.7l0.1,1h-1.8
		c-0.3,0-0.5,0.1-0.7,0.2s-0.2,0.4-0.2,0.6c0,0.3,0.1,0.5,0.3,0.7s0.5,0.2,0.9,0.2c0.5,0,0.8,0,1-0.1s0.3-0.3,0.3-0.5l0.1,0.9
		c-0.1,0.2-0.2,0.3-0.4,0.4s-0.3,0.2-0.5,0.2s-0.4,0.1-0.7,0.1C171.8,127,171.2,126.9,170.9,126.5z M174,123c0-0.4-0.1-0.7-0.3-0.9
		c-0.2-0.2-0.5-0.3-0.9-0.3c-0.2,0-0.5,0-0.7,0.1s-0.4,0.2-0.6,0.3l-0.9-0.6c0.2-0.3,0.5-0.5,0.9-0.7s0.8-0.2,1.3-0.2
		s0.9,0.1,1.3,0.3s0.6,0.4,0.8,0.8s0.3,0.8,0.3,1.2v4H174V123z"/>
	<path class="st4" d="M177,120.8h1.2v6.2H177V120.8z M180.7,123.2c0-0.4-0.1-0.8-0.3-1s-0.5-0.4-0.9-0.4s-0.7,0.1-0.9,0.3
		s-0.3,0.5-0.3,0.9l-0.1-1.2c0.2-0.4,0.4-0.7,0.7-0.9c0.3-0.2,0.6-0.3,1-0.3c0.7,0,1.2,0.2,1.5,0.7s0.5,1.1,0.5,1.9v3.7h-1.2V123.2z
		"/>
	<path class="st4" d="M187,118.3h1.2v8.6H187V118.3z M187.6,118.3h4.9v1.2h-4.9V118.3z M187.6,122.1h4.2v1.2h-4.2V122.1z
		 M187.6,125.8h4.9v1.2h-4.9V125.8z"/>
	<path class="st4" d="M195.3,125.3c0,0.2,0,0.3,0.1,0.3s0.2,0.1,0.3,0.1h0.6v1.2h-0.7c-0.5,0-0.8-0.1-1.1-0.4s-0.4-0.7-0.4-1.2v-7
		h1.2L195.3,125.3L195.3,125.3z"/>
	<path class="st4" d="M198.6,126.7c-0.4-0.2-0.7-0.5-0.9-0.9s-0.3-0.9-0.3-1.5v-0.7c0-0.6,0.1-1.1,0.3-1.6c0.2-0.4,0.5-0.8,0.9-1
		s0.8-0.3,1.4-0.3c0.5,0,0.9,0.1,1.3,0.4s0.6,0.6,0.8,1.1s0.3,1.1,0.3,1.8v0.4h-4.1v-1h3c0-0.5-0.2-0.9-0.4-1.2s-0.5-0.4-0.9-0.4
		c-0.5,0-0.8,0.2-1.1,0.5c-0.2,0.3-0.4,0.7-0.4,1.3v0.8c0,0.5,0.1,0.9,0.4,1.2c0.3,0.3,0.6,0.4,1.1,0.4c0.2,0,0.5,0,0.7-0.1
		s0.5-0.2,0.6-0.4l0.8,0.8c-0.3,0.3-0.6,0.5-1,0.7s-0.8,0.2-1.1,0.2C199.5,127,199,126.9,198.6,126.7z"/>
	<path class="st4" d="M205,126.7c-0.4-0.2-0.7-0.5-0.9-0.9s-0.3-0.9-0.3-1.5v-1c0-0.6,0.1-1,0.3-1.4s0.5-0.7,0.9-0.9
		c0.4-0.2,0.9-0.3,1.4-0.3c0.3,0,0.6,0,0.9,0.1c0.3,0.1,0.5,0.2,0.8,0.3s0.4,0.3,0.6,0.5l-0.9,0.8c-0.2-0.2-0.4-0.4-0.6-0.5
		c-0.2-0.1-0.5-0.2-0.7-0.2c-0.5,0-0.8,0.1-1.1,0.4s-0.4,0.6-0.4,1.1v1c0,0.5,0.1,0.9,0.4,1.1s0.6,0.4,1.1,0.4
		c0.3,0,0.5-0.1,0.7-0.2s0.4-0.3,0.6-0.5l0.9,0.8c-0.2,0.2-0.3,0.4-0.6,0.5c-0.2,0.1-0.5,0.3-0.8,0.3s-0.6,0.1-0.9,0.1
		C205.9,127,205.4,126.9,205,126.7z"/>
	<path class="st4" d="M209.5,120.8h2.7v1.1h-2.7V120.8z M210.5,126.5c-0.2-0.3-0.3-0.7-0.3-1.2v-6.4h1.2v6.4c0,0.2,0,0.3,0.1,0.3
		s0.1,0.1,0.3,0.1h0.6v1.2h-0.7C211,127,210.7,126.8,210.5,126.5z"/>
	<path class="st4" d="M213.9,120.8h1.2v6.2h-1.2V120.8z M216.8,121.9c-0.2-0.1-0.3-0.1-0.6-0.1c-0.4,0-0.7,0.1-0.9,0.3
		s-0.3,0.5-0.3,0.9l-0.1-1.2c0.2-0.4,0.4-0.7,0.7-0.9c0.3-0.2,0.6-0.3,1-0.3c0.3,0,0.5,0,0.8,0.1s0.4,0.2,0.6,0.4l-0.8,1.1
		C217.1,122.1,217,122,216.8,121.9z"/>
	<path class="st4" d="M219,118.3h1.2v1.2H219V118.3z M219,120.8h1.2v6.2H219V120.8z"/>
	<path class="st4" d="M223,126.7c-0.4-0.2-0.7-0.5-0.9-0.9s-0.3-0.9-0.3-1.5v-1c0-0.6,0.1-1,0.3-1.4s0.5-0.7,0.9-0.9
		c0.4-0.2,0.9-0.3,1.4-0.3c0.3,0,0.6,0,0.9,0.1c0.3,0.1,0.5,0.2,0.8,0.3s0.4,0.3,0.6,0.5l-0.9,0.8c-0.2-0.2-0.4-0.4-0.6-0.5
		c-0.2-0.1-0.5-0.2-0.7-0.2c-0.5,0-0.8,0.1-1.1,0.4s-0.4,0.6-0.4,1.1v1c0,0.5,0.1,0.9,0.4,1.1s0.6,0.4,1.1,0.4
		c0.3,0,0.5-0.1,0.7-0.2s0.4-0.3,0.6-0.5l0.9,0.8c-0.2,0.2-0.3,0.4-0.6,0.5c-0.2,0.1-0.5,0.3-0.8,0.3s-0.6,0.1-0.9,0.1
		C223.9,127,223.4,126.9,223,126.7z"/>
	<path class="st4" d="M228,118.3h1.2v1.2H228V118.3z M228,120.8h1.2v6.2H228V120.8z"/>
	<path class="st4" d="M230.5,120.8h2.7v1.1h-2.7V120.8z M231.5,126.5c-0.2-0.3-0.3-0.7-0.3-1.2v-6.4h1.2v6.4c0,0.2,0,0.3,0.1,0.3
		s0.1,0.1,0.3,0.1h0.6v1.2h-0.7C232.1,127,231.7,126.8,231.5,126.5z"/>
	<path class="st4" d="M234.3,120.8h1.2l1.9,5.4l-0.7,1.3L234.3,120.8z M239.6,120.8l-2.6,7.6c-0.1,0.3-0.2,0.5-0.4,0.7
		s-0.3,0.3-0.6,0.4c-0.2,0.1-0.5,0.1-0.8,0.1H235v-1.3h0.2c0.2,0,0.4,0,0.5-0.1s0.2-0.2,0.3-0.5l2.2-7L239.6,120.8L239.6,120.8z"/>
	<path class="st4" d="M244,118.3h1.2v8.6H244V118.3z M244.8,125.8h1.9c0.6,0,1.1-0.2,1.5-0.5s0.5-0.8,0.5-1.4v-2.6
		c0-0.6-0.2-1.1-0.5-1.4s-0.8-0.5-1.5-0.5h-1.9v-1.1h1.9c0.7,0,1.3,0.1,1.8,0.4c0.5,0.2,0.9,0.6,1.1,1.1s0.4,1,0.4,1.7v2.5
		c0,0.7-0.1,1.2-0.4,1.7s-0.6,0.8-1.1,1.1c-0.5,0.2-1.1,0.4-1.8,0.4h-1.9V125.8z"/>
	<path class="st4" d="M251.8,118.3h1.2v1.2h-1.2V118.3z M251.8,120.8h1.2v6.2h-1.2V120.8z"/>
	<path class="st4" d="M256,126.9c-0.3-0.1-0.6-0.2-0.9-0.3s-0.5-0.3-0.8-0.5l0.7-0.9c0.3,0.3,0.7,0.4,1,0.6c0.3,0.2,0.6,0.2,1,0.2
		c0.5,0,0.8-0.1,1.1-0.2c0.2-0.1,0.4-0.4,0.4-0.7c0-0.2-0.1-0.3-0.2-0.4s-0.3-0.2-0.5-0.2s-0.5-0.1-0.8-0.1h-0.1h-0.1l0,0l0,0
		c-0.4,0-0.7-0.1-1-0.2s-0.5-0.2-0.7-0.5c-0.2-0.2-0.3-0.6-0.3-1s0.1-0.8,0.3-1.1s0.4-0.5,0.8-0.7c0.4-0.2,0.8-0.2,1.3-0.2
		c0.3,0,0.6,0,0.9,0.1s0.6,0.1,0.8,0.3c0.3,0.1,0.5,0.3,0.8,0.4l-0.7,0.9c-0.3-0.2-0.6-0.3-0.9-0.4s-0.6-0.1-0.9-0.1
		c-0.4,0-0.7,0.1-0.9,0.2s-0.3,0.4-0.3,0.6s0.1,0.3,0.2,0.4s0.3,0.1,0.4,0.2c0.2,0,0.4,0.1,0.8,0.1c0,0,0,0,0.1,0s0.1,0,0.1,0l0,0
		l0,0c0.4,0,0.8,0.1,1.1,0.2c0.3,0.1,0.5,0.3,0.8,0.5s0.3,0.6,0.3,1.1c0,0.4-0.1,0.8-0.3,1.1s-0.5,0.5-0.8,0.7s-0.9,0.2-1.4,0.2
		C256.6,127,256.3,127,256,126.9z"/>
	<path class="st4" d="M260.6,120.8h2.7v1.1h-2.7V120.8z M261.5,126.5c-0.2-0.3-0.3-0.7-0.3-1.2v-6.4h1.2v6.4c0,0.2,0,0.3,0.1,0.3
		s0.1,0.1,0.3,0.1h0.6v1.2h-0.7C262.1,127,261.8,126.8,261.5,126.5z"/>
	<path class="st4" d="M264.9,120.8h1.2v6.2h-1.2V120.8z M267.9,121.9c-0.2-0.1-0.3-0.1-0.6-0.1c-0.4,0-0.7,0.1-0.9,0.3
		s-0.3,0.5-0.3,0.9l-0.1-1.2c0.2-0.4,0.4-0.7,0.7-0.9c0.3-0.2,0.6-0.3,1-0.3c0.3,0,0.5,0,0.8,0.1s0.4,0.2,0.6,0.4l-0.8,1.1
		C268.2,122.1,268.1,122,267.9,121.9z"/>
	<path class="st4" d="M270.1,118.3h1.2v1.2h-1.2V118.3z M270.1,120.8h1.2v6.2h-1.2V120.8z"/>
	<path class="st4" d="M273.1,118.3h1.2v8.6h-1.2V118.3z M274.8,126.7c-0.3-0.2-0.5-0.4-0.6-0.8l0.1-1.3c0,0.3,0,0.5,0.1,0.7
		s0.2,0.3,0.4,0.4c0.2,0.1,0.4,0.1,0.6,0.1c0.4,0,0.7-0.1,0.9-0.4s0.3-0.6,0.3-1v-1.3c0-0.5-0.1-0.8-0.3-1.1s-0.5-0.4-0.9-0.4
		c-0.3,0-0.5,0-0.6,0.1c-0.2,0.1-0.3,0.2-0.4,0.4s-0.1,0.4-0.1,0.7l-0.1-1.2c0.2-0.4,0.4-0.6,0.7-0.8s0.6-0.3,1-0.3s0.8,0.1,1.1,0.3
		s0.5,0.5,0.7,0.9s0.2,0.8,0.2,1.4v1.3c0,0.5-0.1,1-0.2,1.3s-0.4,0.7-0.7,0.9s-0.7,0.3-1.1,0.3C275.4,127,275.1,126.9,274.8,126.7z"
		/>
	<path class="st4" d="M280.8,124.5c0,0.4,0.1,0.8,0.3,1c0.2,0.2,0.5,0.4,0.9,0.4s0.7-0.1,0.9-0.3s0.3-0.5,0.3-0.9l0.1,1.3
		c-0.1,0.3-0.3,0.6-0.6,0.8s-0.6,0.3-1,0.3c-0.7,0-1.2-0.2-1.6-0.7c-0.4-0.4-0.5-1.1-0.5-1.9v-3.8h1.2L280.8,124.5L280.8,124.5z
		 M283.3,120.8h1.2v6.2h-1.2V120.8z"/>
	<path class="st4" d="M285.8,120.8h2.7v1.1h-2.7V120.8z M286.8,126.5c-0.2-0.3-0.3-0.7-0.3-1.2v-6.4h1.2v6.4c0,0.2,0,0.3,0.1,0.3
		s0.1,0.1,0.3,0.1h0.6v1.2H288C287.4,127,287,126.8,286.8,126.5z"/>
	<path class="st4" d="M290.2,118.3h1.2v1.2h-1.2V118.3z M290.2,120.8h1.2v6.2h-1.2V120.8z"/>
	<path class="st4" d="M294.2,126.7c-0.4-0.2-0.7-0.5-0.9-0.9s-0.3-0.9-0.3-1.5v-1c0-0.6,0.1-1,0.3-1.4s0.5-0.7,0.9-0.9
		c0.4-0.2,0.8-0.3,1.4-0.3s1,0.1,1.4,0.3c0.4,0.2,0.7,0.5,0.9,0.9s0.3,0.9,0.3,1.4v1c0,0.6-0.1,1-0.3,1.4s-0.5,0.7-0.9,0.9
		c-0.4,0.2-0.8,0.3-1.4,0.3S294.6,126.9,294.2,126.7z M296.5,125.5c0.2-0.3,0.3-0.6,0.3-1.1v-1c0-0.5-0.1-0.9-0.3-1.1
		s-0.6-0.4-1-0.4s-0.7,0.1-1,0.4s-0.3,0.6-0.3,1.1v1c0,0.5,0.1,0.9,0.3,1.1s0.6,0.4,1,0.4S296.3,125.7,296.5,125.5z"/>
	<path class="st4" d="M299.7,120.8h1.2v6.2h-1.2V120.8z M303.4,123.2c0-0.4-0.1-0.8-0.3-1c-0.2-0.2-0.5-0.4-0.9-0.4
		s-0.7,0.1-0.9,0.3s-0.3,0.5-0.3,0.9l-0.1-1.2c0.2-0.4,0.4-0.7,0.7-0.9c0.3-0.2,0.6-0.3,1-0.3c0.7,0,1.2,0.2,1.5,0.7
		s0.5,1.1,0.5,1.9v3.7h-1.2L303.4,123.2L303.4,123.2z"/>
	<path class="st4" d="M311,126.6c-0.4-0.3-0.8-0.6-1-1.1s-0.4-1.1-0.4-1.7v-2.4c0-0.6,0.1-1.2,0.4-1.7c0.2-0.5,0.6-0.9,1-1.1
		s1-0.4,1.6-0.4c0.5,0,0.9,0.1,1.3,0.3s0.8,0.5,1,0.9s0.5,0.8,0.6,1.3h-1.2c-0.1-0.3-0.2-0.5-0.4-0.7c-0.2-0.2-0.4-0.4-0.6-0.5
		s-0.5-0.2-0.7-0.2c-0.3,0-0.7,0.1-0.9,0.3c-0.3,0.2-0.5,0.4-0.6,0.7s-0.2,0.7-0.2,1.1v2.4c0,0.4,0.1,0.8,0.2,1.1
		c0.1,0.3,0.3,0.5,0.6,0.7c0.3,0.2,0.6,0.3,0.9,0.3s0.5-0.1,0.7-0.2s0.4-0.3,0.6-0.5s0.3-0.5,0.4-0.8h1.2c-0.1,0.5-0.3,1-0.6,1.4
		s-0.6,0.7-1,0.9c-0.4,0.2-0.9,0.3-1.3,0.3C312,127,311.5,126.9,311,126.6z"/>
	<path class="st4" d="M318.1,126.7c-0.4-0.2-0.7-0.5-0.9-0.9s-0.3-0.9-0.3-1.5v-1c0-0.6,0.1-1,0.3-1.4s0.5-0.7,0.9-0.9
		c0.4-0.2,0.8-0.3,1.4-0.3s1,0.1,1.4,0.3c0.4,0.2,0.7,0.5,0.9,0.9s0.3,0.9,0.3,1.4v1c0,0.6-0.1,1-0.3,1.4s-0.5,0.7-0.9,0.9
		c-0.4,0.2-0.8,0.3-1.4,0.3S318.4,126.9,318.1,126.7z M320.4,125.5c0.2-0.3,0.3-0.6,0.3-1.1v-1c0-0.5-0.1-0.9-0.3-1.1
		s-0.6-0.4-1-0.4s-0.7,0.1-1,0.4s-0.3,0.6-0.3,1.1v1c0,0.5,0.1,0.9,0.3,1.1s0.6,0.4,1,0.4S320.2,125.7,320.4,125.5z"/>
	<path class="st4" d="M323.6,120.8h1.2v6.2h-1.2V120.8z M327.3,123.2c0-0.4-0.1-0.8-0.3-1c-0.2-0.2-0.5-0.4-0.9-0.4
		s-0.7,0.1-0.9,0.3s-0.3,0.5-0.3,0.9l-0.1-1.2c0.2-0.4,0.4-0.7,0.7-0.9c0.3-0.2,0.6-0.3,1-0.3s0.8,0.1,1.1,0.3s0.5,0.5,0.7,0.9
		s0.2,0.8,0.2,1.4v3.7h-1.2L327.3,123.2L327.3,123.2z M330.9,123.2c0-0.4-0.1-0.8-0.3-1c-0.2-0.2-0.5-0.4-0.9-0.4s-0.7,0.1-0.9,0.3
		c-0.2,0.2-0.3,0.6-0.3,1l-0.2-1.2c0.2-0.4,0.4-0.7,0.8-0.9s0.7-0.3,1-0.3c0.4,0,0.8,0.1,1.1,0.3s0.5,0.5,0.7,0.9s0.2,0.8,0.2,1.4
		v3.7h-1.2L330.9,123.2L330.9,123.2z"/>
	<path class="st4" d="M333.9,120.8h1.2v8.7h-1.2V120.8z M335.6,126.7c-0.3-0.2-0.5-0.4-0.6-0.8l0.1-1.3c0,0.3,0,0.5,0.1,0.7
		s0.2,0.3,0.4,0.4c0.2,0.1,0.4,0.1,0.6,0.1c0.4,0,0.7-0.1,0.9-0.4s0.3-0.6,0.3-1v-1.3c0-0.5-0.1-0.8-0.3-1.1s-0.5-0.4-0.9-0.4
		c-0.3,0-0.5,0-0.6,0.1c-0.2,0.1-0.3,0.2-0.4,0.4s-0.1,0.4-0.1,0.7l-0.1-1.2c0.2-0.4,0.4-0.6,0.7-0.8s0.6-0.3,1-0.3s0.8,0.1,1.1,0.3
		s0.5,0.5,0.7,0.9s0.2,0.8,0.2,1.4v1.3c0,0.5-0.1,1-0.2,1.3s-0.4,0.7-0.7,0.9s-0.7,0.3-1.1,0.3C336.3,127,335.9,126.9,335.6,126.7z"
		/>
	<path class="st4" d="M340.7,126.5c-0.4-0.3-0.6-0.8-0.6-1.4s0.2-1.1,0.5-1.4s0.9-0.5,1.5-0.5h1.7l0.1,1h-1.8
		c-0.3,0-0.5,0.1-0.7,0.2s-0.2,0.4-0.2,0.6c0,0.3,0.1,0.5,0.3,0.7s0.5,0.2,0.9,0.2c0.5,0,0.8,0,1-0.1s0.3-0.3,0.3-0.5l0.1,0.9
		c-0.1,0.2-0.2,0.3-0.4,0.4c-0.2,0.1-0.3,0.2-0.5,0.2s-0.4,0.1-0.7,0.1C341.6,127,341.1,126.9,340.7,126.5z M343.9,123
		c0-0.4-0.1-0.7-0.3-0.9c-0.2-0.2-0.5-0.3-0.9-0.3c-0.2,0-0.5,0-0.7,0.1s-0.4,0.2-0.6,0.3l-0.9-0.6c0.2-0.3,0.5-0.5,0.9-0.7
		s0.8-0.2,1.3-0.2s0.9,0.1,1.3,0.3s0.6,0.4,0.8,0.8s0.3,0.8,0.3,1.2v4H344L343.9,123L343.9,123z"/>
	<path class="st4" d="M346.8,120.8h1.2v6.2h-1.2V120.8z M350.5,123.2c0-0.4-0.1-0.8-0.3-1c-0.2-0.2-0.5-0.4-0.9-0.4
		s-0.7,0.1-0.9,0.3s-0.3,0.5-0.3,0.9l-0.1-1.2c0.2-0.4,0.4-0.7,0.7-0.9c0.3-0.2,0.6-0.3,1-0.3c0.7,0,1.2,0.2,1.5,0.7
		s0.5,1.1,0.5,1.9v3.7h-1.2L350.5,123.2L350.5,123.2z"/>
	<path class="st4" d="M352.9,120.8h1.2l1.9,5.4l-0.7,1.3L352.9,120.8z M358.3,120.8l-2.6,7.6c-0.1,0.3-0.2,0.5-0.4,0.7
		c-0.2,0.2-0.3,0.3-0.6,0.4c-0.2,0.1-0.5,0.1-0.8,0.1h-0.2v-1.3h0.2c0.2,0,0.4,0,0.5-0.1s0.2-0.2,0.3-0.5l2.2-7L358.3,120.8
		L358.3,120.8z"/>
</g>
</svg>
