<?xml version="1.0" encoding="utf-8"?>
<!-- Generator: Adobe Illustrator 25.2.0, SVG Export Plug-In . SVG Version: 6.00 Build 0)  -->
<svg version="1.1" id="Layer_1" xmlns="http://www.w3.org/2000/svg" xmlns:xlink="http://www.w3.org/1999/xlink" x="0px" y="0px"
	 viewBox="0 0 28 49" style="enable-background:new 0 0 28 49;" xml:space="preserve">
<style type="text/css">
	.st0{fill:#E2E2E2;}
</style>
<g>
	<g id="hexagons">
		<path class="st0" d="M14,9.2l13,7.5v15l-13,7.5L1,31.8v-15L14,9.2z M3,17.9v12.7l11,6.3l11-6.4V17.9l-11-6.3L3,17.9z M0,15l13-7.5
			V0h-2v6.3L0,12.7V15L0,15z M0,33.5L13,41v8h-2v-6.8L0,35.8V33.5L0,33.5z M15,0v7.5L28,15l0,0v-2.3l0,0L17,6.3V0H15z M15,49v-8
			l13-7.5l0,0v2.3l0,0l-11,6.3V49H15z"/>
	</g>
</g>
<g id="_x23_080a08fe">
	<path class="st0" d="M10.7,14.3c1-0.3,2.1-0.5,3.2-0.5c0.1,0,0.2,0,0.4,0c1,0,2.1,0.2,3.1,0.5c0.8,0.3,1.6,0.6,2.3,1.1
		c1.5,0.9,2.7,2.2,3.6,3.6c0.6,1.1,1,2.3,1.2,3.5c0.1,0.4,0.1,0.9,0.1,1.3c0,0.1,0,0.2,0,0.3c0,1.9-0.7,3.9-1.8,5.5
		c-0.2,0.3-0.5,0.6-0.7,0.9c-1.1,1.3-2.6,2.3-4.3,2.9c-0.9,0.3-1.8,0.5-2.7,0.6c-1.3,0.1-2.7,0-4-0.3c-1.4-0.4-2.6-1-3.7-1.9
		c-1-0.8-1.9-1.8-2.6-3c-0.8-1.4-1.2-3.1-1.3-4.7c0-0.1,0-0.2,0-0.3c0-1.6,0.4-3.2,1.2-4.6c0.4-0.7,0.9-1.4,1.5-2
		C7.4,15.9,8.9,14.9,10.7,14.3 M13.4,14.8L13.4,14.8c-0.3,0.1-0.5,0.1-0.7,0.1c-1.7,0.2-3.3,0.9-4.6,2c-0.7,0.5-1.2,1.1-1.7,1.8
		c-0.5,0.7-0.9,1.4-1.2,2.2c-0.3,0.7-0.5,1.5-0.5,2.3c0.1,0,0.1-0.1,0.2-0.1c0.3-0.2,0.5-0.5,0.8-0.7C5.8,22.3,5.9,22.2,6,22
		c0.2-0.5,0.4-1.1,0.5-1.6c0,0,0,0,0,0.1c0.2,0.5,0.4,1.1,0.7,1.6v0.1h0.1c0.7,0,1.5,0,2.2,0c0.1-0.1,0.1-0.2,0.2-0.3
		c0.3-0.5,0.5-1,0.8-1.5c0.2,0.6,0.3,1.2,0.4,1.8c0.1,0.1,0.2,0.2,0.3,0.3c0,0.1,0.1,0.1,0.1,0.1c0.2,0.2,0.4,0.5,0.6,0.7
		c0,0.1-0.1,0.1-0.1,0.1c-2.3,0-4.7,0-7,0c-0.1,0-0.1,0-0.2,0.1c0,0.4,0,0.9,0,1.3l0,0c0,0.5,0.1,1,0.2,1.5c0.2,0.8,0.5,1.5,0.9,2.3
		l0,0c0.2-0.4,0.3-0.9,0.5-1.3c0-0.1,0-0.1,0-0.2c-0.3-0.8-0.7-1.5-1-2.3c0.9,0,1.7,0,2.6,0c0,0,0.2,0.2,0.2,0.4l0,0
		c0.2-0.2,0.3-0.4,0.4-0.7c0.9,0,1.9,0,2.8,0c-0.4,0.9-0.9,1.7-1.3,2.6c0.1,0.6,0.3,1.2,0.4,1.7c0.4,1.3,0.7,2.6,1.1,3.9
		c0,0,0.1,0,0.2,0.1c0.6,0.1,1.1,0.3,1.7,0.3l0,0c0.4,0,0.8,0,1.2,0c0-0.1,0.1,0,0.1,0c0.6,0,1.1-0.1,1.7-0.3
		c0.6-0.1,1.1-0.3,1.6-0.6c0.3-0.1,0.6-0.3,0.9-0.5s0.6-0.4,0.9-0.6c0.1-0.1,0.2-0.1,0.3-0.2c0,0,0.1,0,0.1-0.1
		c0.1-0.2,0.3-0.3,0.5-0.5c0.1-0.1,0.2-0.3,0.4-0.4c1-1.1,1.8-2.5,2.1-4c0.1-0.5,0.2-1,0.2-1.5c0,0,0,0,0-0.1c0-0.4,0-0.8,0-1.1l0,0
		c0-0.2,0-0.5-0.1-0.7c-0.2-1.8-1.1-3.6-2.4-4.9c-0.3-0.3-0.6-0.6-1-0.9c-0.1-0.1-0.2-0.1-0.3-0.2c-0.1-0.1-0.1-0.1-0.2-0.1
		c0,0,0-0.1-0.1-0.1s-0.1-0.1-0.1-0.1c-0.4-0.2-0.7-0.5-1.1-0.6l0,0c-0.2-0.1-0.5-0.2-0.7-0.3c-0.5-0.2-1-0.3-1.4-0.4
		c-0.5-0.1-0.9-0.2-1.4-0.2l0,0C14.2,14.8,13.8,14.8,13.4,14.8 M8,28.7c-0.1,0.3-0.2,0.5-0.3,0.7c-0.2,0.3-0.3,0.6-0.5,1
		c0.6,0.6,1.3,1.1,2.1,1.5c0-0.1,0-0.1,0-0.2c-0.3-0.7-0.5-1.3-0.8-2C8.3,29.4,8.2,29.1,8,28.7L8,28.7z"/>
</g>
<g id="_x23_fe0200ff">
	<path class="st0" d="M18.2,15.7c0.4,0.2,0.7,0.4,1.1,0.6c0.1,0,0.1,0.1,0.1,0.1s0.1,0,0.1,0.1c0,0.5,0.1,1,0.1,1.4
		c0.1,1,0.2,2.1,0.4,3.1c0.2,1.9,0.5,3.8,0.7,5.7c0.1,0.6,0.1,1.2,0.2,1.8c0.1,0.5,0.1,1,0.2,1.4c-0.1,0.1-0.2,0.3-0.4,0.4
		c-0.2,0.1-0.3,0.3-0.5,0.5l-0.1,0.1c-0.2-1.3-0.4-2.7-0.6-4c-0.2-1.6-0.4-3.1-0.7-4.7c-0.1,0-0.1,0.1-0.1,0.1
		c-0.3,1.4-0.7,2.7-1.1,4.1c0,0.1,0,0.1-0.1,0.2c-0.4,0-0.8,0-1.2,0c-0.1,0-0.1,0-0.1-0.1c-0.3-0.8-0.6-1.7-0.8-2.5
		c0,0,0-0.1-0.1-0.1c-0.2,0.6-0.4,1.1-0.5,1.7c-0.5,0-0.9,0-1.4,0c-0.2-0.6-0.4-1.2-0.6-1.8c-0.2,0.2-0.4,0.5-0.6,0.7
		c-0.3,0-0.7,0-1,0c-0.9,0-1.9,0-2.8,0c-0.3,0-0.5,0-0.8,0c-0.9,0-1.7,0-2.6,0c-0.2,0-0.4,0-0.6,0l0,0l0,0c0-0.4,0-0.9,0-1.3
		c0-0.1,0.1-0.1,0.2-0.1c2.3,0,4.7,0,7,0c0.1,0,0.1-0.1,0.1-0.1c0.1-0.2,0.2-0.4,0.4-0.6c0.4-0.1,0.8,0,1.2,0h0.1l0.1,0.1
		c0.1,0.2,0.3,0.5,0.4,0.7c0,0,0,0,0.1,0.1c0-0.1,0.1-0.2,0.1-0.2c0.2-0.4,0.3-0.9,0.5-1.3c0.4,0,0.8,0,1.2,0c0.2,0.5,0.4,1,0.7,1.5
		c0,0.1,0,0.1,0.1,0.1c0.1-0.1,0.1-0.2,0.1-0.4c0.4-1.9,0.7-3.7,1.1-5.6C18,16.9,18.1,16.3,18.2,15.7z"/>
</g>
</svg>
