<?xml version="1.0" encoding="UTF-8" ?>
<!DOCTYPE svg PUBLIC "-//W3C//DTD SVG 1.1//EN" "http://www.w3.org/Graphics/SVG/1.1/DTD/svg11.dtd">
<svg width="510pt" height="550pt" viewBox="0 0 510 550" version="1.1" xmlns="http://www.w3.org/2000/svg">
<g id="#ffffffff">
<path fill="#ffffff" opacity="1.00" d=" M 0.00 0.00 L 510.00 0.00 L 510.00 550.00 L 0.00 550.00 L 0.00 0.00 M 252.37 14.56 C 240.81 20.40 229.72 27.18 218.34 33.38 C 154.72 69.07 91.08 104.75 27.47 140.46 C 23.99 142.27 21.77 146.06 22.01 150.00 C 21.99 233.02 21.99 316.04 22.01 399.05 C 21.81 402.93 23.98 406.68 27.41 408.49 C 101.49 450.06 175.60 491.60 249.68 533.18 C 253.19 535.49 257.83 535.50 261.34 533.17 C 333.45 492.70 405.57 452.26 477.69 411.80 C 480.62 410.07 483.89 408.76 486.36 406.35 C 488.54 404.17 489.09 400.98 489.02 398.01 C 488.97 315.31 489.03 232.61 488.99 149.91 C 489.07 146.81 487.86 143.63 485.35 141.72 C 482.80 139.79 479.88 138.45 477.13 136.85 C 405.17 96.48 333.20 56.14 261.26 15.75 C 258.61 14.20 255.32 13.40 252.37 14.56 Z" />
<path fill="#ffffff" opacity="1.00" d=" M 240.87 96.04 C 240.42 96.88 239.95 97.71 239.50 98.55 C 239.57 100.13 239.65 101.71 239.71 103.29 C 238.71 103.86 237.71 104.42 236.71 104.97 C 236.43 106.69 236.18 108.42 235.98 110.14 C 235.37 106.70 233.53 103.70 232.24 100.50 C 233.93 100.53 235.63 100.57 237.33 100.60 C 238.50 99.08 239.68 97.55 240.87 96.04 Z" />
<path fill="#ffffff" opacity="1.00" d=" M 253.69 125.15 C 255.05 124.03 256.44 122.93 257.87 121.89 C 255.90 124.07 254.05 126.44 251.66 128.18 C 249.62 129.71 246.97 129.41 244.58 129.56 C 243.39 128.17 242.20 126.78 241.01 125.38 C 241.44 124.65 241.87 123.92 242.26 123.16 C 243.39 124.31 244.37 125.67 245.76 126.53 C 248.50 127.09 251.15 126.03 253.69 125.15 Z" />
<path fill="#ffffff" opacity="1.00" d=" M 314.50 142.97 C 316.08 140.30 317.88 137.67 320.26 135.64 C 321.87 135.42 322.64 137.27 323.66 138.21 C 324.36 139.41 326.03 140.48 325.48 142.07 C 323.92 144.21 321.89 145.93 320.02 147.78 C 318.22 146.23 313.86 146.10 314.50 142.97 Z" />
<path fill="#ffffff" opacity="1.00" d=" M 200.40 144.44 C 203.59 141.11 207.67 138.76 212.09 137.50 C 215.87 136.97 219.71 137.40 223.52 137.23 C 223.52 137.59 223.50 138.29 223.49 138.65 C 222.11 139.90 220.74 141.17 219.27 142.32 C 214.07 146.70 206.56 145.81 200.40 144.44 Z" />
<path fill="#ffffff" opacity="1.00" d=" M 186.57 147.49 C 187.00 147.52 187.85 147.57 188.28 147.59 C 189.82 149.27 192.97 150.31 192.56 153.06 C 192.58 155.85 189.98 157.57 188.46 159.60 C 187.90 159.52 186.77 159.36 186.20 159.28 C 184.53 157.95 182.91 156.57 181.31 155.17 C 183.17 152.69 184.93 150.13 186.57 147.49 Z" />
<path fill="#ffffff" opacity="1.00" d=" M 326.26 148.47 C 328.07 149.77 329.86 151.11 331.64 152.47 C 332.03 156.08 329.16 158.64 326.49 160.53 C 324.03 160.78 322.17 158.60 320.19 157.46 C 319.34 157.49 317.65 157.53 316.80 157.56 C 316.02 158.85 315.30 160.21 314.30 161.35 C 313.62 161.80 312.93 162.22 312.25 162.64 C 310.42 161.25 308.46 160.06 306.37 159.14 C 308.51 156.34 310.40 153.30 313.05 150.94 C 313.72 150.06 314.71 150.97 315.24 151.49 C 316.94 153.11 318.76 154.67 321.13 155.15 C 322.26 153.59 323.40 152.05 324.59 150.54 C 325.13 149.85 325.69 149.16 326.26 148.47 Z" />
<path fill="#ffffff" opacity="1.00" d=" M 250.55 150.58 C 252.95 149.27 254.88 152.26 256.62 153.52 C 256.57 154.80 256.53 156.08 256.48 157.37 C 255.15 158.83 253.89 160.35 252.71 161.93 C 249.77 161.65 247.30 160.04 245.06 158.23 C 247.39 156.06 248.83 153.22 250.55 150.58 Z" />
<path fill="#ffffff" opacity="1.00" d=" M 274.28 150.32 C 277.46 149.69 278.45 153.85 280.98 154.73 C 284.57 155.29 285.68 150.88 287.87 148.92 C 289.46 150.89 292.68 152.33 292.66 155.11 C 291.09 157.34 289.01 159.14 287.09 161.06 C 284.53 159.62 282.09 157.73 279.08 157.39 C 277.47 159.48 275.67 161.96 272.68 161.56 C 271.22 160.38 269.73 159.25 268.24 158.12 C 270.36 155.62 271.57 152.24 274.28 150.32 Z" />
<path fill="#ffffff" opacity="1.00" d=" M 376.58 160.56 C 380.29 158.34 384.19 156.44 387.94 154.29 C 386.05 157.23 383.45 159.68 380.44 161.45 C 370.83 166.56 362.44 173.56 353.59 179.82 C 345.35 184.82 337.05 189.83 328.01 193.27 C 323.40 194.70 318.91 196.92 313.98 196.82 C 312.52 196.58 311.49 197.49 310.58 198.49 C 297.47 198.42 283.73 200.44 271.26 195.29 C 269.50 193.88 268.02 192.17 266.53 190.49 C 265.62 190.49 263.79 190.50 262.87 190.51 C 264.03 188.07 265.84 186.07 267.74 184.21 C 273.57 185.14 279.06 187.68 285.00 188.10 C 289.39 188.29 293.62 189.77 298.03 189.55 C 304.14 189.35 310.34 190.09 316.35 188.67 C 323.04 187.54 329.58 185.78 336.08 183.85 C 350.49 177.79 363.49 169.00 376.58 160.56 Z" />
<path fill="#ffffff" opacity="1.00" d=" M 218.32 168.97 C 219.02 164.46 219.61 159.82 221.90 155.79 C 224.59 157.45 222.29 160.59 222.43 162.99 C 221.97 176.72 223.04 190.51 221.74 204.20 C 220.98 204.58 220.22 204.97 219.46 205.36 C 219.48 197.22 219.42 189.08 219.43 180.94 C 219.49 176.90 217.63 173.02 218.32 168.97 Z" />
<path fill="#ffffff" opacity="1.00" d=" M 164.80 165.76 C 167.43 165.10 170.18 165.31 172.87 165.25 C 170.43 167.10 167.84 168.82 165.91 171.23 L 165.86 171.49 C 165.50 174.12 165.35 176.85 164.09 179.26 C 163.85 174.83 162.67 169.88 164.80 165.76 Z" />
<path fill="#ffffff" opacity="1.00" d=" M 178.34 181.37 C 178.86 176.72 181.42 172.35 184.72 169.10 C 185.39 169.52 186.73 170.35 187.41 170.77 C 188.40 173.16 189.55 175.50 190.20 178.02 C 189.98 180.33 189.39 182.60 188.72 184.81 C 187.78 186.56 186.69 188.22 185.50 189.80 C 182.89 194.46 176.57 194.52 173.89 199.08 C 171.72 201.62 171.20 205.61 167.95 207.11 C 164.94 208.84 161.58 209.97 158.08 209.95 C 158.22 209.45 158.51 208.46 158.65 207.96 C 158.87 207.85 159.31 207.62 159.52 207.51 C 164.80 205.17 170.57 202.83 173.99 197.91 C 175.96 195.33 177.13 191.84 180.17 190.28 C 182.37 189.46 184.55 188.59 186.70 187.64 C 186.67 186.69 186.60 184.79 186.57 183.85 L 186.52 182.46 C 183.86 181.67 181.09 181.51 178.34 181.37 Z" />
<path fill="#ffffff" opacity="1.00" d=" M 145.01 171.64 C 145.49 171.54 146.45 171.36 146.94 171.27 C 148.58 172.78 150.16 174.35 151.72 175.96 C 151.17 178.87 149.95 181.59 148.79 184.30 C 148.31 184.33 147.36 184.38 146.88 184.41 C 146.41 184.12 145.48 183.53 145.02 183.24 C 143.47 182.28 141.95 181.29 140.44 180.29 C 142.04 177.44 143.55 174.56 145.01 171.64 Z" />
<path fill="#ffffff" opacity="1.00" d=" M 203.90 174.12 C 204.13 174.65 204.60 175.71 204.83 176.24 C 204.82 176.68 204.80 177.57 204.79 178.01 C 203.10 185.11 203.86 192.55 201.61 199.56 C 201.36 200.10 200.86 201.17 200.61 201.70 C 199.96 196.74 200.21 191.73 200.36 186.75 C 200.34 182.27 202.51 178.26 203.90 174.12 Z" />
<path fill="#ffffff" opacity="1.00" d=" M 231.67 174.20 C 232.51 175.24 233.93 176.24 233.51 177.81 C 233.47 182.60 233.30 187.39 233.67 192.17 C 234.42 193.46 235.16 194.76 235.89 196.07 C 238.92 197.86 242.45 197.81 245.86 197.73 C 247.18 195.95 247.56 193.81 247.61 191.63 C 246.37 190.79 245.14 189.95 243.91 189.11 C 245.28 188.21 246.65 187.29 248.01 186.35 C 250.12 186.50 252.17 187.04 254.15 187.79 C 254.53 188.35 255.30 189.47 255.68 190.03 C 254.92 190.97 254.16 191.92 253.40 192.87 C 253.36 194.06 253.34 195.26 253.31 196.46 C 254.54 196.50 255.77 196.55 257.00 196.61 C 256.85 197.27 256.54 198.60 256.38 199.27 C 253.96 199.68 251.54 200.09 249.13 200.54 C 247.04 204.42 243.67 208.26 238.99 208.61 C 235.16 208.88 232.96 204.98 230.98 202.31 C 230.61 199.86 230.37 197.39 229.79 194.98 C 231.29 188.17 230.48 181.08 231.67 174.20 Z" />
<path fill="#ffffff" opacity="1.00" d=" M 367.59 203.04 C 365.79 197.33 365.92 190.17 370.08 185.51 C 370.16 188.45 370.08 191.39 369.72 194.30 C 369.09 197.23 368.42 200.16 367.59 203.04 Z" />
<path fill="#ffffff" opacity="1.00" d=" M 123.08 197.36 C 122.99 195.46 123.26 193.58 123.59 191.72 C 124.72 193.12 125.81 194.56 126.90 195.99 C 127.10 196.25 127.52 196.76 127.72 197.02 C 129.90 199.89 133.33 201.64 136.95 201.58 C 144.54 202.37 152.37 199.92 157.92 194.63 C 158.34 194.84 159.17 195.25 159.59 195.46 C 156.21 200.29 152.70 205.01 148.17 208.85 C 143.15 211.95 136.98 212.59 131.31 211.20 C 128.80 210.31 127.06 208.16 125.47 206.14 C 123.90 203.48 123.45 200.37 123.08 197.36 Z" />
<path fill="#ffffff" opacity="1.00" d=" M 178.31 214.79 C 178.99 214.73 179.69 214.66 180.38 214.58 C 180.32 218.96 183.17 222.42 186.01 225.41 C 191.24 226.70 196.68 226.53 202.02 226.21 C 207.77 225.51 212.27 221.36 215.80 217.06 C 216.24 217.71 216.68 218.37 217.13 219.02 C 214.70 221.70 213.30 225.15 210.69 227.68 C 207.37 230.94 204.12 234.43 199.94 236.60 C 197.00 237.45 194.05 238.80 190.92 238.37 C 186.94 237.87 183.62 235.24 181.17 232.21 C 177.24 227.20 178.67 220.66 178.31 214.79 Z" />
<path fill="#ffffff" opacity="1.00" d=" M 315.61 214.45 C 318.15 214.52 319.63 217.32 321.58 218.69 C 321.46 221.41 319.72 223.72 317.46 225.11 C 316.53 225.67 315.59 226.20 314.65 226.74 C 312.88 225.13 311.04 223.61 309.17 222.15 C 311.36 219.62 313.10 216.69 315.61 214.45 Z" />
<path fill="#ffffff" opacity="1.00" d=" M 155.03 221.36 C 157.53 222.87 159.79 224.74 161.74 226.92 C 160.49 229.10 159.35 231.41 157.52 233.16 C 156.93 233.61 156.33 234.04 155.72 234.45 C 153.14 232.85 150.34 231.56 147.30 231.21 C 146.11 232.60 144.94 234.00 143.66 235.30 L 143.03 235.41 C 140.80 234.67 138.94 233.15 136.99 231.90 C 138.69 228.48 140.32 224.98 142.84 222.05 C 145.61 223.79 147.50 227.97 151.19 227.47 C 152.64 225.54 153.79 223.42 155.03 221.36 Z" />
<path fill="#ffffff" opacity="1.00" d=" M 282.08 236.16 C 282.56 232.51 285.38 229.97 287.45 227.15 C 290.06 227.68 293.03 229.96 292.58 232.90 C 291.19 235.24 288.94 236.90 287.02 238.78 C 285.37 237.89 283.73 237.02 282.08 236.16 Z" />
<path fill="#ffffff" opacity="1.00" d=" M 323.48 239.02 C 323.37 235.20 324.86 231.61 325.96 228.03 C 327.61 230.46 327.56 233.42 327.54 236.24 C 327.02 242.75 325.78 249.24 323.82 255.48 C 323.51 254.94 322.88 253.85 322.56 253.30 C 323.90 248.65 323.45 243.78 323.48 239.02 Z" />
<path fill="#ffffff" opacity="1.00" d=" M 252.73 230.12 C 254.68 231.50 256.72 232.95 257.86 235.13 C 257.30 237.61 255.48 239.56 253.71 241.29 C 253.38 241.57 252.71 242.14 252.37 242.42 C 250.22 242.21 248.66 240.24 246.90 239.15 C 248.58 235.97 250.63 233.03 252.73 230.12 Z" />
<path fill="#ffffff" opacity="1.00" d=" M 309.51 254.26 C 306.93 248.36 310.63 242.76 313.25 237.67 C 314.15 241.23 312.72 244.79 312.44 248.34 C 312.09 249.93 311.66 251.52 311.09 253.05 L 309.51 254.26 Z" />
<path fill="#ffffff" opacity="1.00" d=" M 291.89 239.40 C 294.57 239.00 297.59 241.25 297.72 243.94 C 296.46 246.66 294.47 249.17 291.90 250.77 C 290.97 250.17 290.10 249.48 289.31 248.70 C 287.85 248.27 286.41 247.64 284.87 247.64 C 283.09 248.74 281.76 250.37 280.39 251.91 C 278.40 251.77 276.71 250.79 275.22 249.54 C 275.30 248.58 275.38 247.62 275.47 246.67 C 277.09 244.98 278.64 243.23 280.07 241.38 C 281.11 241.51 282.09 241.80 283.02 242.23 C 284.01 242.96 285.03 243.67 286.07 244.35 C 288.22 245.12 289.90 243.21 291.40 242.01 C 291.48 241.59 291.64 240.77 291.72 240.35 L 291.89 239.40 Z" />
<path fill="#ffffff" opacity="1.00" d=" M 336.20 250.46 C 336.05 246.36 338.48 242.96 340.87 239.87 C 343.39 242.23 346.01 244.76 347.04 248.19 C 348.25 251.29 346.64 254.43 345.37 257.22 C 344.71 258.54 344.01 259.84 343.32 261.14 C 342.72 259.15 342.13 257.15 341.42 255.20 C 339.81 253.48 337.98 251.98 336.20 250.46 Z" />
<path fill="#ffffff" opacity="1.00" d=" M 162.65 260.75 C 159.65 255.80 163.76 250.73 166.94 247.09 C 165.70 248.97 164.42 250.82 163.16 252.68 C 163.34 253.49 163.72 255.11 163.90 255.92 C 164.83 255.82 166.68 255.60 167.61 255.49 C 167.64 256.52 167.68 257.55 167.71 258.58 C 166.41 260.14 164.72 261.09 162.65 260.75 Z" />
<path fill="#ffffff" opacity="1.00" d=" M 215.91 250.75 C 216.36 250.66 217.26 250.46 217.71 250.37 C 217.35 250.67 216.64 251.27 216.29 251.56 C 216.51 254.17 216.84 256.84 216.12 259.41 C 215.07 263.51 215.81 267.80 214.93 271.94 C 214.53 272.13 213.72 272.53 213.31 272.73 C 213.56 268.04 213.50 263.34 213.23 258.65 C 213.88 255.95 215.38 253.51 215.91 250.75 Z" />
<path fill="#ffffff" opacity="1.00" d=" M 225.91 251.82 C 226.51 251.53 227.71 250.94 228.30 250.65 C 228.04 256.60 227.94 262.58 228.38 268.53 C 231.74 271.54 236.01 273.05 240.53 272.57 C 238.45 275.16 236.74 278.09 234.36 280.43 C 231.46 281.68 228.82 279.66 226.60 278.04 L 226.37 277.11 C 225.60 273.44 223.77 269.80 224.86 265.97 C 225.97 261.33 225.60 256.54 225.91 251.82 Z" />
<path fill="#ffffff" opacity="1.00" d=" M 255.44 250.72 L 255.83 250.64 C 256.39 250.57 257.50 250.44 258.06 250.37 C 258.08 252.53 259.04 254.33 260.76 255.60 C 261.60 255.53 263.27 255.38 264.11 255.30 C 263.35 258.04 262.26 260.67 261.05 263.23 C 258.54 263.81 256.02 264.32 253.48 264.73 C 252.84 259.84 255.43 255.49 255.44 250.72 Z" />
<path fill="#ffffff" opacity="1.00" d=" M 300.89 260.16 C 302.69 258.71 304.60 257.33 306.96 257.00 C 306.63 259.69 304.46 261.66 302.04 262.54 C 297.55 264.55 292.22 264.79 288.49 268.29 C 287.58 266.57 287.38 264.63 287.39 262.72 C 287.39 262.45 287.38 261.90 287.37 261.62 C 289.74 262.06 292.30 263.05 294.63 261.93 C 296.60 260.96 298.68 260.27 300.89 260.16 Z" />
<path fill="#ffffff" opacity="1.00" d=" M 190.58 268.59 C 192.46 266.23 193.99 263.63 195.54 261.05 C 198.74 261.07 201.82 263.70 201.65 267.02 C 201.15 269.10 200.08 271.10 198.47 272.53 C 195.20 273.69 192.94 270.23 190.58 268.59 Z" />
<path fill="#ffffff" opacity="1.00" d=" M 245.29 266.81 C 245.61 266.48 246.26 265.81 246.59 265.48 C 248.42 265.54 250.25 265.57 252.09 265.60 C 251.68 267.04 251.30 268.48 250.84 269.90 C 248.03 270.84 245.03 270.70 242.11 270.55 C 243.15 269.28 244.19 268.02 245.29 266.81 Z" />
<path fill="#ffffff" opacity="1.00" d=" M 173.75 292.08 C 173.60 286.88 172.99 281.59 174.24 276.47 C 174.49 276.92 174.98 277.80 175.23 278.25 C 175.68 280.18 175.56 282.19 175.66 284.16 C 176.75 285.50 177.81 286.86 178.93 288.17 C 180.10 289.35 181.21 291.00 183.08 290.94 C 187.68 291.31 192.33 291.30 196.93 290.89 C 201.37 290.45 204.71 287.18 207.89 284.38 C 208.25 284.72 208.97 285.38 209.33 285.72 C 205.26 291.64 200.07 296.83 193.88 300.52 C 187.95 302.11 180.95 301.94 176.63 296.97 C 175.78 295.27 174.91 293.58 173.75 292.08 Z" />
<path fill="#ffffff" opacity="1.00" d=" M 244.59 282.73 C 245.74 282.46 246.94 282.55 247.43 283.80 C 246.40 285.61 246.13 287.53 246.60 289.56 C 247.98 293.48 251.94 296.16 255.91 296.99 C 261.52 297.74 267.36 297.67 272.68 295.53 C 273.23 295.36 274.34 295.03 274.89 294.86 C 277.11 293.04 279.21 291.04 281.78 289.70 C 279.92 293.12 276.67 295.74 275.73 299.65 C 272.22 302.83 268.53 306.16 263.81 307.32 C 260.90 307.87 257.90 307.82 254.97 307.57 C 250.83 307.28 247.29 304.12 246.09 300.21 C 244.91 296.17 243.71 291.89 244.64 287.67 C 245.17 286.80 246.22 285.07 246.75 284.20 L 244.59 282.73 Z" />
<path fill="#ffffff" opacity="1.00" d=" M 294.17 294.23 C 296.35 291.72 298.23 288.98 299.82 286.07 C 302.07 286.79 304.04 288.12 305.82 289.65 C 306.00 292.85 303.59 295.19 302.10 297.76 C 299.01 297.89 296.44 296.11 294.17 294.23 Z" />
<path fill="#ffffff" opacity="1.00" d=" M 228.76 300.68 C 229.60 300.64 230.44 300.60 231.29 300.57 C 233.02 302.13 235.03 303.48 236.33 305.45 C 236.01 307.68 234.10 309.49 232.64 311.16 C 232.32 311.42 231.67 311.96 231.35 312.22 C 230.95 312.35 230.16 312.60 229.77 312.72 C 227.65 310.84 225.14 309.50 222.36 308.94 C 221.95 309.53 221.14 310.72 220.74 311.31 C 220.14 312.05 219.57 312.82 219.04 313.60 C 217.75 313.66 216.46 313.69 215.19 313.72 L 215.44 311.69 C 214.90 311.85 213.84 312.16 213.30 312.31 L 212.71 312.49 C 211.93 311.67 211.15 310.86 210.38 310.05 C 212.62 307.70 214.34 304.94 216.36 302.42 C 219.22 302.01 221.13 305.24 223.96 305.46 C 225.90 306.01 227.20 304.30 228.56 303.29 C 228.61 302.64 228.71 301.33 228.76 300.68 Z" />
</g>
<g id="#d2ae78ff">
<path fill="#d2ae78" opacity="1.00" d=" M 252.37 14.56 C 255.32 13.40 258.61 14.20 261.26 15.75 C 333.20 56.14 405.17 96.48 477.13 136.85 C 479.88 138.45 482.80 139.79 485.35 141.72 C 487.86 143.63 489.07 146.81 488.99 149.91 C 489.03 232.61 488.97 315.31 489.02 398.01 C 489.09 400.98 488.54 404.17 486.36 406.35 C 483.89 408.76 480.62 410.07 477.69 411.80 C 405.57 452.26 333.45 492.70 261.34 533.17 C 257.83 535.50 253.19 535.49 249.68 533.18 C 175.60 491.60 101.49 450.06 27.41 408.49 C 23.98 406.68 21.81 402.93 22.01 399.05 C 21.99 316.04 21.99 233.02 22.01 150.00 C 21.77 146.06 23.99 142.27 27.47 140.46 C 91.08 104.75 154.72 69.07 218.34 33.38 C 229.72 27.18 240.81 20.40 252.37 14.56 M 260.63 112.44 C 260.18 106.16 261.45 99.85 260.20 93.62 C 258.66 99.84 260.22 106.19 260.63 112.44 M 240.87 96.04 C 239.68 97.55 238.50 99.08 237.33 100.60 C 235.63 100.57 233.93 100.53 232.24 100.50 C 233.53 103.70 235.37 106.70 235.98 110.14 C 236.18 108.42 236.43 106.69 236.71 104.97 C 237.71 104.42 238.71 103.86 239.71 103.29 C 239.65 101.71 239.57 100.13 239.50 98.55 C 239.95 97.71 240.42 96.88 240.87 96.04 M 249.24 99.50 C 249.93 103.77 251.87 107.79 254.44 111.24 C 255.34 107.12 253.73 103.18 252.34 99.40 C 251.30 99.42 250.27 99.46 249.24 99.50 M 264.61 106.02 C 264.55 110.22 263.60 114.97 266.46 118.52 C 267.92 118.30 269.55 118.50 270.81 117.52 C 273.71 115.94 276.98 114.60 278.97 111.83 C 279.49 110.97 280.49 109.77 279.00 109.30 C 275.63 111.19 272.32 113.20 268.73 114.64 C 267.93 113.47 267.04 112.35 266.45 111.06 C 267.09 107.02 267.94 102.96 267.40 98.85 C 265.54 100.77 264.69 103.38 264.61 106.02 M 224.48 102.40 C 225.70 106.19 227.26 109.91 229.56 113.18 C 230.16 108.18 229.29 102.79 226.01 98.82 C 225.46 99.96 223.79 100.95 224.48 102.40 M 236.54 111.75 C 235.35 111.30 234.16 110.84 232.97 110.38 C 232.55 110.52 231.70 110.81 231.28 110.96 C 233.01 112.95 234.38 115.23 235.49 117.62 C 238.10 114.82 240.61 111.67 240.65 107.64 C 239.01 108.73 237.68 110.17 236.54 111.75 M 243.38 110.62 C 243.49 111.96 245.49 111.82 246.25 111.13 C 246.72 109.85 246.43 108.45 246.48 107.13 C 244.88 107.43 242.38 108.58 243.38 110.62 M 240.55 126.16 L 241.01 125.38 C 242.20 126.78 243.39 128.17 244.58 129.56 C 246.97 129.41 249.62 129.71 251.66 128.18 C 254.05 126.44 255.90 124.07 257.87 121.89 C 256.44 122.93 255.05 124.03 253.69 125.15 C 251.15 126.03 248.50 127.09 245.76 126.53 C 244.37 125.67 243.39 124.31 242.26 123.16 C 243.23 120.82 242.48 118.22 242.30 115.79 C 240.57 118.97 240.35 122.61 240.55 126.16 M 241.44 130.94 C 241.49 133.19 240.58 135.87 242.30 137.72 C 243.93 140.12 247.15 139.93 249.65 139.37 C 253.42 138.41 255.74 135.04 257.87 132.05 C 254.66 133.64 251.67 136.01 248.04 136.50 C 244.61 136.77 243.22 133.18 241.44 130.94 M 223.54 136.29 L 223.52 137.23 C 219.71 137.40 215.87 136.97 212.09 137.50 C 207.67 138.76 203.59 141.11 200.40 144.44 L 199.61 144.23 C 198.08 145.42 197.26 147.15 196.75 148.98 C 199.50 148.01 202.04 146.41 204.92 145.86 C 208.50 145.70 212.19 146.95 215.68 145.70 C 220.01 144.15 223.44 140.88 226.51 137.58 C 227.84 135.87 229.93 134.12 229.35 131.71 C 227.27 133.05 225.37 134.64 223.54 136.29 M 314.50 142.97 C 313.86 146.10 318.22 146.23 320.02 147.78 C 321.89 145.93 323.92 144.21 325.48 142.07 C 326.03 140.48 324.36 139.41 323.66 138.21 C 322.64 137.27 321.87 135.42 320.26 135.64 C 317.88 137.67 316.08 140.30 314.50 142.97 M 217.97 146.98 C 210.02 146.78 201.98 150.79 197.75 157.60 C 200.73 156.57 203.78 155.42 206.99 155.62 C 210.44 155.52 214.30 156.41 217.34 154.29 C 220.62 152.12 223.91 149.75 226.19 146.48 C 223.45 146.73 220.71 146.94 217.97 146.98 M 186.57 147.49 C 184.93 150.13 183.17 152.69 181.31 155.17 C 182.91 156.57 184.53 157.95 186.20 159.28 C 184.10 160.84 181.12 163.37 182.66 166.30 C 184.20 167.81 186.45 169.31 188.70 168.73 C 191.60 167.46 193.58 163.84 192.34 160.76 C 191.16 160.05 189.86 159.66 188.46 159.60 C 189.98 157.57 192.58 155.85 192.56 153.06 C 192.97 150.31 189.82 149.27 188.28 147.59 C 187.85 147.57 187.00 147.52 186.57 147.49 M 316.85 148.87 C 316.45 149.53 315.64 150.84 315.24 151.49 C 314.71 150.97 313.72 150.06 313.05 150.94 C 310.40 153.30 308.51 156.34 306.37 159.14 C 308.46 160.06 310.42 161.25 312.25 162.64 C 309.34 163.76 308.17 166.74 306.80 169.27 C 308.69 170.59 310.78 171.58 312.97 172.32 C 314.61 170.76 316.18 169.08 318.10 167.85 C 321.16 167.54 323.61 170.68 326.62 170.64 C 329.58 168.95 334.05 163.82 329.90 161.11 C 326.26 161.12 322.89 162.75 319.99 164.83 C 318.09 163.67 316.19 162.51 314.30 161.35 C 315.30 160.21 316.02 158.85 316.80 157.56 C 317.65 157.53 319.34 157.49 320.19 157.46 C 322.17 158.60 324.03 160.78 326.49 160.53 C 329.16 158.64 332.03 156.08 331.64 152.47 C 329.86 151.11 328.07 149.77 326.26 148.47 C 325.69 149.16 325.13 149.85 324.59 150.54 C 324.26 149.78 323.60 148.25 323.28 147.49 C 321.13 147.95 318.99 148.42 316.85 148.87 M 250.55 150.58 C 248.83 153.22 247.39 156.06 245.06 158.23 C 247.30 160.04 249.77 161.65 252.71 161.93 C 253.89 160.35 255.15 158.83 256.48 157.37 C 256.53 156.08 256.57 154.80 256.62 153.52 C 254.88 152.26 252.95 149.27 250.55 150.58 M 274.28 150.32 C 271.57 152.24 270.36 155.62 268.24 158.12 C 269.73 159.25 271.22 160.38 272.68 161.56 C 275.67 161.96 277.47 159.48 279.08 157.39 C 282.09 157.73 284.53 159.62 287.09 161.06 C 289.01 159.14 291.09 157.34 292.66 155.11 C 292.68 152.33 289.46 150.89 287.87 148.92 C 285.68 150.88 284.57 155.29 280.98 154.73 C 278.45 153.85 277.46 149.69 274.28 150.32 M 376.58 160.56 C 363.49 169.00 350.49 177.79 336.08 183.85 C 329.58 185.78 323.04 187.54 316.35 188.67 C 310.34 190.09 304.14 189.35 298.03 189.55 C 293.62 189.77 289.39 188.29 285.00 188.10 C 279.06 187.68 273.57 185.14 267.74 184.21 C 265.84 186.07 264.03 188.07 262.87 190.51 C 263.79 190.50 265.62 190.49 266.53 190.49 C 268.02 192.17 269.50 193.88 271.26 195.29 C 267.99 194.41 265.01 196.01 263.59 198.98 C 267.70 201.23 270.76 205.22 275.38 206.53 C 282.02 208.81 289.12 208.55 296.04 208.71 C 301.26 208.62 306.52 208.69 311.68 207.83 C 327.50 205.40 341.68 197.36 355.09 189.04 C 360.40 185.84 365.01 181.63 370.42 178.58 C 369.48 181.49 368.44 184.37 367.21 187.17 C 365.57 190.76 366.03 194.80 365.55 198.63 C 365.14 202.94 363.18 207.07 363.79 211.47 C 365.87 209.16 367.57 206.21 367.59 203.04 C 368.42 200.16 369.09 197.23 369.72 194.30 C 371.86 188.98 371.74 183.04 373.77 177.64 C 373.58 177.43 373.19 177.01 373.00 176.79 L 372.20 176.63 C 377.53 172.53 385.21 170.87 388.09 164.07 C 369.03 172.70 353.45 187.87 333.42 194.54 C 325.93 196.46 318.45 199.34 310.58 198.49 C 311.49 197.49 312.52 196.58 313.98 196.82 C 318.91 196.92 323.40 194.70 328.01 193.27 C 337.05 189.83 345.35 184.82 353.59 179.82 C 362.44 173.56 370.83 166.56 380.44 161.45 C 383.45 159.68 386.05 157.23 387.94 154.29 C 384.19 156.44 380.29 158.34 376.58 160.56 M 218.32 168.97 C 217.63 173.02 219.49 176.90 219.43 180.94 C 219.42 189.08 219.48 197.22 219.46 205.36 L 218.73 205.73 C 218.18 209.45 217.01 213.05 215.38 216.44 L 215.80 217.06 C 212.27 221.36 207.77 225.51 202.02 226.21 C 196.68 226.53 191.24 226.70 186.01 225.41 C 183.17 222.42 180.32 218.96 180.38 214.58 L 181.02 214.49 C 182.15 209.08 185.00 204.19 185.85 198.72 C 185.00 199.45 184.06 200.12 183.41 201.06 C 183.49 197.97 180.21 199.67 178.86 200.83 C 175.07 204.48 173.30 210.03 168.46 212.63 C 164.98 215.19 159.95 215.86 157.69 219.85 C 161.87 219.99 166.18 218.98 169.54 216.42 C 171.80 213.94 172.95 210.66 175.16 208.14 C 176.93 206.00 179.62 205.06 181.89 203.59 C 180.12 207.11 179.00 210.93 178.31 214.79 C 178.67 220.66 177.24 227.20 181.17 232.21 C 181.04 232.55 180.80 233.23 180.67 233.57 C 179.84 232.67 179.00 231.79 178.17 230.91 C 178.26 234.03 178.27 237.31 179.79 240.14 C 182.12 245.55 188.16 249.12 194.04 248.24 C 199.52 247.31 204.55 244.42 208.27 240.31 C 210.58 237.73 213.95 235.58 214.57 231.92 C 214.23 231.63 213.56 231.04 213.22 230.74 C 209.09 233.34 205.12 236.64 199.94 236.60 C 204.12 234.43 207.37 230.94 210.69 227.68 C 213.30 225.15 214.70 221.70 217.13 219.02 C 219.95 214.62 221.15 209.34 221.74 204.20 C 223.04 190.51 221.97 176.72 222.43 162.99 C 222.29 160.59 224.59 157.45 221.90 155.79 C 219.61 159.82 219.02 164.46 218.32 168.97 M 169.86 163.87 C 167.41 164.67 163.05 163.18 162.79 166.89 C 162.32 171.89 163.33 177.02 161.99 181.95 C 160.26 188.74 156.71 196.03 149.60 198.43 C 142.60 201.98 134.41 200.54 127.72 197.02 C 127.52 196.76 127.10 196.25 126.90 195.99 C 126.24 192.40 125.30 188.72 126.06 185.08 C 126.91 180.65 128.68 176.48 129.75 172.11 C 129.31 172.31 128.44 172.69 128.00 172.89 C 125.33 178.63 122.65 184.56 122.16 190.96 C 122.13 193.10 121.28 195.68 123.08 197.36 C 123.45 200.37 123.90 203.48 125.47 206.14 C 123.16 209.14 124.68 213.08 124.68 216.53 C 127.99 219.74 132.13 222.63 136.98 222.30 C 144.27 221.73 151.45 217.80 155.31 211.49 C 156.25 210.17 156.99 208.52 158.65 207.96 C 158.51 208.46 158.22 209.45 158.08 209.95 C 161.58 209.97 164.94 208.84 167.95 207.11 C 171.20 205.61 171.72 201.62 173.89 199.08 C 176.57 194.52 182.89 194.46 185.50 189.80 C 185.86 192.62 186.50 195.41 187.59 198.04 C 189.05 193.90 192.45 188.70 188.72 184.81 C 189.39 182.60 189.98 180.33 190.20 178.02 C 189.55 175.50 188.40 173.16 187.41 170.77 C 186.73 170.35 185.39 169.52 184.72 169.10 C 181.42 172.35 178.86 176.72 178.34 181.37 C 181.09 181.51 183.86 181.67 186.52 182.46 L 186.57 183.85 C 185.09 183.51 183.64 182.59 182.09 182.87 C 180.46 184.78 178.59 187.01 178.42 189.60 C 178.86 189.77 179.73 190.11 180.17 190.28 C 177.13 191.84 175.96 195.33 173.99 197.91 C 170.57 202.83 164.80 205.17 159.52 207.51 C 159.16 206.23 158.80 204.95 158.44 203.68 C 155.51 206.27 152.39 209.15 148.17 208.85 C 152.70 205.01 156.21 200.29 159.59 195.46 C 162.24 191.91 163.31 187.49 164.44 183.29 C 165.33 179.43 166.77 175.49 165.86 171.49 L 165.91 171.23 C 171.14 169.79 175.23 165.24 175.39 159.70 C 173.47 160.98 171.93 162.83 169.86 163.87 M 281.75 164.78 C 280.35 164.28 279.27 163.17 277.97 162.49 C 275.71 162.41 273.50 162.98 271.28 163.30 C 270.25 164.69 269.22 166.07 268.19 167.45 C 269.90 169.28 271.76 171.99 274.61 171.60 C 276.63 170.66 278.03 168.77 279.95 167.64 C 282.40 168.45 284.49 170.05 286.91 170.95 C 289.31 170.29 290.84 168.06 292.18 166.11 C 293.71 164.40 292.20 161.32 289.93 161.40 C 286.89 161.56 284.41 163.53 281.75 164.78 M 248.76 163.81 C 247.18 164.92 246.14 166.60 244.93 168.07 C 247.14 169.86 249.50 171.45 251.98 172.86 C 254.85 170.30 257.55 167.09 256.83 162.95 C 254.13 163.01 251.32 162.76 248.76 163.81 M 232.61 166.29 C 232.63 169.21 231.44 172.85 234.37 174.79 C 234.91 171.95 235.24 169.09 235.49 166.22 C 234.77 166.24 233.33 166.27 232.61 166.29 M 145.01 171.64 C 143.55 174.56 142.04 177.44 140.44 180.29 C 141.95 181.29 143.47 182.28 145.02 183.24 C 142.94 185.07 140.74 187.65 141.34 190.63 C 142.16 193.36 145.43 193.27 147.71 193.81 C 149.11 192.23 150.87 190.85 151.71 188.87 C 151.65 187.26 151.11 185.73 150.74 184.19 C 150.25 184.22 149.28 184.27 148.79 184.30 C 149.95 181.59 151.17 178.87 151.72 175.96 C 150.16 174.35 148.58 172.78 146.94 171.27 C 146.45 171.36 145.49 171.54 145.01 171.64 M 203.42 171.59 C 203.52 172.44 203.68 173.28 203.90 174.12 C 202.51 178.26 200.34 182.27 200.36 186.75 C 198.65 189.47 199.59 192.91 199.09 195.95 C 199.07 199.93 197.42 203.94 198.12 207.86 C 201.47 207.35 201.41 202.29 201.61 199.56 C 203.86 192.55 203.10 185.11 204.79 178.01 L 205.15 179.24 C 205.79 176.67 206.15 174.06 206.47 171.44 C 205.45 171.49 204.43 171.54 203.42 171.59 M 231.67 174.20 C 230.48 181.08 231.29 188.17 229.79 194.98 C 230.37 197.39 230.61 199.86 230.98 202.31 C 228.92 205.51 230.52 209.31 231.41 212.62 C 232.70 216.40 237.02 220.15 241.15 218.17 C 244.87 216.84 246.99 213.42 249.74 210.86 C 252.43 209.92 255.76 209.96 257.29 207.13 C 256.02 206.88 254.75 206.63 253.49 206.39 C 253.35 204.64 253.21 202.89 253.08 201.13 C 251.75 200.93 250.44 200.73 249.13 200.54 C 251.54 200.09 253.96 199.68 256.38 199.27 C 256.54 198.60 256.85 197.27 257.00 196.61 C 255.77 196.55 254.54 196.50 253.31 196.46 C 253.34 195.26 253.36 194.06 253.40 192.87 C 254.16 191.92 254.92 190.97 255.68 190.03 C 255.30 189.47 254.53 188.35 254.15 187.79 C 252.17 187.04 250.12 186.50 248.01 186.35 C 246.65 187.29 245.28 188.21 243.91 189.11 C 245.14 189.95 246.37 190.79 247.61 191.63 C 247.56 193.81 247.18 195.95 245.86 197.73 C 242.45 197.81 238.92 197.86 235.89 196.07 C 235.16 194.76 234.42 193.46 233.67 192.17 C 233.30 187.39 233.47 182.60 233.51 177.81 C 233.93 176.24 232.51 175.24 231.67 174.20 M 377.99 208.89 C 374.91 214.39 371.70 219.86 369.96 225.97 C 368.39 231.34 365.26 236.30 364.99 242.00 C 364.48 253.32 365.49 264.72 363.93 275.98 C 363.70 281.88 363.97 287.90 362.40 293.65 C 361.19 296.54 359.48 299.18 357.81 301.82 C 354.04 300.57 350.68 298.38 346.95 297.05 C 341.95 295.79 337.36 299.01 333.22 301.35 C 329.88 304.31 326.83 307.58 323.51 310.56 C 312.67 319.54 300.62 327.09 287.77 332.82 C 282.53 336.51 276.06 337.52 270.41 340.39 C 264.69 343.20 258.20 343.50 252.25 345.56 C 246.04 348.32 239.12 348.40 232.51 349.50 C 228.70 350.15 224.82 349.72 220.98 350.03 C 213.37 351.14 205.58 351.30 197.98 350.14 C 189.47 349.62 180.54 349.41 172.73 345.60 C 168.58 344.09 164.11 343.12 160.53 340.37 C 157.74 338.16 154.59 336.44 151.93 334.07 C 146.65 328.96 146.23 320.95 146.94 314.06 C 147.10 305.84 150.25 298.05 151.15 289.95 C 152.15 285.13 145.07 282.79 142.44 286.42 C 137.35 292.67 137.75 301.35 134.37 308.43 C 131.74 313.42 131.01 319.22 127.93 323.98 C 124.91 327.85 124.15 333.06 120.48 336.49 C 116.75 339.75 113.32 343.34 109.25 346.19 C 106.32 349.41 102.04 350.88 99.18 354.16 C 97.47 355.95 94.74 357.24 94.64 360.05 C 94.69 362.33 95.14 365.68 98.01 365.96 C 100.24 366.59 101.89 364.68 103.67 363.72 C 109.13 360.23 116.19 361.87 121.76 358.71 C 125.74 355.41 129.76 351.81 131.76 346.91 C 131.34 352.45 135.27 356.68 137.96 361.08 C 140.52 365.19 144.84 367.58 148.55 370.49 C 151.30 372.65 154.56 373.94 157.75 375.27 C 167.60 380.67 179.17 380.85 190.09 381.81 C 197.06 382.75 204.01 381.19 210.99 381.23 C 219.92 380.23 228.92 379.54 237.68 377.45 C 246.02 374.09 255.42 373.86 263.31 369.25 C 269.24 367.65 274.49 364.57 279.91 361.82 C 285.91 359.97 290.48 355.40 296.39 353.35 C 299.92 351.29 302.90 348.39 306.65 346.65 C 310.61 343.22 315.31 340.76 319.02 337.02 C 322.98 333.95 326.29 330.15 330.35 327.20 C 333.63 323.41 336.68 318.97 341.15 316.51 C 344.25 316.72 346.62 319.26 349.28 320.68 C 352.46 322.91 357.03 322.45 359.90 319.91 C 364.43 316.04 368.63 311.55 371.01 306.00 C 376.80 297.53 377.19 286.90 380.32 277.39 C 382.04 269.71 382.13 261.81 382.36 253.98 C 383.67 246.70 382.68 239.27 383.76 231.98 C 384.49 226.75 384.06 221.26 386.24 216.33 C 387.36 213.73 387.65 210.46 386.09 207.97 C 383.68 206.18 379.84 206.39 377.99 208.89 M 315.61 214.45 C 313.10 216.69 311.36 219.62 309.17 222.15 C 311.04 223.61 312.88 225.13 314.65 226.74 C 311.98 227.81 310.28 230.12 308.99 232.56 C 311.05 234.02 313.15 235.43 315.28 236.81 C 317.67 234.97 320.75 233.23 321.25 229.95 C 320.98 227.74 318.87 226.56 317.46 225.11 C 319.72 223.72 321.46 221.41 321.58 218.69 C 319.63 217.32 318.15 214.52 315.61 214.45 M 270.74 219.83 C 270.57 221.82 269.98 224.00 271.44 225.68 C 270.06 227.70 268.63 229.76 266.51 231.07 C 266.68 231.11 267.00 231.19 267.16 231.23 C 268.18 230.33 269.20 229.43 270.24 228.56 C 271.36 228.17 272.52 227.80 273.46 227.05 C 272.48 224.75 273.45 222.25 273.33 219.85 C 272.46 219.84 271.60 219.84 270.74 219.83 M 325.66 227.42 L 325.96 228.03 C 324.86 231.61 323.37 235.20 323.48 239.02 C 323.45 243.78 323.90 248.65 322.56 253.30 C 320.75 255.93 320.31 259.10 320.39 262.23 C 322.43 260.69 324.23 258.03 323.82 255.48 C 325.78 249.24 327.02 242.75 327.54 236.24 C 328.93 232.26 328.97 228.00 329.99 223.94 C 330.38 222.54 330.30 221.09 330.07 219.68 C 327.93 221.82 326.56 224.56 325.66 227.42 M 155.03 221.36 C 153.79 223.42 152.64 225.54 151.19 227.47 C 147.50 227.97 145.61 223.79 142.84 222.05 C 140.32 224.98 138.69 228.48 136.99 231.90 C 138.94 233.15 140.80 234.67 143.03 235.41 C 139.88 235.64 137.85 238.37 137.40 241.29 C 138.08 243.69 140.72 245.07 143.07 245.24 C 144.89 244.27 146.26 242.67 148.00 241.59 C 151.09 241.50 153.65 244.20 156.80 243.84 C 159.01 242.10 161.65 239.41 160.71 236.33 C 160.28 234.80 158.55 234.19 157.52 233.16 C 159.35 231.41 160.49 229.10 161.74 226.92 C 159.79 224.74 157.53 222.87 155.03 221.36 M 428.50 224.61 C 425.29 228.27 421.94 231.93 419.54 236.20 C 414.56 233.12 410.24 229.07 405.80 225.28 C 401.15 223.46 397.66 227.95 395.36 231.30 C 393.51 235.03 389.94 237.51 388.30 241.35 C 384.72 243.40 382.96 247.91 384.23 251.84 C 387.69 257.24 394.20 258.99 398.55 263.41 C 400.60 265.69 404.08 265.33 406.79 264.71 C 411.24 261.94 413.87 257.06 418.06 254.04 C 420.58 254.75 422.27 257.21 424.51 258.56 C 427.74 260.63 430.77 264.25 435.00 263.54 C 441.16 261.85 444.56 255.96 448.05 251.11 C 450.70 247.90 450.77 243.35 450.40 239.41 C 449.06 233.48 442.66 231.13 438.50 227.48 C 435.91 225.03 432.06 222.50 428.50 224.61 M 282.08 236.16 C 283.73 237.02 285.37 237.89 287.02 238.78 C 288.94 236.90 291.19 235.24 292.58 232.90 C 293.03 229.96 290.06 227.68 287.45 227.15 C 285.38 229.97 282.56 232.51 282.08 236.16 M 252.73 230.12 C 250.63 233.03 248.58 235.97 246.90 239.15 C 248.66 240.24 250.22 242.21 252.37 242.42 C 250.20 244.27 244.95 247.51 248.48 250.47 C 250.40 252.70 253.15 251.49 255.44 250.72 C 255.43 255.49 252.84 259.84 253.48 264.73 C 256.02 264.32 258.54 263.81 261.05 263.23 C 262.26 260.67 263.35 258.04 264.11 255.30 C 263.27 255.38 261.60 255.53 260.76 255.60 C 259.04 254.33 258.08 252.53 258.06 250.37 C 257.50 250.44 256.39 250.57 255.83 250.64 C 256.29 248.72 257.04 246.90 257.65 245.03 C 257.70 242.90 255.03 242.41 253.71 241.29 C 255.48 239.56 257.30 237.61 257.86 235.13 C 256.72 232.95 254.68 231.50 252.73 230.12 M 225.91 251.82 C 225.60 256.54 225.97 261.33 224.86 265.97 C 223.77 269.80 225.60 273.44 226.37 277.11 C 223.38 279.73 225.37 283.75 226.18 286.90 C 226.88 289.85 230.03 292.57 233.15 291.32 C 238.58 290.23 239.03 282.75 244.54 281.88 C 244.53 283.80 244.56 285.73 244.64 287.67 C 243.71 291.89 244.91 296.17 246.09 300.21 C 245.28 302.21 244.46 304.21 243.65 306.21 C 246.20 310.45 248.25 315.82 253.43 317.46 C 257.89 318.22 262.86 318.31 266.90 315.97 C 277.28 310.83 283.72 300.25 287.18 289.55 C 288.45 285.68 288.08 281.41 289.63 277.64 C 294.36 275.07 300.07 274.70 304.52 271.54 C 309.19 267.75 312.32 262.21 313.20 256.26 C 313.50 253.63 314.54 250.50 312.44 248.34 C 312.72 244.79 314.15 241.23 313.25 237.67 C 310.63 242.76 306.93 248.36 309.51 254.26 L 311.09 253.05 C 309.81 256.26 308.54 259.49 308.15 262.96 C 307.95 265.81 305.19 267.23 302.83 268.09 C 298.36 269.72 293.94 271.91 289.08 271.97 C 289.40 270.66 289.21 269.43 288.49 268.29 C 292.22 264.79 297.55 264.55 302.04 262.54 C 304.46 261.66 306.63 259.69 306.96 257.00 C 304.60 257.33 302.69 258.71 300.89 260.16 C 298.68 260.27 296.60 260.96 294.63 261.93 C 292.30 263.05 289.74 262.06 287.37 261.62 C 287.38 261.90 287.39 262.45 287.39 262.72 C 285.67 265.50 286.10 268.92 285.78 272.04 C 285.70 277.38 284.13 282.72 281.09 287.13 C 278.88 290.49 275.36 292.60 272.68 295.53 C 267.36 297.67 261.52 297.74 255.91 296.99 C 251.94 296.16 247.98 293.48 246.60 289.56 C 248.12 286.25 247.13 282.52 247.85 279.06 C 248.88 276.01 250.96 273.27 250.84 269.90 C 251.30 268.48 251.68 267.04 252.09 265.60 C 250.25 265.57 248.42 265.54 246.59 265.48 C 246.26 265.81 245.61 266.48 245.29 266.81 C 242.91 267.82 241.23 269.93 238.90 270.96 C 234.92 272.36 231.00 269.33 229.26 265.94 C 227.86 259.78 228.82 253.33 230.22 247.24 C 230.21 246.71 230.17 245.63 230.16 245.09 C 231.29 241.95 232.26 238.50 231.11 235.22 C 227.10 239.76 226.90 246.14 225.91 251.82 M 283.02 242.23 C 282.09 241.80 281.11 241.51 280.07 241.38 C 278.64 243.23 277.09 244.98 275.47 246.67 C 275.38 247.62 275.30 248.58 275.22 249.54 C 276.71 250.79 278.40 251.77 280.39 251.91 C 281.76 250.37 283.09 248.74 284.87 247.64 C 286.41 247.64 287.85 248.27 289.31 248.70 C 290.10 249.48 290.97 250.17 291.90 250.77 C 294.47 249.17 296.46 246.66 297.72 243.94 C 297.59 241.25 294.57 239.00 291.89 239.40 L 291.72 240.35 C 289.38 237.38 285.17 240.26 283.02 242.23 M 336.20 250.46 C 337.98 251.98 339.81 253.48 341.42 255.20 C 341.45 255.67 341.50 256.61 341.53 257.08 C 340.38 256.01 339.22 254.94 338.06 253.89 C 337.12 255.74 335.38 257.70 336.10 259.91 C 336.40 261.99 338.87 261.99 340.37 262.77 C 336.35 266.00 331.66 268.44 328.14 272.25 C 332.07 269.06 337.75 269.58 341.22 265.57 C 340.91 267.77 342.22 270.58 340.31 272.29 C 337.11 275.46 332.89 277.35 329.80 280.65 C 333.28 280.01 337.20 279.53 339.69 276.72 C 343.07 273.10 345.29 268.55 346.96 263.93 C 347.68 261.59 348.59 258.06 345.37 257.22 C 346.64 254.43 348.25 251.29 347.04 248.19 C 346.01 244.76 343.39 242.23 340.87 239.87 C 338.48 242.96 336.05 246.36 336.20 250.46 M 162.65 260.75 C 164.72 261.09 166.41 260.14 167.71 258.58 C 167.68 257.55 167.64 256.52 167.61 255.49 C 166.68 255.60 164.83 255.82 163.90 255.92 C 163.72 255.11 163.34 253.49 163.16 252.68 C 164.42 250.82 165.70 248.97 166.94 247.09 C 163.76 250.73 159.65 255.80 162.65 260.75 M 215.91 250.75 C 215.38 253.51 213.88 255.95 213.23 258.65 C 211.49 264.52 213.62 270.81 212.13 276.72 C 209.63 282.43 204.46 286.80 198.87 289.35 C 192.40 291.06 185.02 291.33 178.93 288.17 C 177.81 286.86 176.75 285.50 175.66 284.16 C 175.56 282.19 175.68 280.18 175.23 278.25 C 176.25 274.47 177.38 270.72 179.05 267.17 C 179.90 265.51 180.19 263.66 179.88 261.82 C 175.33 267.89 172.41 275.37 172.29 283.01 C 172.23 286.08 172.05 289.37 173.75 292.08 C 174.91 293.58 175.78 295.27 176.63 296.97 C 175.49 296.27 174.30 295.69 173.11 295.10 C 172.40 301.06 175.21 307.55 180.68 310.30 C 186.35 312.16 193.16 311.74 198.01 308.01 C 208.41 300.79 214.32 288.61 215.99 276.30 C 215.29 276.45 213.91 276.76 213.22 276.91 C 213.59 275.19 214.15 273.52 214.93 271.94 C 215.81 267.80 215.07 263.51 216.12 259.41 C 216.84 256.84 216.51 254.17 216.29 251.56 C 216.64 251.27 217.35 250.67 217.71 250.37 C 217.26 250.46 216.36 250.66 215.91 250.75 M 287.11 254.38 C 285.14 253.59 283.06 251.69 280.85 252.82 C 278.12 253.79 274.92 255.60 275.09 258.95 C 276.18 260.64 278.13 261.39 279.81 262.37 C 281.75 260.77 283.43 258.52 285.97 257.90 C 288.35 258.56 290.55 259.70 292.79 260.72 C 294.49 258.78 296.44 256.97 297.61 254.62 C 298.41 252.86 297.08 250.46 295.09 250.41 C 292.35 251.57 289.84 253.20 287.11 254.38 M 190.58 268.59 C 192.94 270.23 195.20 273.69 198.47 272.53 C 200.08 271.10 201.15 269.10 201.65 267.02 C 201.82 263.70 198.74 261.07 195.54 261.05 C 193.99 263.63 192.46 266.23 190.58 268.59 M 163.37 270.67 C 165.95 271.84 167.75 268.92 168.01 266.72 C 166.11 265.85 164.21 264.96 162.32 264.06 C 161.17 266.18 160.61 269.50 163.37 270.67 M 254.70 265.71 C 254.42 268.63 254.38 271.57 254.59 274.50 C 259.52 274.88 262.17 270.43 263.96 266.57 C 261.08 265.04 257.81 265.48 254.70 265.71 M 193.48 274.43 C 192.21 275.63 191.63 277.34 190.82 278.85 C 192.92 280.84 195.25 282.61 198.01 283.58 C 200.31 280.75 202.86 277.21 200.97 273.45 C 198.48 273.79 195.88 273.67 193.48 274.43 M 402.99 274.99 C 400.26 281.79 396.90 288.34 394.41 295.26 C 392.51 302.03 394.70 309.09 393.88 315.97 C 393.65 317.48 392.45 318.57 391.70 319.83 C 388.45 312.83 378.84 308.47 372.03 313.05 C 368.91 316.32 365.94 319.89 364.10 324.06 C 361.88 328.68 357.65 332.61 357.72 338.07 C 357.83 341.63 358.28 346.23 361.76 348.15 C 365.12 350.22 368.48 352.32 372.17 353.76 C 369.76 355.47 367.34 357.20 365.06 359.10 C 358.30 364.58 350.23 368.10 343.21 373.19 C 340.31 374.73 339.99 379.50 342.50 381.48 C 345.58 382.32 348.81 382.61 351.98 382.99 C 354.31 383.37 355.51 381.12 356.74 379.61 C 362.51 378.73 367.65 375.96 373.09 374.01 C 378.98 371.43 382.10 365.35 385.08 360.03 C 388.25 356.05 389.05 350.88 391.56 346.55 C 393.12 343.86 393.90 340.83 394.97 337.94 C 395.91 335.14 398.60 333.54 400.07 331.08 C 401.85 328.21 403.17 325.03 405.48 322.51 C 408.51 319.44 409.19 315.00 411.24 311.34 C 412.88 308.52 413.18 305.23 413.13 302.03 C 413.02 293.17 413.69 284.14 411.40 275.48 C 409.39 273.13 405.38 273.32 402.99 274.99 M 294.17 294.23 C 296.44 296.11 299.01 297.89 302.10 297.76 C 303.59 295.19 306.00 292.85 305.82 289.65 C 304.04 288.12 302.07 286.79 299.82 286.07 C 298.23 288.98 296.35 291.72 294.17 294.23 M 294.37 304.19 C 296.23 306.11 298.49 307.55 300.86 308.76 C 303.48 306.23 307.83 302.16 304.65 298.43 C 300.50 298.52 295.80 299.79 294.37 304.19 M 228.76 300.68 C 228.71 301.33 228.61 302.64 228.56 303.29 C 227.20 304.30 225.90 306.01 223.96 305.46 C 221.13 305.24 219.22 302.01 216.36 302.42 C 214.34 304.94 212.62 307.70 210.38 310.05 C 211.15 310.86 211.93 311.67 212.71 312.49 L 213.30 312.31 C 213.71 313.42 214.39 314.85 215.92 314.58 C 213.57 317.14 211.18 319.69 208.27 321.62 C 211.81 321.19 214.91 323.10 217.91 324.67 C 219.41 322.92 220.78 321.04 222.49 319.49 C 225.49 318.76 227.86 321.62 230.31 322.93 C 232.61 321.07 235.36 319.06 235.76 315.89 C 236.17 313.69 233.90 312.51 232.64 311.16 C 234.10 309.49 236.01 307.68 236.33 305.45 C 235.03 303.48 233.02 302.13 231.29 300.57 C 230.44 300.60 229.60 300.64 228.76 300.68 M 262.41 397.27 C 260.86 400.29 258.36 402.64 256.52 405.47 C 250.86 401.81 244.86 397.59 237.99 397.04 C 233.99 398.71 231.62 402.80 229.13 406.16 C 225.87 409.12 224.62 413.51 221.69 416.74 C 219.44 419.17 219.56 422.89 221.66 425.38 C 224.56 430.05 230.75 429.98 234.60 433.45 C 236.89 435.46 239.90 436.56 242.95 436.46 C 249.39 435.97 252.02 429.23 255.92 425.08 C 260.11 427.89 264.45 430.53 268.22 433.91 C 269.62 435.39 272.04 435.30 273.82 434.64 C 277.40 431.97 281.15 429.30 283.33 425.29 C 287.80 421.68 289.60 415.59 289.32 410.02 C 289.10 405.28 285.33 401.83 281.61 399.42 C 277.86 397.07 274.50 393.71 270.00 392.89 C 266.95 392.76 263.76 394.48 262.41 397.27 Z" />
<path fill="#d2ae78" opacity="1.00" d=" M 147.30 231.21 C 150.34 231.56 153.14 232.85 155.72 234.45 C 153.88 235.33 152.01 236.11 150.12 236.85 C 148.00 236.21 145.86 235.62 143.66 235.30 C 144.94 234.00 146.11 232.60 147.30 231.21 Z" />
<path fill="#d2ae78" opacity="1.00" d=" M 242.60 272.50 C 244.24 271.04 246.64 271.72 248.63 271.44 C 248.31 273.26 248.04 275.10 247.62 276.91 C 247.26 276.53 246.55 275.76 246.19 275.37 C 243.14 278.08 240.16 281.52 235.75 281.64 C 237.81 278.45 239.72 275.04 242.60 272.50 Z" />
<path fill="#d2ae78" opacity="1.00" d=" M 209.33 285.72 C 210.14 284.56 210.95 283.39 211.74 282.22 C 211.75 284.92 212.02 287.91 210.13 290.13 C 206.11 295.24 200.56 299.80 193.88 300.52 C 200.07 296.83 205.26 291.64 209.33 285.72 Z" />
<path fill="#d2ae78" opacity="1.00" d=" M 222.36 308.94 C 225.14 309.50 227.65 310.84 229.77 312.72 C 226.11 313.78 222.39 314.59 218.65 315.30 C 219.23 314.80 220.37 313.80 220.95 313.29 C 220.89 312.80 220.79 311.81 220.74 311.31 C 221.14 310.72 221.95 309.53 222.36 308.94 Z" />
</g>
<g id="#feededff">
<path fill="#feeded" opacity="1.00" d=" M 260.63 112.44 C 260.22 106.19 258.66 99.84 260.20 93.62 C 261.45 99.85 260.18 106.16 260.63 112.44 Z" />
<path fill="#feeded" opacity="1.00" d=" M 267.49 114.71 C 268.80 115.38 270.17 116.08 270.81 117.52 C 269.55 118.50 267.92 118.30 266.46 118.52 C 266.72 117.57 267.23 115.66 267.49 114.71 Z" />
<path fill="#feeded" opacity="1.00" d=" M 232.61 166.29 C 233.33 166.27 234.77 166.24 235.49 166.22 C 235.24 169.09 234.91 171.95 234.37 174.79 C 231.44 172.85 232.63 169.21 232.61 166.29 Z" />
<path fill="#feeded" opacity="1.00" d=" M 370.15 183.40 C 373.50 183.49 368.65 186.39 370.15 183.40 Z" />
<path fill="#feeded" opacity="1.00" d=" M 377.99 208.89 C 379.84 206.39 383.68 206.18 386.09 207.97 C 387.65 210.46 387.36 213.73 386.24 216.33 C 384.06 221.26 384.49 226.75 383.76 231.98 C 382.68 239.27 383.67 246.70 382.36 253.98 C 382.13 261.81 382.04 269.71 380.32 277.39 C 377.19 286.90 376.80 297.53 371.01 306.00 C 368.63 311.55 364.43 316.04 359.90 319.91 C 357.03 322.45 352.46 322.91 349.28 320.68 C 346.62 319.26 344.25 316.72 341.15 316.51 C 336.68 318.97 333.63 323.41 330.35 327.20 C 326.29 330.15 322.98 333.95 319.02 337.02 C 315.31 340.76 310.61 343.22 306.65 346.65 C 302.90 348.39 299.92 351.29 296.39 353.35 C 290.48 355.40 285.91 359.97 279.91 361.82 C 274.49 364.57 269.24 367.65 263.31 369.25 C 255.42 373.86 246.02 374.09 237.68 377.45 C 228.92 379.54 219.92 380.23 210.99 381.23 C 204.01 381.19 197.06 382.75 190.09 381.81 C 179.17 380.85 167.60 380.67 157.75 375.27 C 154.56 373.94 151.30 372.65 148.55 370.49 C 144.84 367.58 140.52 365.19 137.96 361.08 C 135.27 356.68 131.34 352.45 131.76 346.91 C 129.76 351.81 125.74 355.41 121.76 358.71 C 116.19 361.87 109.13 360.23 103.67 363.72 C 101.89 364.68 100.24 366.59 98.01 365.96 C 95.14 365.68 94.69 362.33 94.64 360.05 C 94.74 357.24 97.47 355.95 99.18 354.16 C 102.04 350.88 106.32 349.41 109.25 346.19 C 113.32 343.34 116.75 339.75 120.48 336.49 C 124.15 333.06 124.91 327.85 127.93 323.98 C 131.01 319.22 131.74 313.42 134.37 308.43 C 137.75 301.35 137.35 292.67 142.44 286.42 C 145.07 282.79 152.15 285.13 151.15 289.95 C 150.25 298.05 147.10 305.84 146.94 314.06 C 146.23 320.95 146.65 328.96 151.93 334.07 C 154.59 336.44 157.74 338.16 160.53 340.37 C 164.11 343.12 168.58 344.09 172.73 345.60 C 180.54 349.41 189.47 349.62 197.98 350.14 C 205.58 351.30 213.37 351.14 220.98 350.03 C 224.82 349.72 228.70 350.15 232.51 349.50 C 239.12 348.40 246.04 348.32 252.25 345.56 C 258.20 343.50 264.69 343.20 270.41 340.39 C 276.06 337.52 282.53 336.51 287.77 332.82 C 300.62 327.09 312.67 319.54 323.51 310.56 C 326.83 307.58 329.88 304.31 333.22 301.35 C 337.36 299.01 341.95 295.79 346.95 297.05 C 350.68 298.38 354.04 300.57 357.81 301.82 C 359.48 299.18 361.19 296.54 362.40 293.65 C 363.97 287.90 363.70 281.88 363.93 275.98 C 365.49 264.72 364.48 253.32 364.99 242.00 C 365.26 236.30 368.39 231.34 369.96 225.97 C 371.70 219.86 374.91 214.39 377.99 208.89 M 380.63 213.37 C 377.43 220.24 374.10 227.08 371.64 234.26 C 368.48 243.87 369.86 254.11 369.22 264.03 C 368.47 273.96 368.96 284.04 366.93 293.83 C 365.85 298.79 363.32 303.55 359.20 306.62 C 352.70 307.52 348.52 299.53 341.96 301.70 C 337.13 303.53 333.59 307.43 329.80 310.77 C 322.94 317.48 314.93 322.87 306.82 327.93 C 299.48 332.43 291.82 336.39 283.94 339.85 C 270.54 345.84 256.39 350.03 241.98 352.77 C 228.81 355.16 215.36 355.16 202.01 355.07 C 195.33 354.76 188.55 354.76 182.04 353.02 C 180.33 352.75 178.61 352.49 176.96 351.97 C 175.70 351.64 174.39 351.50 173.27 350.79 C 168.34 349.26 163.41 347.54 158.99 344.81 C 151.74 340.26 144.14 334.37 142.22 325.54 C 140.12 315.08 143.33 304.67 145.77 294.57 C 146.48 292.37 146.62 290.04 146.23 287.76 C 143.44 293.54 142.17 299.87 140.10 305.90 C 136.70 315.75 133.16 325.69 127.42 334.47 C 123.32 340.60 117.68 345.47 111.97 350.05 C 107.54 353.95 102.06 356.60 98.24 361.19 C 99.86 360.61 101.43 359.93 102.99 359.25 C 107.48 356.59 112.79 356.74 117.66 355.38 C 125.70 351.76 128.88 342.82 132.69 335.53 C 133.19 335.47 134.18 335.36 134.67 335.31 C 134.96 341.75 135.86 348.38 138.96 354.13 C 143.31 362.95 152.19 368.21 160.97 371.82 C 161.98 372.21 162.99 372.59 164.00 372.97 C 186.80 380.20 211.19 377.56 234.29 373.33 C 243.95 370.88 253.82 368.75 262.90 364.56 C 263.35 364.46 264.24 364.25 264.69 364.14 C 286.21 354.49 307.21 342.78 324.29 326.29 C 328.77 322.08 332.68 317.26 337.39 313.30 C 338.34 312.38 339.63 311.98 340.94 312.03 C 346.10 311.55 349.20 316.88 354.18 317.37 C 356.31 316.67 358.58 315.92 360.01 314.05 C 366.03 307.00 370.46 298.53 372.63 289.52 C 373.97 284.03 375.52 278.57 376.29 272.96 C 379.14 252.27 377.40 231.08 382.54 210.70 C 381.80 211.51 381.07 212.35 380.63 213.37 Z" />
<path fill="#feeded" opacity="1.00" d=" M 270.74 219.83 C 271.60 219.84 272.46 219.84 273.33 219.85 C 273.45 222.25 272.48 224.75 273.46 227.05 C 272.52 227.80 271.36 228.17 270.24 228.56 C 269.20 229.43 268.18 230.33 267.16 231.23 C 267.00 231.19 266.68 231.11 266.51 231.07 C 268.63 229.76 270.06 227.70 271.44 225.68 C 269.98 224.00 270.57 221.82 270.74 219.83 Z" />
<path fill="#feeded" opacity="1.00" d=" M 428.50 224.61 C 432.06 222.50 435.91 225.03 438.50 227.48 C 442.66 231.13 449.06 233.48 450.40 239.41 C 450.77 243.35 450.70 247.90 448.05 251.11 C 444.56 255.96 441.16 261.85 435.00 263.54 C 430.77 264.25 427.74 260.63 424.51 258.56 C 422.27 257.21 420.58 254.75 418.06 254.04 C 413.87 257.06 411.24 261.94 406.79 264.71 C 404.08 265.33 400.60 265.69 398.55 263.41 C 394.20 258.99 387.69 257.24 384.23 251.84 C 382.96 247.91 384.72 243.40 388.30 241.35 C 389.94 237.51 393.51 235.03 395.36 231.30 C 397.66 227.95 401.15 223.46 405.80 225.28 C 410.24 229.07 414.56 233.12 419.54 236.20 C 421.94 231.93 425.29 228.27 428.50 224.61 M 429.24 230.29 C 425.99 234.61 422.78 238.97 419.42 243.21 C 418.99 243.35 418.14 243.65 417.71 243.79 C 417.31 242.18 416.81 240.53 415.51 239.41 C 411.65 235.50 407.08 232.39 402.63 229.22 C 397.84 236.08 392.21 242.48 388.17 249.80 C 391.13 252.96 395.28 254.70 398.48 257.61 C 400.50 259.20 403.29 261.73 405.93 259.86 C 408.83 257.45 411.36 254.56 413.70 251.60 C 414.82 250.45 415.36 248.39 417.06 248.03 C 423.26 251.08 428.32 256.04 433.98 259.98 C 439.07 256.46 443.15 251.48 445.63 245.82 C 446.70 243.34 447.21 239.87 444.85 237.94 C 440.75 234.33 435.91 231.68 431.74 228.15 C 430.86 228.80 429.85 229.35 429.24 230.29 Z" />
<path fill="#feeded" opacity="1.00" d=" M 228.98 241.15 C 229.40 242.45 229.79 243.76 230.16 245.09 C 230.17 245.63 230.21 246.71 230.22 247.24 C 229.52 247.56 228.10 248.19 227.40 248.50 C 227.84 246.03 228.35 243.58 228.98 241.15 Z" />
<path fill="#feeded" opacity="1.00" d=" M 341.42 255.20 C 342.13 257.15 342.72 259.15 343.32 261.14 C 342.55 262.58 341.79 264.03 341.22 265.57 C 337.75 269.58 332.07 269.06 328.14 272.25 C 331.66 268.44 336.35 266.00 340.37 262.77 L 341.35 261.95 C 341.50 260.33 341.56 258.71 341.53 257.08 C 341.50 256.61 341.45 255.67 341.42 255.20 Z" />
<path fill="#feeded" opacity="1.00" d=" M 212.13 276.72 C 213.62 270.81 211.49 264.52 213.23 258.65 C 213.50 263.34 213.56 268.04 213.31 272.73 C 213.72 272.53 214.53 272.13 214.93 271.94 C 214.15 273.52 213.59 275.19 213.22 276.91 C 212.76 278.69 212.26 280.45 211.74 282.22 C 210.95 283.39 210.14 284.56 209.33 285.72 C 208.97 285.38 208.25 284.72 207.89 284.38 C 204.71 287.18 201.37 290.45 196.93 290.89 C 192.33 291.30 187.68 291.31 183.08 290.94 C 181.21 291.00 180.10 289.35 178.93 288.17 C 185.02 291.33 192.40 291.06 198.87 289.35 C 204.46 286.80 209.63 282.43 212.13 276.72 Z" />
<path fill="#feeded" opacity="1.00" d=" M 402.99 274.99 C 405.38 273.32 409.39 273.13 411.40 275.48 C 413.69 284.14 413.02 293.17 413.13 302.03 C 413.18 305.23 412.88 308.52 411.24 311.34 C 409.19 315.00 408.51 319.44 405.48 322.51 C 403.17 325.03 401.85 328.21 400.07 331.08 C 398.60 333.54 395.91 335.14 394.97 337.94 C 393.90 340.83 393.12 343.86 391.56 346.55 C 389.05 350.88 388.25 356.05 385.08 360.03 C 382.10 365.35 378.98 371.43 373.09 374.01 C 367.65 375.96 362.51 378.73 356.74 379.61 C 355.51 381.12 354.31 383.37 351.98 382.99 C 348.81 382.61 345.58 382.32 342.50 381.48 C 339.99 379.50 340.31 374.73 343.21 373.19 C 350.23 368.10 358.30 364.58 365.06 359.10 C 367.34 357.20 369.76 355.47 372.17 353.76 C 368.48 352.32 365.12 350.22 361.76 348.15 C 358.28 346.23 357.83 341.63 357.72 338.07 C 357.65 332.61 361.88 328.68 364.10 324.06 C 365.94 319.89 368.91 316.32 372.03 313.05 C 378.84 308.47 388.45 312.83 391.70 319.83 C 392.45 318.57 393.65 317.48 393.88 315.97 C 394.70 309.09 392.51 302.03 394.41 295.26 C 396.90 288.34 400.26 281.79 402.99 274.99 M 406.09 278.84 C 405.57 280.38 404.98 281.89 404.36 283.38 L 405.16 284.32 L 403.96 283.98 C 402.11 290.09 398.34 295.52 397.69 301.99 C 398.94 306.95 398.72 312.23 398.28 317.29 C 396.61 321.15 393.78 324.71 390.01 326.67 C 388.51 321.50 384.83 316.24 379.01 315.81 C 375.05 315.12 372.37 318.58 370.80 321.70 C 368.12 326.49 364.84 330.97 362.68 336.05 C 361.22 337.86 361.23 340.15 362.67 341.97 C 363.68 343.77 365.34 345.07 366.90 346.37 C 371.29 348.49 376.20 349.01 381.00 348.28 C 377.80 354.93 372.05 359.91 366.10 364.06 C 359.10 368.76 351.81 373.01 344.53 377.24 C 347.15 377.97 349.70 376.69 352.20 376.06 C 356.54 374.85 360.83 373.44 365.16 372.18 C 369.18 371.04 373.32 369.43 375.94 365.98 C 380.84 359.72 383.90 352.29 387.26 345.14 C 388.85 340.93 389.98 336.39 392.80 332.78 C 396.17 328.40 398.97 323.63 402.31 319.22 C 407.10 311.73 409.50 302.52 408.46 293.67 C 408.16 288.31 407.92 282.95 407.91 277.58 C 407.46 277.90 406.55 278.53 406.09 278.84 Z" />
<path fill="#feeded" opacity="1.00" d=" M 262.41 397.27 C 263.76 394.48 266.95 392.76 270.00 392.89 C 274.50 393.71 277.86 397.07 281.61 399.42 C 285.33 401.83 289.10 405.28 289.32 410.02 C 289.60 415.59 287.80 421.68 283.33 425.29 C 281.15 429.30 277.40 431.97 273.82 434.64 C 272.04 435.30 269.62 435.39 268.22 433.91 C 264.45 430.53 260.11 427.89 255.92 425.08 C 252.02 429.23 249.39 435.97 242.95 436.46 C 239.90 436.56 236.89 435.46 234.60 433.45 C 230.75 429.98 224.56 430.05 221.66 425.38 C 219.56 422.89 219.44 419.17 221.69 416.74 C 224.62 413.51 225.87 409.12 229.13 406.16 C 231.62 402.80 233.99 398.71 237.99 397.04 C 244.86 397.59 250.86 401.81 256.52 405.47 C 258.36 402.64 260.86 400.29 262.41 397.27 M 268.12 398.03 C 263.43 402.25 260.98 408.26 257.02 413.07 C 253.57 406.73 246.07 405.06 240.31 401.56 C 239.83 401.53 238.88 401.46 238.40 401.43 C 233.77 407.52 228.83 413.49 225.28 420.31 C 224.07 424.90 230.04 425.35 232.86 427.07 C 236.40 428.57 239.34 431.61 243.12 432.36 C 247.43 429.03 250.78 424.54 253.88 420.08 C 254.87 420.37 255.87 420.67 256.86 420.98 C 261.44 422.78 265.37 425.85 269.16 428.91 C 270.47 429.41 272.12 430.52 273.39 429.29 C 277.69 425.73 281.50 421.34 283.82 416.23 C 285.41 413.75 286.55 410.40 284.32 407.93 C 281.03 403.64 276.19 401.02 271.59 398.39 C 270.58 397.85 269.12 397.03 268.12 398.03 Z" />
</g>
<g id="#e1caaeff">
<path fill="#e1caae" opacity="1.00" d=" M 249.24 99.50 C 250.27 99.46 251.30 99.42 252.34 99.40 C 253.73 103.18 255.34 107.12 254.44 111.24 C 251.87 107.79 249.93 103.77 249.24 99.50 Z" />
<path fill="#e1caae" opacity="1.00" d=" M 264.61 106.02 C 264.69 103.38 265.54 100.77 267.40 98.85 C 267.94 102.96 267.09 107.02 266.45 111.06 C 267.04 112.35 267.93 113.47 268.73 114.64 C 272.32 113.20 275.63 111.19 279.00 109.30 C 280.49 109.77 279.49 110.97 278.97 111.83 C 276.98 114.60 273.71 115.94 270.81 117.52 C 270.17 116.08 268.80 115.38 267.49 114.71 C 267.23 115.66 266.72 117.57 266.46 118.52 C 263.60 114.97 264.55 110.22 264.61 106.02 Z" />
<path fill="#e1caae" opacity="1.00" d=" M 224.48 102.40 C 223.79 100.95 225.46 99.96 226.01 98.82 C 229.29 102.79 230.16 108.18 229.56 113.18 C 227.26 109.91 225.70 106.19 224.48 102.40 Z" />
<path fill="#e1caae" opacity="1.00" d=" M 243.38 110.62 C 242.38 108.58 244.88 107.43 246.48 107.13 C 246.43 108.45 246.72 109.85 246.25 111.13 C 245.49 111.82 243.49 111.96 243.38 110.62 Z" />
<path fill="#e1caae" opacity="1.00" d=" M 240.55 126.16 C 240.35 122.61 240.57 118.97 242.30 115.79 C 242.48 118.22 243.23 120.82 242.26 123.16 C 241.87 123.92 241.44 124.65 241.01 125.38 L 240.55 126.16 Z" />
<path fill="#e1caae" opacity="1.00" d=" M 223.54 136.29 C 225.37 134.64 227.27 133.05 229.35 131.71 C 229.93 134.12 227.84 135.87 226.51 137.58 C 223.44 140.88 220.01 144.15 215.68 145.70 C 212.19 146.95 208.50 145.70 204.92 145.86 C 202.04 146.41 199.50 148.01 196.75 148.98 C 197.26 147.15 198.08 145.42 199.61 144.23 L 200.40 144.44 C 206.56 145.81 214.07 146.70 219.27 142.32 C 220.74 141.17 222.11 139.90 223.49 138.65 C 223.50 138.29 223.52 137.59 223.52 137.23 L 223.54 136.29 Z" />
<path fill="#e1caae" opacity="1.00" d=" M 169.86 163.87 C 171.93 162.83 173.47 160.98 175.39 159.70 C 175.23 165.24 171.14 169.79 165.91 171.23 C 167.84 168.82 170.43 167.10 172.87 165.25 C 170.18 165.31 167.43 165.10 164.80 165.76 C 162.67 169.88 163.85 174.83 164.09 179.26 C 165.35 176.85 165.50 174.12 165.86 171.49 C 166.77 175.49 165.33 179.43 164.44 183.29 C 163.31 187.49 162.24 191.91 159.59 195.46 C 159.17 195.25 158.34 194.84 157.92 194.63 C 152.37 199.92 144.54 202.37 136.95 201.58 C 133.33 201.64 129.90 199.89 127.72 197.02 C 134.41 200.54 142.60 201.98 149.60 198.43 C 156.71 196.03 160.26 188.74 161.99 181.95 C 163.33 177.02 162.32 171.89 162.79 166.89 C 163.05 163.18 167.41 164.67 169.86 163.87 Z" />
<path fill="#e1caae" opacity="1.00" d=" M 203.42 171.59 C 204.43 171.54 205.45 171.49 206.47 171.44 C 206.15 174.06 205.79 176.67 205.15 179.24 L 204.79 178.01 C 204.80 177.57 204.82 176.68 204.83 176.24 C 204.60 175.71 204.13 174.65 203.90 174.12 C 203.68 173.28 203.52 172.44 203.42 171.59 Z" />
<path fill="#e1caae" opacity="1.00" d=" M 128.00 172.89 C 128.44 172.69 129.31 172.31 129.75 172.11 C 128.68 176.48 126.91 180.65 126.06 185.08 C 125.30 188.72 126.24 192.40 126.90 195.99 C 125.81 194.56 124.72 193.12 123.59 191.72 C 123.26 193.58 122.99 195.46 123.08 197.36 C 121.28 195.68 122.13 193.10 122.16 190.96 C 122.65 184.56 125.33 178.63 128.00 172.89 Z" />
<path fill="#e1caae" opacity="1.00" d=" M 372.20 176.63 L 373.00 176.79 C 373.19 177.01 373.58 177.43 373.77 177.64 C 371.74 183.04 371.86 188.98 369.72 194.30 C 370.08 191.39 370.16 188.45 370.08 185.51 C 365.92 190.17 365.79 197.33 367.59 203.04 C 367.57 206.21 365.87 209.16 363.79 211.47 C 363.18 207.07 365.14 202.94 365.55 198.63 C 366.03 194.80 365.57 190.76 367.21 187.17 C 368.44 184.37 369.48 181.49 370.42 178.58 C 371.00 177.92 371.59 177.27 372.20 176.63 M 370.15 183.40 C 368.65 186.39 373.50 183.49 370.15 183.40 Z" />
<path fill="#e1caae" opacity="1.00" d=" M 199.09 195.95 C 199.59 192.91 198.65 189.47 200.36 186.75 C 200.21 191.73 199.96 196.74 200.61 201.70 C 200.86 201.17 201.36 200.10 201.61 199.56 C 201.41 202.29 201.47 207.35 198.12 207.86 C 197.42 203.94 199.07 199.93 199.09 195.95 Z" />
<path fill="#e1caae" opacity="1.00" d=" M 183.41 201.06 C 184.06 200.12 185.00 199.45 185.85 198.72 C 185.00 204.19 182.15 209.08 181.02 214.49 L 180.38 214.58 C 179.69 214.66 178.99 214.73 178.31 214.79 C 179.00 210.93 180.12 207.11 181.89 203.59 C 182.39 202.75 182.90 201.90 183.41 201.06 Z" />
<path fill="#e1caae" opacity="1.00" d=" M 219.46 205.36 C 220.22 204.97 220.98 204.58 221.74 204.20 C 221.15 209.34 219.95 214.62 217.13 219.02 C 216.68 218.37 216.24 217.71 215.80 217.06 L 215.38 216.44 C 217.01 213.05 218.18 209.45 218.73 205.73 L 219.46 205.36 Z" />
<path fill="#e1caae" opacity="1.00" d=" M 325.66 227.42 C 326.56 224.56 327.93 221.82 330.07 219.68 C 330.30 221.09 330.38 222.54 329.99 223.94 C 328.97 228.00 328.93 232.26 327.54 236.24 C 327.56 233.42 327.61 230.46 325.96 228.03 L 325.66 227.42 Z" />
<path fill="#e1caae" opacity="1.00" d=" M 225.91 251.82 C 226.90 246.14 227.10 239.76 231.11 235.22 C 232.26 238.50 231.29 241.95 230.16 245.09 C 229.79 243.76 229.40 242.45 228.98 241.15 C 228.35 243.58 227.84 246.03 227.40 248.50 C 228.10 248.19 229.52 247.56 230.22 247.24 C 228.82 253.33 227.86 259.78 229.26 265.94 C 231.00 269.33 234.92 272.36 238.90 270.96 C 241.23 269.93 242.91 267.82 245.29 266.81 C 244.19 268.02 243.15 269.28 242.11 270.55 C 245.03 270.70 248.03 270.84 250.84 269.90 C 250.96 273.27 248.88 276.01 247.85 279.06 C 247.13 282.52 248.12 286.25 246.60 289.56 C 246.13 287.53 246.40 285.61 247.43 283.80 C 246.94 282.55 245.74 282.46 244.59 282.73 L 246.75 284.20 C 246.22 285.07 245.17 286.80 244.64 287.67 C 244.56 285.73 244.53 283.80 244.54 281.88 C 245.63 280.26 246.69 278.62 247.62 276.91 C 248.04 275.10 248.31 273.26 248.63 271.44 C 246.64 271.72 244.24 271.04 242.60 272.50 C 239.72 275.04 237.81 278.45 235.75 281.64 C 232.30 282.06 227.26 282.68 226.60 278.04 C 228.82 279.66 231.46 281.68 234.36 280.43 C 236.74 278.09 238.45 275.16 240.53 272.57 C 236.01 273.05 231.74 271.54 228.38 268.53 C 227.94 262.58 228.04 256.60 228.30 250.65 C 227.71 250.94 226.51 251.53 225.91 251.82 Z" />
<path fill="#e1caae" opacity="1.00" d=" M 322.56 253.30 C 322.88 253.85 323.51 254.94 323.82 255.48 C 324.23 258.03 322.43 260.69 320.39 262.23 C 320.31 259.10 320.75 255.93 322.56 253.30 Z" />
<path fill="#e1caae" opacity="1.00" d=" M 172.29 283.01 C 172.41 275.37 175.33 267.89 179.88 261.82 C 180.19 263.66 179.90 265.51 179.05 267.17 C 177.38 270.72 176.25 274.47 175.23 278.25 C 174.98 277.80 174.49 276.92 174.24 276.47 C 172.99 281.59 173.60 286.88 173.75 292.08 C 172.05 289.37 172.23 286.08 172.29 283.01 Z" />
<path fill="#e1caae" opacity="1.00" d=" M 285.78 272.04 C 286.10 268.92 285.67 265.50 287.39 262.72 C 287.38 264.63 287.58 266.57 288.49 268.29 C 289.21 269.43 289.40 270.66 289.08 271.97 C 287.50 282.13 284.06 293.02 275.73 299.65 C 276.67 295.74 279.92 293.12 281.78 289.70 C 279.21 291.04 277.11 293.04 274.89 294.86 C 274.34 295.03 273.23 295.36 272.68 295.53 C 275.36 292.60 278.88 290.49 281.09 287.13 C 284.13 282.72 285.70 277.38 285.78 272.04 Z" />
</g>
<g id="#b89869ff">
<path fill="#b89869" opacity="1.00" d=" M 236.54 111.75 C 237.68 110.17 239.01 108.73 240.65 107.64 C 240.61 111.67 238.10 114.82 235.49 117.62 C 234.38 115.23 233.01 112.95 231.28 110.96 C 231.70 110.81 232.55 110.52 232.97 110.38 C 234.16 110.84 235.35 111.30 236.54 111.75 Z" />
<path fill="#b89869" opacity="1.00" d=" M 241.44 130.94 C 243.22 133.18 244.61 136.77 248.04 136.50 C 251.67 136.01 254.66 133.64 257.87 132.05 C 255.74 135.04 253.42 138.41 249.65 139.37 C 247.15 139.93 243.93 140.12 242.30 137.72 C 240.58 135.87 241.49 133.19 241.44 130.94 Z" />
<path fill="#b89869" opacity="1.00" d=" M 217.97 146.98 C 220.71 146.94 223.45 146.73 226.19 146.48 C 223.91 149.75 220.62 152.12 217.34 154.29 C 214.30 156.41 210.44 155.52 206.99 155.62 C 203.78 155.42 200.73 156.57 197.75 157.60 C 201.98 150.79 210.02 146.78 217.97 146.98 Z" />
<path fill="#b89869" opacity="1.00" d=" M 316.85 148.87 C 318.99 148.42 321.13 147.95 323.28 147.49 C 323.60 148.25 324.26 149.78 324.59 150.54 C 323.40 152.05 322.26 153.59 321.13 155.15 C 318.76 154.67 316.94 153.11 315.24 151.49 C 315.64 150.84 316.45 149.53 316.85 148.87 Z" />
<path fill="#b89869" opacity="1.00" d=" M 182.66 166.30 C 181.12 163.37 184.10 160.84 186.20 159.28 C 186.77 159.36 187.90 159.52 188.46 159.60 C 189.86 159.66 191.16 160.05 192.34 160.76 C 193.58 163.84 191.60 167.46 188.70 168.73 C 186.45 169.31 184.20 167.81 182.66 166.30 Z" />
<path fill="#b89869" opacity="1.00" d=" M 281.75 164.78 C 284.41 163.53 286.89 161.56 289.93 161.40 C 292.20 161.32 293.71 164.40 292.18 166.11 C 290.84 168.06 289.31 170.29 286.91 170.95 C 284.49 170.05 282.40 168.45 279.95 167.64 C 278.03 168.77 276.63 170.66 274.61 171.60 C 271.76 171.99 269.90 169.28 268.19 167.45 C 269.22 166.07 270.25 164.69 271.28 163.30 C 273.50 162.98 275.71 162.41 277.97 162.49 C 279.27 163.17 280.35 164.28 281.75 164.78 Z" />
<path fill="#b89869" opacity="1.00" d=" M 319.99 164.83 C 322.89 162.75 326.26 161.12 329.90 161.11 C 334.05 163.82 329.58 168.95 326.62 170.64 C 323.61 170.68 321.16 167.54 318.10 167.85 C 316.18 169.08 314.61 170.76 312.97 172.32 C 310.78 171.58 308.69 170.59 306.80 169.27 C 308.17 166.74 309.34 163.76 312.25 162.64 C 312.93 162.22 313.62 161.80 314.30 161.35 C 316.19 162.51 318.09 163.67 319.99 164.83 Z" />
<path fill="#b89869" opacity="1.00" d=" M 248.76 163.81 C 251.32 162.76 254.13 163.01 256.83 162.95 C 257.55 167.09 254.85 170.30 251.98 172.86 C 249.50 171.45 247.14 169.86 244.93 168.07 C 246.14 166.60 247.18 164.92 248.76 163.81 Z" />
<path fill="#b89869" opacity="1.00" d=" M 333.42 194.54 C 353.45 187.87 369.03 172.70 388.09 164.07 C 385.21 170.87 377.53 172.53 372.20 176.63 C 371.59 177.27 371.00 177.92 370.42 178.58 C 365.01 181.63 360.40 185.84 355.09 189.04 C 341.68 197.36 327.50 205.40 311.68 207.83 C 306.52 208.69 301.26 208.62 296.04 208.71 C 289.12 208.55 282.02 208.81 275.38 206.53 C 270.76 205.22 267.70 201.23 263.59 198.98 C 265.01 196.01 267.99 194.41 271.26 195.29 C 283.73 200.44 297.47 198.42 310.58 198.49 C 318.45 199.34 325.93 196.46 333.42 194.54 Z" />
<path fill="#b89869" opacity="1.00" d=" M 178.42 189.60 C 178.59 187.01 180.46 184.78 182.09 182.87 C 183.64 182.59 185.09 183.51 186.57 183.85 C 186.60 184.79 186.67 186.69 186.70 187.64 C 184.55 188.59 182.37 189.46 180.17 190.28 C 179.73 190.11 178.86 189.77 178.42 189.60 Z" />
<path fill="#b89869" opacity="1.00" d=" M 141.34 190.63 C 140.74 187.65 142.94 185.07 145.02 183.24 C 145.48 183.53 146.41 184.12 146.88 184.41 C 147.36 184.38 148.31 184.33 148.79 184.30 C 149.28 184.27 150.25 184.22 150.74 184.19 C 151.11 185.73 151.65 187.26 151.71 188.87 C 150.87 190.85 149.11 192.23 147.71 193.81 C 145.43 193.27 142.16 193.36 141.34 190.63 Z" />
<path fill="#b89869" opacity="1.00" d=" M 185.50 189.80 C 186.69 188.22 187.78 186.56 188.72 184.81 C 192.45 188.70 189.05 193.90 187.59 198.04 C 186.50 195.41 185.86 192.62 185.50 189.80 Z" />
<path fill="#b89869" opacity="1.00" d=" M 178.86 200.83 C 180.21 199.67 183.49 197.97 183.41 201.06 C 182.90 201.90 182.39 202.75 181.89 203.59 C 179.62 205.06 176.93 206.00 175.16 208.14 C 172.95 210.66 171.80 213.94 169.54 216.42 C 166.18 218.98 161.87 219.99 157.69 219.85 C 159.95 215.86 164.98 215.19 168.46 212.63 C 173.30 210.03 175.07 204.48 178.86 200.83 Z" />
<path fill="#b89869" opacity="1.00" d=" M 238.99 208.61 C 243.67 208.26 247.04 204.42 249.13 200.54 C 250.44 200.73 251.75 200.93 253.08 201.13 C 253.21 202.89 253.35 204.64 253.49 206.39 C 254.75 206.63 256.02 206.88 257.29 207.13 C 255.76 209.96 252.43 209.92 249.74 210.86 C 246.99 213.42 244.87 216.84 241.15 218.17 C 237.02 220.15 232.70 216.40 231.41 212.62 C 230.52 209.31 228.92 205.51 230.98 202.31 C 232.96 204.98 235.16 208.88 238.99 208.61 Z" />
<path fill="#b89869" opacity="1.00" d=" M 148.17 208.85 C 152.39 209.15 155.51 206.27 158.44 203.68 C 158.80 204.95 159.16 206.23 159.52 207.51 C 159.31 207.62 158.87 207.85 158.65 207.96 C 156.99 208.52 156.25 210.17 155.31 211.49 C 151.45 217.80 144.27 221.73 136.98 222.30 C 132.13 222.63 127.99 219.74 124.68 216.53 C 124.68 213.08 123.16 209.14 125.47 206.14 C 127.06 208.16 128.80 210.31 131.31 211.20 C 136.98 212.59 143.15 211.95 148.17 208.85 Z" />
<path fill="#b89869" opacity="1.00" d=" M 314.65 226.74 C 315.59 226.20 316.53 225.67 317.46 225.11 C 318.87 226.56 320.98 227.74 321.25 229.95 C 320.75 233.23 317.67 234.97 315.28 236.81 C 313.15 235.43 311.05 234.02 308.99 232.56 C 310.28 230.12 311.98 227.81 314.65 226.74 Z" />
<path fill="#b89869" opacity="1.00" d=" M 178.17 230.91 C 179.00 231.79 179.84 232.67 180.67 233.57 C 180.80 233.23 181.04 232.55 181.17 232.21 C 183.62 235.24 186.94 237.87 190.92 238.37 C 194.05 238.80 197.00 237.45 199.94 236.60 C 205.12 236.64 209.09 233.34 213.22 230.74 C 213.56 231.04 214.23 231.63 214.57 231.92 C 213.95 235.58 210.58 237.73 208.27 240.31 C 204.55 244.42 199.52 247.31 194.04 248.24 C 188.16 249.12 182.12 245.55 179.79 240.14 C 178.27 237.31 178.26 234.03 178.17 230.91 Z" />
<path fill="#b89869" opacity="1.00" d=" M 155.72 234.45 C 156.33 234.04 156.93 233.61 157.52 233.16 C 158.55 234.19 160.28 234.80 160.71 236.33 C 161.65 239.41 159.01 242.10 156.80 243.84 C 153.65 244.20 151.09 241.50 148.00 241.59 C 146.26 242.67 144.89 244.27 143.07 245.24 C 140.72 245.07 138.08 243.69 137.40 241.29 C 137.85 238.37 139.88 235.64 143.03 235.41 L 143.66 235.30 C 145.86 235.62 148.00 236.21 150.12 236.85 C 152.01 236.11 153.88 235.33 155.72 234.45 Z" />
<path fill="#b89869" opacity="1.00" d=" M 283.02 242.23 C 285.17 240.26 289.38 237.38 291.72 240.35 C 291.64 240.77 291.48 241.59 291.40 242.01 C 289.90 243.21 288.22 245.12 286.07 244.35 C 285.03 243.67 284.01 242.96 283.02 242.23 Z" />
<path fill="#b89869" opacity="1.00" d=" M 252.37 242.42 C 252.71 242.14 253.38 241.57 253.71 241.29 C 255.03 242.41 257.70 242.90 257.65 245.03 C 257.04 246.90 256.29 248.72 255.83 250.64 L 255.44 250.72 C 253.15 251.49 250.40 252.70 248.48 250.47 C 244.95 247.51 250.20 244.27 252.37 242.42 Z" />
<path fill="#b89869" opacity="1.00" d=" M 312.44 248.34 C 314.54 250.50 313.50 253.63 313.20 256.26 C 312.32 262.21 309.19 267.75 304.52 271.54 C 300.07 274.70 294.36 275.07 289.63 277.64 C 288.08 281.41 288.45 285.68 287.18 289.55 C 283.72 300.25 277.28 310.83 266.90 315.97 C 262.86 318.31 257.89 318.22 253.43 317.46 C 248.25 315.82 246.20 310.45 243.65 306.21 C 244.46 304.21 245.28 302.21 246.09 300.21 C 247.29 304.12 250.83 307.28 254.97 307.57 C 257.90 307.82 260.90 307.87 263.81 307.32 C 268.53 306.16 272.22 302.83 275.73 299.65 C 284.06 293.02 287.50 282.13 289.08 271.97 C 293.94 271.91 298.36 269.72 302.83 268.09 C 305.19 267.23 307.95 265.81 308.15 262.96 C 308.54 259.49 309.81 256.26 311.09 253.05 C 311.66 251.52 312.09 249.93 312.44 248.34 Z" />
<path fill="#b89869" opacity="1.00" d=" M 287.11 254.38 C 289.84 253.20 292.35 251.57 295.09 250.41 C 297.08 250.46 298.41 252.86 297.61 254.62 C 296.44 256.97 294.49 258.78 292.79 260.72 C 290.55 259.70 288.35 258.56 285.97 257.90 C 283.43 258.52 281.75 260.77 279.81 262.37 C 278.13 261.39 276.18 260.64 275.09 258.95 C 274.92 255.60 278.12 253.79 280.85 252.82 C 283.06 251.69 285.14 253.59 287.11 254.38 Z" />
<path fill="#b89869" opacity="1.00" d=" M 338.06 253.89 C 339.22 254.94 340.38 256.01 341.53 257.08 C 341.56 258.71 341.50 260.33 341.35 261.95 L 340.37 262.77 C 338.87 261.99 336.40 261.99 336.10 259.91 C 335.38 257.70 337.12 255.74 338.06 253.89 Z" />
<path fill="#b89869" opacity="1.00" d=" M 343.32 261.14 C 344.01 259.84 344.71 258.54 345.37 257.22 C 348.59 258.06 347.68 261.59 346.96 263.93 C 345.29 268.55 343.07 273.10 339.69 276.72 C 337.20 279.53 333.28 280.01 329.80 280.65 C 332.89 277.35 337.11 275.46 340.31 272.29 C 342.22 270.58 340.91 267.77 341.22 265.57 C 341.79 264.03 342.55 262.58 343.32 261.14 Z" />
<path fill="#b89869" opacity="1.00" d=" M 163.37 270.67 C 160.61 269.50 161.17 266.18 162.32 264.06 C 164.21 264.96 166.11 265.85 168.01 266.72 C 167.75 268.92 165.95 271.84 163.37 270.67 Z" />
<path fill="#b89869" opacity="1.00" d=" M 254.70 265.71 C 257.81 265.48 261.08 265.04 263.96 266.57 C 262.17 270.43 259.52 274.88 254.59 274.50 C 254.38 271.57 254.42 268.63 254.70 265.71 Z" />
<path fill="#b89869" opacity="1.00" d=" M 193.48 274.43 C 195.88 273.67 198.48 273.79 200.97 273.45 C 202.86 277.21 200.31 280.75 198.01 283.58 C 195.25 282.61 192.92 280.84 190.82 278.85 C 191.63 277.34 192.21 275.63 193.48 274.43 Z" />
<path fill="#b89869" opacity="1.00" d=" M 246.19 275.37 C 246.55 275.76 247.26 276.53 247.62 276.91 C 246.69 278.62 245.63 280.26 244.54 281.88 C 239.03 282.75 238.58 290.23 233.15 291.32 C 230.03 292.57 226.88 289.85 226.18 286.90 C 225.37 283.75 223.38 279.73 226.37 277.11 L 226.60 278.04 C 227.26 282.68 232.30 282.06 235.75 281.64 C 240.16 281.52 243.14 278.08 246.19 275.37 Z" />
<path fill="#b89869" opacity="1.00" d=" M 213.22 276.91 C 213.91 276.76 215.29 276.45 215.99 276.30 C 214.32 288.61 208.41 300.79 198.01 308.01 C 193.16 311.74 186.35 312.16 180.68 310.30 C 175.21 307.55 172.40 301.06 173.11 295.10 C 174.30 295.69 175.49 296.27 176.63 296.97 C 180.95 301.94 187.95 302.11 193.88 300.52 C 200.56 299.80 206.11 295.24 210.13 290.13 C 212.02 287.91 211.75 284.92 211.74 282.22 C 212.26 280.45 212.76 278.69 213.22 276.91 Z" />
<path fill="#b89869" opacity="1.00" d=" M 294.37 304.19 C 295.80 299.79 300.50 298.52 304.65 298.43 C 307.83 302.16 303.48 306.23 300.86 308.76 C 298.49 307.55 296.23 306.11 294.37 304.19 Z" />
<path fill="#b89869" opacity="1.00" d=" M 219.04 313.60 C 219.57 312.82 220.14 312.05 220.74 311.31 C 220.79 311.81 220.89 312.80 220.95 313.29 C 220.37 313.80 219.23 314.80 218.65 315.30 C 222.39 314.59 226.11 313.78 229.77 312.72 C 230.16 312.60 230.95 312.35 231.35 312.22 C 231.67 311.96 232.32 311.42 232.64 311.16 C 233.90 312.51 236.17 313.69 235.76 315.89 C 235.36 319.06 232.61 321.07 230.31 322.93 C 227.86 321.62 225.49 318.76 222.49 319.49 C 220.78 321.04 219.41 322.92 217.91 324.67 C 214.91 323.10 211.81 321.19 208.27 321.62 C 211.18 319.69 213.57 317.14 215.92 314.58 C 214.39 314.85 213.71 313.42 213.30 312.31 C 213.84 312.16 214.90 311.85 215.44 311.69 L 215.19 313.72 C 216.46 313.69 217.75 313.66 219.04 313.60 Z" />
</g>
<g id="#010852ff">
<path fill="#010852" opacity="1.00" d=" M 380.63 213.37 C 381.07 212.35 381.80 211.51 382.54 210.70 C 377.40 231.08 379.14 252.27 376.29 272.96 C 375.52 278.57 373.97 284.03 372.63 289.52 C 370.46 298.53 366.03 307.00 360.01 314.05 C 358.58 315.92 356.31 316.67 354.18 317.37 C 349.20 316.88 346.10 311.55 340.94 312.03 C 339.63 311.98 338.34 312.38 337.39 313.30 C 332.68 317.26 328.77 322.08 324.29 326.29 C 307.21 342.78 286.21 354.49 264.69 364.14 C 264.24 364.25 263.35 364.46 262.90 364.56 C 253.82 368.75 243.95 370.88 234.29 373.33 C 211.19 377.56 186.80 380.20 164.00 372.97 C 162.99 372.59 161.98 372.21 160.97 371.82 C 152.19 368.21 143.31 362.95 138.96 354.13 C 135.86 348.38 134.96 341.75 134.67 335.31 C 134.18 335.36 133.19 335.47 132.69 335.53 C 128.88 342.82 125.70 351.76 117.66 355.38 C 112.79 356.74 107.48 356.59 102.99 359.25 C 101.43 359.93 99.86 360.61 98.24 361.19 C 102.06 356.60 107.54 353.95 111.97 350.05 C 117.68 345.47 123.32 340.60 127.42 334.47 C 133.16 325.69 136.70 315.75 140.10 305.90 C 142.17 299.87 143.44 293.54 146.23 287.76 C 146.62 290.04 146.48 292.37 145.77 294.57 C 143.33 304.67 140.12 315.08 142.22 325.54 C 144.14 334.37 151.74 340.26 158.99 344.81 C 163.41 347.54 168.34 349.26 173.27 350.79 C 174.39 351.50 175.70 351.64 176.96 351.97 C 178.61 352.49 180.33 352.75 182.04 353.02 C 188.55 354.76 195.33 354.76 202.01 355.07 C 215.36 355.16 228.81 355.16 241.98 352.77 C 256.39 350.03 270.54 345.84 283.94 339.85 C 291.82 336.39 299.48 332.43 306.82 327.93 C 314.93 322.87 322.94 317.48 329.80 310.77 C 333.59 307.43 337.13 303.53 341.96 301.70 C 348.52 299.53 352.70 307.52 359.20 306.62 C 363.32 303.55 365.85 298.79 366.93 293.83 C 368.96 284.04 368.47 273.96 369.22 264.03 C 369.86 254.11 368.48 243.87 371.64 234.26 C 374.10 227.08 377.43 220.24 380.63 213.37 Z" />
<path fill="#010852" opacity="1.00" d=" M 429.24 230.29 C 429.85 229.35 430.86 228.80 431.74 228.15 C 435.91 231.68 440.75 234.33 444.85 237.94 C 447.21 239.87 446.70 243.34 445.63 245.82 C 443.15 251.48 439.07 256.46 433.98 259.98 C 428.32 256.04 423.26 251.08 417.06 248.03 C 415.36 248.39 414.82 250.45 413.70 251.60 C 411.36 254.56 408.83 257.45 405.93 259.86 C 403.29 261.73 400.50 259.20 398.48 257.61 C 395.28 254.70 391.13 252.96 388.17 249.80 C 392.21 242.48 397.84 236.08 402.63 229.22 C 407.08 232.39 411.65 235.50 415.51 239.41 C 416.81 240.53 417.31 242.18 417.71 243.79 C 418.14 243.65 418.99 243.35 419.42 243.21 C 422.78 238.97 425.99 234.61 429.24 230.29 Z" />
<path fill="#010852" opacity="1.00" d=" M 403.96 283.98 L 405.16 284.32 C 407.28 286.94 407.06 290.67 408.46 293.67 C 409.50 302.52 407.10 311.73 402.31 319.22 C 398.97 323.63 396.17 328.40 392.80 332.78 C 389.98 336.39 388.85 340.93 387.26 345.14 C 383.90 352.29 380.84 359.72 375.94 365.98 C 373.32 369.43 369.18 371.04 365.16 372.18 C 360.83 373.44 356.54 374.85 352.20 376.06 C 349.70 376.69 347.15 377.97 344.53 377.24 C 351.81 373.01 359.10 368.76 366.10 364.06 C 372.05 359.91 377.80 354.93 381.00 348.28 C 376.20 349.01 371.29 348.49 366.90 346.37 C 365.34 345.07 363.68 343.77 362.67 341.97 C 362.56 339.99 362.56 338.01 362.68 336.05 C 364.84 330.97 368.12 326.49 370.80 321.70 C 372.37 318.58 375.05 315.12 379.01 315.81 C 384.83 316.24 388.51 321.50 390.01 326.67 C 393.78 324.71 396.61 321.15 398.28 317.29 C 398.72 312.23 398.94 306.95 397.69 301.99 C 398.34 295.52 402.11 290.09 403.96 283.98 Z" />
<path fill="#010852" opacity="1.00" d=" M 268.12 398.03 C 269.12 397.03 270.58 397.85 271.59 398.39 C 276.19 401.02 281.03 403.64 284.32 407.93 C 284.63 410.70 284.41 413.50 283.82 416.23 C 281.50 421.34 277.69 425.73 273.39 429.29 C 272.12 430.52 270.47 429.41 269.16 428.91 C 265.37 425.85 261.44 422.78 256.86 420.98 C 255.87 420.67 254.87 420.37 253.88 420.08 C 250.78 424.54 247.43 429.03 243.12 432.36 C 239.34 431.61 236.40 428.57 232.86 427.07 C 230.04 425.35 224.07 424.90 225.28 420.31 C 228.83 413.49 233.77 407.52 238.40 401.43 C 238.88 401.46 239.83 401.53 240.31 401.56 C 246.07 405.06 253.57 406.73 257.02 413.07 C 260.98 408.26 263.43 402.25 268.12 398.03 Z" />
</g>
<g id="#262650ff">
<path fill="#262650" opacity="1.00" d=" M 406.09 278.84 C 406.55 278.53 407.46 277.90 407.91 277.58 C 407.92 282.95 408.16 288.31 408.46 293.67 C 407.06 290.67 407.28 286.94 405.16 284.32 L 404.36 283.38 C 404.98 281.89 405.57 280.38 406.09 278.84 Z" />
</g>
<g id="#938c9dff">
<path fill="#938c9d" opacity="1.00" d=" M 362.67 341.97 C 361.23 340.15 361.22 337.86 362.68 336.05 C 362.56 338.01 362.56 339.99 362.67 341.97 Z" />
<path fill="#938c9d" opacity="1.00" d=" M 284.32 407.93 C 286.55 410.40 285.41 413.75 283.82 416.23 C 284.41 413.50 284.63 410.70 284.32 407.93 Z" />
</g>
</svg>
