<?xml version="1.0" encoding="utf-8"?>
<!-- Generator: Adobe Illustrator 25.2.0, SVG Export Plug-In . SVG Version: 6.00 Build 0)  -->
<svg version="1.1" id="Layer_1" xmlns="http://www.w3.org/2000/svg" xmlns:xlink="http://www.w3.org/1999/xlink" x="0px" y="0px"
	 viewBox="0 0 46.7 47.6" style="enable-background:new 0 0 46.7 47.6;" xml:space="preserve">
<style type="text/css">
	.st0{fill:#F1C40F;}
	.st1{fill:#FFFFFF;enable-background:new    ;}
</style>
<rect class="st0" width="46.7" height="47.6"/>
<path id="Icon_awesome-lightbulb" class="st1" d="M19.4,35.8c0,0.3,0.1,0.7,0.3,1l0.9,1.5c0.3,0.5,0.8,0.8,1.3,0.8H25
	c0.5,0,1-0.3,1.3-0.8l0.9-1.5c0.2-0.3,0.3-0.6,0.3-1v-2.2h-8V35.8z M14.7,19.9c0,2.4,0.8,4.8,2.1,6.6c1.1,1.5,2,3.3,2.6,5.2v0.1h8
	v-0.1c0.6-1.9,1.5-3.6,2.6-5.2c1.4-1.8,2.2-4.1,2.1-6.6c0-5.5-3.9-10-8.8-9.9C18.3,10,14.7,14.7,14.7,19.9z M23.4,15.4
	c-2.3,0.1-4,2-4,4.5c0,0.5-0.3,0.9-0.8,0.9s-0.8-0.3-0.9-0.8v-0.1c-0.1-3.4,2.5-6.3,5.6-6.4c0.4,0,0.8,0.4,0.8,1
	C24.2,15,23.9,15.4,23.4,15.4z"/>
</svg>
