<?xml version="1.0" encoding="utf-8"?>
<!-- Generator: Adobe Illustrator 25.2.0, SVG Export Plug-In . SVG Version: 6.00 Build 0)  -->
<svg version="1.1" id="Layer_1" xmlns="http://www.w3.org/2000/svg" xmlns:xlink="http://www.w3.org/1999/xlink" x="0px" y="0px"
	 viewBox="0 0 46.7 47.6" style="enable-background:new 0 0 46.7 47.6;" xml:space="preserve">
<style type="text/css">
	.st0{fill:#F1C40F;}
	.st1{fill:#FFFFFF;}
</style>
<rect class="st0" width="46.7" height="47.6"/>
<path id="Path_2" class="st1" d="M35.3,18c-0.8-2.2-3.2-3.7-5.8-3.7H17.4c-2.7,0-5,1.5-5.8,3.7c-0.2,0.5-0.2,1-0.2,1.5V28
	c0,2.9,2.7,5.3,6,5.3h12.2c3.4,0,6-2.4,6-5.3v-8.5C35.6,19.1,35.5,18.5,35.3,18z M17.4,16.4h12.2c1.8,0,3.3,1.1,3.6,2.6l-9.7,4.6
	l-9.7-4.6C14.1,17.6,15.6,16.4,17.4,16.4L17.4,16.4z M33.2,28.1c0,1.7-1.6,3.2-3.6,3.2H17.4c-2,0-3.6-1.4-3.6-3.2v-6.6l9.1,4.3
	c0.4,0.2,0.8,0.2,1.2,0l9.1-4.3L33.2,28.1L33.2,28.1z"/>
</svg>
