<?xml version="1.0" encoding="utf-8"?>
<!-- Generator: Adobe Illustrator 25.2.0, SVG Export Plug-In . SVG Version: 6.00 Build 0)  -->
<svg version="1.1" id="Layer_1" xmlns="http://www.w3.org/2000/svg" xmlns:xlink="http://www.w3.org/1999/xlink" x="0px" y="0px"
	 viewBox="0 0 46.7 47.6" style="enable-background:new 0 0 46.7 47.6;" xml:space="preserve">
<style type="text/css">
	.st0{fill:#F1C40F;}
	.st1{fill:#FFFFFF;}
</style>
<rect class="st0" width="46.7" height="47.6"/>
<path id="Icon_awesome-hands-helping" class="st1" d="M30.6,20.6H24v2.8c0,2-1.4,3.5-3.1,3.5s-3.1-1.6-3.1-3.5v-6L15,19.3
	C14.1,20,13.6,21,13.6,22v2.3l-3.5,2.3c-0.7,0.5-0.9,1.4-0.5,2.2l3.5,6.8c0.2,0.6,1,1,1.7,0.7c0.1-0.1,0.2-0.1,0.2-0.1l4.5-2.9h5.9
	c1.6,0,2.8-1.4,2.8-3.2H29c0.8,0,1.4-0.7,1.4-1.6v-3.2h0.4c0.7-0.1,1.1-0.6,1-1.2v-2.4C31.8,21.2,31.3,20.7,30.6,20.6z M37.1,18.8
	l-3.5-6.9c-0.2-0.6-1-1-1.7-0.7c-0.1,0.1-0.2,0.1-0.2,0.1l-4.5,2.9h-4.4c-0.5,0-1.1,0.2-1.5,0.5l-1.4,1c-0.4,0.3-0.7,0.8-0.7,1.3
	v6.2c0,1.1,0.8,2,1.7,2c1,0,1.7-0.9,1.7-2v-4.3h8c1.3,0,2.5,1.3,2.5,2.8v1.4l3.5-2.3C37.3,20.5,37.5,19.6,37.1,18.8z"/>
</svg>
