<?xml version="1.0" encoding="utf-8"?>
<!-- Generator: Adobe Illustrator 25.2.0, SVG Export Plug-In . SVG Version: 6.00 Build 0)  -->
<svg version="1.1" id="Layer_1" xmlns="http://www.w3.org/2000/svg" xmlns:xlink="http://www.w3.org/1999/xlink" x="0px" y="0px"
	 viewBox="0 0 46.7 47.6" style="enable-background:new 0 0 46.7 47.6;" xml:space="preserve">
<style type="text/css">
	.st0{fill:#F1C40F;}
	.st1{fill:#FFFFFF;enable-background:new    ;}
</style>
<rect class="st0" width="46.7" height="47.6"/>
<path id="Path_20" class="st1" d="M23.4,22.5c1.4,0,2.8-2.9,2.8-5.8c0-3-1.6-3.6-2.8-3.6c-1.3,0-2.8,0.7-2.8,3.6
	C20.5,19.6,22,22.5,23.4,22.5z M29.5,26.1c-0.9-0.6-1.8-1.3-2.7-2.2c-0.4-0.4-1-1-1.5-1.6c-0.5,0.8-1.3,1.3-1.9,1.3
	c-0.7-0.1-1.4-0.5-1.9-1.3c-0.4,0.4-0.9,1-1.5,1.6c-0.3,0.3-0.5,0.4-0.7,0.7c-0.6,0.5-1.2,1-1.9,1.4c-2,1.2-2.5,6.2-2.7,8.4h17.6
	C32.1,32.3,31.5,27.2,29.5,26.1z M32.2,23.9c0.3,0,0.6-0.2,0.8-0.4c0,0,0,0,0-0.1c0.7-0.8,1.2-2.4,1.2-4.1c0-2.4-1.1-2.9-2-2.9
	c-0.9,0-2,0.4-2,2.9c0,1.6,0.5,3.3,1.2,4.1C31.5,23.7,31.9,23.9,32.2,23.9z M35.7,26c-0.5-0.3-1-0.7-1.6-1.2
	c-0.3-0.3-0.6-0.6-0.8-0.8c-0.3,0.4-0.7,0.7-1.2,0.7s-0.8-0.3-1.2-0.7c-0.3,0.3-0.5,0.6-0.8,0.8c-0.3,0.3-0.5,0.4-0.7,0.7
	c0.1,0.1,0.3,0.2,0.4,0.3c1.3,0.7,1.9,2.7,2.3,4.5h5C37.1,29,36.8,26.5,35.7,26z M13.8,23.3c0.2,0.3,0.5,0.4,0.8,0.4
	s0.7-0.2,0.8-0.4l0,0c0.7-0.8,1.2-2.4,1.2-3.9c0-2.3-1.1-2.7-2-2.7c-0.9,0-2,0.4-2,2.7C12.6,21,13.1,22.5,13.8,23.3
	C13.7,23.3,13.7,23.3,13.8,23.3z M17,25.7c0.1-0.1,0.3-0.1,0.4-0.3c-0.2-0.1-0.4-0.4-0.7-0.7c-0.3-0.3-0.6-0.6-0.8-0.8
	c-0.3,0.4-0.7,0.7-1.2,0.7c-0.4,0-0.8-0.3-1.2-0.7c-0.2,0.2-0.5,0.5-0.8,0.8c-0.5,0.4-1,0.8-1.6,1.2c-1,0.6-1.4,3-1.5,4.2h5
	C14.9,28.3,15.6,26.4,17,25.7L17,25.7z"/>
</svg>
