<?xml version="1.0" encoding="utf-8"?>
<!-- Generator: Adobe Illustrator 25.2.0, SVG Export Plug-In . SVG Version: 6.00 Build 0)  -->
<svg version="1.1" id="Layer_1" xmlns="http://www.w3.org/2000/svg" xmlns:xlink="http://www.w3.org/1999/xlink" x="0px" y="0px"
	 viewBox="0 0 46.7 47.6" style="enable-background:new 0 0 46.7 47.6;" xml:space="preserve">
<style type="text/css">
	.st0{fill:#F1C40F;}
	.st1{fill:#FFFFFF;}
</style>
<rect class="st0" width="46.7" height="47.6"/>
<path id="Path_18" class="st1" d="M26.6,11.6c0,2.5-1.5,4.6-3.3,4.6s-3.3-2-3.3-4.6c0-2.4,1.3-3.9,3.3-3.9S26.6,9.3,26.6,11.6z
	 M29.7,20v2.5H17V20c0-0.8,0.4-1.5,1.1-1.8c1.1-0.6,2.4-0.9,3.6-1.1c1,0.6,2.2,0.6,3.2,0c1.3,0.2,2.5,0.6,3.7,1.1
	C29.3,18.6,29.8,19.3,29.7,20z M36.7,25v1.3c0,0.6-0.5,1.2-1.1,1.2H11.1c-0.6,0-1.1-0.6-1.1-1.2V25c0-0.6,0.4-1.2,1.1-1.2h24.4
	C36.3,23.9,36.8,24.4,36.7,25L36.7,25z M34,28.8v7.6c0,0.4-0.2,0.6-0.6,0.6h-20c-0.4,0-0.6-0.3-0.6-0.6v-7.6H34z"/>
<path id="Path_19" class="st1" d="M19,14c0.1,1.1,0.6,2.2,1.5,2.8c-0.9,0.1-1.9,0.4-2.8,0.7c-1.1,0.4-1.7,1.1-1.7,2v1.8h-0.7
	l-0.4-5.1c0-0.6,0.2-1.3,0.7-1.6c0.6-0.4,1.2-0.6,1.9-0.6H19L19,14z M31.8,16.2l-0.4,5.1h-0.7v-1.8c0-0.8-0.7-1.7-1.7-2
	c-0.9-0.3-1.9-0.6-2.8-0.7c0.9-0.6,1.4-1.7,1.5-2.8h1.5c0.7,0,1.3,0.2,1.9,0.6C31.5,15,31.8,15.6,31.8,16.2z"/>
</svg>
