<?xml version="1.0" encoding="utf-8"?>
<!-- Generator: Adobe Illustrator 25.2.0, SVG Export Plug-In . SVG Version: 6.00 Build 0)  -->
<svg version="1.1" id="Layer_1" xmlns="http://www.w3.org/2000/svg" xmlns:xlink="http://www.w3.org/1999/xlink" x="0px" y="0px"
	 viewBox="0 0 51 51" style="enable-background:new 0 0 51 51;" xml:space="preserve">
<style type="text/css">
	.st0{fill:#1B74BB;}
	.st1{fill:none;stroke:#FFFFFF;stroke-miterlimit:10;}
	.st2{fill:#FFFFFF;}
</style>
<circle class="st0" cx="25.6" cy="25.1" r="24.3"/>
<ellipse class="st1" cx="25.6" cy="25.5" rx="24.9" ry="24.7"/>
<g id="_x23_1c1c1cff">
</g>
<g id="_x23_000000ff">
	<path class="st2" d="M26,9.5c0.2-0.1,0.5-0.2,0.7-0.3c0.2,0,0.3,0.1,0.5,0.2c5.5,2.6,11,5.3,16.5,7.9c0.3,0.1,0.6,0.2,0.8,0.5
		c0.2,0.2,0.1,0.7-0.2,0.8c-0.8,0.4-1.5,0.7-2.3,1c-1,0.4-2.1,0.9-3.1,1.3c-0.3,0.1-0.7,0.3-1,0.4c0,1.2,0,2.4,0,3.6
		c0,0.8,0,1.6,0,2.4c0,0.4,0,0.9-0.3,1.2c-0.5,0.8-1.4,1.3-2.3,1.7c-0.1-0.3-0.3-0.7-0.4-1c0.6-0.3,1.2-0.5,1.6-1
		c0.2-0.2,0.3-0.6,0.2-0.9c-0.2-0.5-0.7-0.8-1.1-1.1c-0.9-0.5-1.8-0.8-2.8-1c-1.4-0.3-2.9-0.5-4.4-0.5c0-0.4,0-0.7,0-1.1
		c0.6,0,1.2,0,1.7,0.1c1.6,0.2,3.3,0.5,4.8,1.1c0.4,0.2,0.9,0.4,1.3,0.6c0.2,0.1,0.4,0.2,0.6,0.3c0-1.7,0-3.3,0-5
		c0-0.1-0.1-0.2-0.2-0.3c-0.4-0.5-1-0.8-1.5-1.1c-1-0.4-2-0.6-3.1-0.8c-0.9-0.2-1.8-0.3-2.7-0.3c-0.5,0-1,0-1.6-0.1
		c-0.9,0-1.9,0-2.8,0c-1,0-2,0.1-3.1,0.3c-1.2,0.2-2.5,0.5-3.6,0.9c-0.6,0.3-1.3,0.6-1.6,1.3c0,1.5,0,2.9,0,4.4c0,0.2,0,0.5,0,0.7
		c0.4-0.2,0.8-0.4,1.2-0.6c0.1,0,0.1,0,0.2-0.1c0.1,0.3,0.3,0.6,0.4,1c-0.5,0.3-1,0.5-1.4,0.9c-0.2,0.2-0.3,0.4-0.3,0.7
		c0,0.3,0.3,0.6,0.5,0.8c0.6,0.5,1.4,0.8,2.1,1.1c1.8,0.6,3.8,0.8,5.7,0.8c0,0.4,0,0.7,0,1.1c-0.8,0-1.6-0.1-2.5-0.2
		c-1.7-0.2-3.4-0.6-5-1.4c-0.7-0.4-1.3-0.8-1.7-1.4c-0.1-0.2-0.2-0.3-0.2-0.5c-0.1-0.4-0.1-0.9-0.1-1.3c0-1.8,0-3.6,0-5.4
		c-1-0.4-1.9-0.8-2.9-1.2c-0.1-0.1-0.3-0.1-0.4-0.1c-0.1,2.4,0,4.8,0,7.2c0.2,0.1,0.4,0.2,0.6,0.3c0.4,0.3,0.8,0.7,0.9,1.2
		c0.2,0.7,0,1.4-0.4,1.9c-0.4,0.5-1.1,0.9-1.8,0.9c-1,0-1.9-0.8-2.1-1.7c0-0.4-0.1-0.9,0.1-1.3c0.1-0.3,0.3-0.6,0.5-0.8
		c0.3-0.3,0.6-0.4,0.9-0.6c0-2.6,0-5.1,0-7.7c-0.5-0.2-0.9-0.4-1.4-0.6c-0.2-0.1-0.4-0.2-0.6-0.3C8.9,18.3,8.8,18,9,17.8
		c0.2-0.2,0.5-0.3,0.7-0.4C15.1,14.7,20.6,12.1,26,9.5 M26.6,10.4c-3.5,1.6-6.9,3.3-10.3,5c-1.5,0.8-3.1,1.5-4.6,2.2
		c-0.2,0.1-0.5,0.2-0.7,0.4c0,0,0,0,0,0c1.5,0.7,3,1.3,4.5,1.9c0.1,0,0.2,0.1,0.3,0.1c0.4-0.4,0.8-0.9,1.3-1.1
		c1.2-0.7,2.5-1.1,3.9-1.4c1.6-0.3,3.3-0.5,4.9-0.6c1.6,0,3.1,0,4.7,0.2c1.7,0.2,3.4,0.6,5,1.3c0.5,0.2,0.9,0.4,1.3,0.7
		c0.3,0.3,0.6,0.6,0.9,0.9c0.2-0.1,0.4-0.2,0.6-0.3c1.2-0.5,2.5-1,3.7-1.6c0.2-0.1,0.3-0.1,0.5-0.2c-0.2-0.1-0.4-0.2-0.6-0.3
		c-1.4-0.7-2.9-1.4-4.3-2.1c-3.6-1.7-7.1-3.5-10.7-5.2C26.8,10.4,26.7,10.3,26.6,10.4 M11.5,28.1c-0.4,0-0.8,0.3-0.9,0.7
		c-0.1,0.3-0.1,0.6,0,0.9c0.1,0.2,0.3,0.4,0.6,0.5c0.3,0.1,0.7,0.1,1,0c0.3-0.2,0.5-0.6,0.5-0.9c0-0.3,0-0.6-0.2-0.8
		C12.3,28.2,11.8,28.1,11.5,28.1z"/>
	<path class="st2" d="M26.2,19.2c0.4,0,0.7,0,1.1,0c0,0.5,0,0.9,0,1.4c0,0.6,0,1.2,0,1.8c0,0.3,0,0.6-0.1,0.9
		c-0.3,0.6-0.8,1.1-1.4,1.4c-0.2,0.1-0.5,0.1-0.7,0.1c-0.5,0-1,0-1.6,0c-0.5,0.1-1,0-1.6,0.1c-0.2,0-0.4,0.2-0.5,0.3
		c-0.3,0.4-0.3,1,0,1.4c0.1,0.2,0.3,0.3,0.5,0.3c0.5,0.1,1,0,1.6,0.1c2.4,0,4.8,0,7.2,0.1c0.4,0,0.8,0,1.2,0
		c0.3,0.2,0.7,0.3,0.9,0.6c0.5,0.4,0.7,1,0.7,1.6c0,0.6-0.3,1.2-0.8,1.6c-0.4,0.3-0.8,0.6-1.3,0.5c-0.8,0.1-1.6,0-2.4,0.1
		c-0.3,0-0.7,0-1,0.1c-0.3,0.1-0.5,0.4-0.6,0.8c-0.1,0.4,0,0.9,0,1.4c0.6,0,1.2,0,1.7,0c0.2,0,0.4,0,0.6,0.1c0.5,0.3,0.9,0.8,1,1.3
		c0,2.7,0,5.4,0,8.1c0,0.2-0.1,0.3-0.2,0.5c-0.2,0.4-0.6,0.8-1,1c-0.3,0.1-0.7,0.1-1,0.1c-1.2,0-2.4,0-3.6,0c-0.3,0-0.6,0-0.9-0.1
		c-0.4-0.2-0.7-0.5-1-0.9c-0.2-0.3-0.1-0.7-0.2-1c0-1.2,0-2.4,0-3.6c0-1.2,0-2.4,0-3.6c0-0.3,0-0.7,0.2-1c0.1-0.2,0.3-0.4,0.5-0.6
		c0.2-0.2,0.4-0.3,0.6-0.3c0.7-0.1,1.3,0,2-0.1c0-0.6,0-1.1,0.1-1.7c0.2-0.5,0.5-1,1-1.3c0.2-0.1,0.4-0.3,0.7-0.4c1,0,2,0,3-0.1
		c0.2,0,0.5,0,0.7,0c0.2,0,0.4-0.2,0.5-0.4c0.2-0.4,0.2-0.9,0-1.3c-0.1-0.2-0.3-0.4-0.6-0.4c-0.9-0.1-1.9,0-2.8-0.1
		c-0.8,0-1.7,0-2.5,0c-1.5,0-2.9,0-4.4,0c-0.5-0.2-1-0.5-1.3-0.9c-0.3-0.5-0.5-1.1-0.4-1.7c0.2-0.6,0.5-1.1,1-1.4
		c0.2-0.1,0.5-0.3,0.8-0.3c0.5-0.1,1-0.1,1.5-0.1c0.6,0,1.1,0,1.7,0c0.2,0,0.4,0,0.6-0.1c0.2-0.1,0.4-0.3,0.4-0.5
		c0.1-0.3,0.1-0.7,0.1-1.1C26.2,21.1,26.2,20.1,26.2,19.2 M24.4,34.8c-0.1,0-0.3,0-0.3,0.1c-0.1,0.1-0.1,0.3-0.1,0.4
		c0,1.2,0,2.5,0,3.7c0,1.3,0,2.6,0,3.9c0,0.2,0,0.3,0.1,0.5c0,0.1,0.2,0.2,0.3,0.2c0.6,0.1,1.1,0,1.7,0c0.7,0,1.3,0,2,0
		c0.4,0,0.7,0,1.1,0c0.1,0,0.2,0,0.2-0.1c0.1-0.1,0.1-0.2,0.1-0.3c0-0.4,0-0.7,0-1.1c0-1.9,0-3.9,0-5.8c0-0.4,0-0.7,0-1.1
		c0-0.1-0.1-0.3-0.2-0.4c-0.2-0.1-0.5-0.1-0.7-0.1c-1.1,0-2.2,0-3.3,0C25,34.8,24.7,34.8,24.4,34.8z"/>
	<path class="st2" d="M26.2,35.9c0.4,0,0.7,0,1.1,0c0,0.7,0,1.5,0,2.2c-0.4,0-0.7,0-1.1,0C26.2,37.4,26.2,36.7,26.2,35.9z"/>
	<path class="st2" d="M20.6,36.5c0.4,0,0.7,0,1.1,0c0,0.4,0,0.7,0,1.1c-0.4,0-0.7,0-1.1,0C20.6,37.2,20.6,36.9,20.6,36.5z"/>
	<path class="st2" d="M31.7,36.5c0.4,0,0.7,0,1.1,0c0,0.4,0,0.7,0,1.1c-0.4,0-0.7,0-1.1,0C31.7,37.2,31.7,36.9,31.7,36.5z"/>
	<path class="st2" d="M31.7,38.7c0.4,0,0.7,0,1.1,0c0,0.4,0,0.7,0,1.1c-0.4,0-0.7,0-1.1,0C31.7,39.4,31.7,39.1,31.7,38.7z"/>
	<path class="st2" d="M20.6,38.7c0.4,0,0.7,0,1.1,0c0,0.4,0,0.7,0,1.1c-0.4,0-0.7,0-1.1,0C20.6,39.5,20.6,39.1,20.6,38.7z"/>
	<path class="st2" d="M20.6,40.9c0.4,0,0.7,0,1.1,0c0,0.4,0,0.7,0,1.1c-0.4,0-0.7,0-1.1,0C20.6,41.7,20.6,41.3,20.6,40.9z"/>
	<path class="st2" d="M31.7,40.9c0.4,0,0.7,0,1.1,0c0,0.4,0,0.7,0,1.1c-0.4,0-0.7,0-1.1,0C31.7,41.7,31.7,41.3,31.7,40.9z"/>
</g>
</svg>
