<?xml version="1.0" encoding="utf-8"?>
<!-- Generator: Adobe Illustrator 25.2.0, SVG Export Plug-In . SVG Version: 6.00 Build 0)  -->
<svg version="1.1" id="Layer_1" xmlns="http://www.w3.org/2000/svg" xmlns:xlink="http://www.w3.org/1999/xlink" x="0px" y="0px"
	 viewBox="0 0 51 51" style="enable-background:new 0 0 51 51;" xml:space="preserve">
<style type="text/css">
	.st0{fill:#1B74BB;}
	.st1{fill:none;stroke:#FFFFFF;stroke-miterlimit:10;}
	.st2{fill:#FFFFFF;}
</style>
<circle class="st0" cx="25.6" cy="25.6" r="24.3"/>
<ellipse class="st1" cx="25.6" cy="26" rx="24.9" ry="24.7"/>
<g id="media-monitor-screen-Digital_Marketing">
	<path class="st2" d="M42.1,17.1h-1.2v-0.6h0.6c1,0,1.8-0.7,1.8-1.7c0-0.9-0.8-1.7-1.8-1.7l0,0h-0.6v-2.8c0-0.2-0.1-0.3-0.3-0.4
		c-0.2-0.1-0.4-0.1-0.5-0.1l-7.8,2.2H28c-0.3,0-0.6,0.2-0.6,0.6v0.6h-1.2c-0.3,0-0.6,0.2-0.6,0.6V16c0,0.3,0.3,0.6,0.6,0.6h1.2v0.6
		h-3.7v-5c0-0.3-0.3-0.6-0.6-0.6H11c-0.3,0-0.6,0.2-0.6,0.6v5H9.1c-1,0-1.8,0.7-1.8,1.7v17.7c0,0.9,0.8,1.7,1.8,1.7h14v1.7h-3.7
		c-0.3,0-0.6,0.2-0.6,0.6v2.2c0,0.3,0.3,0.6,0.6,0.6h12.2c0.3,0,0.6-0.2,0.6-0.6v-2.2c0-0.3-0.3-0.6-0.6-0.6H28v-1.7h14
		c1,0,1.8-0.7,1.8-1.7V18.8C43.9,17.9,43.1,17.1,42.1,17.1z M40.8,14.4h0.6c0.3,0,0.6,0.2,0.6,0.6c0,0.3-0.3,0.6-0.6,0.6h-0.6V14.4z
		 M32.9,13.1l6.7-1.9v7.4l-6.7-1.9V13.1z M28.6,13.3h3v3.3h-3V13.3z M30.4,17.7l-0.4,2.8h-0.7v-2.8H30.4z M26.8,15.5v-1.1h0.6v1.1
		H26.8z M11.6,12.7h11v7.7h-11V12.7z M31.1,40.9V42h-11v-1.1H31.1z M24.4,39.8v-1.7h2.4v1.7H24.4z M42.7,36.5c0,0.3-0.3,0.6-0.6,0.6
		H9.1c-0.3,0-0.6-0.2-0.6-0.6v-0.6h34.2V36.5z M42.7,34.8H8.5v-16c0-0.3,0.3-0.6,0.6-0.6h1.2V21c0,0.3,0.3,0.6,0.6,0.6h12.2
		c0.3,0,0.6-0.2,0.6-0.6v-2.8H28V21c0,0.3,0.3,0.6,0.6,0.6h1.8c0.3,0,0.6-0.2,0.6-0.5l0.5-3.4h0.6l7.8,2.2c0.1,0,0.1,0,0.2,0
		c0.3,0,0.6-0.2,0.6-0.6v-1.1h1.2c0.3,0,0.6,0.2,0.6,0.6L42.7,34.8z"/>
	<path class="st2" d="M10.4,33.7h15.9c0.3,0,0.6-0.2,0.6-0.6v-8.8c0-0.3-0.3-0.6-0.6-0.6H10.4c-0.3,0-0.6,0.2-0.6,0.6v8.8
		C9.7,33.5,10,33.7,10.4,33.7z M11,32.6v-7.3l7,3.9c0.2,0.1,0.4,0.1,0.6,0l7-3.9v7.3H11z M12.5,24.9h11.5l-5.8,3.2L12.5,24.9z"/>
	<path class="st2" d="M28.6,30.4h1.2v1.7c0,0.3,0.3,0.6,0.6,0.6h10.4c0.3,0,0.6-0.2,0.6-0.6v-6.6c0-0.3-0.3-0.6-0.6-0.6h-0.6v-1.7
		c0-0.3-0.3-0.6-0.6-0.6h-11c-0.3,0-0.6,0.2-0.6,0.6v6.6C28,30.2,28.3,30.4,28.6,30.4z M40.2,31.5h-9.1V26h9.1V31.5z M29.3,23.8H39
		v1.1h-8.5c-0.3,0-0.6,0.2-0.6,0.6v3.9h-0.6V23.8z"/>
	<path class="st2" d="M32.3,27.1h1.2v1.1h-1.2V27.1z"/>
	<path class="st2" d="M34.7,27.1H39v1.1h-4.3V27.1z"/>
	<path class="st2" d="M32.3,29.3h2.4v1.1h-2.4V29.3z"/>
	<path class="st2" d="M36,29.3h3v1.1h-3V29.3z"/>
	<path class="st2" d="M15.5,18.7c0.2,0.1,0.4,0.1,0.6,0l3.7-1.7c0.3-0.1,0.4-0.5,0.3-0.7c-0.1-0.1-0.2-0.2-0.3-0.2l-3.7-1.7
		c-0.3-0.1-0.7,0-0.8,0.2c0,0.1-0.1,0.2-0.1,0.2v3.3C15.2,18.4,15.3,18.6,15.5,18.7z M16.5,15.8l1.7,0.8l-1.7,0.8V15.8z"/>
</g>
</svg>
