<?xml version="1.0" encoding="utf-8"?>
<!-- Generator: Adobe Illustrator 25.2.0, SVG Export Plug-In . SVG Version: 6.00 Build 0)  -->
<svg version="1.1" id="Layer_1" xmlns="http://www.w3.org/2000/svg" xmlns:xlink="http://www.w3.org/1999/xlink" x="0px" y="0px"
	 viewBox="0 0 51 51" style="enable-background:new 0 0 51 51;" xml:space="preserve">
<style type="text/css">
	.st0{fill:#2ECC71;}
	.st1{fill:#FFFFFF;}
	.st2{fill:none;stroke:#FFFFFF;stroke-miterlimit:10;}
</style>
<circle id="Ellipse_1" class="st0" cx="25.5" cy="25.5" r="25.5"/>
<path id="Path_2274" class="st1" d="M9.9,12.6v25.9H41V12.6H9.9z M11.9,14.7h15.6v2.2H11.9V14.7z M29.4,14.7h1.9v2.2h-1.9V14.7z
	 M33.3,14.7h1.9v2.2h-1.9V14.7z M37.2,14.7h1.9v2.2h-1.9V14.7z M11.9,19h27.2v17.3H11.9V19z M25.6,22.2L22,28.9l-3.3-5.2L14,30.2
	l1.5,1.3l3.1-4.3l3.5,5.6l3.3-6.2l2.8,6.2l3-4.4l2.4,4.2l3.3-4.4L35.4,27l-1.6,2.1l-2.5-4.4l-2.8,4.2L25.6,22.2z"/>
<ellipse class="st2" cx="25.5" cy="25.7" rx="25.5" ry="25.3"/>
</svg>
