<?xml version="1.0" encoding="utf-8"?>
<!-- Generator: Adobe Illustrator 25.2.0, SVG Export Plug-In . SVG Version: 6.00 Build 0)  -->
<svg version="1.1" id="Layer_1" xmlns="http://www.w3.org/2000/svg" xmlns:xlink="http://www.w3.org/1999/xlink" x="0px" y="0px"
	 viewBox="0 0 46.7 47.6" style="enable-background:new 0 0 46.7 47.6;" xml:space="preserve">
<style type="text/css">
	.st0{fill:#8E44AD;}
	.st1{fill:#FFFFFF;}
	.st2{fill:none;stroke:#FFFFFF;stroke-miterlimit:10;}
</style>
<circle class="st0" cx="23.2" cy="23.8" r="23.5"/>
<g id="_x23_ffffffff">
</g>
<g id="_x23_ffffffff_1_">
</g>
<g id="Logo" transform="translate(0 0)">
	<path id="Path_34" class="st1" d="M39.8,10.2H7.7c-1.2-0.1-2.2,0.8-2.3,1.9c0,0,0,0,0,0.1v23.2c0.1,1.2,1.1,2.1,2.2,2
		c0,0,0,0,0.1,0h11.2v3.4h-2.7c-0.4-0.1-0.7,0.2-0.8,0.6c-0.1,0.4,0.2,0.7,0.6,0.8c0.1,0,0.1,0,0.2,0h15.2c0.4,0.1,0.7-0.2,0.8-0.6
		c0.1-0.4-0.2-0.7-0.6-0.8c-0.1,0-0.1,0-0.2,0h-2.7v-3.4h11.2c1.2,0.1,2.2-0.8,2.3-2c0,0,0,0,0-0.1v-23
		C42.1,11.1,41.1,10.2,39.8,10.2C39.9,10.2,39.8,10.2,39.8,10.2z M27.1,40.8h-6.8v-3.3h6.8C27.1,37.5,27.1,40.8,27.1,40.8z
		 M40.6,35.4c0,0.4-0.3,0.7-0.7,0.7h-0.1H7.7c-0.4,0-0.7-0.2-0.8-0.6c0,0,0,0,0-0.1v-3.1h33.7V35.4z M40.6,31H6.9V12.3
		c0-0.4,0.3-0.7,0.7-0.7h0.1h32.2c0.4,0,0.7,0.2,0.8,0.6v0.1L40.6,31z"/>
	<path id="Path_35" class="st1" d="M35.5,10.5c-1.9-0.1-3.6,1.2-4.1,3.1h-6.9v-2.2h4.3c0.4,0,0.7-0.2,0.8-0.6v-0.1V6.1
		c0-0.4-0.3-0.7-0.7-0.7h-0.1H18.6c-0.4,0-0.7,0.2-0.8,0.6v0.1v4.5c0,0.4,0.3,0.7,0.7,0.7h0.1H23v2.2h-7c-0.5-1.9-2.2-3.1-4.1-3.1
		c-2.2-0.1-4.1,1.6-4.2,3.8c0.1,2.2,2,3.9,4.2,3.8c1.9,0.1,3.6-1.2,4.1-3.1h7v2.3h-4.3c-0.4,0-0.7,0.2-0.8,0.6v0.1v4.5
		c0,0.4,0.3,0.7,0.7,0.7h0.1h10.2c0.4,0,0.7-0.2,0.8-0.6v-0.1V18c0-0.4-0.3-0.7-0.7-0.7h-0.1h-4.3v-2.2h6.9c0.5,1.9,2.2,3.1,4.1,3.1
		c2.2,0.1,4.1-1.6,4.2-3.8C39.7,12.3,37.8,10.5,35.5,10.5z M12,16.7c-1.4,0-2.5-1-2.6-2.4C9.5,13,10.6,11.9,12,12
		c1.4,0,2.5,1,2.6,2.4C14.5,15.7,13.4,16.8,12,16.7z M28.1,18.8v3h-8.7v-3H28.1z M19.4,9.9v-3h8.7v3H19.4z M35.5,16.7
		c-1.4,0-2.5-1-2.6-2.4c0.1-1.4,1.4-2.5,2.8-2.4C37,12,38,13,38.1,14.3C38,15.7,36.8,16.8,35.5,16.7z"/>
</g>
<ellipse class="st2" cx="23.5" cy="23.8" rx="23.2" ry="23.5"/>
</svg>
