<?xml version="1.0" encoding="utf-8"?>
<!-- Generator: Adobe Illustrator 25.2.0, SVG Export Plug-In . SVG Version: 6.00 Build 0)  -->
<svg version="1.1" id="Layer_1" xmlns="http://www.w3.org/2000/svg" xmlns:xlink="http://www.w3.org/1999/xlink" x="0px" y="0px"
	 viewBox="0 0 46.7 47.6" style="enable-background:new 0 0 46.7 47.6;" xml:space="preserve">
<style type="text/css">
	.st0{fill:#3498DB;stroke:#3498DB;stroke-linecap:round;stroke-linejoin:round;}
	.st1{fill:#FFFFFF;stroke:#FFFFFF;stroke-linecap:round;stroke-linejoin:round;}
	.st2{fill:#2980B9;stroke:#FFFFFF;stroke-miterlimit:10;}
	.st3{fill:none;stroke:#FFFFFF;stroke-miterlimit:10;}
</style>
<ellipse class="st0" cx="23.4" cy="23.9" rx="22.7" ry="23"/>
<g id="_x23_ffffffff">
</g>
<g id="_x23_ffffffff_1_">
</g>
<g id="Group_37" transform="translate(0.5 0.5)">
	<g id="Group_31" transform="translate(38.545 32.646)">
		<path id="Path_2260" class="st1" d="M-7.4,3.3V2.9c0-0.4,0.2-0.7,0.6-0.9c1.2-0.7,2.6-1.5,2.6-1.5h1.9c0.1,0.1,1.2,0.6,2.8,1.6
			c0.3,0.2,0.4,0.6,0.4,1v0.2"/>
		<path id="Path_2261" class="st1" d="M-3.3-4.2c-0.8,0-1.5,0.8-1.4,1.6V-1c0,0.8,0.6,1.5,1.4,1.6C-2.5,0.5-1.9-0.2-1.9-1v-1.6
			C-1.8-3.5-2.5-4.2-3.3-4.2z M-4.3,0.5h1.9"/>
	</g>
	<g id="Group_32" transform="translate(40.097 12.717)">
		<path id="Path_2262" class="st1" d="M-5.9,7.2V6.8c0-0.4,0.2-0.7,0.6-0.9c1.2-0.7,2.6-1.5,2.6-1.5h1.9C-0.7,4.5,0.3,5.1,2,6.1
			c0.3,0.2,0.4,0.6,0.4,1v0.2"/>
		<path id="Path_2263" class="st1" d="M-1.8-0.3c-0.8,0-1.5,0.8-1.4,1.6v1.6c0,0.8,0.6,1.5,1.4,1.6C-1,4.4-0.4,3.7-0.4,2.9V1.3
			C-0.3,0.5-1-0.2-1.8-0.3z M-2.7,4.4h1.9"/>
	</g>
	<g id="Group_33" transform="translate(20.035 0)">
		<path id="Path_2264" class="st1" d="M-0.7,9.9V9.5c0-0.4,0.2-0.7,0.6-0.9c1.2-0.7,2.6-1.5,2.6-1.5h1.9c0.1,0.1,1.2,0.6,2.8,1.6
			c0.3,0.2,0.4,0.6,0.4,1v0.2"/>
		<path id="Path_2265" class="st1" d="M3.4,2.4C2.6,2.4,1.9,3.2,2,4v1.6C2,6.4,2.6,7,3.4,7.1C4.2,7,4.8,6.4,4.8,5.6V4
			C4.9,3.2,4.2,2.4,3.4,2.4z M2.5,7.1h1.9"/>
	</g>
	<g id="Group_34" transform="translate(0.698 12.717)">
		<path id="Path_2266" class="st1" d="M2.9,6.6V6.2c0-0.4,0.2-0.7,0.6-0.9c1.2-0.7,2.6-1.5,2.6-1.5H8c0.1,0.1,1.2,0.6,2.8,1.6
			c0.3,0.2,0.4,0.6,0.4,1v0.2"/>
		<path id="Path_2267" class="st1" d="M7.1-0.9c-0.8,0-1.5,0.8-1.4,1.6v1.6c0,0.8,0.6,1.5,1.4,1.6c0.8-0.1,1.4-0.8,1.4-1.6V0.7
			C8.5-0.1,7.9-0.8,7.1-0.9z M6.1,3.8H8"/>
	</g>
	<g id="Group_35" transform="translate(0 31.817)">
		<path id="Path_2268" class="st1" d="M6,3.6V3.2c0-0.4,0.2-0.7,0.6-0.9c1.2-0.7,2.6-1.5,2.6-1.5h1.9c0.1,0.1,1.2,0.6,2.8,1.6
			c0.3,0.2,0.4,0.6,0.4,1v0.2"/>
		<path id="Path_2269" class="st1" d="M10.1-3.9c-0.8,0-1.5,0.8-1.4,1.6v1.6c0,0.8,0.6,1.5,1.4,1.6c0.8-0.1,1.4-0.8,1.4-1.6v-1.6
			C11.6-3.2,11-3.9,10.1-3.9z M9.2,0.8h1.9"/>
	</g>
	<g id="Group_36" transform="translate(20.035 41.097)">
		<path id="Path_2270" class="st1" d="M-0.7,2.1V1.8c0-0.4,0.2-0.7,0.6-0.9c1.2-0.7,2.6-1.5,2.6-1.5h1.9C4.5-0.6,5.6,0,7.2,1
			c0.3,0.2,0.4,0.6,0.4,1v0.2"/>
		<path id="Path_2271" class="st1" d="M3.4-5.4C2.6-5.3,1.9-4.6,2-3.8v1.6c0,0.8,0.6,1.5,1.4,1.6c0.8-0.1,1.4-0.8,1.4-1.6v-1.6
			C4.9-4.6,4.2-5.3,3.4-5.4z M2.5-0.6h1.9"/>
	</g>
</g>
<path id="Path_2275" class="st2" d="M23.9,15C19,15,15,19,15,23.9s4,8.9,8.9,8.9s8.9-4,8.9-8.9S28.9,15,23.9,15z M23.9,15.1
	c4.9,0,8.8,3.9,8.8,8.8s-3.9,8.8-8.8,8.8s-8.8-3.9-8.8-8.8l0,0C15.2,19.1,19.1,15.1,23.9,15.1L23.9,15.1z M19.3,19.5
	c0,0-0.1,0-0.1,0.1l0,0c0,0.1,0,0.1,0.1,0.1l0,0c0,0,0.1,0,0.1-0.1l0,0C19.4,19.5,19.4,19.5,19.3,19.5z M20.7,19.5
	c-0.1,0-0.1,0-0.1,0.1c0,0.1,0,0.1,0.1,0.1l0,0c0,0,0.1,0,0.1-0.1l0,0C20.8,19.5,20.8,19.5,20.7,19.5L20.7,19.5z M21.2,19.5
	c0,0-0.1,0-0.1,0.1l0,0c0,0,0,0.1,0.1,0.1l0,0c0.1,0,0.1,0,0.1-0.1l0,0C21.3,19.5,21.3,19.5,21.2,19.5L21.2,19.5z M19.3,20
	c-0.1,0-0.1,0-0.1,0.1l0,0c0,0.1,0,0.1,0.1,0.1c0,0,0.1,0,0.1-0.1l0,0C19.4,20,19.4,20,19.3,20L19.3,20z M19.7,20c0,0-0.1,0-0.1,0.1
	l0,0c0,0.1,0,0.1,0.1,0.1l0,0c0,0,0.1,0,0.1-0.1l0,0C19.9,20,19.8,20,19.7,20C19.8,20,19.8,20,19.7,20L19.7,20z M20.2,20
	c0,0-0.1,0-0.1,0.1l0,0c0,0.1,0,0.1,0.1,0.1s0.1,0,0.1-0.1C20.4,20,20.3,20,20.2,20L20.2,20z M20.7,20c-0.1,0-0.1,0-0.1,0.1
	c0,0.1,0,0.1,0.1,0.1c0,0,0.1,0,0.1-0.1l0,0C20.8,20,20.8,20,20.7,20L20.7,20L20.7,20z M21.2,20c0,0-0.1,0-0.1,0.1l0,0
	c0,0.1,0,0.1,0.1,0.1l0,0c0,0,0.1,0,0.1-0.1l0,0C21.3,20,21.3,20,21.2,20L21.2,20L21.2,20z M19.3,20.5c-0.1,0-0.1,0-0.1,0.1l0,0
	c0,0.1,0,0.1,0.1,0.1s0.1,0,0.1-0.1C19.4,20.5,19.4,20.5,19.3,20.5z M19.7,20.5c-0.1,0-0.1,0-0.1,0.1c0,0.1,0,0.1,0.1,0.1
	s0.1,0,0.1-0.1l0,0C19.9,20.5,19.8,20.5,19.7,20.5C19.8,20.5,19.8,20.5,19.7,20.5L19.7,20.5z M20.2,20.5c0,0-0.1,0-0.1,0.1l0,0
	c0,0,0,0.1,0.1,0.1s0.1,0,0.1-0.1C20.4,20.5,20.3,20.5,20.2,20.5L20.2,20.5z M20.7,20.5c-0.1,0-0.1,0-0.1,0.1c0,0.1,0,0.1,0.1,0.1
	l0,0c0.1,0,0.1,0,0.1-0.1C20.8,20.5,20.8,20.5,20.7,20.5z M21.2,20.5c-0.1,0-0.1,0-0.1,0.1c0,0.1,0,0.1,0.1,0.1s0.1,0,0.1-0.1
	C21.3,20.5,21.3,20.5,21.2,20.5L21.2,20.5z M21.7,20.5c-0.1,0-0.1,0-0.1,0.1l0,0c0,0.1,0,0.1,0.1,0.1c0,0,0.1,0,0.1-0.1
	C21.8,20.5,21.8,20.5,21.7,20.5L21.7,20.5L21.7,20.5z M25,20.5c-0.1,0-0.1,0-0.1,0.1c0,0.1,0,0.1,0.1,0.1s0.1,0,0.1-0.1
	C25.1,20.5,25.1,20.5,25,20.5L25,20.5z M25.5,20.5c-0.1,0-0.1,0-0.1,0.1c0,0.1,0,0.1,0.1,0.1l0,0c0,0,0.1,0,0.1-0.1
	C25.6,20.5,25.6,20.5,25.5,20.5L25.5,20.5L25.5,20.5z M25.9,20.5c-0.1,0-0.1,0-0.1,0.1c0,0.1,0,0.1,0.1,0.1l0,0c0.1,0,0.1,0,0.1-0.1
	l0,0C26.1,20.5,26,20.5,25.9,20.5C26,20.5,26,20.5,25.9,20.5L25.9,20.5z M22.1,20.9c0,0-0.1,0-0.1,0.1c0,0.1,0,0.1,0.1,0.1
	s0.1,0,0.1-0.1C22.3,21,22.2,20.9,22.1,20.9L22.1,20.9z M19.3,20.9c-0.1,0-0.1,0-0.1,0.1c0,0.1,0,0.1,0.1,0.1l0,0c0,0,0.1,0,0.1-0.1
	l0,0C19.4,21,19.4,20.9,19.3,20.9L19.3,20.9z M19.8,20.9c-0.1,0-0.1,0-0.1,0.1l0,0c0,0,0,0.1,0.1,0.1l0,0c0.1,0,0.1,0,0.1-0.1l0,0
	L19.8,20.9L19.8,20.9z M20.2,20.9c-0.1,0-0.1,0-0.1,0.1l0,0c0,0,0,0.1,0.1,0.1l0,0c0.1,0,0.1,0,0.1-0.1C20.4,21,20.3,20.9,20.2,20.9
	L20.2,20.9z M20.7,20.9c-0.1,0-0.1,0-0.1,0.1c0,0.1,0,0.1,0.1,0.1l0,0c0,0,0.1,0,0.1-0.1l0,0C20.8,21,20.8,20.9,20.7,20.9L20.7,20.9
	z M21.2,20.9c-0.1,0-0.1,0-0.1,0.1l0,0c0,0,0,0.1,0.1,0.1l0,0c0.1,0,0.1,0,0.1-0.1l0,0C21.3,21,21.3,20.9,21.2,20.9L21.2,20.9z
	 M21.7,20.9c-0.1,0-0.1,0-0.1,0.1c0,0.1,0,0.1,0.1,0.1l0,0c0,0,0.1,0,0.1-0.1C21.8,20.9,21.8,20.9,21.7,20.9L21.7,20.9L21.7,20.9z
	 M24.1,20.9c-0.1,0-0.1,0-0.1,0.1c0,0.1,0,0.1,0.1,0.1s0.1,0,0.1-0.1l0,0L24.1,20.9L24.1,20.9L24.1,20.9z M24.5,20.9
	c-0.1,0-0.1,0-0.1,0.1l0,0c0,0,0,0.1,0.1,0.1l0,0c0.1,0,0.1,0,0.1-0.1l0,0C24.6,21,24.6,20.9,24.5,20.9L24.5,20.9z M25,20.9
	c-0.1,0-0.1,0-0.1,0.1l0,0c0,0,0,0.1,0.1,0.1l0,0c0.1,0,0.1,0,0.1-0.1l0,0C25.2,21,25.1,20.9,25,20.9L25,20.9z M25.5,20.9
	c-0.1,0-0.1,0-0.1,0.1c0,0.1,0,0.1,0.1,0.1l0,0c0,0,0.1,0,0.1-0.1C25.6,20.9,25.6,20.9,25.5,20.9L25.5,20.9z M25.9,20.9
	c-0.1,0-0.1,0-0.1,0.1c0,0,0,0.1,0.1,0.1l0,0c0.1,0,0.1,0,0.1-0.1l0,0C26.1,21,26,20.9,25.9,20.9L25.9,20.9z M26.5,20.9
	c-0.1,0-0.1,0-0.1,0.1l0,0c0,0,0,0.1,0.1,0.1l0,0c0,0,0.1,0,0.1-0.1C26.5,21,26.5,20.9,26.5,20.9L26.5,20.9z M26.9,20.9
	c-0.1,0-0.1,0-0.1,0.1c0,0,0,0.1,0.1,0.1l0,0c0,0,0.1,0,0.1-0.1l0,0C27,21,27,20.9,26.9,20.9L26.9,20.9z M22.1,21.4
	c0,0-0.1,0-0.1,0.1l0,0c0,0.1,0,0.1,0.1,0.1l0,0c0.1,0,0.1,0,0.1-0.1l0,0C22.3,21.4,22.2,21.4,22.1,21.4z M27.9,21.4
	c-0.1,0-0.1,0-0.1,0.1l0,0c0,0.1,0,0.1,0.1,0.1s0.1,0,0.1-0.1l0,0C28,21.4,28,21.4,27.9,21.4L27.9,21.4L27.9,21.4z M19.3,21.4
	c0,0-0.1,0-0.1,0.1l0,0c0,0.1,0,0.1,0.1,0.1c0,0,0.1,0,0.1-0.1l0,0C19.4,21.5,19.4,21.4,19.3,21.4L19.3,21.4L19.3,21.4z M19.8,21.4
	c0,0-0.1,0-0.1,0.1l0,0c0,0,0,0.1,0.1,0.1l0,0c0,0,0.1,0,0.1-0.1l0,0L19.8,21.4L19.8,21.4L19.8,21.4z M20.2,21.4c0,0-0.1,0-0.1,0.1
	l0,0c0,0.1,0,0.1,0.1,0.1l0,0c0.1,0,0.1,0,0.1-0.1C20.4,21.5,20.3,21.4,20.2,21.4L20.2,21.4z M20.7,21.4c-0.1,0-0.1,0-0.1,0.1l0,0
	c0,0.1,0,0.1,0.1,0.1c0,0,0.1,0,0.1-0.1l0,0C20.8,21.5,20.8,21.4,20.7,21.4L20.7,21.4L20.7,21.4z M21.2,21.4c0,0-0.1,0-0.1,0.1l0,0
	c0,0,0,0.1,0.1,0.1l0,0c0,0,0.1,0,0.1-0.1l0,0C21.3,21.5,21.3,21.4,21.2,21.4L21.2,21.4L21.2,21.4z M21.7,21.4c0,0-0.1,0-0.1,0.1
	l0,0c0,0.1,0,0.1,0.1,0.1s0.1,0,0.1-0.1l0,0C21.8,21.5,21.8,21.4,21.7,21.4L21.7,21.4L21.7,21.4z M22.6,21.4c0,0-0.1,0-0.1,0.1l0,0
	c0,0.1,0,0.1,0.1,0.1s0.1,0,0.1-0.1l0,0C22.8,21.5,22.7,21.4,22.6,21.4L22.6,21.4L22.6,21.4z M23.1,21.4c0,0-0.1,0-0.1,0.1l0,0
	c0,0.1,0,0.1,0.1,0.1s0.1,0,0.1-0.1l0,0C23.2,21.5,23.2,21.4,23.1,21.4L23.1,21.4L23.1,21.4z M23.6,21.4c0,0-0.1,0-0.1,0.1l0,0
	c0,0.1,0,0.1,0.1,0.1l0,0c0.1,0,0.1,0,0.1-0.1L23.6,21.4L23.6,21.4L23.6,21.4z M24.1,21.4c0,0-0.1,0-0.1,0.1l0,0
	c0,0.1,0,0.1,0.1,0.1l0,0c0,0,0.1,0,0.1-0.1l0,0L24.1,21.4L24.1,21.4L24.1,21.4z M24.5,21.4c0,0-0.1,0-0.1,0.1l0,0
	c0,0,0,0.1,0.1,0.1l0,0c0,0,0.1,0,0.1-0.1l0,0C24.6,21.5,24.6,21.4,24.5,21.4C24.6,21.4,24.5,21.4,24.5,21.4L24.5,21.4z M25,21.4
	c0,0-0.1,0-0.1,0.1l0,0c0,0,0,0.1,0.1,0.1l0,0c0,0,0.1,0,0.1-0.1l0,0C25.2,21.5,25.1,21.4,25,21.4L25,21.4L25,21.4z M25.5,21.4
	c-0.1,0-0.1,0-0.1,0.1l0,0c0,0.1,0,0.1,0.1,0.1l0,0c0.1,0,0.1,0,0.1-0.1l0,0C25.6,21.5,25.6,21.4,25.5,21.4L25.5,21.4L25.5,21.4z
	 M25.9,21.4c0,0-0.1,0-0.1,0.1l0,0c0,0.1,0,0.1,0.1,0.1l0,0c0,0,0.1,0,0.1-0.1l0,0C26.1,21.5,26,21.4,25.9,21.4
	C26,21.4,26,21.4,25.9,21.4L25.9,21.4z M26.5,21.4c0,0-0.1,0-0.1,0.1l0,0c0,0.1,0,0.1,0.1,0.1s0.1,0,0.1-0.1
	C26.5,21.4,26.5,21.4,26.5,21.4L26.5,21.4z M26.9,21.4c0,0-0.1,0-0.1,0.1l0,0c0,0,0,0.1,0.1,0.1l0,0c0,0,0.1,0,0.1-0.1l0,0
	C27,21.5,27,21.4,26.9,21.4L26.9,21.4L26.9,21.4z M27.4,21.4c-0.1,0-0.1,0-0.1,0.1l0,0c0,0.1,0,0.1,0.1,0.1s0.1,0,0.1-0.1
	C27.5,21.5,27.5,21.4,27.4,21.4L27.4,21.4L27.4,21.4z M19.8,21.8c-0.1,0-0.1,0-0.1,0.1l0,0c0,0,0,0.1,0.1,0.1l0,0c0,0,0.1,0,0.1-0.1
	l0,0C19.9,21.9,19.8,21.8,19.8,21.8L19.8,21.8z M20.2,21.8c-0.1,0-0.1,0-0.1,0.1l0,0c0,0,0,0.1,0.1,0.1l0,0c0.1,0,0.1,0,0.1-0.1l0,0
	C20.4,21.9,20.3,21.8,20.2,21.8L20.2,21.8z M20.7,21.8c-0.1,0-0.1,0-0.1,0.1c0,0.1,0,0.1,0.1,0.1l0,0c0,0,0.1,0,0.1-0.1l0,0
	C20.8,21.9,20.8,21.8,20.7,21.8L20.7,21.8z M21.2,21.8c-0.1,0-0.1,0-0.1,0.1l0,0c0,0,0,0.1,0.1,0.1l0,0c0,0,0.1,0,0.1-0.1l0,0
	C21.3,21.9,21.3,21.8,21.2,21.8L21.2,21.8z M21.7,21.8c-0.1,0-0.1,0-0.1,0.1c0,0.1,0,0.1,0.1,0.1l0,0c0,0,0.1,0,0.1-0.1l0,0
	C21.8,21.9,21.8,21.8,21.7,21.8L21.7,21.8L21.7,21.8z M22.1,21.8c-0.1,0-0.1,0-0.1,0.1l0,0c0,0,0,0.1,0.1,0.1l0,0
	c0.1,0,0.1,0,0.1-0.1C22.3,21.9,22.2,21.8,22.1,21.8L22.1,21.8z M22.6,21.8c-0.1,0-0.1,0-0.1,0.1l0,0c0,0.1,0,0.1,0.1,0.1
	s0.1,0,0.1-0.1C22.8,21.9,22.7,21.8,22.6,21.8L22.6,21.8L22.6,21.8z M23.1,21.8c-0.1,0-0.1,0-0.1,0.1c0,0.1,0,0.1,0.1,0.1l0,0
	c0,0,0.1,0,0.1-0.1l0,0C23.2,21.9,23.2,21.8,23.1,21.8L23.1,21.8L23.1,21.8z M23.6,21.8c-0.1,0-0.1,0-0.1,0.1l0,0c0,0,0,0.1,0.1,0.1
	l0,0c0.1,0,0.1,0,0.1-0.1l0,0C23.7,21.9,23.6,21.8,23.6,21.8L23.6,21.8z M24.1,21.8c-0.1,0-0.1,0-0.1,0.1c0,0,0,0.1,0.1,0.1l0,0
	c0,0,0.1,0,0.1-0.1l0,0L24.1,21.8L24.1,21.8L24.1,21.8z M24.5,21.8c-0.1,0-0.1,0-0.1,0.1l0,0c0,0,0,0.1,0.1,0.1l0,0
	c0,0,0.1,0,0.1-0.1l0,0C24.6,21.9,24.6,21.8,24.5,21.8L24.5,21.8z M25,21.8c-0.1,0-0.1,0-0.1,0.1l0,0c0,0,0,0.1,0.1,0.1l0,0
	c0,0,0.1,0,0.1-0.1l0,0C25.2,21.9,25.1,21.8,25,21.8L25,21.8z M25.5,21.8c-0.1,0-0.1,0-0.1,0.1c0,0.1,0,0.1,0.1,0.1l0,0
	c0,0,0.1,0,0.1-0.1l0,0C25.6,21.9,25.6,21.8,25.5,21.8L25.5,21.8z M25.9,21.8c-0.1,0-0.1,0-0.1,0.1c0,0,0,0.1,0.1,0.1l0,0
	c0,0,0.1,0,0.1-0.1l0,0C26.1,21.9,26,21.8,25.9,21.8L25.9,21.8z M26.5,21.8c-0.1,0-0.1,0-0.1,0.1l0,0c0,0.1,0,0.1,0.1,0.1
	s0.1,0,0.1-0.1C26.5,21.9,26.5,21.8,26.5,21.8L26.5,21.8z M26.9,21.8c-0.1,0-0.1,0-0.1,0.1c0,0,0,0.1,0.1,0.1l0,0c0,0,0.1,0,0.1-0.1
	l0,0C27,21.9,27,21.8,26.9,21.8L26.9,21.8z M27.4,21.8c-0.1,0-0.1,0-0.1,0.1c0,0.1,0.1,0.1,0.1,0.1s0.1,0,0.1-0.1
	C27.5,21.9,27.5,21.8,27.4,21.8L27.4,21.8z M27.9,21.8c-0.1,0-0.1,0-0.1,0.1c0,0.1,0,0.1,0.1,0.1l0,0c0,0,0.1,0,0.1-0.1l0,0
	C28,21.9,28,21.8,27.9,21.8L27.9,21.8L27.9,21.8z M19.8,22.3c0,0-0.1,0-0.1,0.1l0,0c0,0.1,0,0.1,0.1,0.1l0,0c0.1,0,0.1,0,0.1-0.1
	C19.9,22.4,19.8,22.3,19.8,22.3L19.8,22.3z M20.2,22.3c0,0-0.1,0-0.1,0.1l0,0c0,0.1,0,0.1,0.1,0.1s0.1,0,0.1-0.1
	C20.4,22.4,20.3,22.3,20.2,22.3L20.2,22.3z M20.7,22.3c-0.1,0-0.1,0-0.1,0.1c0,0.1,0,0.1,0.1,0.1s0.1,0,0.1-0.1l0,0
	C20.8,22.4,20.8,22.3,20.7,22.3L20.7,22.3z M21.2,22.3c0,0-0.1,0-0.1,0.1l0,0c0,0.1,0,0.1,0.1,0.1l0,0c0.1,0,0.1,0,0.1-0.1
	C21.3,22.4,21.3,22.3,21.2,22.3z M21.7,22.3c-0.1,0-0.1,0-0.1,0.1l0,0c0,0.1,0,0.1,0.1,0.1s0.1,0,0.1-0.1
	C21.8,22.4,21.8,22.3,21.7,22.3L21.7,22.3L21.7,22.3z M22.1,22.3c-0.1,0-0.1,0-0.1,0.1c0,0.1,0,0.1,0.1,0.1s0.1,0,0.1-0.1
	C22.3,22.4,22.2,22.3,22.1,22.3L22.1,22.3z M22.6,22.3c0,0-0.1,0-0.1,0.1l0,0c0,0.1,0,0.1,0.1,0.1s0.1,0,0.1-0.1l0,0
	C22.8,22.4,22.7,22.3,22.6,22.3L22.6,22.3L22.6,22.3z M23.1,22.3c-0.1,0-0.1,0-0.1,0.1l0,0c0,0.1,0,0.1,0.1,0.1s0.1,0,0.1-0.1
	C23.2,22.4,23.2,22.3,23.1,22.3L23.1,22.3L23.1,22.3z M23.6,22.3c0,0-0.1,0-0.1,0.1l0,0c0,0.1,0,0.1,0.1,0.1s0.1,0,0.1-0.1
	C23.7,22.4,23.6,22.3,23.6,22.3L23.6,22.3z M24.1,22.3c0,0-0.1,0-0.1,0.1c0,0.1,0,0.1,0.1,0.1s0.1,0,0.1-0.1l0,0
	C24.2,22.4,24.1,22.3,24.1,22.3L24.1,22.3L24.1,22.3z M24.5,22.3c0,0-0.1,0-0.1,0.1l0,0c0,0.1,0,0.1,0.1,0.1l0,0
	c0.1,0,0.1,0,0.1-0.1C24.6,22.4,24.6,22.3,24.5,22.3L24.5,22.3L24.5,22.3z M25,22.3c0,0-0.1,0-0.1,0.1l0,0c0,0.1,0,0.1,0.1,0.1l0,0
	c0.1,0,0.1,0,0.1-0.1C25.2,22.4,25.1,22.3,25,22.3L25,22.3z M25.5,22.3c-0.1,0-0.1,0-0.1,0.1c0,0.1,0.1,0.1,0.1,0.1
	c0.1,0,0.1,0,0.1-0.1C25.6,22.4,25.6,22.3,25.5,22.3L25.5,22.3z M25.9,22.3c0,0-0.1,0-0.1,0.1c0,0.1,0,0.1,0.1,0.1s0.1,0,0.1-0.1
	C26.1,22.4,26,22.3,25.9,22.3L25.9,22.3L25.9,22.3z M26.5,22.3c0,0-0.1,0-0.1,0.1l0,0c0,0.1,0,0.1,0.1,0.1s0.1,0,0.1-0.1
	C26.5,22.4,26.5,22.3,26.5,22.3L26.5,22.3z M26.9,22.3c-0.1,0-0.1,0-0.1,0.1l0,0c0,0.1,0,0.1,0.1,0.1s0.1,0,0.1-0.1l0,0
	C27,22.4,27,22.3,26.9,22.3L26.9,22.3z M27.4,22.3c-0.1,0-0.1,0-0.1,0.1c0,0.1,0,0.1,0.1,0.1s0.1,0,0.1-0.1
	C27.5,22.4,27.5,22.3,27.4,22.3L27.4,22.3L27.4,22.3z M27.9,22.3c-0.1,0-0.1,0-0.1,0.1l0,0c0,0.1,0,0.1,0.1,0.1s0.1,0,0.1-0.1l0,0
	C28,22.4,28,22.3,27.9,22.3L27.9,22.3L27.9,22.3z M19.8,22.8c0,0-0.1,0-0.1,0.1l0,0c0,0,0,0.1,0.1,0.1l0,0c0.1,0,0.1,0,0.1-0.1
	C19.9,22.8,19.8,22.8,19.8,22.8L19.8,22.8z M20.2,22.8c-0.1,0-0.1,0-0.1,0.1c0,0.1,0,0.1,0.1,0.1l0,0c0.1,0,0.1,0,0.1-0.1
	C20.4,22.9,20.3,22.8,20.2,22.8L20.2,22.8z M20.7,22.8c-0.1,0-0.1,0-0.1,0.1c0,0.1,0,0.1,0.1,0.1l0,0c0,0,0.1,0,0.1-0.1l0,0
	C20.8,22.9,20.8,22.8,20.7,22.8L20.7,22.8z M21.2,22.8c0,0-0.1,0-0.1,0.1l0,0c0,0,0,0.1,0.1,0.1l0,0c0.1,0,0.1,0,0.1-0.1l0,0
	C21.3,22.9,21.3,22.8,21.2,22.8z M21.7,22.8c-0.1,0-0.1,0-0.1,0.1c0,0.1,0,0.1,0.1,0.1l0,0c0,0,0.1,0,0.1-0.1
	C21.8,22.9,21.8,22.8,21.7,22.8L21.7,22.8L21.7,22.8z M22.1,22.8c-0.1,0-0.1,0-0.1,0.1c0,0.1,0,0.1,0.1,0.1l0,0c0.1,0,0.1,0,0.1-0.1
	C22.3,22.9,22.3,22.9,22.1,22.8C22.2,22.8,22.1,22.8,22.1,22.8z M22.6,22.8c0,0-0.1,0-0.1,0.1l0,0c0,0,0,0.1,0.1,0.1l0,0
	c0.1,0,0.1,0,0.1-0.1C22.8,22.9,22.7,22.8,22.6,22.8L22.6,22.8z M23.1,22.8c-0.1,0-0.1,0-0.1,0.1c0,0.1,0,0.1,0.1,0.1l0,0
	c0,0,0.1,0,0.1-0.1C23.2,22.9,23.2,22.8,23.1,22.8L23.1,22.8L23.1,22.8z M23.6,22.8c-0.1,0-0.1,0-0.1,0.1c0,0.1,0,0.1,0.1,0.1
	s0.1,0,0.1-0.1C23.7,22.9,23.6,22.8,23.6,22.8L23.6,22.8z M24.1,22.8c0,0-0.1,0-0.1,0.1c0,0.1,0,0.1,0.1,0.1s0.1,0,0.1-0.1
	C24.2,22.9,24.1,22.8,24.1,22.8z M24.5,22.8c0,0-0.1,0-0.1,0.1l0,0c0,0,0,0.1,0.1,0.1l0,0c0.1,0,0.1,0,0.1-0.1
	C24.6,22.8,24.6,22.8,24.5,22.8L24.5,22.8z M25,22.8c0,0-0.1,0-0.1,0.1l0,0c0,0,0,0.1,0.1,0.1l0,0c0.1,0,0.1,0,0.1-0.1l0,0
	C25.2,22.9,25.1,22.8,25,22.8L25,22.8z M25.5,22.8c-0.1,0-0.1,0-0.1,0.1c0,0.1,0,0.1,0.1,0.1l0,0c0.1,0,0.1,0,0.1-0.1
	C25.6,22.9,25.6,22.8,25.5,22.8L25.5,22.8z M25.9,22.8c0,0-0.1,0-0.1,0.1c0,0,0,0.1,0.1,0.1l0,0c0.1,0,0.1,0,0.1-0.1
	C26.1,22.9,26,22.8,25.9,22.8L25.9,22.8z M26.5,22.8c-0.1,0-0.1,0-0.1,0.1c0,0.1,0,0.1,0.1,0.1c0,0,0.1,0,0.1-0.1
	C26.5,22.9,26.5,22.8,26.5,22.8L26.5,22.8z M26.9,22.8c-0.1,0-0.1,0-0.1,0.1l0,0c0,0,0,0.1,0.1,0.1l0,0c0,0,0.1,0,0.1-0.1l0,0
	C27,22.9,27,22.8,26.9,22.8L26.9,22.8z M27.4,22.8c-0.1,0-0.1,0-0.1,0.1c0,0.1,0,0.1,0.1,0.1l0,0c0.1,0,0.1,0,0.1-0.1
	C27.5,22.9,27.5,22.8,27.4,22.8L27.4,22.8L27.4,22.8z M27.9,22.8c-0.1,0-0.1,0-0.1,0.1c0,0.1,0,0.1,0.1,0.1l0,0c0.1,0,0.1,0,0.1-0.1
	C28,22.9,27.9,22.8,27.9,22.8z M19.8,23.3c-0.1,0-0.1,0-0.1,0.1l0,0c0,0,0,0.1,0.1,0.1l0,0c0,0,0.1,0,0.1-0.1l0,0
	C19.9,23.4,19.8,23.3,19.8,23.3L19.8,23.3z M20.2,23.3c-0.1,0-0.1,0-0.1,0.1l0,0c0,0,0,0.1,0.1,0.1s0.1,0,0.1-0.1l0,0
	C20.4,23.4,20.3,23.3,20.2,23.3L20.2,23.3z M20.7,23.3c-0.1,0-0.1,0-0.1,0.1c0,0.1,0,0.1,0.1,0.1c0,0,0.1,0,0.1-0.1l0,0
	C20.8,23.4,20.8,23.3,20.7,23.3L20.7,23.3L20.7,23.3z M21.2,23.3c-0.1,0-0.1,0-0.1,0.1l0,0c0,0.1,0,0.1,0.1,0.1c0,0,0.1,0,0.1-0.1
	l0,0C21.3,23.4,21.3,23.3,21.2,23.3z M21.7,23.3c-0.1,0-0.1,0-0.1,0.1c0,0.1,0,0.1,0.1,0.1c0,0,0.1,0,0.1-0.1l0,0
	C21.8,23.4,21.8,23.3,21.7,23.3L21.7,23.3L21.7,23.3z M22.1,23.3c-0.1,0-0.1,0-0.1,0.1c0,0,0,0.1,0.1,0.1s0.1,0,0.1-0.1l0,0
	C22.3,23.4,22.2,23.3,22.1,23.3L22.1,23.3z M27.9,23.3c-0.1,0-0.1,0-0.1,0.1c0,0.1,0,0.1,0.1,0.1l0,0c0,0,0.1,0,0.1-0.1l0,0
	C28,23.4,28,23.3,27.9,23.3L27.9,23.3L27.9,23.3z M22.6,23.3c0,0-0.1,0-0.1,0.1l0,0c0,0.1,0,0.1,0.1,0.1s0.1,0,0.1-0.1l0,0
	C22.8,23.4,22.7,23.3,22.6,23.3L22.6,23.3L22.6,23.3z M23.1,23.3c0,0-0.1,0-0.1,0.1l0,0c0,0.1,0,0.1,0.1,0.1l0,0c0,0,0.1,0,0.1-0.1
	l0,0C23.2,23.4,23.2,23.3,23.1,23.3L23.1,23.3L23.1,23.3z M23.6,23.3c0,0-0.1,0-0.1,0.1l0,0c0,0,0,0.1,0.1,0.1l0,0
	c0.1,0,0.1,0,0.1-0.1l0,0C23.7,23.4,23.6,23.3,23.6,23.3L23.6,23.3z M24.1,23.3c-0.1,0-0.1,0-0.1,0.1l0,0c0,0,0,0.1,0.1,0.1l0,0
	c0,0,0.1,0,0.1-0.1l0,0C24.2,23.4,24.1,23.3,24.1,23.3L24.1,23.3L24.1,23.3z M24.5,23.3c0,0-0.1,0-0.1,0.1l0,0c0,0,0,0.1,0.1,0.1
	l0,0c0,0,0.1,0,0.1-0.1l0,0C24.6,23.4,24.6,23.3,24.5,23.3C24.6,23.3,24.5,23.3,24.5,23.3L24.5,23.3z M25,23.3c0,0-0.1,0-0.1,0.1
	l0,0c0,0,0,0.1,0.1,0.1l0,0c0,0,0.1,0,0.1-0.1l0,0C25.2,23.4,25.1,23.3,25,23.3L25,23.3z M25.5,23.3c-0.1,0-0.1,0-0.1,0.1l0,0
	c0,0.1,0,0.1,0.1,0.1l0,0c0,0,0.1,0,0.1-0.1l0,0C25.6,23.4,25.6,23.3,25.5,23.3L25.5,23.3L25.5,23.3z M25.9,23.3
	c-0.1,0-0.1,0-0.1,0.1l0,0c0,0,0,0.1,0.1,0.1l0,0c0,0,0.1,0,0.1-0.1l0,0C26.1,23.4,26,23.3,25.9,23.3C26,23.3,26,23.3,25.9,23.3
	L25.9,23.3z M26.5,23.3c0,0-0.1,0-0.1,0.1l0,0c0,0.1,0,0.1,0.1,0.1s0.1,0,0.1-0.1C26.6,23.4,26.5,23.3,26.5,23.3L26.5,23.3
	L26.5,23.3z M26.9,23.3c0,0-0.1,0-0.1,0.1l0,0c0,0,0,0.1,0.1,0.1l0,0c0,0,0.1,0,0.1-0.1l0,0C27,23.4,27,23.3,26.9,23.3L26.9,23.3
	L26.9,23.3z M27.4,23.3c-0.1,0-0.1,0-0.1,0.1l0,0c0,0.1,0,0.1,0.1,0.1s0.1,0,0.1-0.1l0,0C27.5,23.4,27.5,23.3,27.4,23.3L27.4,23.3
	L27.4,23.3z M22.1,23.8c0,0-0.1,0-0.1,0.1l0,0c0,0.1,0,0.1,0.1,0.1l0,0c0.1,0,0.1,0,0.1-0.1l0,0C22.3,23.8,22.2,23.8,22.1,23.8
	L22.1,23.8z M27.9,23.8c-0.1,0-0.1,0-0.1,0.1l0,0c0,0.1,0,0.1,0.1,0.1s0.1,0,0.1-0.1l0,0C28,23.8,28,23.8,27.9,23.8L27.9,23.8
	L27.9,23.8z M20.2,23.8c0,0-0.1,0-0.1,0.1l0,0c0,0.1,0,0.1,0.1,0.1l0,0c0.1,0,0.1,0,0.1-0.1C20.4,23.8,20.3,23.8,20.2,23.8
	L20.2,23.8L20.2,23.8z M20.7,23.8c-0.1,0-0.1,0-0.1,0.1l0,0c0,0.1,0,0.1,0.1,0.1c0,0,0.1,0,0.1-0.1l0,0
	C20.8,23.8,20.8,23.8,20.7,23.8L20.7,23.8L20.7,23.8z M21.2,23.8c0,0-0.1,0-0.1,0.1l0,0c0,0,0,0.1,0.1,0.1l0,0c0,0,0.1,0,0.1-0.1
	l0,0C21.3,23.8,21.3,23.8,21.2,23.8L21.2,23.8z M21.7,23.8c0,0-0.1,0-0.1,0.1l0,0c0,0.1,0,0.1,0.1,0.1s0.1,0,0.1-0.1l0,0
	C21.8,23.9,21.8,23.8,21.7,23.8L21.7,23.8L21.7,23.8z M22.6,23.8c0,0-0.1,0-0.1,0.1l0,0c0,0,0,0.1,0.1,0.1l0,0c0.1,0,0.1,0,0.1-0.1
	l0,0C22.8,23.8,22.7,23.8,22.6,23.8L22.6,23.8L22.6,23.8z M23.1,23.8c0,0-0.1,0-0.1,0.1l0,0c0,0.1,0,0.1,0.1,0.1s0.1,0,0.1-0.1
	C23.2,23.8,23.2,23.8,23.1,23.8L23.1,23.8L23.1,23.8z M23.6,23.8c0,0-0.1,0-0.1,0.1l0,0c0,0.1,0,0.1,0.1,0.1l0,0
	c0.1,0,0.1,0,0.1-0.1C23.7,23.8,23.6,23.8,23.6,23.8L23.6,23.8z M24.1,23.8c0,0-0.1,0-0.1,0.1l0,0c0,0.1,0,0.1,0.1,0.1
	s0.1,0,0.1-0.1l0,0C24.2,23.8,24.1,23.8,24.1,23.8L24.1,23.8L24.1,23.8z M24.5,23.8c0,0-0.1,0-0.1,0.1l0,0c0,0,0,0.1,0.1,0.1l0,0
	c0.1,0,0.1,0,0.1-0.1C24.6,23.8,24.6,23.8,24.5,23.8L24.5,23.8L24.5,23.8z M25,23.8c0,0-0.1,0-0.1,0.1l0,0c0,0,0,0.1,0.1,0.1l0,0
	c0.1,0,0.1,0,0.1-0.1C25.2,23.8,25.1,23.8,25,23.8L25,23.8z M25.5,23.8c-0.1,0-0.1,0-0.1,0.1l0,0c0,0.1,0,0.1,0.1,0.1l0,0
	c0.1,0,0.1,0,0.1-0.1C25.6,23.8,25.6,23.8,25.5,23.8L25.5,23.8z M25.9,23.8c0,0-0.1,0-0.1,0.1l0,0c0,0.1,0,0.1,0.1,0.1l0,0
	c0.1,0,0.1,0,0.1-0.1C26,23.8,26,23.8,25.9,23.8L25.9,23.8L25.9,23.8z M26.5,23.8c0,0-0.1,0-0.1,0.1l0,0c0,0.1,0,0.1,0.1,0.1l0,0
	c0.1,0,0.1,0,0.1-0.1C26.6,23.8,26.5,23.8,26.5,23.8L26.5,23.8z M26.9,23.8c0,0-0.1,0-0.1,0.1l0,0c0,0,0,0.1,0.1,0.1l0,0
	c0.1,0,0.1,0,0.1-0.1l0,0C27,23.8,27,23.8,26.9,23.8L26.9,23.8z M27.4,23.8c-0.1,0-0.1,0-0.1,0.1l0,0c0,0.1,0,0.1,0.1,0.1l0,0
	c0.1,0,0.1,0,0.1-0.1C27.5,23.8,27.5,23.8,27.4,23.8L27.4,23.8L27.4,23.8z M20.7,24.2c-0.1,0-0.1,0-0.1,0.1c0,0.1,0,0.1,0.1,0.1
	c0,0,0.1,0,0.1-0.1l0,0C20.8,24.3,20.8,24.3,20.7,24.2z M21.2,24.2c-0.1,0-0.1,0-0.1,0.1l0,0c0,0,0,0.1,0.1,0.1l0,0
	c0.1,0,0.1,0,0.1-0.1l0,0C21.3,24.3,21.3,24.2,21.2,24.2L21.2,24.2z M21.7,24.2c-0.1,0-0.1,0-0.1,0.1c0,0.1,0,0.1,0.1,0.1
	c0,0,0.1,0,0.1-0.1C21.8,24.3,21.8,24.2,21.7,24.2L21.7,24.2L21.7,24.2z M22.1,24.2c-0.1,0-0.1,0-0.1,0.1c0,0,0,0.1,0.1,0.1
	s0.1,0,0.1-0.1C22.3,24.3,22.2,24.2,22.1,24.2L22.1,24.2L22.1,24.2z M22.6,24.2c-0.1,0-0.1,0-0.1,0.1l0,0c0,0.1,0,0.1,0.1,0.1
	s0.1,0,0.1-0.1C22.8,24.3,22.7,24.2,22.6,24.2L22.6,24.2L22.6,24.2z M23.1,24.2c-0.1,0-0.1,0-0.1,0.1c0,0.1,0,0.1,0.1,0.1
	c0,0,0.1,0,0.1-0.1C23.2,24.3,23.2,24.2,23.1,24.2L23.1,24.2L23.1,24.2z M23.6,24.2c-0.1,0-0.1,0-0.1,0.1l0,0c0,0,0,0.1,0.1,0.1
	s0.1,0,0.1-0.1L23.6,24.2L23.6,24.2z M24.1,24.2c-0.1,0-0.1,0-0.1,0.1c0,0,0,0.1,0.1,0.1c0,0,0.1,0,0.1-0.1l0,0L24.1,24.2L24.1,24.2
	L24.1,24.2z M24.5,24.2c-0.1,0-0.1,0-0.1,0.1l0,0c0,0,0,0.1,0.1,0.1l0,0c0.1,0,0.1,0,0.1-0.1l0,0C24.6,24.3,24.6,24.2,24.5,24.2
	L24.5,24.2L24.5,24.2z M25,24.2c-0.1,0-0.1,0-0.1,0.1l0,0c0,0,0,0.1,0.1,0.1l0,0c0.1,0,0.1,0,0.1-0.1l0,0
	C25.2,24.3,25.1,24.2,25,24.2L25,24.2z M25.5,24.2c-0.1,0-0.1,0-0.1,0.1c0,0.1,0.1,0.1,0.1,0.1s0.1,0,0.1-0.1
	C25.6,24.3,25.6,24.3,25.5,24.2L25.5,24.2z M25.9,24.2c-0.1,0-0.1,0-0.1,0.1c0,0,0,0.1,0.1,0.1s0.1,0,0.1-0.1l0,0
	C26.1,24.3,26,24.2,25.9,24.2L25.9,24.2L25.9,24.2z M26.5,24.2c-0.1,0-0.1,0-0.1,0.1l0,0c0,0.1,0,0.1,0.1,0.1s0.1,0,0.1-0.1
	C26.5,24.3,26.5,24.2,26.5,24.2L26.5,24.2z M26.9,24.2c-0.1,0-0.1,0-0.1,0.1c0,0.1,0,0.1,0.1,0.1l0,0c0,0,0.1,0,0.1-0.1l0,0
	C27,24.3,27,24.3,26.9,24.2L26.9,24.2z M27.4,24.2c-0.1,0-0.1,0-0.1,0.1c0,0.1,0,0.1,0.1,0.1s0.1,0,0.1-0.1
	C27.5,24.3,27.5,24.2,27.4,24.2L27.4,24.2L27.4,24.2z M27.9,24.2c-0.1,0-0.1,0-0.1,0.1c0,0.1,0,0.1,0.1,0.1c0,0,0.1,0,0.1-0.1l0,0
	C28,24.3,28,24.2,27.9,24.2L27.9,24.2L27.9,24.2z M21.2,24.7c0,0-0.1,0-0.1,0.1l0,0c0,0,0,0.1,0.1,0.1l0,0c0.1,0,0.1,0,0.1-0.1
	C21.3,24.7,21.3,24.7,21.2,24.7z M21.7,24.7c-0.1,0-0.1,0-0.1,0.1l0,0c0,0.1,0,0.1,0.1,0.1s0.1,0,0.1-0.1
	C21.8,24.7,21.8,24.7,21.7,24.7L21.7,24.7L21.7,24.7z M22.1,24.7c0,0-0.1,0-0.1,0.1c0,0.1,0,0.1,0.1,0.1l0,0c0.1,0,0.1,0,0.1-0.1
	C22.2,24.7,22.2,24.7,22.1,24.7z M22.6,24.7c0,0-0.1,0-0.1,0.1l0,0c0,0,0,0.1,0.1,0.1l0,0c0.1,0,0.1,0,0.1-0.1l0,0
	C22.8,24.8,22.7,24.7,22.6,24.7L22.6,24.7L22.6,24.7z M23.1,24.7c-0.1,0-0.1,0-0.1,0.1l0,0c0,0.1,0,0.1,0.1,0.1s0.1,0,0.1-0.1
	C23.2,24.7,23.2,24.7,23.1,24.7L23.1,24.7L23.1,24.7z M23.6,24.7c0,0-0.1,0-0.1,0.1l0,0c0,0.1,0,0.1,0.1,0.1l0,0
	c0.1,0,0.1,0,0.1-0.1L23.6,24.7L23.6,24.7z M24.1,24.7c0,0-0.1,0-0.1,0.1c0,0.1,0,0.1,0.1,0.1s0.1,0,0.1-0.1l0,0L24.1,24.7
	L24.1,24.7L24.1,24.7z M24.5,24.7c0,0-0.1,0-0.1,0.1l0,0c0,0,0,0.1,0.1,0.1l0,0c0.1,0,0.1,0,0.1-0.1C24.6,24.8,24.6,24.7,24.5,24.7
	L24.5,24.7L24.5,24.7z M25,24.7c0,0-0.1,0-0.1,0.1l0,0c0,0,0,0.1,0.1,0.1l0,0c0.1,0,0.1,0,0.1-0.1C25.2,24.8,25.1,24.7,25,24.7
	L25,24.7z M25.5,24.7c-0.1,0-0.1,0-0.1,0.1c0,0.1,0,0.1,0.1,0.1l0,0c0.1,0,0.1,0,0.1-0.1C25.6,24.7,25.6,24.7,25.5,24.7L25.5,24.7z
	 M25.9,24.7c0,0-0.1,0-0.1,0.1c0,0.1,0,0.1,0.1,0.1l0,0c0.1,0,0.1,0,0.1-0.1C26,24.7,26,24.7,25.9,24.7L25.9,24.7L25.9,24.7z
	 M26.5,24.7c0,0-0.1,0-0.1,0.1l0,0c0,0.1,0,0.1,0.1,0.1l0,0c0.1,0,0.1,0,0.1-0.1C26.5,24.8,26.5,24.7,26.5,24.7L26.5,24.7z
	 M26.9,24.7c-0.1,0-0.1,0-0.1,0.1l0,0c0,0,0,0.1,0.1,0.1l0,0c0.1,0,0.1,0,0.1-0.1l0,0C27,24.8,27,24.7,26.9,24.7L26.9,24.7z
	 M27.4,24.7c-0.1,0-0.1,0-0.1,0.1c0,0.1,0,0.1,0.1,0.1l0,0c0.1,0,0.1,0,0.1-0.1C27.5,24.8,27.5,24.7,27.4,24.7L27.4,24.7L27.4,24.7z
	 M27.9,24.7c-0.1,0-0.1,0-0.1,0.1c0,0.1,0,0.1,0.1,0.1s0.1,0,0.1-0.1l0,0C28,24.8,28,24.7,27.9,24.7L27.9,24.7L27.9,24.7z
	 M28.3,24.7c0,0-0.1,0-0.1,0.1l0,0c0,0,0,0.1,0.1,0.1l0,0c0.1,0,0.1,0,0.1-0.1C28.5,24.8,28.4,24.7,28.3,24.7L28.3,24.7z M21.2,25.2
	c0,0-0.1,0-0.1,0.1l0,0c0,0,0,0.1,0.1,0.1l0,0c0.1,0,0.1,0,0.1-0.1C21.3,25.3,21.3,25.2,21.2,25.2L21.2,25.2L21.2,25.2z M21.7,25.2
	c0,0-0.1,0-0.1,0.1l0,0c0,0.1,0,0.1,0.1,0.1s0.1,0,0.1-0.1C21.8,25.3,21.8,25.2,21.7,25.2L21.7,25.2L21.7,25.2z M22.1,25.2
	c0,0-0.1,0-0.1,0.1l0,0c0,0.1,0,0.1,0.1,0.1l0,0c0.1,0,0.1,0,0.1-0.1C22.3,25.3,22.2,25.2,22.1,25.2L22.1,25.2L22.1,25.2z
	 M22.6,25.2c0,0-0.1,0-0.1,0.1l0,0c0,0.1,0,0.1,0.1,0.1l0,0c0,0,0.1,0,0.1-0.1l0,0C22.8,25.3,22.7,25.2,22.6,25.2L22.6,25.2
	L22.6,25.2z M23.1,25.2c-0.1,0-0.1,0-0.1,0.1l0,0c0,0.1,0,0.1,0.1,0.1s0.1,0,0.1-0.1l0,0C23.2,25.3,23.2,25.2,23.1,25.2L23.1,25.2
	L23.1,25.2z M23.6,25.2c0,0-0.1,0-0.1,0.1l0,0c0,0.1,0,0.1,0.1,0.1s0.1,0,0.1-0.1L23.6,25.2L23.6,25.2L23.6,25.2z M24.1,25.2
	c0,0-0.1,0-0.1,0.1c0,0.1,0,0.1,0.1,0.1c0,0,0.1,0,0.1-0.1l0,0L24.1,25.2L24.1,25.2L24.1,25.2z M24.5,25.2c0,0-0.1,0-0.1,0.1l0,0
	c0,0.1,0,0.1,0.1,0.1l0,0c0,0,0.1,0,0.1-0.1l0,0C24.6,25.3,24.6,25.2,24.5,25.2C24.6,25.2,24.5,25.2,24.5,25.2L24.5,25.2z M25,25.2
	c0,0-0.1,0-0.1,0.1l0,0c0,0.1,0,0.1,0.1,0.1l0,0c0,0,0.1,0,0.1-0.1l0,0C25.2,25.3,25.1,25.2,25,25.2L25,25.2L25,25.2z M25.5,25.2
	c-0.1,0-0.1,0-0.1,0.1c0,0.1,0.1,0.1,0.1,0.1c0.1,0,0.1,0,0.1-0.1l0,0C25.6,25.3,25.6,25.2,25.5,25.2L25.5,25.2L25.5,25.2z
	 M25.9,25.2c0,0-0.1,0-0.1,0.1c0,0.1,0,0.1,0.1,0.1c0,0,0.1,0,0.1-0.1l0,0C26.1,25.3,26,25.2,25.9,25.2C26,25.2,26,25.2,25.9,25.2
	L25.9,25.2z M26.5,25.2c0,0-0.1,0-0.1,0.1l0,0c0,0.1,0,0.1,0.1,0.1s0.1,0,0.1-0.1l0,0L26.5,25.2L26.5,25.2L26.5,25.2z M26.9,25.2
	c-0.1,0-0.1,0-0.1,0.1l0,0c0,0.1,0,0.1,0.1,0.1c0,0,0.1,0,0.1-0.1l0,0C27,25.3,27,25.2,26.9,25.2C27,25.2,26.9,25.2,26.9,25.2
	L26.9,25.2z M27.4,25.2c-0.1,0-0.1,0-0.1,0.1c0,0.1,0,0.1,0.1,0.1s0.1,0,0.1-0.1C27.5,25.3,27.5,25.2,27.4,25.2L27.4,25.2L27.4,25.2
	z M27.9,25.2c-0.1,0-0.1,0-0.1,0.1c0,0.1,0,0.1,0.1,0.1c0,0,0.1,0,0.1-0.1l0,0C28,25.3,28,25.2,27.9,25.2L27.9,25.2L27.9,25.2z
	 M28.3,25.2c0,0-0.1,0-0.1,0.1l0,0c0,0,0,0.1,0.1,0.1l0,0c0,0,0.1,0,0.1-0.1l0,0C28.5,25.3,28.4,25.2,28.3,25.2
	C28.4,25.2,28.3,25.2,28.3,25.2L28.3,25.2z M21.2,25.7c0,0-0.1,0-0.1,0.1l0,0c0,0,0,0.1,0.1,0.1l0,0c0.1,0,0.1,0,0.1-0.1l0,0
	C21.3,25.7,21.3,25.7,21.2,25.7z M21.7,25.7c0,0-0.1,0-0.1,0.1l0,0c0,0.1,0,0.1,0.1,0.1l0,0c0,0,0.1,0,0.1-0.1
	C21.8,25.7,21.8,25.7,21.7,25.7L21.7,25.7L21.7,25.7z M22.1,25.7c-0.1,0-0.1,0-0.1,0.1l0,0c0,0,0,0.1,0.1,0.1l0,0
	c0.1,0,0.1,0,0.1-0.1C22.2,25.7,22.2,25.7,22.1,25.7L22.1,25.7z M22.6,25.7c-0.1,0-0.1,0-0.1,0.1l0,0c0,0.1,0,0.1,0.1,0.1
	s0.1,0,0.1-0.1C22.7,25.7,22.7,25.7,22.6,25.7L22.6,25.7L22.6,25.7z M23.1,25.7c-0.1,0-0.1,0-0.1,0.1c0,0.1,0,0.1,0.1,0.1l0,0
	c0,0,0.1,0,0.1-0.1l0,0C23.2,25.7,23.2,25.7,23.1,25.7L23.1,25.7L23.1,25.7z M23.6,25.7c-0.1,0-0.1,0-0.1,0.1l0,0c0,0,0,0.1,0.1,0.1
	l0,0c0.1,0,0.1,0,0.1-0.1l0,0C23.7,25.7,23.6,25.7,23.6,25.7L23.6,25.7z M24.1,25.7c-0.1,0-0.1,0-0.1,0.1c0,0,0,0.1,0.1,0.1l0,0
	c0,0,0.1,0,0.1-0.1l0,0C24.2,25.7,24.1,25.7,24.1,25.7L24.1,25.7L24.1,25.7z M24.5,25.7c-0.1,0-0.1,0-0.1,0.1l0,0c0,0,0,0.1,0.1,0.1
	l0,0c0,0,0.1,0,0.1-0.1l0,0C24.6,25.7,24.6,25.7,24.5,25.7L24.5,25.7z M25,25.7c-0.1,0-0.1,0-0.1,0.1l0,0c0,0,0,0.1,0.1,0.1l0,0
	c0,0,0.1,0,0.1-0.1l0,0C25.2,25.7,25.1,25.7,25,25.7L25,25.7z M25.5,25.7c-0.1,0-0.1,0-0.1,0.1c0,0.1,0,0.1,0.1,0.1l0,0
	c0,0,0.1,0,0.1-0.1l0,0C25.6,25.7,25.6,25.7,25.5,25.7L25.5,25.7z M25.9,25.7c-0.1,0-0.1,0-0.1,0.1c0,0,0,0.1,0.1,0.1l0,0
	c0,0,0.1,0,0.1-0.1l0,0C26.1,25.7,26,25.7,25.9,25.7L25.9,25.7z M26.5,25.7c-0.1,0-0.1,0-0.1,0.1l0,0c0,0.1,0,0.1,0.1,0.1
	s0.1,0,0.1-0.1l0,0C26.5,25.7,26.5,25.7,26.5,25.7L26.5,25.7z M26.9,25.7c-0.1,0-0.1,0-0.1,0.1c0,0,0,0.1,0.1,0.1l0,0
	c0,0,0.1,0,0.1-0.1l0,0C27,25.7,27,25.7,26.9,25.7L26.9,25.7z M27.4,25.7c-0.1,0-0.1,0-0.1,0.1c0,0.1,0.1,0.1,0.1,0.1s0.1,0,0.1-0.1
	C27.5,25.7,27.5,25.7,27.4,25.7L27.4,25.7z M27.9,25.7c-0.1,0-0.1,0-0.1,0.1c0,0.1,0,0.1,0.1,0.1l0,0c0,0,0.1,0,0.1-0.1l0,0
	C28,25.7,28,25.7,27.9,25.7L27.9,25.7L27.9,25.7z M28.3,25.7c-0.1,0-0.1,0-0.1,0.1l0,0c0,0,0,0.1,0.1,0.1l0,0c0,0,0.1,0,0.1-0.1l0,0
	C28.5,25.7,28.4,25.7,28.3,25.7L28.3,25.7L28.3,25.7z M22.6,26.2c0,0-0.1,0-0.1,0.1l0,0c0,0,0,0.1,0.1,0.1l0,0c0.1,0,0.1,0,0.1-0.1
	l0,0C22.8,26.2,22.7,26.2,22.6,26.2L22.6,26.2z M23.1,26.2c-0.1,0-0.1,0-0.1,0.1l0,0c0,0.1,0,0.1,0.1,0.1s0.1,0,0.1-0.1
	C23.2,26.2,23.2,26.2,23.1,26.2L23.1,26.2z M23.6,26.2c0,0-0.1,0-0.1,0.1l0,0c0,0.1,0,0.1,0.1,0.1l0,0c0.1,0,0.1,0,0.1-0.1
	C23.7,26.2,23.6,26.2,23.6,26.2z M24.1,26.2c0,0-0.1,0-0.1,0.1c0,0.1,0,0.1,0.1,0.1s0.1,0,0.1-0.1l0,0
	C24.2,26.2,24.1,26.2,24.1,26.2L24.1,26.2z M24.5,26.2c0,0-0.1,0-0.1,0.1l0,0c0,0,0,0.1,0.1,0.1l0,0c0.1,0,0.1,0,0.1-0.1
	C24.6,26.2,24.6,26.2,24.5,26.2L24.5,26.2z M25,26.2c0,0-0.1,0-0.1,0.1l0,0c0,0,0,0.1,0.1,0.1l0,0c0.1,0,0.1,0,0.1-0.1
	C25.2,26.2,25.1,26.2,25,26.2z M25.5,26.2c-0.1,0-0.1,0-0.1,0.1c0,0.1,0,0.1,0.1,0.1l0,0c0.1,0,0.1,0,0.1-0.1
	C25.6,26.2,25.6,26.2,25.5,26.2L25.5,26.2z M25.9,26.2c0,0-0.1,0-0.1,0.1c0,0.1,0,0.1,0.1,0.1l0,0c0.1,0,0.1,0,0.1-0.1
	C26,26.2,26,26.2,25.9,26.2L25.9,26.2z M26.5,26.2c0,0-0.1,0-0.1,0.1l0,0c0,0.1,0,0.1,0.1,0.1l0,0c0.1,0,0.1,0,0.1-0.1
	C26.5,26.2,26.5,26.2,26.5,26.2L26.5,26.2z M26.9,26.2c-0.1,0-0.1,0-0.1,0.1l0,0c0,0,0,0.1,0.1,0.1l0,0c0.1,0,0.1,0,0.1-0.1l0,0
	C27,26.2,27,26.2,26.9,26.2L26.9,26.2z M27.4,26.2c-0.1,0-0.1,0-0.1,0.1c0,0.1,0,0.1,0.1,0.1l0,0c0.1,0,0.1,0,0.1-0.1
	C27.5,26.2,27.5,26.2,27.4,26.2L27.4,26.2L27.4,26.2z M27.9,26.2c-0.1,0-0.1,0-0.1,0.1c0,0.1,0,0.1,0.1,0.1s0.1,0,0.1-0.1l0,0
	C28,26.2,28,26.2,27.9,26.2L27.9,26.2L27.9,26.2z M28.3,26.2c0,0-0.1,0-0.1,0.1l0,0c0,0.1,0,0.1,0.1,0.1l0,0c0.1,0,0.1,0,0.1-0.1
	C28.4,26.2,28.4,26.2,28.3,26.2L28.3,26.2z M22.6,26.7c0,0-0.1,0-0.1,0.1l0,0c0,0.1,0,0.1,0.1,0.1s0.1,0,0.1-0.1
	C22.7,26.7,22.7,26.7,22.6,26.7z M23.1,26.7c-0.1,0-0.1,0-0.1,0.1c0,0.1,0,0.1,0.1,0.1c0,0,0.1,0,0.1-0.1l0,0
	C23.2,26.7,23.2,26.7,23.1,26.7L23.1,26.7z M23.6,26.7c-0.1,0-0.1,0-0.1,0.1c0,0.1,0,0.1,0.1,0.1s0.1,0,0.1-0.1
	C23.7,26.7,23.6,26.7,23.6,26.7z M24.1,26.7c0,0-0.1,0-0.1,0.1c0,0,0,0.1,0.1,0.1l0,0c0.1,0,0.1,0,0.1-0.1
	C24.2,26.7,24.1,26.7,24.1,26.7z M24.5,26.7c0,0-0.1,0-0.1,0.1l0,0c0,0,0,0.1,0.1,0.1l0,0c0.1,0,0.1,0,0.1-0.1
	C24.6,26.7,24.6,26.7,24.5,26.7z M25,26.7c0,0-0.1,0-0.1,0.1l0,0c0,0,0,0.1,0.1,0.1l0,0c0,0,0.1,0,0.1-0.1l0,0
	C25.2,26.7,25.1,26.7,25,26.7L25,26.7z M25.5,26.7c-0.1,0-0.1,0-0.1,0.1c0,0.1,0,0.1,0.1,0.1l0,0c0.1,0,0.1,0,0.1-0.1
	C25.6,26.7,25.6,26.7,25.5,26.7z M25.9,26.7c0,0-0.1,0-0.1,0.1c0,0,0,0.1,0.1,0.1l0,0c0.1,0,0.1,0,0.1-0.1
	C26,26.7,26,26.7,25.9,26.7z M26.5,26.7c-0.1,0-0.1,0-0.1,0.1c0,0.1,0,0.1,0.1,0.1s0.1,0,0.1-0.1C26.5,26.7,26.5,26.7,26.5,26.7
	L26.5,26.7z M26.9,26.7c-0.1,0-0.1,0-0.1,0.1l0,0c0,0,0,0.1,0.1,0.1l0,0c0,0,0.1,0,0.1-0.1l0,0C27,26.7,27,26.7,26.9,26.7L26.9,26.7
	L26.9,26.7z M27.4,26.7c-0.1,0-0.1,0-0.1,0.1c0,0.1,0.1,0.1,0.1,0.1s0.1,0,0.1-0.1C27.5,26.7,27.5,26.7,27.4,26.7L27.4,26.7
	L27.4,26.7z M27.9,26.7c-0.1,0-0.1,0-0.1,0.1c0,0.1,0,0.1,0.1,0.1l0,0c0,0,0.1,0,0.1-0.1l0,0C28,26.7,28,26.7,27.9,26.7L27.9,26.7
	L27.9,26.7z M28.3,26.7c0,0-0.1,0-0.1,0.1l0,0c0,0,0,0.1,0.1,0.1l0,0c0.1,0,0.1,0,0.1-0.1C28.4,26.7,28.4,26.7,28.3,26.7L28.3,26.7z
	 M28.8,26.7c0,0-0.1,0-0.1,0.1l0,0c0,0,0,0.1,0.1,0.1l0,0c0,0,0.1,0,0.1-0.1l0,0C29,26.7,28.9,26.7,28.8,26.7
	C28.8,26.6,28.8,26.6,28.8,26.7L28.8,26.7z M23.1,27.1c0,0-0.1,0-0.1,0.1l0,0c0,0.1,0,0.1,0.1,0.1l0,0c0,0,0.1,0,0.1-0.1l0,0
	C23.2,27.2,23.2,27.1,23.1,27.1L23.1,27.1z M23.6,27.1c0,0-0.1,0-0.1,0.1l0,0c0,0,0,0.1,0.1,0.1l0,0c0.1,0,0.1,0,0.1-0.1l0,0
	L23.6,27.1z M24.1,27.1c-0.1,0-0.1,0-0.1,0.1l0,0c0,0,0,0.1,0.1,0.1l0,0c0,0,0.1,0,0.1-0.1l0,0L24.1,27.1L24.1,27.1z M24.5,27.1
	c0,0-0.1,0-0.1,0.1l0,0c0,0,0,0.1,0.1,0.1l0,0c0,0,0.1,0,0.1-0.1l0,0C24.6,27.2,24.6,27.1,24.5,27.1L24.5,27.1z M25,27.1
	c0,0-0.1,0-0.1,0.1l0,0c0,0,0,0.1,0.1,0.1l0,0c0,0,0.1,0,0.1-0.1l0,0C25.2,27.2,25.1,27.1,25,27.1z M25.5,27.1c-0.1,0-0.1,0-0.1,0.1
	l0,0c0,0.1,0,0.1,0.1,0.1l0,0c0,0,0.1,0,0.1-0.1l0,0C25.6,27.2,25.6,27.1,25.5,27.1L25.5,27.1z M25.9,27.1c-0.1,0-0.1,0-0.1,0.1l0,0
	c0,0,0,0.1,0.1,0.1l0,0c0,0,0.1,0,0.1-0.1l0,0C26.1,27.2,26,27.1,25.9,27.1L25.9,27.1z M26.5,27.1c0,0-0.1,0-0.1,0.1l0,0
	c0,0.1,0,0.1,0.1,0.1s0.1,0,0.1-0.1C26.5,27.2,26.5,27.1,26.5,27.1L26.5,27.1z M26.9,27.1c0,0-0.1,0-0.1,0.1l0,0c0,0,0,0.1,0.1,0.1
	l0,0c0,0,0.1,0,0.1-0.1l0,0C27,27.2,27,27.1,26.9,27.1L26.9,27.1z M27.4,27.1c-0.1,0-0.1,0-0.1,0.1l0,0c0,0.1,0.1,0.1,0.1,0.1
	s0.1,0,0.1-0.1C27.5,27.2,27.5,27.1,27.4,27.1L27.4,27.1L27.4,27.1z M27.9,27.1c-0.1,0-0.1,0-0.1,0.1c0,0.1,0,0.1,0.1,0.1l0,0
	c0,0,0.1,0,0.1-0.1l0,0C28,27.2,28,27.1,27.9,27.1L27.9,27.1L27.9,27.1z M28.3,27.1c0,0-0.1,0-0.1,0.1l0,0c0,0,0,0.1,0.1,0.1l0,0
	c0,0,0.1,0,0.1-0.1l0,0C28.5,27.2,28.4,27.1,28.3,27.1L28.3,27.1L28.3,27.1z M28.8,27.1c0,0-0.1,0-0.1,0.1l0,0c0,0.1,0,0.1,0.1,0.1
	s0.1,0,0.1-0.1C29,27.2,28.9,27.1,28.8,27.1L28.8,27.1L28.8,27.1z M24.1,27.6c-0.1,0-0.1,0-0.1,0.1c0,0.1,0,0.1,0.1,0.1
	s0.1,0,0.1-0.1C24.2,27.6,24.1,27.6,24.1,27.6L24.1,27.6z M24.5,27.6c-0.1,0-0.1,0-0.1,0.1c0,0.1,0,0.1,0.1,0.1s0.1,0,0.1-0.1
	C24.6,27.6,24.6,27.6,24.5,27.6z M25,27.6c-0.1,0-0.1,0-0.1,0.1c0,0.1,0,0.1,0.1,0.1s0.1,0,0.1-0.1l0,0C25.2,27.6,25.1,27.6,25,27.6
	z M25.5,27.6c-0.1,0-0.1,0-0.1,0.1c0,0.1,0,0.1,0.1,0.1l0,0c0.1,0,0.1,0,0.1-0.1C25.6,27.6,25.6,27.6,25.5,27.6z M25.9,27.6
	c-0.1,0-0.1,0-0.1,0.1c0,0.1,0,0.1,0.1,0.1s0.1,0,0.1-0.1C26.1,27.6,26,27.6,25.9,27.6z M26.5,27.6c0,0-0.1,0-0.1,0.1l0,0
	c0,0,0,0.1,0.1,0.1l0,0c0.1,0,0.1,0,0.1-0.1C26.6,27.6,26.5,27.6,26.5,27.6z M26.9,27.6c-0.1,0-0.1,0-0.1,0.1c0,0.1,0,0.1,0.1,0.1
	c0,0,0.1,0,0.1-0.1l0,0C27,27.6,27,27.6,26.9,27.6L26.9,27.6z M27.4,27.6c-0.1,0-0.1,0-0.1,0.1l0,0c0,0.1,0,0.1,0.1,0.1
	s0.1,0,0.1-0.1C27.5,27.6,27.5,27.6,27.4,27.6L27.4,27.6L27.4,27.6z M27.9,27.6c-0.1,0-0.1,0-0.1,0.1c0,0.1,0,0.1,0.1,0.1
	s0.1,0,0.1-0.1C28,27.6,27.9,27.6,27.9,27.6z M28.3,27.6c-0.1,0-0.1,0-0.1,0.1c0,0.1,0,0.1,0.1,0.1s0.1,0,0.1-0.1l0,0
	C28.5,27.6,28.4,27.6,28.3,27.6L28.3,27.6z M28.8,27.6c-0.1,0-0.1,0-0.1,0.1c0,0.1,0,0.1,0.1,0.1s0.1,0,0.1-0.1
	C29,27.6,28.9,27.6,28.8,27.6L28.8,27.6z M29.3,27.6c0,0-0.1,0-0.1,0.1l0,0c0,0.1,0,0.1,0.1,0.1l0,0c0,0,0.1,0,0.1-0.1
	C29.4,27.6,29.4,27.6,29.3,27.6L29.3,27.6L29.3,27.6z M25.9,28.1c-0.1,0-0.1,0-0.1,0.1c0,0,0,0.1,0.1,0.1s0.1,0,0.1-0.1l0,0
	C26.1,28.1,26,28.1,25.9,28.1L25.9,28.1z M26.5,28.1c-0.1,0-0.1,0-0.1,0.1l0,0c0,0.1,0,0.1,0.1,0.1s0.1,0,0.1-0.1l0,0
	C26.5,28.1,26.5,28.1,26.5,28.1L26.5,28.1z M26.9,28.1c-0.1,0-0.1,0-0.1,0.1c0,0.1,0,0.1,0.1,0.1l0,0c0,0,0.1,0,0.1-0.1l0,0
	C27,28.1,27,28.1,26.9,28.1L26.9,28.1z M27.4,28.1c-0.1,0-0.1,0-0.1,0.1c0,0.1,0,0.1,0.1,0.1s0.1,0,0.1-0.1
	C27.5,28.1,27.5,28.1,27.4,28.1L27.4,28.1z M27.9,28.1c-0.1,0-0.1,0-0.1,0.1c0,0.1,0,0.1,0.1,0.1c0,0,0.1,0,0.1-0.1l0,0
	C28,28.1,28,28.1,27.9,28.1L27.9,28.1L27.9,28.1z M28.3,28.1c-0.1,0-0.1,0-0.1,0.1l0,0c0,0,0,0.1,0.1,0.1l0,0c0.1,0,0.1,0,0.1-0.1
	l0,0C28.5,28.1,28.4,28.1,28.3,28.1L28.3,28.1z M27.9,28.6c-0.1,0-0.1,0-0.1,0.1c0,0.1,0,0.1,0.1,0.1s0.1,0,0.1-0.1l0,0
	C28,28.6,28,28.6,27.9,28.6L27.9,28.6z M28.3,28.6c0,0-0.1,0-0.1,0.1l0,0c0,0,0,0.1,0.1,0.1l0,0c0.1,0,0.1,0,0.1-0.1
	C28.5,28.6,28.4,28.6,28.3,28.6L28.3,28.6z M27.4,28.6c-0.1,0-0.1,0-0.1,0.1c0,0.1,0,0.1,0.1,0.1s0.1,0,0.1-0.1
	C27.5,28.6,27.5,28.6,27.4,28.6L27.4,28.6L27.4,28.6z"/>
<ellipse class="st3" cx="23.4" cy="23.9" rx="22.7" ry="23"/>
</svg>
