<?xml version="1.0" encoding="utf-8"?>
<!-- Generator: Adobe Illustrator 25.2.0, SVG Export Plug-In . SVG Version: 6.00 Build 0)  -->
<svg version="1.1" id="Layer_1" xmlns="http://www.w3.org/2000/svg" xmlns:xlink="http://www.w3.org/1999/xlink" x="0px" y="0px"
	 viewBox="0 0 46.7 47.6" style="enable-background:new 0 0 46.7 47.6;" xml:space="preserve">
<style type="text/css">
	.st0{fill:#E67E22;}
	.st1{fill:#FFFFFF;}
	.st2{fill:none;stroke:#FFFFFF;stroke-miterlimit:10;}
</style>
<ellipse class="st0" cx="23.3" cy="23.6" rx="22.7" ry="23.1"/>
<g id="_x23_ffffffff">
</g>
<g id="_x23_000000ff">
	<path class="st1" d="M14.6,7.2H24c0.4,0,0.8,0.2,1.1,0.5c0.4,0.4,0.5,0.8,0.4,1.3c-0.1,0.5-0.4,0.9-0.8,1.1
		c-0.2,0.1-0.5,0.2-0.7,0.2c-3.1,0-6.2,0-9.3,0c-1,0-2,0.4-2.7,1c-0.9,0.8-1.4,2-1.4,3.2c0,6.2,0,12.5,0,18.7c0,1.2,0.5,2.4,1.4,3.1
		c0.7,0.7,1.8,1.1,2.8,1.1c6.2,0,12.3,0,18.5,0c0.5,0,0.8,0,1.3-0.1c1.1-0.3,2.1-1,2.6-2c0.4-0.6,0.5-1.4,0.5-2.2c0-3.1,0-6.2,0-9.3
		c0-0.4,0.1-0.6,0.3-0.9c0.3-0.4,0.7-0.6,1.2-0.6c0.5,0,0.8,0.2,1.1,0.5c0.3,0.3,0.5,0.6,0.5,1v9.5c0,1.4-0.5,2.9-1.3,4.1
		c-0.7,1.1-1.8,2-3,2.5c-0.9,0.4-1.9,0.6-2.9,0.6H14.6c-1.4,0-2.6-0.4-3.7-1.1c-1.1-0.6-1.9-1.6-2.5-2.7c-0.5-1-0.9-2.3-0.9-3.4
		V14.4c0-0.6,0.1-1.4,0.3-2C8.3,10.6,9.5,9,11.2,8C12.2,7.5,13.4,7.2,14.6,7.2z"/>
	<path class="st1" d="M31.9,11.7c0.9-1,1.9-2,2.9-3c1.4,1.4,3,3,4.4,4.4c-0.9,1.1-1.9,2-2.9,3C34.8,14.7,33.3,13.1,31.9,11.7z"/>
	<path class="st1" d="M30.4,13.2c1.5,1.4,3,3,4.4,4.4c-3.6,3.6-7.2,7.2-10.9,10.9c-0.8,0.8-1.6,1.6-2.5,2.4
		c-1.3,0.5-2.5,0.8-3.7,1.2c-1,0.3-1.9,0.6-2.9,0.9c0.7-2.2,1.4-4.3,2.1-6.4c0-0.1,0-0.2,0.1-0.2c3.6-3.6,7.3-7.3,11-11
		C28.7,14.7,29.5,14,30.4,13.2z"/>
</g>
<ellipse class="st2" cx="23.3" cy="23.7" rx="22.7" ry="23.4"/>
</svg>
