<?xml version="1.0" encoding="utf-8"?>
<!-- Generator: Adobe Illustrator 25.2.0, SVG Export Plug-In . SVG Version: 6.00 Build 0)  -->
<svg version="1.1" id="Layer_1" xmlns="http://www.w3.org/2000/svg" xmlns:xlink="http://www.w3.org/1999/xlink" x="0px" y="0px"
	 viewBox="0 0 46.7 47.6" style="enable-background:new 0 0 46.7 47.6;" xml:space="preserve">
<style type="text/css">
	.st0{fill:#27AE60;}
	.st1{fill:#FFFFFF;}
</style>
<rect class="st0" width="46.7" height="47.6"/>
<g>
	<g>
		<path class="st1" d="M21.8,21.2c-1.2,0-2.2,1-2.2,2.2c0,1.2,1,2.2,2.2,2.2s2.2-1,2.2-2.2C24,22.2,23.1,21.2,21.8,21.2z M21.8,24.2
			c-0.4,0-0.7-0.3-0.7-0.7c0-0.4,0.3-0.7,0.7-0.7s0.7,0.3,0.7,0.7C22.5,23.9,22.2,24.2,21.8,24.2z"/>
	</g>
</g>
<g>
	<g>
		<path class="st1" d="M27.7,27.1c-1.2,0-2.2,1-2.2,2.2s1,2.2,2.2,2.2c1.2,0,2.2-1,2.2-2.2C29.9,28.1,28.9,27.1,27.7,27.1z
			 M27.7,30.1c-0.4,0-0.7-0.3-0.7-0.7c0-0.4,0.3-0.7,0.7-0.7c0.4,0,0.7,0.3,0.7,0.7C28.4,29.7,28.1,30.1,27.7,30.1z"/>
	</g>
</g>
<g>
	<g>
		<path class="st1" d="M28.4,22.8c-0.3-0.3-0.8-0.3-1,0L21.2,29c-0.3,0.3-0.3,0.8,0,1c0.1,0.1,0.3,0.2,0.5,0.2
			c0.2,0,0.4-0.1,0.5-0.2l6.2-6.2C28.7,23.5,28.7,23.1,28.4,22.8z"/>
	</g>
</g>
<g>
	<g>
		<path class="st1" d="M32.2,12.2H14.5c-0.4,0-0.7,0.3-0.7,0.7V34c0,0.3,0.1,0.5,0.3,0.7c0.2,0.1,0.5,0.1,0.7,0l2.6-1.3l2.6,1.3
			c0.2,0.1,0.5,0.1,0.7,0l2.6-1.3l2.6,1.3c0.1,0.1,0.2,0.1,0.3,0.1c0.1,0,0.2,0,0.3-0.1l2.6-1.3l2.6,1.3c0.2,0.1,0.5,0.1,0.7,0
			s0.3-0.4,0.3-0.7V12.9C32.9,12.5,32.6,12.2,32.2,12.2z M31.5,32.9L29.6,32c-0.2-0.1-0.5-0.1-0.7,0l-2.6,1.3L23.7,32
			c-0.1-0.1-0.2-0.1-0.3-0.1c-0.1,0-0.2,0-0.3,0.1l-2.6,1.3L17.8,32c-0.2-0.1-0.5-0.1-0.7,0l-1.9,0.9V13.7h16.2L31.5,32.9L31.5,32.9
			z"/>
	</g>
</g>
<g>
	<g>
		<path class="st1" d="M30.7,15.4h-8.8c-0.4,0-0.7,0.3-0.7,0.7s0.3,0.7,0.7,0.7h8.8c0.4,0,0.7-0.3,0.7-0.7S31,15.4,30.7,15.4z"/>
	</g>
</g>
<g>
	<g>
		<path class="st1" d="M30.7,18.3h-8.8c-0.4,0-0.7,0.3-0.7,0.7c0,0.4,0.3,0.7,0.7,0.7h8.8c0.4,0,0.7-0.3,0.7-0.7
			C31.4,18.6,31,18.3,30.7,18.3z"/>
	</g>
</g>
<g>
	<g>
		<circle class="st1" cx="18.9" cy="16.1" r="0.7"/>
	</g>
</g>
<g>
	<g>
		<circle class="st1" cx="18.9" cy="19" r="0.7"/>
	</g>
</g>
</svg>
