<?xml version="1.0" encoding="utf-8"?>
<!-- Generator: Adobe Illustrator 25.2.0, SVG Export Plug-In . SVG Version: 6.00 Build 0)  -->
<svg version="1.1" id="Layer_1" xmlns="http://www.w3.org/2000/svg" xmlns:xlink="http://www.w3.org/1999/xlink" x="0px" y="0px"
	 viewBox="0 0 46.7 47.6" style="enable-background:new 0 0 46.7 47.6;" xml:space="preserve">
<style type="text/css">
	.st0{fill:#FFCE00;}
	.st1{fill:#FFFFFF;}
</style>
<rect class="st0" width="46.7" height="47.6"/>
<g id="_x23_000000ff">
	<path class="st1" d="M23.3,10.1h0.2c0.5,0,1,0.2,1.3,0.5c1.8,1.6,3.6,3.2,5.4,4.8c0-0.9,0-1.9,0-2.8c0-0.4,0.2-0.7,0.6-0.8
		c0.1,0,0.2-0.1,0.3-0.1c1.1,0,2.3,0,3.4,0c0.2,0,0.5,0.1,0.6,0.3c0.2,0.2,0.2,0.4,0.2,0.6c0,2.4,0,4.9,0,7.3
		c0.1,0.1,0.2,0.2,0.3,0.3c1,0.8,1.9,1.7,2.9,2.5c0.2,0.2,0.3,0.4,0.3,0.6v0.1c0,0.2-0.1,0.4-0.2,0.5c-0.4,0.5-0.8,0.8-1.1,1.3
		c-0.2,0.2-0.3,0.2-0.5,0.3c-0.3,0.1-0.6,0-0.8-0.2C32.1,21.7,28,18.1,24,14.5c-0.2-0.2-0.6-0.3-0.9-0.2c-0.2,0.1-0.2,0.2-0.4,0.3
		c-4.1,3.5-8.1,7.1-12.2,10.7c-0.2,0.2-0.4,0.2-0.6,0.2c-0.2,0-0.5-0.2-0.6-0.3c-0.4-0.5-0.8-0.8-1.1-1.3C8,23.8,8,23.6,8,23.5v-0.1
		c0-0.2,0.1-0.3,0.2-0.5c0.1-0.2,0.2-0.2,0.3-0.3c4.5-4,9-8,13.6-11.9C22.3,10.3,22.8,10.1,23.3,10.1z"/>
	<path class="st1" d="M11.7,26.5c3.9-3.5,7.8-6.9,11.7-10.3c3.9,3.5,7.8,6.9,11.7,10.4c0.1,0.1,0.2,0.2,0.3,0.2c0,3.3,0,6.6,0,9.9
		c0,0.3-0.2,0.5-0.4,0.7c-0.2,0.1-0.3,0.2-0.5,0.2h-9.5c-0.7-1-1.4-2-2.1-2.9c1.9-1.1,3.8-2.3,5.6-3.5c-2.6-2.5-5.3-4.9-8-7.4
		c1.1,2.1,2.2,4.3,3.2,6.4c-1.9,1.1-3.8,2.3-5.6,3.5c0.7,1.3,1.4,2.6,2,3.9h-8c-0.3,0-0.7-0.2-0.8-0.5c-0.1-0.2-0.1-0.4-0.1-0.5
		c0-3.2,0-6.5,0-9.7C11.5,26.7,11.6,26.7,11.7,26.5z"/>
</g>
</svg>
