<?xml version="1.0" encoding="utf-8"?>
<!-- Generator: Adobe Illustrator 25.2.0, SVG Export Plug-In . SVG Version: 6.00 Build 0)  -->
<svg version="1.1" id="Layer_1" xmlns="http://www.w3.org/2000/svg" xmlns:xlink="http://www.w3.org/1999/xlink" x="0px" y="0px"
	 viewBox="0 0 46.7 47.6" style="enable-background:new 0 0 46.7 47.6;" xml:space="preserve">
<style type="text/css">
	.st0{fill:#F1C40F;}
	.st1{fill:#FFFFFF;}
</style>
<rect y="-0.1" class="st0" width="46.7" height="47.7"/>
<g>
	<path class="st1" d="M35.2,14.6c-0.1-2.4-1.8-4.2-3.8-4.2H14.6c-2.2,0-3.8,2.1-3.8,4.6v17.9c0,2.6,1.7,4.7,3.9,4.7h18.8
		c2.2,0,3.9-2.1,3.9-4.7V18.7C37.2,16.9,36.3,15.3,35.2,14.6z M33.1,32.9c0,1.2-0.8,2.1-1.7,2.1H14.6c-1,0-1.7-0.9-1.7-2.1v-18
		c0-1.2,0.8-2.1,1.7-2.1h16.8c1,0,1.7,0.9,1.7,2.1V32.9z"/>
	<path class="st1" d="M14.9,19.7L14.9,19.7c0.3,0,0.6-0.3,0.6-0.7v-2.3l1.6,2.7c0.1,0.2,0.3,0.2,0.4,0.2h0.1l0,0l0,0h0.1
		c0.3,0,0.6-0.3,0.6-0.7v-4.2c0-0.3-0.3-0.7-0.6-0.7h-0.1c-0.3,0-0.6,0.3-0.6,0.7V17l-1.6-2.7c-0.1-0.2-0.2-0.2-0.3-0.2H15l0,0l0,0
		h-0.1c-0.3,0-0.6,0.3-0.6,0.7v4.3C14.4,19.4,14.6,19.7,14.9,19.7z"/>
	<path class="st1" d="M21.5,18.4h-1.7v-0.9h1.4c0.3,0,0.6-0.3,0.6-0.7v-0.1c0-0.3-0.3-0.7-0.6-0.7h-1.4v-0.7h1.6
		c0.3,0,0.6-0.3,0.6-0.7v-0.1c0-0.3-0.3-0.7-0.6-0.7h-2.2c-0.3,0-0.6,0.3-0.6,0.7v4.4c0,0.3,0.3,0.7,0.6,0.7h2.3
		c0.3,0,0.6-0.3,0.6-0.7C22.1,18.7,21.9,18.4,21.5,18.4z"/>
	<path class="st1" d="M24.1,19.7L24.1,19.7L24.1,19.7L24.1,19.7L24.1,19.7c0.3,0,0.5-0.2,0.6-0.4l0.7-2.4l0.7,2.4
		c0.1,0.2,0.3,0.4,0.5,0.4l0,0l0,0l0,0l0,0c0.2,0,0.4-0.2,0.5-0.4l1.2-4.2c0.1-0.2,0-0.4-0.1-0.6c-0.1-0.2-0.3-0.2-0.4-0.2h-0.1
		c-0.2,0-0.4,0.2-0.5,0.4L26.4,17l-0.7-2.4c0.1-0.3-0.1-0.5-0.4-0.5h-0.1c-0.2,0-0.4,0.2-0.5,0.4l-0.7,2.4l-0.7-2.4
		c-0.1-0.2-0.3-0.4-0.5-0.4h-0.1c-0.2,0-0.3,0.1-0.4,0.2c-0.1,0.2-0.1,0.4-0.1,0.6l1.2,4.2C23.6,19.5,23.8,19.7,24.1,19.7z"/>
	<path class="st1" d="M30.1,19.7c1.2,0,1.7-0.8,1.7-1.7c0-1.3-0.9-1.7-1.5-1.8c-0.6-0.2-0.7-0.3-0.7-0.5c0-0.1,0.2-0.2,0.6-0.2
		c0.2,0,0.5,0.1,0.6,0.2c0.3,0.2,0.6,0.1,0.8-0.2l0,0c0.1-0.2,0.1-0.3,0.1-0.5s-0.1-0.3-0.3-0.4C31,14.2,30.6,14,30.2,14
		c-1.2,0-1.7,0.8-1.7,1.6c0,1.2,0.9,1.6,1.5,1.8c0.6,0.2,0.7,0.3,0.7,0.5c0,0.2-0.3,0.3-0.6,0.3c-0.3,0-0.6-0.2-0.8-0.3
		c-0.1-0.1-0.2-0.2-0.4-0.2l0,0c-0.1,0-0.3,0.1-0.4,0.2l0,0c-0.1,0.1-0.1,0.2-0.1,0.5c0,0.2,0.1,0.3,0.1,0.5
		C28.9,19.4,29.5,19.7,30.1,19.7z"/>
	<path class="st1" d="M20.6,21.6h-5.2c-0.6,0-1,0.6-1,1.2c0,0.7,0.5,1.2,1,1.2h5.2c0.6,0,1-0.6,1-1.2C21.6,22.2,21.1,21.6,20.6,21.6
		z"/>
	<path class="st1" d="M20.6,25.7h-5.2c-0.6,0-1,0.6-1,1.2s0.5,1.2,1,1.2h5.2c0.6,0,1-0.6,1-1.2S21.1,25.7,20.6,25.7z"/>
	<path class="st1" d="M20.6,29.9h-5.2c-0.6,0-1,0.6-1,1.2c0,0.7,0.5,1.2,1,1.2h5.2c0.6,0,1-0.6,1-1.2C21.6,30.5,21.1,29.9,20.6,29.9
		z"/>
	<path class="st1" d="M31.3,21.4h-8c-0.3,0-0.6,0.3-0.6,0.7v9.7c0,0.4,0.3,0.7,0.6,0.7h8c0.3,0,0.6-0.3,0.6-0.7v-9.7
		C31.9,21.7,31.6,21.4,31.3,21.4z"/>
</g>
</svg>
