<?xml version="1.0" encoding="utf-8"?>
<!-- Generator: Adobe Illustrator 25.2.0, SVG Export Plug-In . SVG Version: 6.00 Build 0)  -->
<svg version="1.1" id="Layer_1" xmlns="http://www.w3.org/2000/svg" xmlns:xlink="http://www.w3.org/1999/xlink" x="0px" y="0px"
	 viewBox="0 0 51 51" style="enable-background:new 0 0 51 51;" xml:space="preserve">
<style type="text/css">
	.st0{fill:#27AE60;}
	.st1{fill:#2980B9;stroke:#FFFFFF;stroke-miterlimit:10;}
	.st2{fill:none;stroke:#FFFFFF;stroke-miterlimit:10;}
</style>
<ellipse class="st0" cx="25.4" cy="25.5" rx="24.9" ry="24.7"/>
<path id="Path_2275" class="st1" d="M25.6,5.4c-11.1,0-20.1,9-20.1,20.1s9.1,20.1,20.1,20.1s20.1-9,20.1-20.1S36.9,5.4,25.6,5.4z
	 M25.6,5.6c11.1,0,19.9,8.8,19.9,19.8s-8.8,19.8-19.9,19.8S5.7,36.5,5.7,25.5l0,0C5.9,14.7,14.7,5.6,25.6,5.6L25.6,5.6z M15.2,15.6
	c0,0-0.2,0-0.2,0.2l0,0c0,0.2,0,0.2,0.2,0.2l0,0c0,0,0.2,0,0.2-0.2l0,0C15.4,15.6,15.4,15.6,15.2,15.6z M18.3,15.6
	c-0.2,0-0.2,0-0.2,0.2c0,0.2,0,0.2,0.2,0.2l0,0c0,0,0.2,0,0.2-0.2l0,0C18.6,15.6,18.6,15.6,18.3,15.6L18.3,15.6z M19.5,15.6
	c0,0-0.2,0-0.2,0.2l0,0c0,0,0,0.2,0.2,0.2l0,0c0.2,0,0.2,0,0.2-0.2l0,0C19.7,15.6,19.7,15.6,19.5,15.6L19.5,15.6z M15.2,16.7
	c-0.2,0-0.2,0-0.2,0.2l0,0c0,0.2,0,0.2,0.2,0.2c0,0,0.2,0,0.2-0.2l0,0C15.4,16.7,15.4,16.7,15.2,16.7L15.2,16.7z M16.1,16.7
	c0,0-0.2,0-0.2,0.2l0,0c0,0.2,0,0.2,0.2,0.2l0,0c0,0,0.2,0,0.2-0.2l0,0C16.5,16.7,16.3,16.7,16.1,16.7
	C16.3,16.7,16.3,16.7,16.1,16.7L16.1,16.7z M17.2,16.7c0,0-0.2,0-0.2,0.2l0,0c0,0.2,0,0.2,0.2,0.2s0.2,0,0.2-0.2
	C17.7,16.7,17.4,16.7,17.2,16.7L17.2,16.7z M18.3,16.7c-0.2,0-0.2,0-0.2,0.2c0,0.2,0,0.2,0.2,0.2c0,0,0.2,0,0.2-0.2l0,0
	C18.6,16.7,18.6,16.7,18.3,16.7L18.3,16.7L18.3,16.7z M19.5,16.7c0,0-0.2,0-0.2,0.2l0,0c0,0.2,0,0.2,0.2,0.2l0,0c0,0,0.2,0,0.2-0.2
	l0,0C19.7,16.7,19.7,16.7,19.5,16.7L19.5,16.7L19.5,16.7z M15.2,17.8c-0.2,0-0.2,0-0.2,0.2l0,0c0,0.2,0,0.2,0.2,0.2s0.2,0,0.2-0.2
	S15.4,17.8,15.2,17.8z M16.1,17.8c-0.2,0-0.2,0-0.2,0.2s0,0.2,0.2,0.2c0.2,0,0.2,0,0.2-0.2l0,0C16.5,17.8,16.3,17.8,16.1,17.8
	C16.3,17.8,16.3,17.8,16.1,17.8L16.1,17.8z M17.2,17.8c0,0-0.2,0-0.2,0.2l0,0c0,0,0,0.2,0.2,0.2s0.2,0,0.2-0.2
	C17.7,17.8,17.4,17.8,17.2,17.8L17.2,17.8z M18.3,17.8c-0.2,0-0.2,0-0.2,0.2s0,0.2,0.2,0.2l0,0c0.2,0,0.2,0,0.2-0.2
	S18.6,17.8,18.3,17.8z M19.5,17.8c-0.2,0-0.2,0-0.2,0.2s0,0.2,0.2,0.2c0.2,0,0.2,0,0.2-0.2C19.7,17.8,19.7,17.8,19.5,17.8L19.5,17.8
	z M20.6,17.8c-0.2,0-0.2,0-0.2,0.2l0,0c0,0.2,0,0.2,0.2,0.2c0,0,0.2,0,0.2-0.2S20.8,17.8,20.6,17.8L20.6,17.8L20.6,17.8z M28.1,17.8
	c-0.2,0-0.2,0-0.2,0.2s0,0.2,0.2,0.2s0.2,0,0.2-0.2S28.3,17.8,28.1,17.8L28.1,17.8z M29.2,17.8c-0.2,0-0.2,0-0.2,0.2s0,0.2,0.2,0.2
	l0,0c0,0,0.2,0,0.2-0.2S29.4,17.8,29.2,17.8L29.2,17.8L29.2,17.8z M30.1,17.8c-0.2,0-0.2,0-0.2,0.2s0,0.2,0.2,0.2l0,0
	c0.2,0,0.2,0,0.2-0.2l0,0C30.6,17.8,30.3,17.8,30.1,17.8C30.3,17.8,30.3,17.8,30.1,17.8L30.1,17.8z M21.5,18.7c0,0-0.2,0-0.2,0.2
	c0,0.2,0,0.2,0.2,0.2s0.2,0,0.2-0.2C22,18.9,21.7,18.7,21.5,18.7L21.5,18.7z M15.2,18.7c-0.2,0-0.2,0-0.2,0.2c0,0.2,0,0.2,0.2,0.2
	l0,0c0,0,0.2,0,0.2-0.2l0,0C15.4,18.9,15.4,18.7,15.2,18.7L15.2,18.7z M16.3,18.7c-0.2,0-0.2,0-0.2,0.2l0,0c0,0,0,0.2,0.2,0.2l0,0
	c0.2,0,0.2,0,0.2-0.2l0,0L16.3,18.7L16.3,18.7z M17.2,18.7c-0.2,0-0.2,0-0.2,0.2l0,0c0,0,0,0.2,0.2,0.2l0,0c0.2,0,0.2,0,0.2-0.2
	C17.7,18.9,17.4,18.7,17.2,18.7L17.2,18.7z M18.3,18.7c-0.2,0-0.2,0-0.2,0.2c0,0.2,0,0.2,0.2,0.2l0,0c0,0,0.2,0,0.2-0.2l0,0
	C18.6,18.9,18.6,18.7,18.3,18.7L18.3,18.7z M19.5,18.7c-0.2,0-0.2,0-0.2,0.2l0,0c0,0,0,0.2,0.2,0.2l0,0c0.2,0,0.2,0,0.2-0.2l0,0
	C19.7,18.9,19.7,18.7,19.5,18.7L19.5,18.7z M20.6,18.7c-0.2,0-0.2,0-0.2,0.2c0,0.2,0,0.2,0.2,0.2l0,0c0,0,0.2,0,0.2-0.2
	C20.8,18.7,20.8,18.7,20.6,18.7L20.6,18.7L20.6,18.7z M26,18.7c-0.2,0-0.2,0-0.2,0.2c0,0.2,0,0.2,0.2,0.2s0.2,0,0.2-0.2l0,0L26,18.7
	L26,18.7L26,18.7z M26.9,18.7c-0.2,0-0.2,0-0.2,0.2l0,0c0,0,0,0.2,0.2,0.2l0,0c0.2,0,0.2,0,0.2-0.2l0,0
	C27.2,18.9,27.2,18.7,26.9,18.7L26.9,18.7z M28.1,18.7c-0.2,0-0.2,0-0.2,0.2l0,0c0,0,0,0.2,0.2,0.2l0,0c0.2,0,0.2,0,0.2-0.2l0,0
	C28.5,18.9,28.3,18.7,28.1,18.7L28.1,18.7z M29.2,18.7c-0.2,0-0.2,0-0.2,0.2c0,0.2,0,0.2,0.2,0.2l0,0c0,0,0.2,0,0.2-0.2
	C29.4,18.7,29.4,18.7,29.2,18.7L29.2,18.7z M30.1,18.7c-0.2,0-0.2,0-0.2,0.2c0,0,0,0.2,0.2,0.2l0,0c0.2,0,0.2,0,0.2-0.2l0,0
	C30.6,18.9,30.3,18.7,30.1,18.7L30.1,18.7z M31.5,18.7c-0.2,0-0.2,0-0.2,0.2l0,0c0,0,0,0.2,0.2,0.2l0,0c0,0,0.2,0,0.2-0.2
	C31.5,18.9,31.5,18.7,31.5,18.7L31.5,18.7z M32.4,18.7c-0.2,0-0.2,0-0.2,0.2c0,0,0,0.2,0.2,0.2l0,0c0,0,0.2,0,0.2-0.2l0,0
	C32.6,18.9,32.6,18.7,32.4,18.7L32.4,18.7z M21.5,19.8c0,0-0.2,0-0.2,0.2l0,0c0,0.2,0,0.2,0.2,0.2l0,0c0.2,0,0.2,0,0.2-0.2l0,0
	C22,19.8,21.7,19.8,21.5,19.8z M34.6,19.8c-0.2,0-0.2,0-0.2,0.2l0,0c0,0.2,0,0.2,0.2,0.2c0.2,0,0.2,0,0.2-0.2l0,0
	C34.9,19.8,34.9,19.8,34.6,19.8L34.6,19.8L34.6,19.8z M15.2,19.8c0,0-0.2,0-0.2,0.2l0,0c0,0.2,0,0.2,0.2,0.2c0,0,0.2,0,0.2-0.2l0,0
	C15.4,20.1,15.4,19.8,15.2,19.8L15.2,19.8L15.2,19.8z M16.3,19.8c0,0-0.2,0-0.2,0.2l0,0c0,0,0,0.2,0.2,0.2l0,0c0,0,0.2,0,0.2-0.2
	l0,0L16.3,19.8L16.3,19.8L16.3,19.8z M17.2,19.8c0,0-0.2,0-0.2,0.2l0,0c0,0.2,0,0.2,0.2,0.2l0,0c0.2,0,0.2,0,0.2-0.2
	C17.7,20.1,17.4,19.8,17.2,19.8L17.2,19.8z M18.3,19.8c-0.2,0-0.2,0-0.2,0.2l0,0c0,0.2,0,0.2,0.2,0.2c0,0,0.2,0,0.2-0.2l0,0
	C18.6,20.1,18.6,19.8,18.3,19.8L18.3,19.8L18.3,19.8z M19.5,19.8c0,0-0.2,0-0.2,0.2l0,0c0,0,0,0.2,0.2,0.2l0,0c0,0,0.2,0,0.2-0.2
	l0,0C19.7,20.1,19.7,19.8,19.5,19.8L19.5,19.8L19.5,19.8z M20.6,19.8c0,0-0.2,0-0.2,0.2l0,0c0,0.2,0,0.2,0.2,0.2s0.2,0,0.2-0.2l0,0
	C20.8,20.1,20.8,19.8,20.6,19.8L20.6,19.8L20.6,19.8z M22.6,19.8c0,0-0.2,0-0.2,0.2l0,0c0,0.2,0,0.2,0.2,0.2s0.2,0,0.2-0.2l0,0
	C23.1,20.1,22.9,19.8,22.6,19.8L22.6,19.8L22.6,19.8z M23.8,19.8c0,0-0.2,0-0.2,0.2l0,0c0,0.2,0,0.2,0.2,0.2s0.2,0,0.2-0.2l0,0
	C24,20.1,24,19.8,23.8,19.8L23.8,19.8L23.8,19.8z M24.9,19.8c0,0-0.2,0-0.2,0.2l0,0c0,0.2,0,0.2,0.2,0.2l0,0c0.2,0,0.2,0,0.2-0.2
	L24.9,19.8L24.9,19.8L24.9,19.8z M26,19.8c0,0-0.2,0-0.2,0.2l0,0c0,0.2,0,0.2,0.2,0.2l0,0c0,0,0.2,0,0.2-0.2l0,0L26,19.8L26,19.8
	L26,19.8z M26.9,19.8c0,0-0.2,0-0.2,0.2l0,0c0,0,0,0.2,0.2,0.2l0,0c0,0,0.2,0,0.2-0.2l0,0C27.2,20.1,27.2,19.8,26.9,19.8
	C27.2,19.8,26.9,19.8,26.9,19.8L26.9,19.8z M28.1,19.8c0,0-0.2,0-0.2,0.2l0,0c0,0,0,0.2,0.2,0.2l0,0c0,0,0.2,0,0.2-0.2l0,0
	C28.5,20.1,28.3,19.8,28.1,19.8L28.1,19.8L28.1,19.8z M29.2,19.8c-0.2,0-0.2,0-0.2,0.2l0,0c0,0.2,0,0.2,0.2,0.2l0,0
	c0.2,0,0.2,0,0.2-0.2l0,0C29.4,20.1,29.4,19.8,29.2,19.8L29.2,19.8L29.2,19.8z M30.1,19.8c0,0-0.2,0-0.2,0.2l0,0
	c0,0.2,0,0.2,0.2,0.2l0,0c0,0,0.2,0,0.2-0.2l0,0C30.6,20.1,30.3,19.8,30.1,19.8C30.3,19.8,30.3,19.8,30.1,19.8L30.1,19.8z
	 M31.5,19.8c0,0-0.2,0-0.2,0.2l0,0c0,0.2,0,0.2,0.2,0.2s0.2,0,0.2-0.2C31.5,19.8,31.5,19.8,31.5,19.8L31.5,19.8z M32.4,19.8
	c0,0-0.2,0-0.2,0.2l0,0c0,0,0,0.2,0.2,0.2l0,0c0,0,0.2,0,0.2-0.2l0,0C32.6,20.1,32.6,19.8,32.4,19.8L32.4,19.8L32.4,19.8z
	 M33.5,19.8c-0.2,0-0.2,0-0.2,0.2l0,0c0,0.2,0,0.2,0.2,0.2c0.2,0,0.2,0,0.2-0.2C33.7,20.1,33.7,19.8,33.5,19.8L33.5,19.8L33.5,19.8z
	 M16.3,20.7c-0.2,0-0.2,0-0.2,0.2l0,0c0,0,0,0.2,0.2,0.2l0,0c0,0,0.2,0,0.2-0.2l0,0C16.5,21,16.3,20.7,16.3,20.7L16.3,20.7z
	 M17.2,20.7c-0.2,0-0.2,0-0.2,0.2l0,0c0,0,0,0.2,0.2,0.2l0,0c0.2,0,0.2,0,0.2-0.2l0,0C17.7,21,17.4,20.7,17.2,20.7L17.2,20.7z
	 M18.3,20.7c-0.2,0-0.2,0-0.2,0.2s0,0.2,0.2,0.2l0,0c0,0,0.2,0,0.2-0.2l0,0C18.6,21,18.6,20.7,18.3,20.7L18.3,20.7z M19.5,20.7
	c-0.2,0-0.2,0-0.2,0.2l0,0c0,0,0,0.2,0.2,0.2l0,0c0,0,0.2,0,0.2-0.2l0,0C19.7,21,19.7,20.7,19.5,20.7L19.5,20.7z M20.6,20.7
	c-0.2,0-0.2,0-0.2,0.2s0,0.2,0.2,0.2l0,0c0,0,0.2,0,0.2-0.2l0,0C20.8,21,20.8,20.7,20.6,20.7L20.6,20.7L20.6,20.7z M21.5,20.7
	c-0.2,0-0.2,0-0.2,0.2l0,0c0,0,0,0.2,0.2,0.2l0,0c0.2,0,0.2,0,0.2-0.2C22,21,21.7,20.7,21.5,20.7L21.5,20.7z M22.6,20.7
	c-0.2,0-0.2,0-0.2,0.2l0,0c0,0.2,0,0.2,0.2,0.2s0.2,0,0.2-0.2C23.1,21,22.9,20.7,22.6,20.7L22.6,20.7L22.6,20.7z M23.8,20.7
	c-0.2,0-0.2,0-0.2,0.2s0,0.2,0.2,0.2l0,0c0,0,0.2,0,0.2-0.2l0,0C24,21,24,20.7,23.8,20.7L23.8,20.7L23.8,20.7z M24.9,20.7
	c-0.2,0-0.2,0-0.2,0.2l0,0c0,0,0,0.2,0.2,0.2l0,0c0.2,0,0.2,0,0.2-0.2l0,0C25.1,21,24.9,20.7,24.9,20.7L24.9,20.7z M26,20.7
	c-0.2,0-0.2,0-0.2,0.2c0,0,0,0.2,0.2,0.2l0,0c0,0,0.2,0,0.2-0.2l0,0L26,20.7L26,20.7L26,20.7z M26.9,20.7c-0.2,0-0.2,0-0.2,0.2l0,0
	c0,0,0,0.2,0.2,0.2l0,0c0,0,0.2,0,0.2-0.2l0,0C27.2,21,27.2,20.7,26.9,20.7L26.9,20.7z M28.1,20.7c-0.2,0-0.2,0-0.2,0.2l0,0
	c0,0,0,0.2,0.2,0.2l0,0c0,0,0.2,0,0.2-0.2l0,0C28.5,21,28.3,20.7,28.1,20.7L28.1,20.7z M29.2,20.7c-0.2,0-0.2,0-0.2,0.2
	s0,0.2,0.2,0.2l0,0c0,0,0.2,0,0.2-0.2l0,0C29.4,21,29.4,20.7,29.2,20.7L29.2,20.7z M30.1,20.7c-0.2,0-0.2,0-0.2,0.2
	c0,0,0,0.2,0.2,0.2l0,0c0,0,0.2,0,0.2-0.2l0,0C30.6,21,30.3,20.7,30.1,20.7L30.1,20.7z M31.5,20.7c-0.2,0-0.2,0-0.2,0.2l0,0
	c0,0.2,0,0.2,0.2,0.2s0.2,0,0.2-0.2C31.5,21,31.5,20.7,31.5,20.7L31.5,20.7z M32.4,20.7c-0.2,0-0.2,0-0.2,0.2c0,0,0,0.2,0.2,0.2l0,0
	c0,0,0.2,0,0.2-0.2l0,0C32.6,21,32.6,20.7,32.4,20.7L32.4,20.7z M33.5,20.7c-0.2,0-0.2,0-0.2,0.2s0.2,0.2,0.2,0.2s0.2,0,0.2-0.2
	C33.7,21,33.7,20.7,33.5,20.7L33.5,20.7z M34.6,20.7c-0.2,0-0.2,0-0.2,0.2s0,0.2,0.2,0.2l0,0c0,0,0.2,0,0.2-0.2l0,0
	C34.9,21,34.9,20.7,34.6,20.7L34.6,20.7L34.6,20.7z M16.3,21.9c0,0-0.2,0-0.2,0.2l0,0c0,0.2,0,0.2,0.2,0.2l0,0c0.2,0,0.2,0,0.2-0.2
	C16.5,22.1,16.3,21.9,16.3,21.9L16.3,21.9z M17.2,21.9c0,0-0.2,0-0.2,0.2l0,0c0,0.2,0,0.2,0.2,0.2s0.2,0,0.2-0.2
	C17.7,22.1,17.4,21.9,17.2,21.9L17.2,21.9z M18.3,21.9c-0.2,0-0.2,0-0.2,0.2c0,0.2,0,0.2,0.2,0.2s0.2,0,0.2-0.2l0,0
	C18.6,22.1,18.6,21.9,18.3,21.9L18.3,21.9z M19.5,21.9c0,0-0.2,0-0.2,0.2l0,0c0,0.2,0,0.2,0.2,0.2l0,0c0.2,0,0.2,0,0.2-0.2
	C19.7,22.1,19.7,21.9,19.5,21.9z M20.6,21.9c-0.2,0-0.2,0-0.2,0.2l0,0c0,0.2,0,0.2,0.2,0.2s0.2,0,0.2-0.2
	C20.8,22.1,20.8,21.9,20.6,21.9L20.6,21.9L20.6,21.9z M21.5,21.9c-0.2,0-0.2,0-0.2,0.2c0,0.2,0,0.2,0.2,0.2s0.2,0,0.2-0.2
	C22,22.1,21.7,21.9,21.5,21.9L21.5,21.9z M22.6,21.9c0,0-0.2,0-0.2,0.2l0,0c0,0.2,0,0.2,0.2,0.2s0.2,0,0.2-0.2l0,0
	C23.1,22.1,22.9,21.9,22.6,21.9L22.6,21.9L22.6,21.9z M23.8,21.9c-0.2,0-0.2,0-0.2,0.2l0,0c0,0.2,0,0.2,0.2,0.2s0.2,0,0.2-0.2
	C24,22.1,24,21.9,23.8,21.9L23.8,21.9L23.8,21.9z M24.9,21.9c0,0-0.2,0-0.2,0.2l0,0c0,0.2,0,0.2,0.2,0.2s0.2,0,0.2-0.2
	C25.1,22.1,24.9,21.9,24.9,21.9L24.9,21.9z M26,21.9c0,0-0.2,0-0.2,0.2c0,0.2,0,0.2,0.2,0.2s0.2,0,0.2-0.2l0,0
	C26.3,22.1,26,21.9,26,21.9L26,21.9L26,21.9z M26.9,21.9c0,0-0.2,0-0.2,0.2l0,0c0,0.2,0,0.2,0.2,0.2l0,0c0.2,0,0.2,0,0.2-0.2
	C27.2,22.1,27.2,21.9,26.9,21.9L26.9,21.9L26.9,21.9z M28.1,21.9c0,0-0.2,0-0.2,0.2l0,0c0,0.2,0,0.2,0.2,0.2l0,0
	c0.2,0,0.2,0,0.2-0.2C28.5,22.1,28.3,21.9,28.1,21.9L28.1,21.9z M29.2,21.9c-0.2,0-0.2,0-0.2,0.2c0,0.2,0.2,0.2,0.2,0.2
	c0.2,0,0.2,0,0.2-0.2C29.4,22.1,29.4,21.9,29.2,21.9L29.2,21.9z M30.1,21.9c0,0-0.2,0-0.2,0.2c0,0.2,0,0.2,0.2,0.2s0.2,0,0.2-0.2
	C30.6,22.1,30.3,21.9,30.1,21.9L30.1,21.9L30.1,21.9z M31.5,21.9c0,0-0.2,0-0.2,0.2l0,0c0,0.2,0,0.2,0.2,0.2s0.2,0,0.2-0.2
	C31.5,22.1,31.5,21.9,31.5,21.9L31.5,21.9z M32.4,21.9c-0.2,0-0.2,0-0.2,0.2l0,0c0,0.2,0,0.2,0.2,0.2s0.2,0,0.2-0.2l0,0
	C32.6,22.1,32.6,21.9,32.4,21.9L32.4,21.9z M33.5,21.9c-0.2,0-0.2,0-0.2,0.2c0,0.2,0,0.2,0.2,0.2c0.2,0,0.2,0,0.2-0.2
	C33.7,22.1,33.7,21.9,33.5,21.9L33.5,21.9L33.5,21.9z M34.6,21.9c-0.2,0-0.2,0-0.2,0.2l0,0c0,0.2,0,0.2,0.2,0.2c0.2,0,0.2,0,0.2-0.2
	l0,0C34.9,22.1,34.9,21.9,34.6,21.9L34.6,21.9L34.6,21.9z M16.3,23c0,0-0.2,0-0.2,0.2l0,0c0,0,0,0.2,0.2,0.2l0,0
	c0.2,0,0.2,0,0.2-0.2S16.3,23,16.3,23L16.3,23z M17.2,23C17,23,17,23,17,23.2s0,0.2,0.2,0.2l0,0c0.2,0,0.2,0,0.2-0.2
	C17.7,23.2,17.4,23,17.2,23L17.2,23z M18.3,23c-0.2,0-0.2,0-0.2,0.2s0,0.2,0.2,0.2l0,0c0,0,0.2,0,0.2-0.2l0,0
	C18.6,23.2,18.6,23,18.3,23L18.3,23z M19.5,23c0,0-0.2,0-0.2,0.2l0,0c0,0,0,0.2,0.2,0.2l0,0c0.2,0,0.2,0,0.2-0.2l0,0
	C19.7,23.2,19.7,23,19.5,23z M20.6,23c-0.2,0-0.2,0-0.2,0.2s0,0.2,0.2,0.2l0,0c0,0,0.2,0,0.2-0.2C20.8,23.2,20.8,23,20.6,23L20.6,23
	L20.6,23z M21.5,23c-0.2,0-0.2,0-0.2,0.2s0,0.2,0.2,0.2l0,0c0.2,0,0.2,0,0.2-0.2C22,23.2,22,23.2,21.5,23C21.7,23,21.5,23,21.5,23z
	 M22.6,23c0,0-0.2,0-0.2,0.2l0,0c0,0,0,0.2,0.2,0.2l0,0c0.2,0,0.2,0,0.2-0.2C23.1,23.2,22.9,23,22.6,23L22.6,23z M23.8,23
	c-0.2,0-0.2,0-0.2,0.2s0,0.2,0.2,0.2l0,0c0,0,0.2,0,0.2-0.2C24,23.2,24,23,23.8,23L23.8,23L23.8,23z M24.9,23c-0.2,0-0.2,0-0.2,0.2
	s0,0.2,0.2,0.2s0.2,0,0.2-0.2C25.1,23.2,24.9,23,24.9,23L24.9,23z M26,23c0,0-0.2,0-0.2,0.2s0,0.2,0.2,0.2s0.2,0,0.2-0.2
	C26.3,23.2,26,23,26,23z M26.9,23c0,0-0.2,0-0.2,0.2l0,0c0,0,0,0.2,0.2,0.2l0,0c0.2,0,0.2,0,0.2-0.2S27.2,23,26.9,23L26.9,23z
	 M28.1,23c0,0-0.2,0-0.2,0.2l0,0c0,0,0,0.2,0.2,0.2l0,0c0.2,0,0.2,0,0.2-0.2l0,0C28.5,23.2,28.3,23,28.1,23L28.1,23z M29.2,23
	C29,23,29,23,29,23.2s0,0.2,0.2,0.2l0,0c0.2,0,0.2,0,0.2-0.2C29.4,23.2,29.4,23,29.2,23L29.2,23z M30.1,23c0,0-0.2,0-0.2,0.2
	c0,0,0,0.2,0.2,0.2l0,0c0.2,0,0.2,0,0.2-0.2C30.6,23.2,30.3,23,30.1,23L30.1,23z M31.5,23c-0.2,0-0.2,0-0.2,0.2s0,0.2,0.2,0.2
	c0,0,0.2,0,0.2-0.2C31.5,23.2,31.5,23,31.5,23L31.5,23z M32.4,23c-0.2,0-0.2,0-0.2,0.2l0,0c0,0,0,0.2,0.2,0.2l0,0c0,0,0.2,0,0.2-0.2
	l0,0C32.6,23.2,32.6,23,32.4,23L32.4,23z M33.5,23c-0.2,0-0.2,0-0.2,0.2s0,0.2,0.2,0.2l0,0c0.2,0,0.2,0,0.2-0.2
	C33.7,23.2,33.7,23,33.5,23L33.5,23L33.5,23z M34.6,23c-0.2,0-0.2,0-0.2,0.2s0,0.2,0.2,0.2l0,0c0.2,0,0.2,0,0.2-0.2
	C34.9,23.2,34.6,23,34.6,23z M16.3,24.1c-0.2,0-0.2,0-0.2,0.2l0,0c0,0,0,0.2,0.2,0.2l0,0c0,0,0.2,0,0.2-0.2l0,0
	C16.5,24.4,16.3,24.1,16.3,24.1L16.3,24.1z M17.2,24.1c-0.2,0-0.2,0-0.2,0.2l0,0c0,0,0,0.2,0.2,0.2s0.2,0,0.2-0.2l0,0
	C17.7,24.4,17.4,24.1,17.2,24.1L17.2,24.1z M18.3,24.1c-0.2,0-0.2,0-0.2,0.2c0,0.2,0,0.2,0.2,0.2c0,0,0.2,0,0.2-0.2l0,0
	C18.6,24.4,18.6,24.1,18.3,24.1L18.3,24.1L18.3,24.1z M19.5,24.1c-0.2,0-0.2,0-0.2,0.2l0,0c0,0.2,0,0.2,0.2,0.2c0,0,0.2,0,0.2-0.2
	l0,0C19.7,24.4,19.7,24.1,19.5,24.1z M20.6,24.1c-0.2,0-0.2,0-0.2,0.2c0,0.2,0,0.2,0.2,0.2c0,0,0.2,0,0.2-0.2l0,0
	C20.8,24.4,20.8,24.1,20.6,24.1L20.6,24.1L20.6,24.1z M21.5,24.1c-0.2,0-0.2,0-0.2,0.2c0,0,0,0.2,0.2,0.2s0.2,0,0.2-0.2l0,0
	C22,24.4,21.7,24.1,21.5,24.1L21.5,24.1z M34.6,24.1c-0.2,0-0.2,0-0.2,0.2c0,0.2,0,0.2,0.2,0.2l0,0c0,0,0.2,0,0.2-0.2l0,0
	C34.9,24.4,34.9,24.1,34.6,24.1L34.6,24.1L34.6,24.1z M22.6,24.1c0,0-0.2,0-0.2,0.2l0,0c0,0.2,0,0.2,0.2,0.2s0.2,0,0.2-0.2l0,0
	C23.1,24.4,22.9,24.1,22.6,24.1L22.6,24.1L22.6,24.1z M23.8,24.1c0,0-0.2,0-0.2,0.2l0,0c0,0.2,0,0.2,0.2,0.2l0,0c0,0,0.2,0,0.2-0.2
	l0,0C24,24.4,24,24.1,23.8,24.1L23.8,24.1L23.8,24.1z M24.9,24.1c0,0-0.2,0-0.2,0.2l0,0c0,0,0,0.2,0.2,0.2l0,0c0.2,0,0.2,0,0.2-0.2
	l0,0C25.1,24.4,24.9,24.1,24.9,24.1L24.9,24.1z M26,24.1c-0.2,0-0.2,0-0.2,0.2l0,0c0,0,0,0.2,0.2,0.2l0,0c0,0,0.2,0,0.2-0.2l0,0
	C26.3,24.4,26,24.1,26,24.1L26,24.1L26,24.1z M26.9,24.1c0,0-0.2,0-0.2,0.2l0,0c0,0,0,0.2,0.2,0.2l0,0c0,0,0.2,0,0.2-0.2l0,0
	C27.2,24.4,27.2,24.1,26.9,24.1C27.2,24.1,26.9,24.1,26.9,24.1L26.9,24.1z M28.1,24.1c0,0-0.2,0-0.2,0.2l0,0c0,0,0,0.2,0.2,0.2l0,0
	c0,0,0.2,0,0.2-0.2l0,0C28.5,24.4,28.3,24.1,28.1,24.1L28.1,24.1z M29.2,24.1c-0.2,0-0.2,0-0.2,0.2l0,0c0,0.2,0,0.2,0.2,0.2l0,0
	c0,0,0.2,0,0.2-0.2l0,0C29.4,24.4,29.4,24.1,29.2,24.1L29.2,24.1L29.2,24.1z M30.1,24.1c-0.2,0-0.2,0-0.2,0.2l0,0c0,0,0,0.2,0.2,0.2
	l0,0c0,0,0.2,0,0.2-0.2l0,0C30.6,24.4,30.3,24.1,30.1,24.1C30.3,24.1,30.3,24.1,30.1,24.1L30.1,24.1z M31.5,24.1c0,0-0.2,0-0.2,0.2
	l0,0c0,0.2,0,0.2,0.2,0.2s0.2,0,0.2-0.2C31.7,24.4,31.5,24.1,31.5,24.1L31.5,24.1L31.5,24.1z M32.4,24.1c0,0-0.2,0-0.2,0.2l0,0
	c0,0,0,0.2,0.2,0.2l0,0c0,0,0.2,0,0.2-0.2l0,0C32.6,24.4,32.6,24.1,32.4,24.1L32.4,24.1L32.4,24.1z M33.5,24.1c-0.2,0-0.2,0-0.2,0.2
	l0,0c0,0.2,0,0.2,0.2,0.2c0.2,0,0.2,0,0.2-0.2l0,0C33.7,24.4,33.7,24.1,33.5,24.1L33.5,24.1L33.5,24.1z M21.5,25.3
	c0,0-0.2,0-0.2,0.2l0,0c0,0.2,0,0.2,0.2,0.2l0,0c0.2,0,0.2,0,0.2-0.2l0,0C22,25.3,21.7,25.3,21.5,25.3L21.5,25.3z M34.6,25.3
	c-0.2,0-0.2,0-0.2,0.2l0,0c0,0.2,0,0.2,0.2,0.2c0.2,0,0.2,0,0.2-0.2l0,0C34.9,25.3,34.9,25.3,34.6,25.3L34.6,25.3L34.6,25.3z
	 M17.2,25.3c0,0-0.2,0-0.2,0.2l0,0c0,0.2,0,0.2,0.2,0.2l0,0c0.2,0,0.2,0,0.2-0.2C17.7,25.3,17.4,25.3,17.2,25.3L17.2,25.3L17.2,25.3
	z M18.3,25.3c-0.2,0-0.2,0-0.2,0.2l0,0c0,0.2,0,0.2,0.2,0.2c0,0,0.2,0,0.2-0.2l0,0C18.6,25.3,18.6,25.3,18.3,25.3L18.3,25.3
	L18.3,25.3z M19.5,25.3c0,0-0.2,0-0.2,0.2l0,0c0,0,0,0.2,0.2,0.2l0,0c0,0,0.2,0,0.2-0.2l0,0C19.7,25.3,19.7,25.3,19.5,25.3
	L19.5,25.3z M20.6,25.3c0,0-0.2,0-0.2,0.2l0,0c0,0.2,0,0.2,0.2,0.2s0.2,0,0.2-0.2l0,0C20.8,25.5,20.8,25.3,20.6,25.3L20.6,25.3
	L20.6,25.3z M22.6,25.3c0,0-0.2,0-0.2,0.2l0,0c0,0,0,0.2,0.2,0.2l0,0c0.2,0,0.2,0,0.2-0.2l0,0C23.1,25.3,22.9,25.3,22.6,25.3
	L22.6,25.3L22.6,25.3z M23.8,25.3c0,0-0.2,0-0.2,0.2l0,0c0,0.2,0,0.2,0.2,0.2s0.2,0,0.2-0.2S24,25.3,23.8,25.3L23.8,25.3L23.8,25.3z
	 M24.9,25.3c0,0-0.2,0-0.2,0.2l0,0c0,0.2,0,0.2,0.2,0.2l0,0c0.2,0,0.2,0,0.2-0.2S24.9,25.3,24.9,25.3L24.9,25.3z M26,25.3
	c0,0-0.2,0-0.2,0.2l0,0c0,0.2,0,0.2,0.2,0.2s0.2,0,0.2-0.2l0,0C26.3,25.3,26,25.3,26,25.3L26,25.3L26,25.3z M26.9,25.3
	c0,0-0.2,0-0.2,0.2l0,0c0,0,0,0.2,0.2,0.2l0,0c0.2,0,0.2,0,0.2-0.2S27.2,25.3,26.9,25.3L26.9,25.3L26.9,25.3z M28.1,25.3
	c0,0-0.2,0-0.2,0.2l0,0c0,0,0,0.2,0.2,0.2l0,0c0.2,0,0.2,0,0.2-0.2C28.5,25.3,28.3,25.3,28.1,25.3L28.1,25.3z M29.2,25.3
	c-0.2,0-0.2,0-0.2,0.2l0,0c0,0.2,0,0.2,0.2,0.2l0,0c0.2,0,0.2,0,0.2-0.2S29.4,25.3,29.2,25.3L29.2,25.3z M30.1,25.3
	c0,0-0.2,0-0.2,0.2l0,0c0,0.2,0,0.2,0.2,0.2l0,0c0.2,0,0.2,0,0.2-0.2S30.3,25.3,30.1,25.3L30.1,25.3L30.1,25.3z M31.5,25.3
	c0,0-0.2,0-0.2,0.2l0,0c0,0.2,0,0.2,0.2,0.2l0,0c0.2,0,0.2,0,0.2-0.2S31.5,25.3,31.5,25.3L31.5,25.3z M32.4,25.3c0,0-0.2,0-0.2,0.2
	l0,0c0,0,0,0.2,0.2,0.2l0,0c0.2,0,0.2,0,0.2-0.2l0,0C32.6,25.3,32.6,25.3,32.4,25.3L32.4,25.3z M33.5,25.3c-0.2,0-0.2,0-0.2,0.2l0,0
	c0,0.2,0,0.2,0.2,0.2l0,0c0.2,0,0.2,0,0.2-0.2S33.7,25.3,33.5,25.3L33.5,25.3L33.5,25.3z M18.3,26.2c-0.2,0-0.2,0-0.2,0.2
	c0,0.2,0,0.2,0.2,0.2c0,0,0.2,0,0.2-0.2l0,0C18.6,26.4,18.6,26.4,18.3,26.2z M19.5,26.2c-0.2,0-0.2,0-0.2,0.2l0,0c0,0,0,0.2,0.2,0.2
	l0,0c0.2,0,0.2,0,0.2-0.2l0,0C19.7,26.4,19.7,26.2,19.5,26.2L19.5,26.2z M20.6,26.2c-0.2,0-0.2,0-0.2,0.2c0,0.2,0,0.2,0.2,0.2
	c0,0,0.2,0,0.2-0.2C20.8,26.4,20.8,26.2,20.6,26.2L20.6,26.2L20.6,26.2z M21.5,26.2c-0.2,0-0.2,0-0.2,0.2c0,0,0,0.2,0.2,0.2
	s0.2,0,0.2-0.2C22,26.4,21.7,26.2,21.5,26.2L21.5,26.2L21.5,26.2z M22.6,26.2c-0.2,0-0.2,0-0.2,0.2l0,0c0,0.2,0,0.2,0.2,0.2
	s0.2,0,0.2-0.2C23.1,26.4,22.9,26.2,22.6,26.2L22.6,26.2L22.6,26.2z M23.8,26.2c-0.2,0-0.2,0-0.2,0.2c0,0.2,0,0.2,0.2,0.2
	c0,0,0.2,0,0.2-0.2C24,26.4,24,26.2,23.8,26.2L23.8,26.2L23.8,26.2z M24.9,26.2c-0.2,0-0.2,0-0.2,0.2l0,0c0,0,0,0.2,0.2,0.2
	s0.2,0,0.2-0.2L24.9,26.2L24.9,26.2z M26,26.2c-0.2,0-0.2,0-0.2,0.2c0,0,0,0.2,0.2,0.2c0,0,0.2,0,0.2-0.2l0,0L26,26.2L26,26.2
	L26,26.2z M26.9,26.2c-0.2,0-0.2,0-0.2,0.2l0,0c0,0,0,0.2,0.2,0.2l0,0c0.2,0,0.2,0,0.2-0.2l0,0C27.2,26.4,27.2,26.2,26.9,26.2
	L26.9,26.2L26.9,26.2z M28.1,26.2c-0.2,0-0.2,0-0.2,0.2l0,0c0,0,0,0.2,0.2,0.2l0,0c0.2,0,0.2,0,0.2-0.2l0,0
	C28.5,26.4,28.3,26.2,28.1,26.2L28.1,26.2z M29.2,26.2c-0.2,0-0.2,0-0.2,0.2c0,0.2,0.2,0.2,0.2,0.2s0.2,0,0.2-0.2
	C29.4,26.4,29.4,26.4,29.2,26.2L29.2,26.2z M30.1,26.2c-0.2,0-0.2,0-0.2,0.2c0,0,0,0.2,0.2,0.2s0.2,0,0.2-0.2l0,0
	C30.6,26.4,30.3,26.2,30.1,26.2L30.1,26.2L30.1,26.2z M31.5,26.2c-0.2,0-0.2,0-0.2,0.2l0,0c0,0.2,0,0.2,0.2,0.2s0.2,0,0.2-0.2
	C31.5,26.4,31.5,26.2,31.5,26.2L31.5,26.2z M32.4,26.2c-0.2,0-0.2,0-0.2,0.2c0,0.2,0,0.2,0.2,0.2l0,0c0,0,0.2,0,0.2-0.2l0,0
	C32.6,26.4,32.6,26.4,32.4,26.2L32.4,26.2z M33.5,26.2c-0.2,0-0.2,0-0.2,0.2c0,0.2,0,0.2,0.2,0.2c0.2,0,0.2,0,0.2-0.2
	C33.7,26.4,33.7,26.2,33.5,26.2L33.5,26.2L33.5,26.2z M34.6,26.2c-0.2,0-0.2,0-0.2,0.2c0,0.2,0,0.2,0.2,0.2c0,0,0.2,0,0.2-0.2l0,0
	C34.9,26.4,34.9,26.2,34.6,26.2L34.6,26.2L34.6,26.2z M19.5,27.3c0,0-0.2,0-0.2,0.2l0,0c0,0,0,0.2,0.2,0.2l0,0c0.2,0,0.2,0,0.2-0.2
	S19.7,27.3,19.5,27.3z M20.6,27.3c-0.2,0-0.2,0-0.2,0.2l0,0c0,0.2,0,0.2,0.2,0.2s0.2,0,0.2-0.2S20.8,27.3,20.6,27.3L20.6,27.3
	L20.6,27.3z M21.5,27.3c0,0-0.2,0-0.2,0.2s0,0.2,0.2,0.2l0,0c0.2,0,0.2,0,0.2-0.2S21.7,27.3,21.5,27.3z M22.6,27.3
	c0,0-0.2,0-0.2,0.2l0,0c0,0,0,0.2,0.2,0.2l0,0c0.2,0,0.2,0,0.2-0.2l0,0C23.1,27.5,22.9,27.3,22.6,27.3L22.6,27.3L22.6,27.3z
	 M23.8,27.3c-0.2,0-0.2,0-0.2,0.2l0,0c0,0.2,0,0.2,0.2,0.2s0.2,0,0.2-0.2S24,27.3,23.8,27.3L23.8,27.3L23.8,27.3z M24.9,27.3
	c0,0-0.2,0-0.2,0.2l0,0c0,0.2,0,0.2,0.2,0.2l0,0c0.2,0,0.2,0,0.2-0.2L24.9,27.3L24.9,27.3z M26,27.3c0,0-0.2,0-0.2,0.2
	s0,0.2,0.2,0.2s0.2,0,0.2-0.2l0,0L26,27.3L26,27.3L26,27.3z M26.9,27.3c0,0-0.2,0-0.2,0.2l0,0c0,0,0,0.2,0.2,0.2l0,0
	c0.2,0,0.2,0,0.2-0.2C27.2,27.5,27.2,27.3,26.9,27.3L26.9,27.3L26.9,27.3z M28.1,27.3c0,0-0.2,0-0.2,0.2l0,0c0,0,0,0.2,0.2,0.2l0,0
	c0.2,0,0.2,0,0.2-0.2C28.5,27.5,28.3,27.3,28.1,27.3L28.1,27.3z M29.2,27.3c-0.2,0-0.2,0-0.2,0.2s0,0.2,0.2,0.2l0,0
	c0.2,0,0.2,0,0.2-0.2S29.4,27.3,29.2,27.3L29.2,27.3z M30.1,27.3c0,0-0.2,0-0.2,0.2s0,0.2,0.2,0.2l0,0c0.2,0,0.2,0,0.2-0.2
	S30.3,27.3,30.1,27.3L30.1,27.3L30.1,27.3z M31.5,27.3c0,0-0.2,0-0.2,0.2l0,0c0,0.2,0,0.2,0.2,0.2l0,0c0.2,0,0.2,0,0.2-0.2
	C31.5,27.5,31.5,27.3,31.5,27.3L31.5,27.3z M32.4,27.3c-0.2,0-0.2,0-0.2,0.2l0,0c0,0,0,0.2,0.2,0.2l0,0c0.2,0,0.2,0,0.2-0.2l0,0
	C32.6,27.5,32.6,27.3,32.4,27.3L32.4,27.3z M33.5,27.3c-0.2,0-0.2,0-0.2,0.2s0,0.2,0.2,0.2l0,0c0.2,0,0.2,0,0.2-0.2
	C33.7,27.5,33.7,27.3,33.5,27.3L33.5,27.3L33.5,27.3z M34.6,27.3c-0.2,0-0.2,0-0.2,0.2s0,0.2,0.2,0.2c0.2,0,0.2,0,0.2-0.2l0,0
	C34.9,27.5,34.9,27.3,34.6,27.3L34.6,27.3L34.6,27.3z M35.6,27.3c0,0-0.2,0-0.2,0.2l0,0c0,0,0,0.2,0.2,0.2l0,0c0.2,0,0.2,0,0.2-0.2
	C36,27.5,35.8,27.3,35.6,27.3L35.6,27.3z M19.5,28.4c0,0-0.2,0-0.2,0.2l0,0c0,0,0,0.2,0.2,0.2l0,0c0.2,0,0.2,0,0.2-0.2
	C19.7,28.6,19.7,28.4,19.5,28.4L19.5,28.4L19.5,28.4z M20.6,28.4c0,0-0.2,0-0.2,0.2l0,0c0,0.2,0,0.2,0.2,0.2s0.2,0,0.2-0.2
	C20.8,28.6,20.8,28.4,20.6,28.4L20.6,28.4L20.6,28.4z M21.5,28.4c0,0-0.2,0-0.2,0.2l0,0c0,0.2,0,0.2,0.2,0.2l0,0
	c0.2,0,0.2,0,0.2-0.2C22,28.6,21.7,28.4,21.5,28.4L21.5,28.4L21.5,28.4z M22.6,28.4c0,0-0.2,0-0.2,0.2l0,0c0,0.2,0,0.2,0.2,0.2l0,0
	c0,0,0.2,0,0.2-0.2l0,0C23.1,28.6,22.9,28.4,22.6,28.4L22.6,28.4L22.6,28.4z M23.8,28.4c-0.2,0-0.2,0-0.2,0.2l0,0
	c0,0.2,0,0.2,0.2,0.2s0.2,0,0.2-0.2l0,0C24,28.6,24,28.4,23.8,28.4L23.8,28.4L23.8,28.4z M24.9,28.4c0,0-0.2,0-0.2,0.2l0,0
	c0,0.2,0,0.2,0.2,0.2s0.2,0,0.2-0.2L24.9,28.4L24.9,28.4L24.9,28.4z M26,28.4c0,0-0.2,0-0.2,0.2s0,0.2,0.2,0.2c0,0,0.2,0,0.2-0.2
	l0,0L26,28.4L26,28.4L26,28.4z M26.9,28.4c0,0-0.2,0-0.2,0.2l0,0c0,0.2,0,0.2,0.2,0.2l0,0c0,0,0.2,0,0.2-0.2l0,0
	C27.2,28.6,27.2,28.4,26.9,28.4C27.2,28.4,26.9,28.4,26.9,28.4L26.9,28.4z M28.1,28.4c0,0-0.2,0-0.2,0.2l0,0c0,0.2,0,0.2,0.2,0.2
	l0,0c0,0,0.2,0,0.2-0.2l0,0C28.5,28.6,28.3,28.4,28.1,28.4L28.1,28.4L28.1,28.4z M29.2,28.4c-0.2,0-0.2,0-0.2,0.2s0.2,0.2,0.2,0.2
	c0.2,0,0.2,0,0.2-0.2l0,0C29.4,28.6,29.4,28.4,29.2,28.4L29.2,28.4L29.2,28.4z M30.1,28.4c0,0-0.2,0-0.2,0.2s0,0.2,0.2,0.2
	c0,0,0.2,0,0.2-0.2l0,0C30.6,28.6,30.3,28.4,30.1,28.4C30.3,28.4,30.3,28.4,30.1,28.4L30.1,28.4z M31.5,28.4c0,0-0.2,0-0.2,0.2l0,0
	c0,0.2,0,0.2,0.2,0.2s0.2,0,0.2-0.2l0,0L31.5,28.4L31.5,28.4L31.5,28.4z M32.4,28.4c-0.2,0-0.2,0-0.2,0.2l0,0c0,0.2,0,0.2,0.2,0.2
	c0,0,0.2,0,0.2-0.2l0,0C32.6,28.6,32.6,28.4,32.4,28.4C32.6,28.4,32.4,28.4,32.4,28.4L32.4,28.4z M33.5,28.4c-0.2,0-0.2,0-0.2,0.2
	s0,0.2,0.2,0.2c0.2,0,0.2,0,0.2-0.2C33.7,28.6,33.7,28.4,33.5,28.4L33.5,28.4L33.5,28.4z M34.6,28.4c-0.2,0-0.2,0-0.2,0.2
	s0,0.2,0.2,0.2c0,0,0.2,0,0.2-0.2l0,0C34.9,28.6,34.9,28.4,34.6,28.4L34.6,28.4L34.6,28.4z M35.6,28.4c0,0-0.2,0-0.2,0.2l0,0
	c0,0,0,0.2,0.2,0.2l0,0c0,0,0.2,0,0.2-0.2l0,0C36,28.6,35.8,28.4,35.6,28.4C35.8,28.4,35.6,28.4,35.6,28.4L35.6,28.4z M19.5,29.5
	c0,0-0.2,0-0.2,0.2l0,0c0,0,0,0.2,0.2,0.2l0,0c0.2,0,0.2,0,0.2-0.2l0,0C19.7,29.5,19.7,29.5,19.5,29.5z M20.6,29.5
	c0,0-0.2,0-0.2,0.2l0,0c0,0.2,0,0.2,0.2,0.2l0,0c0,0,0.2,0,0.2-0.2S20.8,29.5,20.6,29.5L20.6,29.5L20.6,29.5z M21.5,29.5
	c-0.2,0-0.2,0-0.2,0.2l0,0c0,0,0,0.2,0.2,0.2l0,0c0.2,0,0.2,0,0.2-0.2S21.7,29.5,21.5,29.5L21.5,29.5z M22.6,29.5
	c-0.2,0-0.2,0-0.2,0.2l0,0c0,0.2,0,0.2,0.2,0.2s0.2,0,0.2-0.2S22.9,29.5,22.6,29.5L22.6,29.5L22.6,29.5z M23.8,29.5
	c-0.2,0-0.2,0-0.2,0.2s0,0.2,0.2,0.2l0,0c0,0,0.2,0,0.2-0.2l0,0C24,29.5,24,29.5,23.8,29.5L23.8,29.5L23.8,29.5z M24.9,29.5
	c-0.2,0-0.2,0-0.2,0.2l0,0c0,0,0,0.2,0.2,0.2l0,0c0.2,0,0.2,0,0.2-0.2l0,0C25.1,29.5,24.9,29.5,24.9,29.5L24.9,29.5z M26,29.5
	c-0.2,0-0.2,0-0.2,0.2c0,0,0,0.2,0.2,0.2l0,0c0,0,0.2,0,0.2-0.2l0,0C26.3,29.5,26,29.5,26,29.5L26,29.5L26,29.5z M26.9,29.5
	c-0.2,0-0.2,0-0.2,0.2l0,0c0,0,0,0.2,0.2,0.2l0,0c0,0,0.2,0,0.2-0.2l0,0C27.2,29.5,27.2,29.5,26.9,29.5L26.9,29.5z M28.1,29.5
	c-0.2,0-0.2,0-0.2,0.2l0,0c0,0,0,0.2,0.2,0.2l0,0c0,0,0.2,0,0.2-0.2l0,0C28.5,29.5,28.3,29.5,28.1,29.5L28.1,29.5z M29.2,29.5
	c-0.2,0-0.2,0-0.2,0.2s0,0.2,0.2,0.2l0,0c0,0,0.2,0,0.2-0.2l0,0C29.4,29.5,29.4,29.5,29.2,29.5L29.2,29.5z M30.1,29.5
	c-0.2,0-0.2,0-0.2,0.2c0,0,0,0.2,0.2,0.2l0,0c0,0,0.2,0,0.2-0.2l0,0C30.6,29.5,30.3,29.5,30.1,29.5L30.1,29.5z M31.5,29.5
	c-0.2,0-0.2,0-0.2,0.2l0,0c0,0.2,0,0.2,0.2,0.2s0.2,0,0.2-0.2l0,0C31.5,29.5,31.5,29.5,31.5,29.5L31.5,29.5z M32.4,29.5
	c-0.2,0-0.2,0-0.2,0.2c0,0,0,0.2,0.2,0.2l0,0c0,0,0.2,0,0.2-0.2l0,0C32.6,29.5,32.6,29.5,32.4,29.5L32.4,29.5z M33.5,29.5
	c-0.2,0-0.2,0-0.2,0.2s0.2,0.2,0.2,0.2s0.2,0,0.2-0.2S33.7,29.5,33.5,29.5L33.5,29.5z M34.6,29.5c-0.2,0-0.2,0-0.2,0.2
	s0,0.2,0.2,0.2l0,0c0,0,0.2,0,0.2-0.2l0,0C34.9,29.5,34.9,29.5,34.6,29.5L34.6,29.5L34.6,29.5z M35.6,29.5c-0.2,0-0.2,0-0.2,0.2l0,0
	c0,0,0,0.2,0.2,0.2l0,0c0,0,0.2,0,0.2-0.2l0,0C36,29.5,35.8,29.5,35.6,29.5L35.6,29.5L35.6,29.5z M22.6,30.7c0,0-0.2,0-0.2,0.2l0,0
	c0,0,0,0.2,0.2,0.2l0,0c0.2,0,0.2,0,0.2-0.2l0,0C23.1,30.7,22.9,30.7,22.6,30.7L22.6,30.7z M23.8,30.7c-0.2,0-0.2,0-0.2,0.2l0,0
	c0,0.2,0,0.2,0.2,0.2s0.2,0,0.2-0.2S24,30.7,23.8,30.7L23.8,30.7z M24.9,30.7c0,0-0.2,0-0.2,0.2l0,0c0,0.2,0,0.2,0.2,0.2l0,0
	c0.2,0,0.2,0,0.2-0.2S24.9,30.7,24.9,30.7z M26,30.7c0,0-0.2,0-0.2,0.2s0,0.2,0.2,0.2s0.2,0,0.2-0.2l0,0C26.3,30.7,26,30.7,26,30.7
	L26,30.7z M26.9,30.7c0,0-0.2,0-0.2,0.2l0,0c0,0,0,0.2,0.2,0.2l0,0c0.2,0,0.2,0,0.2-0.2S27.2,30.7,26.9,30.7L26.9,30.7z M28.1,30.7
	c0,0-0.2,0-0.2,0.2l0,0c0,0,0,0.2,0.2,0.2l0,0c0.2,0,0.2,0,0.2-0.2C28.5,30.7,28.3,30.7,28.1,30.7z M29.2,30.7c-0.2,0-0.2,0-0.2,0.2
	s0,0.2,0.2,0.2l0,0c0.2,0,0.2,0,0.2-0.2S29.4,30.7,29.2,30.7L29.2,30.7z M30.1,30.7c0,0-0.2,0-0.2,0.2s0,0.2,0.2,0.2l0,0
	c0.2,0,0.2,0,0.2-0.2S30.3,30.7,30.1,30.7L30.1,30.7z M31.5,30.7c0,0-0.2,0-0.2,0.2l0,0c0,0.2,0,0.2,0.2,0.2l0,0
	c0.2,0,0.2,0,0.2-0.2C31.5,30.7,31.5,30.7,31.5,30.7L31.5,30.7z M32.4,30.7c-0.2,0-0.2,0-0.2,0.2l0,0c0,0,0,0.2,0.2,0.2l0,0
	c0.2,0,0.2,0,0.2-0.2l0,0C32.6,30.7,32.6,30.7,32.4,30.7L32.4,30.7z M33.5,30.7c-0.2,0-0.2,0-0.2,0.2s0,0.2,0.2,0.2l0,0
	c0.2,0,0.2,0,0.2-0.2S33.7,30.7,33.5,30.7L33.5,30.7L33.5,30.7z M34.6,30.7c-0.2,0-0.2,0-0.2,0.2s0,0.2,0.2,0.2c0.2,0,0.2,0,0.2-0.2
	l0,0C34.9,30.7,34.9,30.7,34.6,30.7L34.6,30.7L34.6,30.7z M35.6,30.7c0,0-0.2,0-0.2,0.2l0,0c0,0.2,0,0.2,0.2,0.2l0,0
	c0.2,0,0.2,0,0.2-0.2S35.8,30.7,35.6,30.7L35.6,30.7z M22.6,31.8c0,0-0.2,0-0.2,0.2l0,0c0,0.2,0,0.2,0.2,0.2s0.2,0,0.2-0.2
	C22.9,31.8,22.9,31.8,22.6,31.8z M23.8,31.8c-0.2,0-0.2,0-0.2,0.2c0,0.2,0,0.2,0.2,0.2c0,0,0.2,0,0.2-0.2l0,0
	C24,31.8,24,31.8,23.8,31.8L23.8,31.8z M24.9,31.8c-0.2,0-0.2,0-0.2,0.2c0,0.2,0,0.2,0.2,0.2s0.2,0,0.2-0.2
	C25.1,31.8,24.9,31.8,24.9,31.8z M26,31.8c0,0-0.2,0-0.2,0.2c0,0,0,0.2,0.2,0.2l0,0c0.2,0,0.2,0,0.2-0.2C26.3,31.8,26,31.8,26,31.8z
	 M26.9,31.8c0,0-0.2,0-0.2,0.2l0,0c0,0,0,0.2,0.2,0.2l0,0c0.2,0,0.2,0,0.2-0.2C27.2,31.8,27.2,31.8,26.9,31.8z M28.1,31.8
	c0,0-0.2,0-0.2,0.2l0,0c0,0,0,0.2,0.2,0.2l0,0c0,0,0.2,0,0.2-0.2l0,0C28.5,31.8,28.3,31.8,28.1,31.8L28.1,31.8z M29.2,31.8
	c-0.2,0-0.2,0-0.2,0.2c0,0.2,0,0.2,0.2,0.2l0,0c0.2,0,0.2,0,0.2-0.2C29.4,31.8,29.4,31.8,29.2,31.8z M30.1,31.8c0,0-0.2,0-0.2,0.2
	c0,0,0,0.2,0.2,0.2l0,0c0.2,0,0.2,0,0.2-0.2C30.3,31.8,30.3,31.8,30.1,31.8z M31.5,31.8c-0.2,0-0.2,0-0.2,0.2c0,0.2,0,0.2,0.2,0.2
	s0.2,0,0.2-0.2C31.5,31.8,31.5,31.8,31.5,31.8L31.5,31.8z M32.4,31.8c-0.2,0-0.2,0-0.2,0.2l0,0c0,0,0,0.2,0.2,0.2l0,0
	c0,0,0.2,0,0.2-0.2l0,0C32.6,31.8,32.6,31.8,32.4,31.8L32.4,31.8L32.4,31.8z M33.5,31.8c-0.2,0-0.2,0-0.2,0.2c0,0.2,0.2,0.2,0.2,0.2
	s0.2,0,0.2-0.2C33.7,31.8,33.7,31.8,33.5,31.8L33.5,31.8L33.5,31.8z M34.6,31.8c-0.2,0-0.2,0-0.2,0.2c0,0.2,0,0.2,0.2,0.2l0,0
	c0,0,0.2,0,0.2-0.2l0,0C34.9,31.8,34.9,31.8,34.6,31.8L34.6,31.8L34.6,31.8z M35.6,31.8c0,0-0.2,0-0.2,0.2l0,0c0,0,0,0.2,0.2,0.2
	l0,0c0.2,0,0.2,0,0.2-0.2C35.8,31.8,35.8,31.8,35.6,31.8L35.6,31.8z M36.7,31.8c0,0-0.2,0-0.2,0.2l0,0c0,0,0,0.2,0.2,0.2l0,0
	c0,0,0.2,0,0.2-0.2l0,0C37.1,31.8,36.9,31.8,36.7,31.8C36.7,31.6,36.7,31.6,36.7,31.8L36.7,31.8z M23.8,32.7c0,0-0.2,0-0.2,0.2l0,0
	c0,0.2,0,0.2,0.2,0.2l0,0c0,0,0.2,0,0.2-0.2l0,0C24,32.9,24,32.7,23.8,32.7L23.8,32.7z M24.9,32.7c0,0-0.2,0-0.2,0.2l0,0
	c0,0,0,0.2,0.2,0.2l0,0c0.2,0,0.2,0,0.2-0.2l0,0L24.9,32.7z M26,32.7c-0.2,0-0.2,0-0.2,0.2l0,0c0,0,0,0.2,0.2,0.2l0,0
	c0,0,0.2,0,0.2-0.2l0,0L26,32.7L26,32.7z M26.9,32.7c0,0-0.2,0-0.2,0.2l0,0c0,0,0,0.2,0.2,0.2l0,0c0,0,0.2,0,0.2-0.2l0,0
	C27.2,32.9,27.2,32.7,26.9,32.7L26.9,32.7z M28.1,32.7c0,0-0.2,0-0.2,0.2l0,0c0,0,0,0.2,0.2,0.2l0,0c0,0,0.2,0,0.2-0.2l0,0
	C28.5,32.9,28.3,32.7,28.1,32.7z M29.2,32.7c-0.2,0-0.2,0-0.2,0.2l0,0c0,0.2,0,0.2,0.2,0.2l0,0c0,0,0.2,0,0.2-0.2l0,0
	C29.4,32.9,29.4,32.7,29.2,32.7L29.2,32.7z M30.1,32.7c-0.2,0-0.2,0-0.2,0.2l0,0c0,0,0,0.2,0.2,0.2l0,0c0,0,0.2,0,0.2-0.2l0,0
	C30.6,32.9,30.3,32.7,30.1,32.7L30.1,32.7z M31.5,32.7c0,0-0.2,0-0.2,0.2l0,0c0,0.2,0,0.2,0.2,0.2s0.2,0,0.2-0.2
	C31.5,32.9,31.5,32.7,31.5,32.7L31.5,32.7z M32.4,32.7c0,0-0.2,0-0.2,0.2l0,0c0,0,0,0.2,0.2,0.2l0,0c0,0,0.2,0,0.2-0.2l0,0
	C32.6,32.9,32.6,32.7,32.4,32.7L32.4,32.7z M33.5,32.7c-0.2,0-0.2,0-0.2,0.2l0,0c0,0.2,0.2,0.2,0.2,0.2s0.2,0,0.2-0.2
	C33.7,32.9,33.7,32.7,33.5,32.7L33.5,32.7L33.5,32.7z M34.6,32.7c-0.2,0-0.2,0-0.2,0.2c0,0.2,0,0.2,0.2,0.2l0,0c0,0,0.2,0,0.2-0.2
	l0,0C34.9,32.9,34.9,32.7,34.6,32.7L34.6,32.7L34.6,32.7z M35.6,32.7c0,0-0.2,0-0.2,0.2l0,0c0,0,0,0.2,0.2,0.2l0,0
	c0,0,0.2,0,0.2-0.2l0,0C36,32.9,35.8,32.7,35.6,32.7L35.6,32.7L35.6,32.7z M36.7,32.7c0,0-0.2,0-0.2,0.2l0,0c0,0.2,0,0.2,0.2,0.2
	s0.2,0,0.2-0.2C37.1,32.9,36.9,32.7,36.7,32.7L36.7,32.7L36.7,32.7z M26,33.8c-0.2,0-0.2,0-0.2,0.2c0,0.2,0,0.2,0.2,0.2
	s0.2,0,0.2-0.2C26.3,33.8,26,33.8,26,33.8L26,33.8z M26.9,33.8c-0.2,0-0.2,0-0.2,0.2c0,0.2,0,0.2,0.2,0.2s0.2,0,0.2-0.2
	C27.2,33.8,27.2,33.8,26.9,33.8z M28.1,33.8c-0.2,0-0.2,0-0.2,0.2c0,0.2,0,0.2,0.2,0.2s0.2,0,0.2-0.2l0,0
	C28.5,33.8,28.3,33.8,28.1,33.8z M29.2,33.8c-0.2,0-0.2,0-0.2,0.2c0,0.2,0,0.2,0.2,0.2l0,0c0.2,0,0.2,0,0.2-0.2
	C29.4,33.8,29.4,33.8,29.2,33.8z M30.1,33.8c-0.2,0-0.2,0-0.2,0.2c0,0.2,0,0.2,0.2,0.2s0.2,0,0.2-0.2C30.6,33.8,30.3,33.8,30.1,33.8
	z M31.5,33.8c0,0-0.2,0-0.2,0.2l0,0c0,0,0,0.2,0.2,0.2l0,0c0.2,0,0.2,0,0.2-0.2C31.7,33.8,31.5,33.8,31.5,33.8z M32.4,33.8
	c-0.2,0-0.2,0-0.2,0.2c0,0.2,0,0.2,0.2,0.2c0,0,0.2,0,0.2-0.2l0,0C32.6,33.8,32.6,33.8,32.4,33.8L32.4,33.8z M33.5,33.8
	c-0.2,0-0.2,0-0.2,0.2l0,0c0,0.2,0,0.2,0.2,0.2c0.2,0,0.2,0,0.2-0.2C33.7,33.8,33.7,33.8,33.5,33.8L33.5,33.8L33.5,33.8z M34.6,33.8
	c-0.2,0-0.2,0-0.2,0.2c0,0.2,0,0.2,0.2,0.2c0.2,0,0.2,0,0.2-0.2C34.9,33.8,34.6,33.8,34.6,33.8z M35.6,33.8c-0.2,0-0.2,0-0.2,0.2
	c0,0.2,0,0.2,0.2,0.2c0.2,0,0.2,0,0.2-0.2l0,0C36,33.8,35.8,33.8,35.6,33.8L35.6,33.8z M36.7,33.8c-0.2,0-0.2,0-0.2,0.2
	c0,0.2,0,0.2,0.2,0.2s0.2,0,0.2-0.2C37.1,33.8,36.9,33.8,36.7,33.8L36.7,33.8z M37.8,33.8c0,0-0.2,0-0.2,0.2l0,0
	c0,0.2,0,0.2,0.2,0.2l0,0c0,0,0.2,0,0.2-0.2C38,33.8,38,33.8,37.8,33.8L37.8,33.8L37.8,33.8z M30.1,34.9c-0.2,0-0.2,0-0.2,0.2
	c0,0,0,0.2,0.2,0.2s0.2,0,0.2-0.2l0,0C30.6,34.9,30.3,34.9,30.1,34.9L30.1,34.9z M31.5,34.9c-0.2,0-0.2,0-0.2,0.2l0,0
	c0,0.2,0,0.2,0.2,0.2s0.2,0,0.2-0.2l0,0C31.5,34.9,31.5,34.9,31.5,34.9L31.5,34.9z M32.4,34.9c-0.2,0-0.2,0-0.2,0.2s0,0.2,0.2,0.2
	l0,0c0,0,0.2,0,0.2-0.2l0,0C32.6,34.9,32.6,34.9,32.4,34.9L32.4,34.9z M33.5,34.9c-0.2,0-0.2,0-0.2,0.2s0,0.2,0.2,0.2
	c0.2,0,0.2,0,0.2-0.2S33.7,34.9,33.5,34.9L33.5,34.9z M34.6,34.9c-0.2,0-0.2,0-0.2,0.2s0,0.2,0.2,0.2c0,0,0.2,0,0.2-0.2l0,0
	C34.9,34.9,34.9,34.9,34.6,34.9L34.6,34.9L34.6,34.9z M35.6,34.9c-0.2,0-0.2,0-0.2,0.2l0,0c0,0,0,0.2,0.2,0.2l0,0
	c0.2,0,0.2,0,0.2-0.2l0,0C36,34.9,35.8,34.9,35.6,34.9L35.6,34.9z M34.6,36.1c-0.2,0-0.2,0-0.2,0.2c0,0.2,0,0.2,0.2,0.2
	c0.2,0,0.2,0,0.2-0.2l0,0C34.9,36.1,34.9,36.1,34.6,36.1L34.6,36.1z M35.6,36.1c0,0-0.2,0-0.2,0.2l0,0c0,0,0,0.2,0.2,0.2l0,0
	c0.2,0,0.2,0,0.2-0.2C36,36.1,35.8,36.1,35.6,36.1L35.6,36.1z M33.5,36.1c-0.2,0-0.2,0-0.2,0.2c0,0.2,0,0.2,0.2,0.2
	c0.2,0,0.2,0,0.2-0.2C33.7,36.1,33.7,36.1,33.5,36.1L33.5,36.1L33.5,36.1z"/>
<ellipse class="st2" cx="25.4" cy="25.5" rx="24.9" ry="24.7"/>
</svg>
