<?xml version="1.0" encoding="utf-8"?>
<!-- Generator: Adobe Illustrator 25.2.0, SVG Export Plug-In . SVG Version: 6.00 Build 0)  -->
<svg version="1.1" id="Layer_1" xmlns="http://www.w3.org/2000/svg" xmlns:xlink="http://www.w3.org/1999/xlink" x="0px" y="0px"
	 viewBox="0 0 51 51" style="enable-background:new 0 0 51 51;" xml:space="preserve">
<style type="text/css">
	.st0{fill:#1B74BB;}
	.st1{fill:none;stroke:#FFFFFF;stroke-miterlimit:10;}
	.st2{fill:#FFFFFF;}
</style>
<circle class="st0" cx="25.6" cy="25.6" r="24.3"/>
<ellipse class="st1" cx="25.6" cy="26" rx="24.9" ry="24.7"/>
<g>
	<g>
		<g>
			<circle class="st2" cx="25.6" cy="17.6" r="3"/>
			<path class="st2" d="M36.3,26.1l-2.8-0.6c-0.9-0.2-2,0.3-2.4,1c-0.5-0.3-1-0.5-1.6-0.7v-1.7c0-1.3-1.1-2.4-2.4-2.4h-2.9
				c-1.3,0-2.4,1.1-2.4,2.4v1.7c-0.5,0.2-1.1,0.4-1.6,0.7c-0.5-0.8-1.5-1.2-2.4-1L15,26.1c-1.3,0.3-2.1,1.5-1.8,2.8l0.7,3.4
				c0.3,1.3,1.5,2.1,2.8,1.8l0.9-0.2c0.5,0.7,1.1,1.3,1.9,1.8c1.7,1.1,3.9,1.7,6.2,1.7c3.6,0,6.7-1.4,8.1-3.5l0.9,0.2
				c1.3,0.3,2.5-0.5,2.8-1.8l0.7-3.4C38.4,27.6,37.6,26.3,36.3,26.1z M25.6,36.3c-2.1,0-4.1-0.5-5.6-1.5c-0.5-0.3-0.9-0.7-1.3-1.1
				l0.7-0.1c1.3-0.3,2.1-1.5,1.8-2.8l-0.7-3.1c0.4-0.2,0.7-0.4,1.2-0.5v0.5c0,1.3,1.1,2.4,2.4,2.4H27c1.3,0,2.4-1.1,2.4-2.4v-0.6
				c0.4,0.1,0.8,0.3,1.2,0.5l-0.7,3.1c-0.3,1.3,0.5,2.5,1.8,2.8l0.7,0.1C31.2,35.2,28.6,36.3,25.6,36.3z"/>
			<circle class="st2" cx="35.7" cy="21.7" r="3"/>
			<path class="st2" d="M16.2,24.7c1.7-0.3,2.7-2,2.4-3.6c-0.3-1.7-2-2.7-3.6-2.4c-1.7,0.3-2.7,2-2.4,3.6
				C12.9,24,14.5,25.1,16.2,24.7z"/>
		</g>
	</g>
</g>
</svg>
