<?xml version="1.0" encoding="utf-8"?>
<!-- Generator: Adobe Illustrator 25.2.0, SVG Export Plug-In . SVG Version: 6.00 Build 0)  -->
<svg version="1.1" id="Layer_1" xmlns="http://www.w3.org/2000/svg" xmlns:xlink="http://www.w3.org/1999/xlink" x="0px" y="0px"
	 viewBox="0 0 51 51" style="enable-background:new 0 0 51 51;" xml:space="preserve">
<style type="text/css">
	.st0{fill:#1B74BB;}
	.st1{fill:none;stroke:#FFFFFF;stroke-miterlimit:10;}
	.st2{fill:#FFFFFF;}
</style>
<circle class="st0" cx="25.6" cy="25.1" r="24.3"/>
<ellipse class="st1" cx="25.6" cy="25.5" rx="24.9" ry="24.7"/>
<g id="_x23_000000ff">
	<path class="st2" d="M25.2,13.7c0.7-0.3,1.6,0.3,1.5,1.1c0,3.1,0,6.2,0,9.3c3.2,0,6.4,0,9.6,0c0.6,0,1.2,0.5,1.2,1.1
		c0.1,0.6-0.5,1.2-1.2,1.2c-7.1,0-14.3,0-21.4,0c-0.6,0-1.1-0.4-1.2-1c-0.1-0.7,0.5-1.3,1.2-1.2c3.2,0,6.4,0,9.6,0
		c0-3.1,0-6.2,0-9.3C24.4,14.3,24.7,13.8,25.2,13.7z"/>
	<path class="st2" d="M17.3,27.7c0.3-0.1,0.6-0.1,0.8-0.1c5.1,0,10.3,0,15.4,0c0.9,0,1.4,1.2,0.8,1.9c-0.3,0.4-0.8,0.4-1.2,0.4
		c-5.1,0-10.3,0-15.4,0c-0.5,0-1-0.2-1.2-0.7C16.4,28.6,16.7,27.9,17.3,27.7z"/>
	<path class="st2" d="M20.2,31.3c0.3-0.1,0.7-0.1,1-0.1c3.1,0,6.3,0,9.4,0c0.7,0,1.3,0.7,1.1,1.4c-0.1,0.5-0.7,0.9-1.2,0.8
		c-3.3,0-6.5,0-9.8,0c-0.5,0-1-0.2-1.2-0.7C19.3,32.3,19.6,31.5,20.2,31.3z"/>
	<path class="st2" d="M23.3,34.9c1.4-0.1,2.9,0,4.3,0c0.7-0.1,1.3,0.6,1.2,1.2c0,0.6-0.6,1.1-1.2,1c-1.3,0-2.7,0-4,0
		c-0.5,0-1-0.3-1.1-0.8C22.3,35.7,22.7,35.1,23.3,34.9z"/>
</g>
</svg>
