<?xml version="1.0" encoding="utf-8"?>
<!-- Generator: Adobe Illustrator 25.2.0, SVG Export Plug-In . SVG Version: 6.00 Build 0)  -->
<svg version="1.1" id="Layer_1" xmlns="http://www.w3.org/2000/svg" xmlns:xlink="http://www.w3.org/1999/xlink" x="0px" y="0px"
	 viewBox="0 0 51 51" style="enable-background:new 0 0 51 51;" xml:space="preserve">
<style type="text/css">
	.st0{fill:#1B74BB;}
	.st1{fill:none;stroke:#FFFFFF;stroke-miterlimit:10;}
	.st2{fill:#FFFFFF;}
</style>
<circle class="st0" cx="25.6" cy="25.1" r="24.3"/>
<ellipse class="st1" cx="25.6" cy="25.5" rx="24.9" ry="24.7"/>
<g id="_x23_1c1c1cff">
</g>
<g id="_x23_ffffffff">
</g>
<g id="_x23_8d8d8dff">
	<path class="st2" d="M18.6,8.7c1.1-0.2,2.2,0.1,3.2,0.4c1.3,0.3,2.7,0.7,4,0.4c0.1,0.5-0.1,1.1-0.2,1.6c-0.5,1.6-1.1,3.1-1.8,4.6
		c1.2,1.2,2.4,2.3,3.5,3.6c0.1,0.1,0.3,0.3,0.2,0.5c0,0.2-0.4,0.2-0.5,0.1c-1.1-1.2-2.3-2.5-3.5-3.6c-1.1,0.7-2.6,0.7-3.8,0
		c-2.1,2.1-4.1,4.3-5.7,6.9c-1.2,2-2.3,4.3-2,6.6c0.1,1.7,1,3.3,2.4,4.3c1.8,1.4,4.2,1.9,6.4,1.9c1.5,0,3.1,0,4.6-0.4
		c0.2,0.1,0.3,0.5,0,0.6c-1.9,0.5-3.9,0.5-5.9,0.3c-2.3-0.2-4.7-1-6.3-2.7c-1.7-1.8-2.2-4.6-1.5-6.9c0.6-2,1.6-3.8,2.8-5.5
		c1.4-2,3-3.8,4.8-5.5c-0.7-1.4-1.4-2.8-2.1-4.3c-0.2-0.5-0.5-0.9-0.5-1.4C17.1,9.4,17.8,8.9,18.6,8.7 M17.4,10.3
		c0.7,1.6,1.5,3.2,2.3,4.8c0.2,0.3,0.3,0.8,0.8,0.9c0.9,0.4,1.9,0.3,2.7-0.1c0.1-0.1,0.2-0.2,0.2-0.4c0.7-1.7,1.4-3.4,1.9-5.2
		c-1.2,0.1-2.4-0.2-3.5-0.5c-1-0.3-2-0.6-3.1-0.4C18.1,9.4,17.7,9.8,17.4,10.3z"/>
	<path class="st2" d="M21.4,20.8c0.2,0,0.4,0,0.6,0c0,0.5,0,1,0,1.5c0.5,0,1.1,0.1,1.5,0.5c0.5,0.4,0.4,1.1,0.4,1.7
		c-0.2,0-0.4,0-0.6,0c0-0.4,0.1-0.9-0.3-1.3c-0.4-0.5-1.2-0.3-1.7-0.3c-0.5-0.1-1,0.2-1.1,0.7c-0.1,0.4,0,0.8,0,1.3
		c0,0.4,0.3,0.8,0.6,0.9c0.7,0.2,1.4,0.5,2.1,0.7c0.6,0.2,1.1,0.9,1,1.5c0,0.6,0.1,1.3-0.3,1.8c-0.4,0.5-1,0.6-1.5,0.6
		c0,0.5,0,1,0,1.5c-0.2,0-0.4,0-0.6,0c0-0.5,0-1,0-1.5c-0.6,0.1-1.2-0.1-1.6-0.6c-0.4-0.4-0.3-1-0.3-1.5c0.2,0,0.4,0,0.6,0
		c0,0.5-0.1,1,0.3,1.3c0.5,0.4,1.2,0.2,1.7,0.3c0.6,0.1,1.1-0.4,1.1-1c0-0.6,0.2-1.4-0.5-1.8c-0.7-0.3-1.4-0.5-2.2-0.8
		c-0.7-0.2-1.1-0.8-1.1-1.5c0-0.6-0.1-1.4,0.3-1.9c0.3-0.5,1-0.6,1.5-0.6C21.4,21.8,21.4,21.3,21.4,20.8z"/>
	<path class="st2" d="M27.1,21.2c4,0,8.1,0,12.1,0c0.1,0.3,0.1,0.6,0.1,0.9c0,4.7,0,9.4,0,14.2c0,0.2-0.1,0.4-0.3,0.3
		c-3.9,0-7.8,0-11.7,0c-0.2,0-0.3-0.1-0.4-0.2c0-4.7,0-9.5,0-14.2C27,21.8,26.9,21.5,27.1,21.2 M27.6,21.7c0,1,0,2.1,0,3.1
		c3.7,0,7.5,0,11.2,0c0-1,0-2.1,0-3.1C35,21.7,31.3,21.7,27.6,21.7 M27.5,25.4c0,1,0,2.1,0,3.1c1,0,2.1,0,3.1,0c0-1,0-2.1,0-3.1
		C29.6,25.4,28.6,25.4,27.5,25.4 M31.3,25.4c0,1,0,2.1,0,3.1c1,0,2.1,0,3.1,0c0-1,0-2.1,0-3.1C33.3,25.4,32.3,25.4,31.3,25.4
		 M34.9,25.4c0,1,0,2.1,0,3.1c1.3,0,2.5,0,3.8,0c0-1,0-2.1,0-3.1C37.5,25.4,36.2,25.4,34.9,25.4 M27.5,29.1c0,1.1,0,2.1,0,3.2
		c1,0,2.1,0,3.1,0c0-1.1,0-2.1,0-3.2C29.6,29.1,28.6,29.1,27.5,29.1 M31.3,29.1c0,1.1,0,2.1,0,3.2c1,0,2.1,0,3.1,0
		c0-1.1,0-2.1,0-3.2C33.3,29.1,32.3,29.1,31.3,29.1 M34.9,29.1c0,2.3,0,4.6,0,6.9c1.3,0,2.5,0,3.8,0c0-2.3,0-4.6,0-6.9
		C37.5,29.1,36.2,29.1,34.9,29.1 M27.5,32.9c0,1,0,2.1,0,3.1c1,0,2.1,0,3.1,0c0-1,0-2.1,0-3.1C29.6,32.9,28.6,32.8,27.5,32.9
		 M31.3,32.9c0,1,0,2.1,0,3.1c1,0,2.1,0,3.1,0c0.1-1,0-2.1,0-3.1C33.3,32.9,32.3,32.9,31.3,32.9z"/>
</g>
</svg>
