<?xml version="1.0" encoding="utf-8"?>
<!-- Generator: Adobe Illustrator 25.2.0, SVG Export Plug-In . SVG Version: 6.00 Build 0)  -->
<svg version="1.1" id="Layer_1" xmlns="http://www.w3.org/2000/svg" xmlns:xlink="http://www.w3.org/1999/xlink" x="0px" y="0px"
	 viewBox="0 0 51 51" style="enable-background:new 0 0 51 51;" xml:space="preserve">
<style type="text/css">
	.st0{fill:#1B74BB;}
	.st1{fill:none;stroke:#FFFFFF;stroke-miterlimit:10;}
	.st2{fill:#FFFFFF;}
</style>
<circle class="st0" cx="25.6" cy="25.6" r="24.3"/>
<ellipse class="st1" cx="25.6" cy="26" rx="24.9" ry="24.7"/>
<g id="Page-1">
	<g id="_x30_26---Idea">
		<path id="Shape" class="st2" d="M41.7,23.6c-0.1-0.6-0.6-1-1.3-1h-1.2L39.1,22c-0.1-0.5-0.5-1-1.1-1.1c-0.1,0-0.2,0-0.4,0
			c0.2-1,0-2-0.5-2.9c0.3-0.7,0.2-1.5-0.1-2.2s-1-1.2-1.8-1.3C34.8,11.9,32.6,10,30,10c-0.1,0-0.1,0-0.2,0c-0.4-0.7-1.1-1.1-1.9-1.2
			c-0.8-0.1-1.5,0.2-2.1,0.7c-0.7-0.5-1.5-0.7-2.4-0.7c-1.4,0-2.7,0.6-3.5,1.7C19,10.3,18,10.4,17.2,11c-0.8,0.6-1.3,1.4-1.4,2.4
			c-1,0.4-1.6,1.4-1.6,2.4c0,0.2,0,0.4,0.1,0.5c-0.9,1.3-1.1,2.9-0.6,4.4c-0.2,0-0.3,0-0.5,0.1c-0.6,0.1-1,0.5-1.1,1.1L12,22.5h-1.2
			c-0.6,0-1.1,0.4-1.3,1L6.6,38c-0.1,0.6,0,1.1,0.4,1.6s0.9,0.7,1.5,0.7h13.4c0.5,0.9,2.1,1.3,3.7,1.3c1.5,0,3.1-0.4,3.7-1.3h13.4
			c0.6,0,1.1-0.3,1.5-0.7c0.4-0.4,0.5-1,0.4-1.6L41.7,23.6z M16.1,17c-0.5-0.3-0.8-0.9-0.6-1.5s0.7-1,1.3-1c0.4,0,0.8,0.2,1.1,0.5
			c0.1,0.2,0.4,0.3,0.6,0.3c0.2,0,0.4-0.2,0.5-0.4c0.1-0.2,0.1-0.5-0.1-0.6c-0.4-0.6-1.1-1-1.8-1c0.2-0.9,1-1.5,1.9-1.5
			c0.1,0,0.2,0,0.2,0c-0.1,0.1-0.1,0.3-0.1,0.4c-0.1,0.3,0.1,0.7,0.5,0.8c0.3,0.1,0.7-0.1,0.8-0.4c0.1-0.3,0.2-0.6,0.3-0.8
			c0.6-1,1.6-1.5,2.7-1.5c0.6,0,1.2,0.2,1.7,0.5C25,10.9,25,11.2,25,11.5c0,0.4,0.3,0.6,0.6,0.6s0.6-0.3,0.6-0.6
			c0-0.7,0.6-1.4,1.4-1.4c0.7,0,1.4,0.6,1.4,1.4c0,0.4,0.3,0.6,0.6,0.6c0.4,0,0.6-0.3,0.6-0.6c0,0,0-0.1,0-0.1
			c1.8,0.1,3.4,1.4,3.8,3.2c-0.3,0.1-0.6,0.2-0.8,0.4c-0.2,0.1-0.3,0.4-0.3,0.6s0.2,0.4,0.4,0.5s0.5,0.1,0.6-0.1
			c0.5-0.4,1.2-0.3,1.7,0.1c0.5,0.4,0.6,1.1,0.3,1.7c-0.1,0.2-0.4,0.4-0.6,0.6c-0.3,0.1-0.4,0.4-0.3,0.7c0.1,0.3,0.3,0.5,0.6,0.5
			c0.1,0,0.2,0,0.3-0.1c0.2-0.1,0.3-0.2,0.5-0.3c0.3,0.9,0.1,2-0.5,2.7l0,0c-0.8,0.9-2.2,1.2-3.3,0.6c-0.1-0.1-0.2-0.1-0.3-0.2
			c0.5-0.7,0.5-1.5,0.2-2.3c-0.1-0.2-0.3-0.3-0.5-0.4c-0.2,0-0.4,0.1-0.6,0.3c-0.1,0.2-0.1,0.4,0,0.6c0.2,0.4,0.1,0.9-0.3,1.2
			C30.7,22,30.4,22,30.1,22c-0.3-0.1-0.5-0.2-0.6-0.5c-0.1-0.2-0.3-0.3-0.5-0.4s-0.4,0.1-0.6,0.3c-0.1,0.2-0.1,0.4,0,0.6
			c0.4,0.8,1.2,1.2,2,1.2c0.3,0,0.5-0.1,0.8-0.2c0.2,0.2,0.5,0.4,0.8,0.5c0.9,0.5,2,0.6,3,0.3c-0.6,0.9-1.6,1.4-2.6,1.6
			c-0.3,0.1-0.6,0.4-0.5,0.7c0,0.3,0.3,0.6,0.6,0.6c0,0,0.1,0,0.1,0c0.4-0.1,0.8-0.2,1.1-0.3c0.2,0.3,0.4,0.7,0.5,1.1
			c0,0.1,0,0.1,0,0.2c0,0.3-0.2,0.5-0.4,0.6c-0.3,0.1-0.6,0-0.8-0.2c-0.5-0.6-1.1-1-1.9-1.2c-1.4-0.5-1.9-0.9-2.1-1.3
			c0.3,0,0.7-0.1,1-0.2c0.2-0.1,0.4-0.2,0.4-0.5c0.1-0.2,0-0.5-0.2-0.6c-0.2-0.2-0.4-0.2-0.6-0.1c-0.4,0.1-0.7,0.2-1.1,0.2
			c-0.7,0.1-1.5-0.1-2.1-0.3c-0.3-0.1-0.5,0-0.7,0.2c-0.9,1.1-2.5,1.3-3.7,0.4c-1.2-0.8-1.5-2.4-0.7-3.6c0.1-0.2,0.1-0.4,0-0.6
			c-0.1-0.2-0.3-0.3-0.6-0.3c-0.2,0-0.4,0.1-0.6,0.3c-0.2,0.3-0.3,0.5-0.4,0.8c-0.5,0-0.9-0.4-0.9-0.9v0c0-0.2-0.1-0.3-0.2-0.5
			s-0.3-0.2-0.5-0.2c-0.4,0-0.6,0.3-0.6,0.6c0,1.1,0.9,2.1,2,2.2c0,0.2,0,0.4,0.1,0.6c-1.4,0.3-2.9-0.2-3.9-1.3
			c-0.9-1.1-1.2-2.7-0.6-4c0.1,0.1,0.3,0.3,0.5,0.4c0.3,0.2,0.7,0.1,0.9-0.2C16.5,17.6,16.4,17.2,16.1,17L16.1,17z M13.3,22.2
			c0.3,0,0.6-0.1,0.9-0.1c1.2,1.9,3.5,2.8,5.6,2.3c0.6,1.1,1.7,1.9,2.9,2.1c1.2,0.2,2.5-0.2,3.4-1c0.4,0.1,0.9,0.2,1.3,0.2
			c0.3,1.2,1.2,1.9,3.1,2.5c0.5,0.2,1,0.5,1.3,0.9c0.4,0.5,1,0.7,1.6,0.7c0.3,0,0.5-0.1,0.8-0.2c0.7-0.3,1.2-1,1.2-1.8
			c0-0.2,0-0.4-0.1-0.6c-0.1-0.5-0.3-0.9-0.6-1.3c1.1-0.8,1.9-1.9,2.1-3.3c0.1-0.2,0.3-0.3,0.4-0.5c0.2,0,0.4,0.1,0.6,0.1l2.3,13.9
			c-4.5-1.5-9.4-1.5-14,0v-8c0-0.4-0.3-0.6-0.6-0.6S25,27.7,25,28.1v8c-4.5-1.5-9.4-1.5-14,0L13.3,22.2z M8,38.8
			c-0.1-0.1-0.2-0.3-0.1-0.5l2.8-14.4h1l-2,12.1c-0.1,0.4,0.1,0.9,0.4,1.2s0.8,0.4,1.2,0.3c3.4-1.1,7.1-1.3,10.6-0.7L21.8,39H8.5
			C8.3,39,8.2,38.9,8,38.8z M25.6,40.3c-1.5,0-2.4-0.5-2.6-0.7l0.2-2.7c0.7,0.2,1.4,0.4,2.1,0.7c0.1,0,0.2,0.1,0.3,0.1
			c0.1,0,0.2,0,0.3-0.1c0.7-0.3,1.4-0.5,2.1-0.7l0.2,2.7C28,39.8,27.1,40.3,25.6,40.3L25.6,40.3z M43.2,38.8
			C43,38.9,42.9,39,42.7,39H29.4l-0.2-2.3c3.5-0.7,7.2-0.4,10.6,0.7c0.4,0.1,0.9,0,1.2-0.3c0.3-0.3,0.5-0.7,0.4-1.2l-2-12.1h1
			l2.8,14.4C43.3,38.4,43.3,38.6,43.2,38.8L43.2,38.8z"/>
		<path id="Shape_1_" class="st2" d="M23.5,18.3c-0.3,0.2-0.3,0.6,0,0.9c0.5,0.6,1.3,1,2.1,1.2c-0.4,0.5-0.9,0.8-1.6,0.8
			c-0.4,0-0.6,0.3-0.6,0.6s0.3,0.6,0.6,0.6c1.3,0,2.5-0.8,3-2.1c1.6-0.3,2.9-1.5,3.2-3.1c0-0.2,0-0.5-0.2-0.6
			c-0.2-0.2-0.4-0.2-0.6-0.1c-0.2,0.1-0.4,0.3-0.4,0.5c-0.1,0.7-0.5,1.2-1.1,1.6c-1.1,0.7-2.5,0.6-3.4-0.4
			C24.1,18,23.7,18,23.5,18.3L23.5,18.3z"/>
		<path id="Shape_2_" class="st2" d="M21.2,17.6c0.4,0,0.6-0.3,0.6-0.6c0-0.4,0.2-0.9,0.5-1.2c0.3-0.3,0.7-0.5,1.2-0.5
			c0.4,0,0.6-0.3,0.6-0.6c0-0.4-0.3-0.6-0.6-0.6c-1.6,0-3,1.3-3,3c0,0.2,0.1,0.3,0.2,0.5C20.9,17.5,21.1,17.6,21.2,17.6z"/>
		<path id="Shape_3_" class="st2" d="M26.2,5V4.3c0-0.4-0.3-0.6-0.6-0.6S25,4,25,4.3V5c0,0.4,0.3,0.6,0.6,0.6S26.2,5.3,26.2,5z"/>
		<path id="Shape_4_" class="st2" d="M36.1,8.3l-0.6,0.6c-0.2,0.2-0.2,0.4-0.2,0.6c0.1,0.2,0.2,0.4,0.5,0.5c0.2,0.1,0.5,0,0.6-0.2
			L37,9.2c0.2-0.2,0.2-0.4,0.2-0.6S37,8.2,36.8,8.1S36.3,8.1,36.1,8.3z"/>
		<path id="Shape_5_" class="st2" d="M15.3,10c0.3,0,0.5-0.2,0.6-0.4c0.1-0.2,0-0.5-0.1-0.7l-0.6-0.6c-0.2-0.2-0.4-0.2-0.6-0.2
			C14.2,8.2,14,8.4,14,8.6s0,0.5,0.2,0.6l0.6,0.6C14.9,10,15.1,10,15.3,10z"/>
		<path id="Shape_6_" class="st2" d="M20.2,7.3c0.1,0,0.2,0,0.2,0c0.2-0.1,0.3-0.2,0.3-0.3s0.1-0.3,0-0.5l-0.7-1.8
			c-0.1-0.2-0.3-0.4-0.5-0.4s-0.5,0.1-0.6,0.2s-0.2,0.4-0.1,0.6l0.7,1.8C19.7,7.2,19.9,7.3,20.2,7.3L20.2,7.3z"/>
		<path id="Shape_7_" class="st2" d="M32,4.3c-0.3-0.1-0.7,0-0.8,0.3l-0.7,1.8c-0.1,0.2-0.1,0.3,0,0.5c0.1,0.2,0.2,0.3,0.3,0.3
			c0.1,0,0.2,0,0.2,0c0.3,0,0.5-0.2,0.6-0.4l0.7-1.8c0.1-0.2,0.1-0.3,0-0.5C32.3,4.5,32.1,4.4,32,4.3z"/>
		<path id="Shape_8_" class="st2" d="M38.6,15c0.1,0,0.2,0,0.2,0l1.8-0.7c0.2-0.1,0.4-0.3,0.4-0.5c0-0.2-0.1-0.5-0.2-0.6
			c-0.2-0.1-0.4-0.2-0.6-0.1l-1.8,0.7c-0.3,0.1-0.4,0.4-0.4,0.7C38.1,14.8,38.3,15,38.6,15L38.6,15z"/>
		<path id="Shape_9_" class="st2" d="M12.3,14.9c0.3,0.1,0.7,0,0.8-0.3s0-0.7-0.3-0.8L11,13c-0.3-0.1-0.7,0-0.8,0.3
			c-0.1,0.3,0,0.7,0.3,0.8L12.3,14.9z"/>
	</g>
</g>
</svg>
