<?xml version="1.0" encoding="utf-8"?>
<!-- Generator: Adobe Illustrator 25.2.0, SVG Export Plug-In . SVG Version: 6.00 Build 0)  -->
<svg version="1.1" id="Layer_1" xmlns="http://www.w3.org/2000/svg" xmlns:xlink="http://www.w3.org/1999/xlink" x="0px" y="0px"
	 viewBox="0 0 51 51" style="enable-background:new 0 0 51 51;" xml:space="preserve">
<style type="text/css">
	.st0{fill:#1B74BB;}
	.st1{fill:none;stroke:#FFFFFF;stroke-miterlimit:10;}
	.st2{fill:#FFFFFF;}
</style>
<circle class="st0" cx="25.6" cy="25.1" r="24.3"/>
<ellipse class="st1" cx="25.6" cy="25.5" rx="24.9" ry="24.7"/>
<g id="_x23_1c1c1cff">
</g>
<g id="_x23_000000ff">
	<path class="st2" d="M15.5,15.6c0.7,0,1.5,0,2.2,0c6.1,0,12.2,0,18.2,0c0.2,0,0.5,0,0.7,0c0.5,0.1,1,0.4,1.3,0.8
		c0.3,0.4,0.4,0.8,0.4,1.2c0,5.1,0,10.2,0,15.3c0,0.2,0,0.4,0,0.6c-0.1,0.4-0.2,0.8-0.5,1.1c-0.4,0.4-1,0.7-1.5,0.7
		c-6.9,0-13.7,0-20.6,0c-0.5,0-0.9-0.2-1.3-0.4c-0.5-0.4-0.8-1-0.8-1.6c0-5.2,0-10.4,0-15.6c0-0.5,0.1-0.9,0.4-1.3
		C14.4,16,14.9,15.7,15.5,15.6 M15.5,17.3c-0.2,0-0.3,0.2-0.3,0.4c0,0.1,0,0.1,0,0.2c0,5.2,0,10.3,0,15.5c0,0.2,0.2,0.4,0.4,0.4
		c6.9,0,13.7,0,20.6,0c0.2,0,0.4-0.2,0.4-0.4c0-5.2,0-10.4,0-15.6c0-0.2-0.2-0.4-0.4-0.4c-6.8,0-13.6,0-20.4,0
		C15.7,17.3,15.6,17.3,15.5,17.3z"/>
	<path class="st2" d="M19,18.9c0.6-0.1,1.1,0,1.6,0.3c0.5,0.3,0.9,0.8,1.1,1.4c0.2,0.6,0.1,1.2-0.1,1.8c-0.3,0.6-0.9,1.1-1.6,1.3
		c-0.5,0.1-1,0.1-1.5,0c-0.6-0.2-1.1-0.6-1.4-1.2c-0.3-0.5-0.3-1.2-0.2-1.8c0.2-0.6,0.5-1.1,1-1.4C18.3,19.1,18.6,19,19,18.9z"/>
	<path class="st2" d="M23,27.6c2.2-2.2,4.4-4.4,6.6-6.6c1.8,1.8,3.6,3.6,5.4,5.4c0,1.9,0,3.8,0,5.8c-6,0-12.1,0-18.1,0
		c0-0.8,0-1.6,0-2.5c1.4-1.4,2.7-2.7,4.1-4.1C21.7,26.2,22.4,26.9,23,27.6z"/>
</g>
</svg>
